<svg xmlns="http://www.w3.org/2000/svg" width="548.487" height="409.95"><path data-name="前面オブジェクトで型抜き 3" d="M49.131 409.95a20.138 20.138 0 01-7.237-1.867 3354.857 3354.857 0 01-30.4-12.335c-4.324-1.78-8.7-3.849-10.556-7.822-1.984-4.248-.468-9.185 1.255-13.878l6.723-18.315 6.887-18.763c1.137-3.1 2.425-6.606 4.846-9.185a9.815 9.815 0 016.92-3.235 6.643 6.643 0 012.523.484c2.488 1.015 4.266 3.449 5.986 5.8 2.049 2.8 3.984 5.454 6.911 5.454a5.214 5.214 0 00.932-.087c2.766-.5 4.279-3.139 5.742-5.686.348-.605.706-1.229 1.071-1.8 3.213-5.064 8.686-8.048 13.979-10.933 1.174-.64 2.387-1.3 3.549-1.972a34.715 34.715 0 009.423-7.8 36.677 36.677 0 005.737-9.565c2.87-6.839 4.13-14.633 5.349-22.17 1.655-10.234 3.366-20.816 9.087-29.546 6.163-9.406 17.536-15.021 30.422-15.021a40.867 40.867 0 0123.023 6.9c.4.276.808.564 1.2.843l.013.009.786.555c.026.016 2.639 1.572 3.838 1.572a9.745 9.745 0 002.31.666 8.987 8.987 0 001.331.1c3.03 0 5.883-1.613 8.481-4.8a37.6 37.6 0 005.4-9.759 446.127 446.127 0 0146.748-87.32c4.143-6.019 9.169-12.6 16.418-14.542a18.068 18.068 0 014.731-.6c4.8 0 9.693 1.721 14.423 3.385l.113.04c4.785 1.685 9.734 3.428 14.771 3.428.49 0 .979-.017 1.456-.05.393-.028.854-.037 1.343-.047a23.544 23.544 0 004.109-.345 5.673 5.673 0 001.4-.586 1.815 1.815 0 01.409-.19.018.018 0 01.016.006c6.366-2.783 11.69-8.4 16.839-13.833a90.472 90.472 0 0111.415-10.74c6.564-4.841 14.373-7.508 21.926-10.088q30.686-10.482 61.371-20.968c10.808-3.692 23.058-7.876 33.816-14.161a74.9 74.9 0 0012.466-9c6.919-6.242 12.519-14.044 17.935-21.589C460 25.533 463.752 20.3 467.849 15.63a62 62 0 0113.936-12.176A17.943 17.943 0 01492.148 0a11.824 11.824 0 016.663 1.866c5.353 3.549 8.417 9.883 10.879 14.972 4.941 10.22 10.05 20.787 11.364 32.3.207 1.81.323 3.679.436 5.486.3 4.848.612 9.859 2.712 14.271 2.422 5.089 6.949 8.827 11.327 12.442 4.705 3.886 9.571 7.9 11.747 13.579 1.89 4.93 1.568 10.413-.958 16.3a48.2 48.2 0 01-10.149 14.346c-1.66 1.661-3.425 3.32-5.132 4.923-6.709 6.3-13.644 12.817-16.46 21.532a36.112 36.112 0 00-1.432 8.755v.078c-.025 3.185-.408 19.348-5.477 24.82-3.155 3.405-7.36 5.652-11.426 7.825-.691.369-1.4.75-2.109 1.135-13.188 7.205-24.988 16.961-36.4 26.4-7.177 5.933-14.6 12.066-22.3 17.519l-.236.167a19.522 19.522 0 00-5.484 5.022c-2.479 3.862-1.84 8.422-1.164 13.25.572 4.08 1.163 8.3-.33 12.019a12.446 12.446 0 01-5.082 5.847 17.325 17.325 0 01-7.572 2.488 21.7 21.7 0 01-1.832.077c-4.875 0-9.649-1.605-13.676-3.176a118.654 118.654 0 01-24.111-12.775c-3.259-2.24-7.569-5.759-7.378-10.428a14.049 14.049 0 011.147-4.358c.3-.775.6-1.575.821-2.381a13.151 13.151 0 00-6.47-14.713 11.088 11.088 0 00-5.122-1.156c-6.232 0-13.455 4.025-19.259 7.259-1.44.8-2.8 1.559-4.01 2.179a78.746 78.746 0 00-14.007 8.822 40.559 40.559 0 00-10.634 12.539 34.87 34.87 0 01-5.254 7.89 17.559 17.559 0 01-6.857 4.433 39.135 39.135 0 01-5.329 1.55 58.155 58.155 0 00-7.827 2.614c-4.305 1.657-8.757 3.37-12.929 3.37a13.23 13.23 0 01-2.836-.3 25.522 25.522 0 01-5.258-2.006c-.88-.412-1.786-.837-2.7-1.2a23.965 23.965 0 00-8.872-1.665 24.723 24.723 0 00-13.082 3.724 30.733 30.733 0 00-9.771 10.466 104.31 104.31 0 00-6.434 13.537c-3.067 7.329-6.237 14.907-11.632 20.577a29.836 29.836 0 01-9.244 6.566 26.969 26.969 0 01-11 2.44c-.362 0-.725-.008-1.083-.024-8.19-.362-15.829-5.028-19.463-11.886a54.525 54.525 0 01-1.019-2.071c-1.33-2.8-2.7-5.7-5.523-6.758a6.437 6.437 0 00-1.779-.362 13.852 13.852 0 00-3.18.86 33.67 33.67 0 00-17.3 8.953c-4.76 4.386-8.822 9.9-12.75 15.226-4.091 5.55-8.32 11.289-13.3 15.674-20.112 17.718-39.72 35.18-58.442 54.023-1.851 1.864-4.155 4.183-7.069 4.867a8.607 8.607 0 01-1.97.221zm235.148-263.916c-.005.007-.025.1-.1.447-1.9 8.657-4.116 15.239-6.235 18.534a74.954 74.954 0 01-11.068 13.067c-.8.605-1.627 1.208-2.423 1.791a59.4 59.4 0 00-8.263 6.853 37.087 37.087 0 00-3.6 4.536l-.269.255c-.22.208-.44.417-.658.628-4.048 3.909-6.445 8.991-7.328 15.535a17.065 17.065 0 00.125 5.433 13.6 13.6 0 00.761 3.19 5.789 5.789 0 001.7 2.612 4.235 4.235 0 002.723.9 6.794 6.794 0 011.041.11 6.773 6.773 0 001.06.111 3.028 3.028 0 00.427-.029 9.069 9.069 0 002.559-.831 24.081 24.081 0 004.653-3.085c.842-.667 1.7-1.362 2.629-2.127l.616-.586-.067-.044 1.7-2.8.161-.266c1.156-1.9 2.351-3.874 3.363-5.918.636-1.289 1.213-2.633 1.771-3.933l.06-.14a38.436 38.436 0 013.65-7.072c.547-.777 1.161-1.522 1.755-2.243l.032-.039a11.024 11.024 0 011.125-1.234 9.1 9.1 0 011.724-1.154l.151-.082.151-.082a30.851 30.851 0 015.365-1.381c.5-.093.987-.171 1.091-.172a15.429 15.429 0 001.861-.319 10.9 10.9 0 005.237-3.209 15.314 15.314 0 003.219-5.413c1.364-3.923 1.384-8.127 1.28-12.448a38.14 38.14 0 00-1.308-10.677c-.573-1.816-2.095-4.461-6.086-6.745a21.758 21.758 0 00-4.578-1.967z" fill="rgba(255,255,255,0.2)"/></svg>