<svg width="1280" height="468" viewBox="0 0 1280 468" fill="none" xmlns="http://www.w3.org/2000/svg">
<mask id="mask0_94_544" style="mask-type:alpha" maskUnits="userSpaceOnUse" x="0" y="0" width="1280" height="468">
<path d="M0 0H1280V468H0V0Z" fill="#A1D1DB"/>
</mask>
<g mask="url(#mask0_94_544)">
<path d="M91.7627 612.025L118.088 616.638L121.713 617.262L122.975 620.725L130.088 640H116.438L112.237 628.588L85.9248 624L82.2998 623.362L81.0254 619.913L70.5127 591.387L82.5127 586.95L91.7627 612.025ZM338.051 612.95C345.96 610.854 355.035 613.596 361.038 615.987C364.251 617.269 367.054 618.661 369.05 619.712C370.052 620.241 370.869 620.686 371.438 621.013C371.721 621.175 371.941 621.318 372.1 621.413C372.176 621.458 372.242 621.498 372.288 621.524C372.309 621.537 372.337 621.541 372.35 621.55L372.362 621.574L372.375 621.562L369.05 627.024C365.964 632.071 365.718 632.457 365.7 632.487H365.688C365.666 632.475 365.628 632.444 365.574 632.412C365.468 632.349 365.298 632.252 365.075 632.125C364.622 631.865 363.938 631.486 363.087 631.037C361.373 630.135 358.986 628.959 356.3 627.888C350.499 625.576 344.884 624.382 341.325 625.325C338.603 626.05 337.22 627.991 334.5 632.937C333.416 634.91 332.02 637.522 329.975 640H296.475C293.969 638.702 292.329 638.34 290.4 638.851C289.525 639.082 288.8 639.456 288.112 640H272.538C274.875 635.729 278.572 628.757 287.113 626.487C295.858 624.167 302.64 628.64 306.763 631.163C311.582 634.109 313.75 635.098 316.475 634.374C319.195 633.65 320.571 631.716 323.287 626.775C325.617 622.54 329.302 615.275 338.051 612.95ZM500.837 631.813L486.062 640H459.688L462.2 638.612L494.649 620.613L500.837 631.813ZM550.862 578.987C556.332 575.544 564.752 571.188 572.913 571.813C581.938 572.509 586.877 578.983 589.938 582.726C593.509 587.094 595.216 588.745 598.025 588.963C600.835 589.179 602.776 587.808 606.975 584.037C610.571 580.809 616.439 575.168 625.463 575.863C632.38 576.397 636.892 580.324 640 583.813C640.944 584.873 641.762 585.891 642.475 586.763C646.047 591.133 647.755 592.794 650.562 593.013C653.374 593.229 655.324 591.86 659.525 588.087C663.121 584.859 668.979 579.221 678 579.913C686.161 580.542 693.822 586.133 698.7 590.374C701.312 592.646 703.513 594.873 705.05 596.524C705.82 597.353 706.433 598.054 706.862 598.55L707.575 599.375L697.675 607.5L697.188 606.925C696.846 606.531 696.329 605.954 695.675 605.251C694.356 603.833 692.492 601.945 690.312 600.05C685.598 595.95 680.697 592.96 677.025 592.675C674.214 592.458 672.265 593.826 668.062 597.6C664.466 600.829 658.609 606.469 649.588 605.775C645.673 605.473 642.556 604.043 640 602.263C636.667 599.941 634.307 596.993 632.575 594.875C629 590.503 627.287 588.843 624.475 588.625C621.666 588.411 619.736 589.793 615.538 593.562C611.941 596.792 606.062 602.421 597.038 601.726C592.124 601.345 588.444 599.229 585.6 596.8C585.609 596.874 585.629 596.949 585.637 597.025C585.885 599.267 586.147 602.39 586.162 605.85C586.193 612.315 585.425 621.768 580.575 628.362C575.213 635.651 567.118 636.42 562.324 637.038C557.265 637.69 554.904 638.229 553.262 640H539.226C539.761 637.686 540.745 635.315 542.438 633.013C547.799 625.726 555.894 624.968 560.688 624.35C566.287 623.629 568.591 623.045 570.263 620.774C572.444 617.809 573.38 612.15 573.351 605.899C573.337 603.008 573.127 600.364 572.913 598.438C572.807 597.484 572.702 596.717 572.625 596.2L572.512 595.463L582.463 593.713C581.539 592.672 580.726 591.683 580.025 590.825C576.452 586.455 574.747 584.794 571.938 584.575C568.267 584.295 562.962 586.496 557.676 589.825C555.228 591.366 553.096 592.951 551.575 594.15C550.821 594.744 550.223 595.237 549.825 595.575C549.627 595.743 549.47 595.88 549.375 595.963C549.333 596 549.306 596.033 549.288 596.05H549.275C549.256 596.027 548.96 595.711 544.987 591.287L540.713 586.525H540.725L540.737 586.5C540.75 586.49 540.782 586.491 540.8 586.476C540.839 586.44 540.894 586.386 540.963 586.324C541.102 586.203 541.299 586.025 541.55 585.812C542.049 585.389 542.762 584.8 543.65 584.1C545.422 582.703 547.934 580.832 550.862 578.987ZM617.325 640H615.25L616.1 638.975L617.325 640ZM731.763 612.025L758.088 616.638L761.713 617.262L762.975 620.725L770.088 640H756.438L752.237 628.588L725.925 624L722.3 623.362L721.025 619.913L710.513 591.387L722.513 586.95L731.763 612.025ZM978.051 612.95C985.96 610.854 995.035 613.596 1001.04 615.987C1004.25 617.269 1007.05 618.661 1009.05 619.712C1010.05 620.241 1010.87 620.686 1011.44 621.013C1011.72 621.175 1011.94 621.318 1012.1 621.413C1012.18 621.458 1012.24 621.498 1012.29 621.524C1012.31 621.537 1012.34 621.541 1012.35 621.55L1012.36 621.574L1012.38 621.562L1009.05 627.024C1005.96 632.071 1005.72 632.457 1005.7 632.487H1005.69C1005.67 632.475 1005.63 632.444 1005.57 632.412C1005.47 632.349 1005.3 632.252 1005.08 632.125C1004.62 631.865 1003.94 631.486 1003.09 631.037C1001.37 630.135 998.986 628.959 996.3 627.888C990.499 625.576 984.884 624.382 981.325 625.325C978.603 626.05 977.22 627.991 974.5 632.937C973.416 634.91 972.02 637.522 969.975 640H936.475C933.969 638.702 932.329 638.34 930.4 638.851C929.525 639.082 928.8 639.456 928.112 640H912.538C914.875 635.729 918.572 628.757 927.113 626.487C935.858 624.167 942.64 628.64 946.763 631.163C951.582 634.109 953.75 635.098 956.475 634.374C959.195 633.65 960.571 631.716 963.287 626.775C965.617 622.54 969.302 615.275 978.051 612.95ZM1140.84 631.813L1126.06 640H1099.69L1102.2 638.612L1134.65 620.613L1140.84 631.813ZM1190.86 578.987C1196.33 575.544 1204.75 571.188 1212.91 571.813C1221.94 572.509 1226.88 578.983 1229.94 582.726C1233.51 587.094 1235.22 588.745 1238.03 588.963C1240.83 589.179 1242.78 587.808 1246.97 584.037C1250.57 580.809 1256.44 575.168 1265.46 575.863C1272.38 576.397 1276.89 580.324 1280 583.813V602.263C1276.67 599.941 1274.31 596.993 1272.58 594.875C1269 590.503 1267.29 588.843 1264.47 588.625C1261.67 588.411 1259.74 589.793 1255.54 593.562C1251.94 596.792 1246.06 602.421 1237.04 601.726C1232.12 601.345 1228.44 599.229 1225.6 596.8C1225.61 596.874 1225.63 596.949 1225.64 597.025C1225.89 599.267 1226.15 602.39 1226.16 605.85C1226.19 612.315 1225.42 621.768 1220.58 628.362C1215.21 635.651 1207.12 636.42 1202.32 637.038C1197.26 637.69 1194.9 638.229 1193.26 640H1179.23C1179.76 637.686 1180.75 635.315 1182.44 633.013C1187.8 625.726 1195.89 624.968 1200.69 624.35C1206.29 623.629 1208.59 623.045 1210.26 620.774C1212.44 617.809 1213.38 612.15 1213.35 605.899C1213.34 603.008 1213.13 600.364 1212.91 598.438C1212.81 597.484 1212.7 596.717 1212.62 596.2L1212.51 595.463L1222.46 593.713C1221.54 592.672 1220.73 591.683 1220.03 590.825C1216.45 586.455 1214.75 584.794 1211.94 584.575C1208.27 584.295 1202.96 586.496 1197.68 589.825C1195.23 591.366 1193.1 592.951 1191.58 594.15C1190.82 594.744 1190.22 595.237 1189.83 595.575C1189.63 595.743 1189.47 595.88 1189.38 595.963C1189.33 596 1189.31 596.033 1189.29 596.05H1189.28C1189.26 596.027 1188.96 595.711 1184.99 591.287L1180.71 586.525H1180.72L1180.74 586.5C1180.75 586.49 1180.78 586.491 1180.8 586.476C1180.84 586.44 1180.89 586.386 1180.96 586.324C1181.1 586.203 1181.3 586.025 1181.55 585.812C1182.05 585.389 1182.76 584.8 1183.65 584.1C1185.42 582.703 1187.93 580.832 1190.86 578.987ZM1257.33 640H1255.25L1256.1 638.975L1257.33 640ZM105.088 564.475C105.153 564.581 105.25 564.755 105.388 564.976C105.666 565.417 106.096 566.066 106.638 566.862C107.728 568.464 109.281 570.619 111.15 572.825C115.19 577.589 119.589 581.276 123.175 582.112C125.918 582.75 128.043 581.691 132.763 578.6C136.805 575.951 143.46 571.263 152.275 573.312C161.086 575.364 164.99 582.501 167.449 586.662C170.32 591.521 171.756 593.411 174.5 594.051C177.247 594.689 179.375 593.632 184.1 590.537C188.143 587.889 194.788 583.212 203.6 585.262C212.415 587.314 216.317 594.451 218.775 598.612C221.645 603.469 223.082 605.361 225.825 606.001C229.412 606.834 234.982 605.467 240.713 602.975C243.365 601.821 245.714 600.581 247.399 599.625C248.238 599.15 248.905 598.748 249.351 598.476L249.975 598.075L256.976 608.8L256.05 609.375C255.492 609.719 254.696 610.192 253.713 610.749C251.751 611.863 248.986 613.332 245.812 614.712C239.884 617.29 230.898 620.318 222.925 618.463C214.116 616.411 210.221 609.288 207.762 605.125C204.889 600.262 203.446 598.364 200.7 597.726C197.955 597.087 195.823 598.144 191.101 601.237C187.057 603.886 180.414 608.575 171.6 606.525C162.786 604.472 158.884 597.336 156.425 593.175C153.554 588.316 152.118 586.428 149.375 585.787C146.631 585.15 144.506 586.21 139.787 589.301C135.745 591.949 129.089 596.624 120.275 594.575C112.303 592.718 105.568 586.042 101.388 581.112C99.1514 578.476 97.3189 575.94 96.0498 574.075C95.4134 573.14 94.9118 572.355 94.5625 571.801C94.3876 571.523 94.247 571.296 94.1504 571.138C94.1033 571.061 94.0646 570.996 94.0371 570.95C94.0245 570.929 94.0084 570.913 94 570.9V570.875L93.9873 570.862L99.4873 567.601C104.606 564.576 104.987 564.379 105.013 564.362H105.025C105.038 564.384 105.057 564.425 105.088 564.475ZM745.088 564.475C745.153 564.581 745.25 564.755 745.388 564.976C745.666 565.417 746.096 566.066 746.638 566.862C747.728 568.464 749.281 570.619 751.15 572.825C755.19 577.589 759.589 581.276 763.175 582.112C765.918 582.75 768.043 581.691 772.763 578.6C776.805 575.951 783.46 571.263 792.275 573.312C801.086 575.364 804.99 582.501 807.449 586.662C810.32 591.521 811.756 593.411 814.5 594.051C817.247 594.689 819.375 593.632 824.1 590.537C828.143 587.889 834.788 583.212 843.6 585.262C852.415 587.314 856.317 594.451 858.775 598.612C861.645 603.469 863.082 605.361 865.825 606.001C869.412 606.834 874.982 605.467 880.713 602.975C883.365 601.821 885.714 600.581 887.399 599.625C888.238 599.15 888.905 598.748 889.351 598.476L889.975 598.075L896.976 608.8L896.05 609.375C895.492 609.719 894.696 610.192 893.713 610.749C891.751 611.863 888.986 613.332 885.812 614.712C879.884 617.29 870.898 620.318 862.925 618.463C854.116 616.411 850.221 609.288 847.762 605.125C844.889 600.262 843.446 598.364 840.7 597.726C837.955 597.087 835.823 598.144 831.101 601.237C827.057 603.886 820.414 608.575 811.6 606.525C802.786 604.472 798.884 597.336 796.425 593.175C793.554 588.316 792.118 586.428 789.375 585.787C786.631 585.15 784.506 586.21 779.787 589.301C775.745 591.949 769.089 596.624 760.275 594.575C752.303 592.718 745.568 586.042 741.388 581.112C739.151 578.476 737.319 575.94 736.05 574.075C735.413 573.14 734.912 572.355 734.562 571.801C734.388 571.523 734.247 571.296 734.15 571.138C734.103 571.061 734.065 570.996 734.037 570.95C734.024 570.929 734.008 570.913 734 570.9V570.875L733.987 570.862L739.487 567.601C744.606 564.576 744.987 564.379 745.013 564.362H745.025C745.038 564.384 745.057 564.425 745.088 564.475ZM19.5254 588.087C23.1214 584.859 28.9787 579.221 38 579.913C46.1614 580.542 53.8216 586.133 58.7002 590.374C61.3116 592.646 63.5129 594.873 65.0498 596.524C65.8202 597.353 66.4329 598.054 66.8623 598.55L67.5752 599.375L57.6748 607.5L57.1875 606.925C56.8458 606.531 56.3288 605.954 55.6748 605.251C54.356 603.833 52.4922 601.945 50.3125 600.05C45.5984 595.95 40.697 592.96 37.0254 592.675C34.2142 592.458 32.2649 593.826 28.0625 597.6C24.4661 600.829 18.6089 606.469 9.58789 605.775C5.67283 605.473 2.55621 604.043 0 602.263V583.813C0.944471 584.873 1.76161 585.891 2.47461 586.763C6.04714 591.133 7.75457 592.794 10.5625 593.013C13.3738 593.229 15.3237 591.86 19.5254 588.087ZM440.325 589.65L409.962 603.263L407.35 597.425L404.725 591.575L435.101 577.975L440.325 589.65ZM1080.33 589.65L1049.96 603.263L1047.35 597.425L1044.72 591.575L1075.1 577.975L1080.33 589.65ZM222.4 439.838L225.85 441.112L226.487 444.737L231.074 471.05L256.162 480.288L259.625 481.574L260.25 485.199L264.85 511.513L289.925 520.75L293.388 522.025L294.025 525.65L298.625 551.963L323.7 561.212L327.163 562.487L327.787 566.112L333.038 596.062L326.726 597.175L320.412 598.263L315.801 571.95L290.738 562.712L287.287 561.438L286.649 557.812L282.025 531.5L256.976 522.25L253.524 520.987L252.876 517.351L248.263 491.037L223.2 481.8L219.75 480.524L219.124 476.899L214.513 450.575L189.438 441.338L193.875 429.325L222.4 439.838ZM862.4 439.838L865.85 441.112L866.487 444.737L871.074 471.05L896.162 480.288L899.625 481.574L900.25 485.199L904.85 511.513L929.925 520.75L933.388 522.025L934.025 525.65L938.625 551.963L963.7 561.212L967.163 562.487L967.787 566.112L973.038 596.062L966.726 597.175L960.412 598.263L955.801 571.95L930.738 562.712L927.287 561.438L926.649 557.812L922.025 531.5L896.976 522.25L893.524 520.987L892.876 517.351L888.263 491.037L863.2 481.8L859.75 480.524L859.124 476.899L854.513 450.575L829.438 441.338L833.875 429.325L862.4 439.838ZM279.913 592.987L273.663 594.363L267.399 595.725L260.312 563.213L266.575 561.838L272.825 560.487L279.913 592.987ZM919.913 592.987L913.663 594.363L907.399 595.725L900.312 563.213L906.575 561.838L912.825 560.487L919.913 592.987ZM342.138 505.038L359.375 525.45L385.688 520.774L389.325 520.137L391.7 522.95L408.95 543.337L435.263 538.675L438.888 538.038L441.262 540.85L458.513 561.251L484.825 556.575L488.462 555.938L490.838 558.749L510.463 581.962L500.688 590.237L483.426 569.838L457.125 574.5L453.5 575.15L451.124 572.325L433.862 551.938L407.562 556.601L403.938 557.237L401.55 554.426L384.288 534.038L358.001 538.688L354.374 539.337L352 536.524L334.738 516.125L308.425 520.787L306.2 508.187L336.137 502.875L339.762 502.225L342.138 505.038ZM982.138 505.038L999.375 525.45L1025.69 520.774L1029.33 520.137L1031.7 522.95L1048.95 543.337L1075.26 538.675L1078.89 538.038L1081.26 540.85L1098.51 561.251L1124.83 556.575L1128.46 555.938L1130.84 558.749L1150.46 581.962L1140.69 590.237L1123.43 569.838L1097.12 574.5L1093.5 575.15L1091.12 572.325L1073.86 551.938L1047.56 556.601L1043.94 557.237L1041.55 554.426L1024.29 534.038L998.001 538.688L994.374 539.337L992 536.524L974.738 516.125L948.425 520.787L946.2 508.187L976.137 502.875L979.762 502.225L982.138 505.038ZM94.8496 517.149L122.938 541.4L114.562 551.074L91.4248 531.087L75.5498 550.313L71.375 555.35L66.4375 551.074L38.3496 526.825L46.7246 517.149L69.8496 537.125L85.7373 517.912L89.9121 512.876L94.8496 517.149ZM734.85 517.149L762.938 541.4L754.562 551.074L731.425 531.087L715.55 550.313L711.375 555.35L706.438 551.074L678.35 526.825L686.725 517.149L709.85 537.125L725.737 517.912L729.912 512.876L734.85 517.149ZM107.963 452.663C107.966 452.687 107.966 452.731 107.975 452.787C107.994 452.91 108.019 453.109 108.062 453.362C108.151 453.877 108.29 454.646 108.487 455.588C108.883 457.482 109.502 460.063 110.388 462.812C112.304 468.759 114.967 473.846 117.963 475.987C120.257 477.625 122.627 477.458 128.176 476.4C132.923 475.494 140.851 473.718 148.213 478.975C155.575 484.234 156.466 492.315 157.149 497.1C157.949 502.684 158.547 504.987 160.837 506.625C163.132 508.263 165.505 508.094 171.05 507.037C175.797 506.132 183.735 504.34 191.101 509.6C198.463 514.859 199.341 522.94 200.025 527.725C200.824 533.313 201.433 535.611 203.725 537.251C206.721 539.39 212.392 540.253 218.638 540.137C221.529 540.083 224.177 539.827 226.101 539.588C227.054 539.469 227.822 539.359 228.338 539.275L229.075 539.15L231.449 551.725L230.374 551.913C229.728 552.017 228.809 552.147 227.688 552.288C225.45 552.567 222.333 552.873 218.875 552.937C212.412 553.057 202.948 552.431 196.288 547.675C188.923 542.414 188.047 534.322 187.362 529.537C186.564 523.95 185.956 521.651 183.662 520.013C181.368 518.374 178.994 518.543 173.45 519.601C168.701 520.506 160.764 522.298 153.4 517.038C146.038 511.776 145.159 503.697 144.475 498.912C143.676 493.322 143.068 491.026 140.774 489.388C138.482 487.752 136.115 487.92 130.575 488.976C125.827 489.881 117.879 491.674 110.513 486.413C103.856 481.654 100.196 472.914 98.2129 466.763C97.1519 463.469 96.4246 460.421 95.9629 458.213C95.7314 457.105 95.5614 456.184 95.4502 455.538C95.3949 455.217 95.3537 454.958 95.3252 454.775C95.3109 454.685 95.3079 454.604 95.2998 454.55C95.2957 454.529 95.2787 454.514 95.2754 454.5L95.2871 454.463H95.2754L101.612 453.55C107.494 452.709 107.921 452.656 107.95 452.65L107.963 452.663ZM747.963 452.663C747.966 452.687 747.966 452.731 747.975 452.787C747.994 452.91 748.019 453.109 748.062 453.362C748.151 453.877 748.29 454.646 748.487 455.588C748.883 457.482 749.502 460.063 750.388 462.812C752.304 468.759 754.967 473.846 757.963 475.987C760.257 477.625 762.627 477.458 768.176 476.4C772.923 475.494 780.851 473.718 788.213 478.975C795.575 484.234 796.466 492.315 797.149 497.1C797.949 502.684 798.547 504.987 800.837 506.625C803.132 508.263 805.505 508.094 811.05 507.037C815.797 506.132 823.735 504.34 831.101 509.6C838.463 514.859 839.341 522.94 840.025 527.725C840.824 533.313 841.433 535.611 843.725 537.251C846.721 539.39 852.392 540.253 858.638 540.137C861.529 540.083 864.177 539.827 866.101 539.588C867.054 539.469 867.822 539.359 868.338 539.275L869.075 539.15L871.449 551.725L870.374 551.913C869.728 552.017 868.809 552.147 867.688 552.288C865.45 552.567 862.333 552.873 858.875 552.937C852.412 553.057 842.948 552.431 836.288 547.675C828.923 542.414 828.047 534.322 827.362 529.537C826.564 523.95 825.956 521.651 823.662 520.013C821.368 518.374 818.994 518.543 813.45 519.601C808.701 520.506 800.764 522.298 793.4 517.038C786.038 511.776 785.159 503.697 784.475 498.912C783.676 493.322 783.068 491.026 780.774 489.388C778.482 487.752 776.115 487.92 770.575 488.976C765.827 489.881 757.879 491.674 750.513 486.413C743.856 481.654 740.196 472.914 738.213 466.763C737.152 463.469 736.425 460.421 735.963 458.213C735.731 457.105 735.561 456.184 735.45 455.538C735.395 455.217 735.354 454.958 735.325 454.775C735.311 454.685 735.308 454.604 735.3 454.55C735.296 454.529 735.279 454.514 735.275 454.5L735.287 454.463H735.275L741.612 453.55C747.494 452.709 747.921 452.656 747.95 452.65L747.963 452.663ZM503.7 516.862C513.996 513.114 525.427 514.774 534.213 521.162L535.95 522.5C541.423 527.063 548.915 528.386 555.612 525.949C565.909 522.203 577.34 523.849 586.125 530.237L587.851 531.588L599.525 541.312L591.325 551.15L579.662 541.4L577.513 539.851C572.321 536.575 565.848 535.831 559.987 537.962C549.004 541.958 536.725 539.812 527.75 532.325L525.6 530.775C520.409 527.502 513.945 526.758 508.087 528.887L493.8 534.088L491.6 528.075L489.425 522.062L503.7 516.862ZM1143.7 516.862C1154 513.114 1165.43 514.774 1174.21 521.162L1175.95 522.5C1181.42 527.063 1188.92 528.386 1195.61 525.949C1205.91 522.203 1217.34 523.849 1226.12 530.237L1227.85 531.588L1239.53 541.312L1231.33 551.15L1219.66 541.4L1217.51 539.851C1212.32 536.575 1205.85 535.831 1199.99 537.962C1189 541.958 1176.73 539.812 1167.75 532.325L1165.6 530.775C1160.41 527.502 1153.95 526.758 1148.09 528.887L1133.8 534.088L1131.6 528.075L1129.42 522.062L1143.7 516.862ZM702.213 458.587L708.312 460.538L703.688 475.013C700.36 485.452 692.065 493.49 681.638 496.538L679.525 497.088C672.567 498.63 666.94 503.759 664.775 510.55C661.447 520.991 653.152 529.028 642.725 532.075L640.612 532.625L640 532.75L625.775 535.913L623 523.412L637.85 520.137L640 519.5L640.388 519.387C646.154 517.28 650.706 512.605 652.6 506.662C656.151 495.527 665.351 487.127 676.763 484.601L679.312 483.838C685.071 481.73 689.605 477.073 691.5 471.138L696.112 456.65L702.213 458.587ZM1280 532.75L1265.78 535.913L1263 523.412L1277.85 520.137L1280 519.5V532.75ZM62.2129 458.587L68.3125 460.538L63.6875 475.013C60.3595 485.452 52.0647 493.49 41.6377 496.538L39.5254 497.088C32.5671 498.63 26.9398 503.759 24.7754 510.55C21.4473 520.991 13.1522 529.028 2.72461 532.075L0.612305 532.625L0 532.75V519.5L0.387695 519.387C6.15406 517.28 10.7055 512.605 12.5996 506.662C16.1506 495.527 25.3512 487.127 36.7627 484.601L39.3125 483.838C45.0715 481.73 49.6048 477.073 51.5 471.138L56.1123 456.65L62.2129 458.587ZM597.413 420.887L594.888 451.362L619.774 452.862L626.3 453.274L625.763 459.774L622.699 496.763L609.949 495.688L612.475 465.237L587.588 463.712L581.062 463.312L581.6 456.8L584.663 419.813L597.413 420.887ZM1237.41 420.887L1234.89 451.362L1259.77 452.862L1266.3 453.274L1265.76 459.774L1262.7 496.763L1249.95 495.688L1252.47 465.237L1227.59 463.712L1221.06 463.312L1221.6 456.8L1224.66 419.813L1237.41 420.887ZM437.45 374.025L437.425 374.763C437.409 375.285 437.381 376.075 437.388 377.038C437.399 378.973 437.504 381.618 437.825 384.487C438.522 390.698 440.112 396.219 442.625 398.912C444.548 400.97 446.907 401.273 452.551 401.338C457.384 401.394 465.503 401.223 471.675 407.838C477.848 414.457 477.104 422.549 476.825 427.375C476.498 433.012 476.639 435.388 478.562 437.45C480.485 439.51 482.844 439.81 488.487 439.875C493.321 439.931 501.452 439.757 507.625 446.374C513.797 452.994 513.055 461.088 512.774 465.912C512.448 471.551 512.589 473.925 514.513 475.987C517.027 478.678 522.419 480.649 528.562 481.775C531.406 482.295 534.044 482.566 535.975 482.712C536.936 482.785 537.715 482.829 538.237 482.851C538.493 482.861 538.688 482.872 538.812 482.875C538.874 482.876 538.925 482.862 538.95 482.862L538.962 482.875L538.812 495.675L538.801 495.662L538.775 495.675C538.76 495.674 538.736 495.663 538.712 495.662C538.66 495.662 538.588 495.665 538.5 495.662C538.314 495.658 538.04 495.65 537.713 495.638C537.059 495.611 536.135 495.573 535.013 495.488C532.762 495.317 529.642 494.987 526.237 494.363C519.88 493.197 510.734 490.697 505.149 484.713C498.977 478.093 499.72 469.988 500 465.162C500.326 459.532 500.183 457.161 498.263 455.101C496.339 453.042 493.981 452.741 488.338 452.675C483.505 452.618 475.373 452.791 469.199 446.175C463.031 439.557 463.782 431.462 464.062 426.638C464.389 421 464.247 418.624 462.324 416.562C460.402 414.501 458.044 414.203 452.4 414.138C447.566 414.081 439.436 414.255 433.262 407.638C427.68 401.652 425.822 392.36 425.1 385.938C424.714 382.5 424.602 379.369 424.588 377.112C424.581 375.985 424.606 375.056 424.625 374.4L424.663 373.301L437.45 374.025ZM1077.45 374.025L1077.42 374.763C1077.41 375.285 1077.38 376.075 1077.39 377.038C1077.4 378.973 1077.5 381.618 1077.83 384.487C1078.52 390.698 1080.11 396.219 1082.62 398.912C1084.55 400.97 1086.91 401.273 1092.55 401.338C1097.38 401.394 1105.5 401.223 1111.67 407.838C1117.85 414.457 1117.1 422.549 1116.83 427.375C1116.5 433.012 1116.64 435.388 1118.56 437.45C1120.49 439.51 1122.84 439.81 1128.49 439.875C1133.32 439.931 1141.45 439.757 1147.62 446.374C1153.8 452.994 1153.05 461.088 1152.77 465.912C1152.45 471.551 1152.59 473.925 1154.51 475.987C1157.03 478.678 1162.42 480.649 1168.56 481.775C1171.41 482.295 1174.04 482.566 1175.97 482.712C1176.94 482.785 1177.72 482.829 1178.24 482.851C1178.49 482.861 1178.69 482.872 1178.81 482.875C1178.87 482.876 1178.92 482.862 1178.95 482.862L1178.96 482.875L1178.81 495.675L1178.8 495.662L1178.78 495.675C1178.76 495.674 1178.74 495.663 1178.71 495.662C1178.66 495.662 1178.59 495.665 1178.5 495.662C1178.31 495.658 1178.04 495.65 1177.71 495.638C1177.06 495.611 1176.14 495.573 1175.01 495.488C1172.76 495.317 1169.64 494.987 1166.24 494.363C1159.88 493.197 1150.73 490.697 1145.15 484.713C1138.98 478.093 1139.72 469.988 1140 465.162C1140.33 459.532 1140.18 457.161 1138.26 455.101C1136.34 453.042 1133.98 452.741 1128.34 452.675C1123.5 452.618 1115.37 452.791 1109.2 446.175C1103.03 439.557 1103.78 431.462 1104.06 426.638C1104.39 421 1104.25 418.624 1102.32 416.562C1100.4 414.501 1098.04 414.203 1092.4 414.138C1087.57 414.081 1079.44 414.255 1073.26 407.638C1067.68 401.652 1065.82 392.36 1065.1 385.938C1064.71 382.5 1064.6 379.369 1064.59 377.112C1064.58 375.985 1064.61 375.056 1064.62 374.4L1064.66 373.301L1077.45 374.025ZM440.3 483.275L430.125 491.024L409.975 464.538L415.074 460.663L420.176 456.8L440.3 483.275ZM1080.3 483.275L1070.12 491.024L1049.97 464.538L1055.07 460.663L1060.18 456.8L1080.3 483.275ZM406.95 397.362L403.851 412.238L403.337 414.35C400.426 424.816 392.497 433.224 382.101 436.688C375.34 438.942 370.29 444.624 368.837 451.6L368.312 453.726C365.402 464.192 357.472 472.599 347.074 476.062L332.663 480.876L330.625 474.801L328.613 468.725L343.037 463.925C348.951 461.954 353.555 457.353 355.588 451.562L356.3 449C358.679 437.559 366.965 428.246 378.051 424.551C383.967 422.58 388.58 417.98 390.612 412.187L391.337 409.626L394.426 394.738L406.95 397.362ZM1046.95 397.362L1043.85 412.238L1043.34 414.35C1040.43 424.816 1032.5 433.224 1022.1 436.688C1015.34 438.942 1010.29 444.624 1008.84 451.6L1008.31 453.726C1005.4 464.192 997.472 472.599 987.074 476.062L972.663 480.876L970.625 474.801L968.613 468.725L983.037 463.925C988.951 461.954 993.555 457.353 995.588 451.562L996.3 449C998.679 437.559 1006.96 428.246 1018.05 424.551C1023.97 422.58 1028.58 417.98 1030.61 412.187L1031.34 409.626L1034.43 394.738L1046.95 397.362ZM26.5498 329.688L52.8623 334.3L56.4873 334.938L57.7627 338.388L67 363.438L93.3125 368.062L96.9502 368.7L98.2246 372.162L107.463 397.212L133.775 401.838L137.413 402.476L138.675 405.925L147.925 430.975L174.237 435.6L173.138 441.912L172.025 448.213L142.075 442.975L138.45 442.337L137.175 438.875L127.938 413.812L101.625 409.2L98 408.575L96.7129 405.112L87.4746 380.037L61.1621 375.438L57.5371 374.8L56.2627 371.337L47.0254 346.263L20.7002 341.663L17.0752 341.038L15.8125 337.574L5.28711 309.05L17.2998 304.625L26.5498 329.688ZM666.55 329.688L692.862 334.3L696.487 334.938L697.763 338.388L707 363.438L733.312 368.062L736.95 368.7L738.225 372.162L747.463 397.212L773.775 401.838L777.413 402.476L778.675 405.925L787.925 430.975L814.237 435.6L813.138 441.912L812.025 448.213L782.075 442.975L778.45 442.337L777.175 438.875L767.938 413.812L741.625 409.2L738 408.575L736.713 405.112L727.475 380.037L701.162 375.438L697.537 374.8L696.263 371.337L687.025 346.263L660.7 341.663L657.075 341.038L655.812 337.574L645.287 309.05L657.3 304.625L666.55 329.688ZM80.6504 414.35L84.1875 419.688L56.5127 438.125L52.9502 432.812L49.4004 427.476L77.0996 409.025L80.6504 414.35ZM720.65 414.35L724.188 419.688L696.513 438.125L692.95 432.812L689.4 427.476L717.1 409.025L720.65 414.35ZM261.025 338.4L262.363 340.112C268.754 348.897 270.41 360.339 266.662 370.638C264.228 377.333 265.538 384.827 270.101 390.3L271.438 392.025C277.827 400.809 279.483 412.241 275.737 422.537L270.55 436.825L264.538 434.638L258.513 432.45L263.712 418.162C265.843 412.304 265.111 405.841 261.838 400.65L260.275 398.5C252.787 389.526 250.642 377.246 254.638 366.263C256.77 360.4 256.025 353.93 252.75 348.737L251.2 346.587L241.45 334.912L251.287 326.726L261.025 338.4ZM901.025 338.4L902.363 340.112C908.754 348.897 910.41 360.339 906.662 370.638C904.228 377.333 905.538 384.827 910.101 390.3L911.438 392.025C917.827 400.809 919.483 412.241 915.737 422.537L910.55 436.825L904.538 434.638L898.513 432.45L903.712 418.162C905.843 412.304 905.111 405.841 901.838 400.65L900.275 398.5C892.787 389.526 890.642 377.246 894.638 366.263C896.77 360.4 896.025 353.93 892.75 348.737L891.2 346.587L881.45 334.912L891.287 326.726L901.025 338.4ZM521.6 425.938L515.426 427.588L509.237 429.212L500.75 397.038L506.938 395.399L513.125 393.787L521.6 425.938ZM1161.6 425.938L1155.43 427.588L1149.24 429.212L1140.75 397.038L1146.94 395.399L1153.12 393.787L1161.6 425.938ZM321.787 420.963L315.612 422.6L309.413 424.238L300.926 392.05L307.124 390.426L313.301 388.8L321.787 420.963ZM961.787 420.963L955.612 422.6L949.413 424.238L940.926 392.05L947.124 390.426L953.301 388.8L961.787 420.963ZM527.263 331.325C536.175 337.7 541.279 348.067 540.976 358.925L540.85 361.112C540.181 368.207 543.328 375.129 549.125 379.275C558.038 385.65 563.141 396.015 562.838 406.875L562.699 409.05L561.275 424.176L548.538 422.987L549.975 407.851L550.038 405.188C549.801 399.057 546.757 393.302 541.688 389.676C532.182 382.875 527 371.535 528.1 359.9L528.176 357.237C527.939 351.108 524.892 345.365 519.824 341.737L507.449 332.899L511.175 327.675L514.9 322.476L527.263 331.325ZM1167.26 331.325C1176.18 337.7 1181.28 348.067 1180.98 358.925L1180.85 361.112C1180.18 368.207 1183.33 375.129 1189.12 379.275C1198.04 385.65 1203.14 396.015 1202.84 406.875L1202.7 409.05L1201.28 424.176L1188.54 422.987L1189.97 407.851L1190.04 405.188C1189.8 399.057 1186.76 393.302 1181.69 389.676C1172.18 382.875 1167 371.535 1168.1 359.9L1168.18 357.237C1167.94 351.108 1164.89 345.365 1159.82 341.737L1147.45 332.899L1151.17 327.675L1154.9 322.476L1167.26 331.325ZM18.9629 410.15L17.3252 416.35L15.6875 422.525L0 418.388V405.138L18.9629 410.15ZM640 405.138L658.963 410.15L657.325 416.35L655.688 422.525L640 418.388L623.525 414.051L625.149 407.863L626.775 401.663L640 405.138ZM1280 405.138V418.388L1263.53 414.051L1265.15 407.863L1266.78 401.663L1280 405.138ZM214.862 381.574L218.888 386.55L193.075 407.525L189.038 402.562L185 397.587L210.825 376.613L214.862 381.574ZM854.862 381.574L858.888 386.55L833.075 407.525L829.038 402.562L825 397.587L850.825 376.613L854.862 381.574ZM542.438 230.225C548.008 231.695 548.57 231.848 548.625 231.863L548.638 231.875C548.631 231.899 548.615 231.943 548.601 232C548.57 232.122 548.522 232.322 548.462 232.575C548.343 233.085 548.173 233.844 547.987 234.788C547.615 236.689 547.181 239.309 546.925 242.188C546.374 248.408 546.838 254.123 548.763 257.262C550.237 259.664 552.482 260.439 558.001 261.626C562.725 262.641 570.727 264.077 575.463 271.787C580.199 279.502 577.872 287.301 576.638 291.975C575.199 297.427 574.853 299.775 576.325 302.175C577.8 304.579 580.052 305.351 585.574 306.537C590.301 307.553 598.302 308.988 603.037 316.7C607.772 324.413 605.434 332.201 604.2 336.876C602.76 342.335 602.426 344.684 603.9 347.087C605.827 350.225 610.712 353.224 616.512 355.55C619.195 356.626 621.723 357.422 623.588 357.949C624.513 358.212 625.267 358.413 625.775 358.537L626.5 358.699L623.801 371.226L622.738 370.962C622.102 370.807 621.199 370.582 620.112 370.274C617.941 369.661 614.949 368.726 611.737 367.438C605.738 365.031 597.27 360.763 592.987 353.787C588.254 346.074 590.592 338.287 591.824 333.613C593.265 328.153 593.598 325.802 592.125 323.399C590.649 320.997 588.397 320.224 582.875 319.037C578.149 318.022 570.158 316.581 565.425 308.876C560.691 301.161 563.03 293.373 564.263 288.7C565.703 283.244 566.033 280.889 564.562 278.487C563.087 276.087 560.829 275.324 555.312 274.138C550.587 273.121 542.584 271.672 537.85 263.963C533.569 256.986 533.593 247.501 534.162 241.062C534.468 237.616 534.991 234.527 535.426 232.312C535.643 231.203 535.852 230.301 536 229.663C536.074 229.343 536.131 229.08 536.176 228.899C536.198 228.813 536.224 228.739 536.238 228.688C536.242 228.666 536.235 228.64 536.238 228.625L536.25 228.601L542.438 230.225ZM1182.44 230.225C1188.01 231.695 1188.57 231.848 1188.62 231.863L1188.64 231.875C1188.63 231.899 1188.61 231.943 1188.6 232C1188.57 232.122 1188.52 232.322 1188.46 232.575C1188.34 233.085 1188.17 233.844 1187.99 234.788C1187.61 236.689 1187.18 239.309 1186.92 242.188C1186.37 248.408 1186.84 254.123 1188.76 257.262C1190.24 259.664 1192.48 260.439 1198 261.626C1202.73 262.641 1210.73 264.077 1215.46 271.787C1220.2 279.502 1217.87 287.301 1216.64 291.975C1215.2 297.427 1214.85 299.775 1216.33 302.175C1217.8 304.579 1220.05 305.351 1225.57 306.537C1230.3 307.553 1238.3 308.988 1243.04 316.7C1247.77 324.413 1245.43 332.201 1244.2 336.876C1242.76 342.335 1242.43 344.684 1243.9 347.087C1245.83 350.225 1250.71 353.224 1256.51 355.55C1259.19 356.626 1261.72 357.422 1263.59 357.949C1264.51 358.212 1265.27 358.413 1265.78 358.537L1266.5 358.699L1263.8 371.226L1262.74 370.962C1262.1 370.807 1261.2 370.582 1260.11 370.274C1257.94 369.661 1254.95 368.726 1251.74 367.438C1245.74 365.031 1237.27 360.763 1232.99 353.787C1228.25 346.074 1230.59 338.287 1231.82 333.613C1233.27 328.153 1233.6 325.802 1232.12 323.399C1230.65 320.997 1228.4 320.224 1222.88 319.037C1218.15 318.022 1210.16 316.581 1205.42 308.876C1200.69 301.161 1203.03 293.373 1204.26 288.7C1205.7 283.244 1206.03 280.889 1204.56 278.487C1203.09 276.087 1200.83 275.324 1195.31 274.138C1190.59 273.121 1182.58 271.672 1177.85 263.963C1173.57 256.986 1173.59 247.501 1174.16 241.062C1174.47 237.616 1174.99 234.527 1175.43 232.312C1175.64 231.203 1175.85 230.301 1176 229.663C1176.07 229.343 1176.13 229.08 1176.18 228.899C1176.2 228.813 1176.22 228.739 1176.24 228.688C1176.24 228.666 1176.23 228.64 1176.24 228.625L1176.25 228.601L1182.44 230.225ZM435.362 231.2C435.474 231.845 435.623 232.758 435.774 233.875C436.078 236.11 436.412 239.229 436.512 242.688C436.7 249.15 436.176 258.614 431.488 265.325C426.304 272.745 418.227 273.704 413.45 274.438C407.871 275.295 405.577 275.928 403.963 278.237C402.349 280.549 402.547 282.926 403.662 288.462C404.617 293.2 406.491 301.108 401.312 308.524C396.13 315.943 388.052 316.916 383.275 317.65C377.694 318.508 375.402 319.139 373.787 321.45C372.177 323.759 372.374 326.122 373.487 331.65C374.442 336.389 376.308 344.316 371.124 351.737C366.435 358.443 357.742 362.203 351.612 364.25C348.33 365.346 345.291 366.103 343.087 366.587C341.982 366.83 341.07 367.006 340.425 367.124C340.102 367.184 339.833 367.219 339.65 367.25C339.562 367.264 339.49 367.279 339.438 367.287C339.413 367.291 339.39 367.297 339.375 367.3H339.35L339.337 367.312L338.363 360.987C337.49 355.313 337.409 354.722 337.4 354.662L337.413 354.649C337.437 354.647 337.481 354.647 337.537 354.638C337.66 354.616 337.858 354.571 338.112 354.525C338.627 354.431 339.396 354.295 340.338 354.088C342.228 353.672 344.796 353.015 347.538 352.1C353.463 350.122 358.527 347.418 360.638 344.399C362.25 342.089 362.053 339.722 360.937 334.188C359.983 329.449 358.119 321.532 363.3 314.112C368.484 306.697 376.561 305.722 381.338 304.987C386.912 304.131 389.198 303.507 390.812 301.199C392.426 298.889 392.239 296.519 391.124 290.987C390.17 286.249 388.293 278.332 393.475 270.912C398.656 263.498 406.722 262.535 411.5 261.8C417.078 260.942 419.373 260.306 420.987 257.999C423.097 254.981 423.895 249.296 423.712 243.05C423.627 240.159 423.36 237.521 423.101 235.6C422.971 234.645 422.839 233.878 422.749 233.362L422.625 232.638L435.175 230.112L435.362 231.2ZM1075.36 231.2C1075.47 231.845 1075.62 232.758 1075.77 233.875C1076.08 236.11 1076.41 239.229 1076.51 242.688C1076.7 249.15 1076.18 258.614 1071.49 265.325C1066.3 272.745 1058.23 273.704 1053.45 274.438C1047.87 275.295 1045.58 275.928 1043.96 278.237C1042.35 280.549 1042.55 282.926 1043.66 288.462C1044.62 293.2 1046.49 301.108 1041.31 308.524C1036.13 315.943 1028.05 316.916 1023.28 317.65C1017.69 318.508 1015.4 319.139 1013.79 321.45C1012.18 323.759 1012.37 326.122 1013.49 331.65C1014.44 336.389 1016.31 344.316 1011.12 351.737C1006.44 358.443 997.742 362.203 991.612 364.25C988.33 365.346 985.291 366.103 983.087 366.587C981.982 366.83 981.07 367.006 980.425 367.124C980.102 367.184 979.833 367.219 979.65 367.25C979.562 367.264 979.49 367.279 979.438 367.287C979.413 367.291 979.39 367.297 979.375 367.3H979.35L979.337 367.312L978.363 360.987C977.49 355.313 977.409 354.722 977.4 354.662L977.413 354.649C977.437 354.647 977.481 354.647 977.537 354.638C977.66 354.616 977.858 354.571 978.112 354.525C978.627 354.431 979.396 354.295 980.338 354.088C982.228 353.672 984.796 353.015 987.538 352.1C993.463 350.122 998.527 347.418 1000.64 344.399C1002.25 342.089 1002.05 339.722 1000.94 334.188C999.983 329.449 998.119 321.532 1003.3 314.112C1008.48 306.697 1016.56 305.722 1021.34 304.987C1026.91 304.131 1029.2 303.507 1030.81 301.199C1032.43 298.889 1032.24 296.519 1031.12 290.987C1030.17 286.249 1028.29 278.332 1033.47 270.912C1038.66 263.498 1046.72 262.535 1051.5 261.8C1057.08 260.942 1059.37 260.306 1060.99 257.999C1063.1 254.981 1063.89 249.296 1063.71 243.05C1063.63 240.159 1063.36 237.521 1063.1 235.6C1062.97 234.645 1062.84 233.878 1062.75 233.362L1062.62 232.638L1075.17 230.112L1075.36 231.2ZM90.4873 324.987C100.857 321.456 112.25 323.346 120.9 329.912L122.612 331.3C127.991 335.973 135.455 337.436 142.2 335.138C152.572 331.605 163.975 333.492 172.625 340.062L174.312 341.438L185.775 351.412L177.388 361.075L165.925 351.087L163.801 349.487C158.678 346.108 152.226 345.24 146.324 347.25C135.263 351.018 123.031 348.618 114.213 340.95L112.088 339.35C106.966 335.969 100.515 335.091 94.6123 337.1L80.2246 342.012L76.0996 329.888L90.4873 324.987ZM730.487 324.987C740.857 321.456 752.25 323.346 760.9 329.912L762.612 331.3C767.991 335.973 775.455 337.436 782.2 335.138C792.572 331.605 803.975 333.492 812.625 340.062L814.312 341.438L825.775 351.412L817.388 361.075L805.925 351.087L803.801 349.487C798.678 346.108 792.226 345.24 786.324 347.25C775.263 351.018 763.031 348.618 754.213 340.95L752.088 339.35C746.966 335.969 740.515 335.091 734.612 337.1L720.225 342.012L716.1 329.888L730.487 324.987ZM485.726 350.712L452.575 353.663L452.013 347.287L451.449 340.926L484.575 337.962L485.726 350.712ZM1125.73 350.712L1092.58 353.663L1092.01 347.287L1091.45 340.926L1124.58 337.962L1125.73 350.712ZM173.763 268.551C173.773 274.783 176.682 280.599 181.537 284.35L183.737 285.838C193.849 291.695 200.08 302.488 200.1 314.175C200.109 320.411 203.031 326.235 207.888 329.988L210.088 331.476L223.25 339.101L216.825 350.162L203.675 342.55L201.825 341.388C192.808 335.331 187.328 325.157 187.312 314.2C187.301 307.075 183.502 300.487 177.338 296.913L175.476 295.75C166.458 289.692 160.978 279.52 160.963 268.562L160.937 253.362L167.337 253.351H173.75L173.763 268.551ZM813.763 268.551C813.773 274.783 816.682 280.599 821.537 284.35L823.737 285.838C833.849 291.695 840.08 302.488 840.1 314.175C840.109 320.411 843.031 326.235 847.888 329.988L850.088 331.476L863.25 339.101L856.825 350.162L843.675 342.55L841.825 341.388C832.808 335.331 827.328 325.157 827.312 314.2C827.301 307.075 823.502 300.487 817.338 296.913L815.476 295.75C806.458 289.692 800.978 279.52 800.963 268.562L800.937 253.362L807.337 253.351H813.75L813.763 268.551ZM504.075 243.638L498.513 280.325L497.55 286.788L491.101 285.676L466.537 281.425L461.962 311.638L449.312 309.737L454.862 273.05L455.838 266.587L462.287 267.7L486.851 271.975L491.412 241.737L504.075 243.638ZM1144.08 243.638L1138.51 280.325L1137.55 286.788L1131.1 285.676L1106.54 281.425L1101.96 311.638L1089.31 309.737L1094.86 273.05L1095.84 266.587L1102.29 267.7L1126.85 271.975L1131.41 241.737L1144.08 243.638ZM279.449 235.35L276.926 265.825L301.812 267.325L308.338 267.737L307.801 274.237L304.75 311.226L291.987 310.15L294.513 279.7L269.626 278.175L263.101 277.775L263.65 271.263L266.699 234.274L279.449 235.35ZM919.449 235.35L916.926 265.825L941.812 267.325L948.338 267.737L947.801 274.237L944.75 311.226L931.987 310.15L934.513 279.7L909.626 278.175L903.101 277.775L903.65 271.263L906.699 234.274L919.449 235.35ZM18.2998 182.112C20.5559 182.126 23.6872 182.227 27.125 182.612C33.5489 183.334 42.8402 185.193 48.8252 190.775C55.4433 196.949 55.2689 205.079 55.3252 209.912C55.391 215.557 55.6887 217.915 57.75 219.838C59.8118 221.76 62.1876 221.902 67.8252 221.574C72.6512 221.295 80.7443 220.552 87.3623 226.726C93.9765 232.898 93.8061 241.016 93.8623 245.85C93.9281 251.498 94.2253 253.863 96.2871 255.787C98.3475 257.707 100.72 257.838 106.35 257.513C111.175 257.232 119.281 256.491 125.9 262.662C131.885 268.247 134.385 277.392 135.55 283.75C136.174 287.155 136.505 290.274 136.675 292.524C136.761 293.648 136.798 294.572 136.825 295.226C136.838 295.553 136.844 295.827 136.85 296.013C136.852 296.1 136.85 296.173 136.85 296.226C136.85 296.249 136.861 296.272 136.862 296.288L136.85 296.312L136.862 296.325L130.463 296.412C124.538 296.481 124.095 296.473 124.062 296.475L124.05 296.462C124.049 296.438 124.064 296.386 124.062 296.325C124.059 296.2 124.047 296.005 124.037 295.75C124.016 295.228 123.973 294.448 123.9 293.487C123.754 291.557 123.484 288.919 122.963 286.075C121.836 279.931 119.866 274.538 117.175 272.025C115.113 270.102 112.737 269.961 107.1 270.287C102.274 270.567 94.1815 271.31 87.5625 265.138C80.9444 258.963 81.1187 250.834 81.0625 246.001C80.9966 240.357 80.6979 237.998 78.6377 236.075C76.5759 234.151 74.1997 234.011 68.5625 234.337C63.738 234.617 55.6435 235.369 49.0254 229.199C42.408 223.027 42.5814 214.897 42.5254 210.062C42.4596 204.419 42.1577 202.061 40.0996 200.137C37.4064 197.626 31.885 196.034 25.6748 195.337C22.806 195.016 20.1603 194.925 18.2246 194.912C17.2611 194.907 16.4727 194.922 15.9502 194.938L15.2129 194.962L14.4873 182.175L15.5879 182.138C16.2432 182.119 17.1723 182.106 18.2998 182.112ZM658.3 182.112C660.556 182.126 663.687 182.227 667.125 182.612C673.549 183.334 682.84 185.193 688.825 190.775C695.443 196.949 695.269 205.079 695.325 209.912C695.391 215.557 695.689 217.915 697.75 219.838C699.812 221.76 702.188 221.902 707.825 221.574C712.651 221.295 720.744 220.552 727.362 226.726C733.976 232.898 733.806 241.016 733.862 245.85C733.928 251.498 734.225 253.863 736.287 255.787C738.347 257.707 740.72 257.838 746.35 257.513C751.175 257.232 759.281 256.491 765.9 262.662C771.885 268.247 774.385 277.392 775.55 283.75C776.174 287.155 776.505 290.274 776.675 292.524C776.761 293.648 776.798 294.572 776.825 295.226C776.838 295.553 776.844 295.827 776.85 296.013C776.852 296.1 776.85 296.173 776.85 296.226C776.85 296.249 776.861 296.272 776.862 296.288L776.85 296.312L776.862 296.325L770.463 296.412C764.538 296.481 764.095 296.473 764.062 296.475L764.05 296.462C764.049 296.438 764.064 296.386 764.062 296.325C764.059 296.2 764.047 296.005 764.037 295.75C764.016 295.228 763.973 294.448 763.9 293.487C763.754 291.557 763.484 288.919 762.963 286.075C761.836 279.931 759.866 274.538 757.175 272.025C755.113 270.102 752.737 269.961 747.1 270.287C742.274 270.567 734.181 271.31 727.562 265.138C720.944 258.963 721.119 250.834 721.062 246.001C720.997 240.357 720.698 237.998 718.638 236.075C716.576 234.151 714.2 234.011 708.562 234.337C703.738 234.617 695.643 235.369 689.025 229.199C682.408 223.027 682.581 214.897 682.525 210.062C682.46 204.419 682.158 202.061 680.1 200.137C677.406 197.626 671.885 196.034 665.675 195.337C662.806 195.016 660.16 194.925 658.225 194.912C657.261 194.907 656.473 194.922 655.95 194.938L655.213 194.962L654.487 182.175L655.588 182.138C656.243 182.119 657.172 182.106 658.3 182.112ZM159.725 88.9248L156.438 115.45L177.713 131.612L180.638 133.838L180.187 137.487L176.913 164L198.175 180.176L201.1 182.4L200.65 186.062L197.375 212.562L218.638 228.737L221.562 230.975L221.112 234.625L217.838 261.125L239.101 277.301L231.35 287.5L207.138 269.1L204.213 266.875L204.663 263.213L207.95 236.7L186.675 220.538L183.75 218.312L184.199 214.649L187.488 188.125L166.213 171.975L163.287 169.75L163.737 166.088L167.037 139.562L145.75 123.4L142.825 121.188L143.275 117.537L147.024 87.3623L159.725 88.9248ZM799.725 88.9248L796.438 115.45L817.713 131.612L820.638 133.838L820.187 137.487L816.913 164L838.175 180.176L841.1 182.4L840.65 186.062L837.375 212.562L858.638 228.737L861.562 230.975L861.112 234.625L857.838 261.125L879.101 277.301L871.35 287.5L847.138 269.1L844.213 266.875L844.663 263.213L847.95 236.7L826.675 220.538L823.75 218.312L824.199 214.649L827.488 188.125L806.213 171.975L803.287 169.75L803.737 166.088L807.037 139.562L785.75 123.4L782.825 121.188L783.275 117.537L787.024 87.3623L799.725 88.9248ZM13.8252 256.312L2.97461 263.113L0 258.363V234.312L13.8252 256.312ZM604.325 236.663L625.149 222.95L630.612 219.362L634.075 224.899L640 234.312L653.825 256.312L642.975 263.113L640 258.363L626.712 237.212L605.899 250.938L600.438 254.525L596.963 248.987L577.225 217.574L588.075 210.775L604.325 236.663ZM1244.33 236.663L1265.15 222.95L1270.61 219.362L1274.08 224.899L1280 234.312V258.363L1266.71 237.212L1245.9 250.938L1240.44 254.525L1236.96 248.987L1217.22 217.574L1228.08 210.775L1244.33 236.663ZM247.638 167.913C247.686 168.028 247.77 168.212 247.875 168.45C248.086 168.926 248.404 169.635 248.825 170.5C249.671 172.242 250.907 174.596 252.438 177.05C255.744 182.348 259.548 186.639 262.975 187.987C265.6 189.018 267.865 188.278 272.987 185.899C277.373 183.865 284.626 180.195 293.05 183.5C301.473 186.809 304.309 194.439 306.138 198.912C308.273 204.133 309.416 206.208 312.037 207.237C314.662 208.268 316.916 207.526 322.038 205.149C326.422 203.115 333.677 199.447 342.101 202.749C350.524 206.057 353.346 213.689 355.175 218.162C357.312 223.388 358.464 225.47 361.088 226.5C364.516 227.845 370.231 227.299 376.263 225.663C379.05 224.907 381.545 224.014 383.35 223.312C384.246 222.964 384.97 222.669 385.45 222.463L386.138 222.162L391.513 233.775L390.5 234.213C389.897 234.471 389.041 234.84 387.987 235.25C385.884 236.067 382.938 237.12 379.6 238.025C373.361 239.716 364.032 241.403 356.412 238.413C347.991 235.107 345.167 227.486 343.337 223.013C341.199 217.785 340.05 215.705 337.425 214.675C334.801 213.646 332.547 214.386 327.426 216.763C323.041 218.797 315.786 222.455 307.362 219.15C298.939 215.843 296.116 208.224 294.287 203.75C292.151 198.524 290.998 196.442 288.375 195.412C285.752 194.383 283.494 195.137 278.374 197.513C273.99 199.547 266.723 203.207 258.3 199.9C250.681 196.908 244.997 189.321 241.574 183.838C239.744 180.903 238.298 178.128 237.312 176.1C236.818 175.082 236.427 174.237 236.162 173.637C236.03 173.34 235.935 173.096 235.863 172.926C235.826 172.841 235.795 172.763 235.774 172.713L235.737 172.638L235.725 172.625L241.65 170.2L247.588 167.787C247.597 167.81 247.615 167.858 247.638 167.913ZM887.638 167.913C887.686 168.028 887.77 168.212 887.875 168.45C888.086 168.926 888.404 169.635 888.825 170.5C889.671 172.242 890.907 174.596 892.438 177.05C895.744 182.348 899.548 186.639 902.975 187.987C905.6 189.018 907.865 188.278 912.987 185.899C917.373 183.865 924.626 180.195 933.05 183.5C941.473 186.809 944.309 194.439 946.138 198.912C948.273 204.133 949.416 206.208 952.037 207.237C954.662 208.268 956.916 207.526 962.038 205.149C966.422 203.115 973.677 199.447 982.101 202.749C990.524 206.057 993.346 213.689 995.175 218.162C997.312 223.388 998.464 225.47 1001.09 226.5C1004.52 227.845 1010.23 227.299 1016.26 225.663C1019.05 224.907 1021.54 224.014 1023.35 223.312C1024.25 222.964 1024.97 222.669 1025.45 222.463L1026.14 222.162L1031.51 233.775L1030.5 234.213C1029.9 234.471 1029.04 234.84 1027.99 235.25C1025.88 236.067 1022.94 237.12 1019.6 238.025C1013.36 239.716 1004.03 241.403 996.412 238.413C987.991 235.107 985.167 227.486 983.337 223.013C981.199 217.785 980.05 215.705 977.425 214.675C974.801 213.646 972.547 214.386 967.426 216.763C963.041 218.797 955.786 222.455 947.362 219.15C938.939 215.843 936.116 208.224 934.287 203.75C932.151 198.524 930.998 196.442 928.375 195.412C925.752 194.383 923.494 195.137 918.374 197.513C913.99 199.547 906.723 203.207 898.3 199.9C890.681 196.908 884.997 189.321 881.574 183.838C879.744 180.903 878.298 178.128 877.312 176.1C876.818 175.082 876.427 174.237 876.162 173.637C876.03 173.34 875.935 173.096 875.863 172.926C875.826 172.841 875.795 172.763 875.774 172.713L875.737 172.638L875.725 172.625L881.65 170.2L887.588 167.787C887.597 167.81 887.615 167.858 887.638 167.913ZM136.187 205.05L131.412 209.325L126.638 213.574L104.463 188.787L109.225 184.512L114 180.25L136.187 205.05ZM776.187 205.05L771.412 209.325L766.638 213.574L744.463 188.787L749.225 184.512L754 180.25L776.187 205.05ZM499.05 114.237L505.45 114.537L504.737 129.713C504.234 140.658 498.314 150.576 489.038 156.226L487.124 157.312C480.807 160.609 476.715 167.018 476.388 174.138C475.882 185.083 469.953 195.002 460.675 200.65L458.775 201.726L445.301 208.75L439.375 197.4L452.862 190.374L455.124 188.987C460.145 185.456 463.326 179.768 463.612 173.537C464.153 161.864 470.861 151.364 481.225 145.962L483.488 144.575C488.506 141.045 491.672 135.364 491.963 129.138L492.65 113.95L499.05 114.237ZM1139.05 114.237L1145.45 114.537L1144.74 129.713C1144.23 140.658 1138.31 150.576 1129.04 156.226L1127.12 157.312C1120.81 160.609 1116.72 167.018 1116.39 174.138C1115.88 185.083 1109.95 195.002 1100.67 200.65L1098.78 201.726L1085.3 208.75L1079.38 197.4L1092.86 190.374L1095.12 188.987C1100.15 185.456 1103.33 179.768 1103.61 173.537C1104.15 161.864 1110.86 151.364 1121.22 145.962L1123.49 144.575C1128.51 141.045 1131.67 135.364 1131.96 129.138L1132.65 113.95L1139.05 114.237ZM388 143.087L393.524 146.55L389.938 152.025L376.213 172.837L402.112 189.088L395.312 199.938L363.9 180.199L358.363 176.737L361.949 171.263L375.662 150.438L349.775 134.188L356.575 123.35L388 143.087ZM1028 143.087L1033.52 146.55L1029.94 152.025L1016.21 172.837L1042.11 189.088L1035.31 199.938L1003.9 180.199L998.363 176.737L1001.95 171.263L1015.66 150.438L989.775 134.188L996.575 123.35L1028 143.087ZM635.838 94.9121C635.866 94.9171 636.202 94.9558 640 95.5371C640.626 95.633 641.346 95.7477 642.175 95.875L648.5 96.8623H648.487V96.8877C648.485 96.9033 648.479 96.9266 648.475 96.9502C648.466 97.0034 648.453 97.0843 648.438 97.1748C648.407 97.3577 648.358 97.6175 648.3 97.9375C648.182 98.5823 648.018 99.4956 647.775 100.6C647.291 102.803 646.521 105.842 645.425 109.125C644.259 112.616 642.503 116.919 640 120.862C638.107 123.845 635.802 126.631 632.913 128.65C625.493 133.829 617.574 131.954 612.837 131C607.31 129.886 604.946 129.691 602.638 131.3C600.326 132.915 599.683 135.207 598.825 140.787C598.09 145.564 597.132 153.641 589.713 158.825C582.297 164.004 574.39 162.13 569.65 161.175C564.115 160.06 561.736 159.862 559.426 161.475C557.114 163.09 556.483 165.384 555.625 170.962C554.89 175.74 553.93 183.817 546.513 189C539.803 193.687 530.338 194.225 523.875 194.038C520.415 193.937 517.3 193.591 515.063 193.288C513.942 193.136 513.021 192.986 512.375 192.876L511.3 192.688L513.812 180.137L514.55 180.263C515.066 180.351 515.834 180.483 516.787 180.613C518.707 180.873 521.348 181.153 524.238 181.237C530.479 181.419 536.155 180.618 539.175 178.513C541.486 176.899 542.13 174.605 542.987 169.025C543.722 164.247 544.681 156.17 552.1 150.987C559.518 145.807 567.424 147.683 572.162 148.638C577.699 149.754 580.076 149.941 582.388 148.325C584.693 146.711 585.319 144.423 586.175 138.851C586.91 134.074 587.881 125.996 595.3 120.812C602.72 115.631 610.636 117.496 615.375 118.45C620.909 119.565 623.275 119.765 625.587 118.15C628.605 116.04 631.31 110.975 633.288 105.05C634.202 102.31 634.847 99.7401 635.263 97.8496C635.47 96.9084 635.618 96.139 635.712 95.625C635.759 95.3712 635.792 95.1726 635.813 95.0498C635.822 94.9921 635.834 94.9493 635.838 94.9248V94.9121ZM1275.84 94.9121C1275.87 94.9171 1276.2 94.9558 1280 95.5371V120.862C1278.11 123.845 1275.8 126.631 1272.91 128.65C1265.49 133.829 1257.57 131.954 1252.84 131C1247.31 129.886 1244.95 129.691 1242.64 131.3C1240.33 132.915 1239.68 135.207 1238.83 140.787C1238.09 145.564 1237.13 153.641 1229.71 158.825C1222.3 164.004 1214.39 162.13 1209.65 161.175C1204.11 160.06 1201.74 159.862 1199.43 161.475C1197.11 163.09 1196.48 165.384 1195.62 170.962C1194.89 175.74 1193.93 183.817 1186.51 189C1179.8 193.687 1170.34 194.225 1163.88 194.038C1160.42 193.937 1157.3 193.591 1155.06 193.288C1153.94 193.136 1153.02 192.986 1152.38 192.876L1151.3 192.688L1153.81 180.137L1154.55 180.263C1155.07 180.351 1155.83 180.483 1156.79 180.613C1158.71 180.873 1161.35 181.153 1164.24 181.237C1170.48 181.419 1176.16 180.618 1179.17 178.513C1181.49 176.899 1182.13 174.605 1182.99 169.025C1183.72 164.247 1184.68 156.17 1192.1 150.987C1199.52 145.807 1207.42 147.683 1212.16 148.638C1217.7 149.754 1220.08 149.941 1222.39 148.325C1224.69 146.711 1225.32 144.423 1226.17 138.851C1226.91 134.074 1227.88 125.996 1235.3 120.812C1242.72 115.631 1250.64 117.496 1255.38 118.45C1260.91 119.565 1263.28 119.765 1265.59 118.15C1268.61 116.04 1271.31 110.975 1273.29 105.05C1274.2 102.31 1274.85 99.7401 1275.26 97.8496C1275.47 96.9084 1275.62 96.139 1275.71 95.625C1275.76 95.3712 1275.79 95.1726 1275.81 95.0498C1275.82 94.9921 1275.83 94.9493 1275.84 94.9248V94.9121ZM115.987 88.1504L122.05 90.1748L117.25 104.588C113.786 114.984 105.378 122.914 94.9121 125.825L92.7871 126.35C85.8112 127.802 80.1291 132.853 77.875 139.612C74.411 150.008 66.0036 157.939 55.5371 160.85L53.4248 161.362L38.5371 164.462L35.9248 151.938L50.8125 148.85L53.375 148.125C59.1644 146.092 63.7656 141.489 65.7373 135.575C69.4327 124.487 78.7442 116.204 90.1875 113.825L92.75 113.1C98.5386 111.067 103.128 106.463 105.1 100.55L109.9 86.125L115.987 88.1504ZM755.987 88.1504L762.05 90.1748L757.25 104.588C753.786 114.984 745.378 122.914 734.912 125.825L732.787 126.35C725.811 127.802 720.129 132.853 717.875 139.612C714.411 150.008 706.004 157.939 695.537 160.85L693.425 161.362L678.537 164.462L675.925 151.938L690.812 148.85L693.375 148.125C699.164 146.092 703.766 141.489 705.737 135.575C709.433 124.487 718.744 116.204 730.188 113.825L732.75 113.1C738.539 111.067 743.128 106.463 745.1 100.55L749.9 86.125L755.987 88.1504ZM412.85 68.125L392.625 90.8125L390.188 93.5625L386.575 92.8252L360.388 87.4873L342.625 107.438L340.176 110.188L336.562 109.45L310.374 104.1L292.613 124.05L290.162 126.8L286.55 126.062L260.362 120.713L242.6 140.663L240.149 143.412L236.551 142.675L206.763 136.601L209.312 124.05L235.488 129.4L253.274 109.45L255.712 106.7L259.325 107.438L285.487 112.775L303.275 92.8379L305.726 90.0752L309.338 90.8252L335.5 96.1504L353.288 76.2129L355.737 73.4629L359.35 74.2002L385.513 79.5371L403.3 59.5996L412.85 68.125ZM1052.85 68.125L1032.62 90.8125L1030.19 93.5625L1026.58 92.8252L1000.39 87.4873L982.625 107.438L980.176 110.188L976.562 109.45L950.374 104.1L932.613 124.05L930.162 126.8L926.55 126.062L900.362 120.713L882.6 140.663L880.149 143.412L876.551 142.675L846.763 136.601L849.312 124.05L875.488 129.4L893.274 109.45L895.712 106.7L899.325 107.438L925.487 112.775L943.275 92.8379L945.726 90.0752L949.338 90.8252L975.5 96.1504L993.288 76.2129L995.737 73.4629L999.35 74.2002L1025.51 79.5371L1043.3 59.5996L1052.85 68.125ZM566.649 138.699L553.975 140.425L549.475 107.463L555.813 106.588L562.15 105.725L566.649 138.699ZM1206.65 138.699L1193.97 140.425L1189.47 107.463L1195.81 106.588L1202.15 105.725L1206.65 138.699ZM450.525 126.412L438.15 129.688L429.663 97.5L442.038 94.25L450.525 126.412ZM1090.53 126.412L1078.15 129.688L1069.66 97.5L1082.04 94.25L1090.53 126.412ZM2.1748 95.875L8.5 96.8623H8.4873V96.8877C8.48482 96.9033 8.47884 96.9266 8.47461 96.9502C8.46608 97.0034 8.45266 97.0843 8.4375 97.1748C8.40679 97.3577 8.35835 97.6175 8.2998 97.9375C8.18179 98.5823 8.0182 99.4956 7.77539 100.6C7.29053 102.803 6.52075 105.842 5.4248 109.125C4.25906 112.616 2.50341 116.919 0 120.862V95.5371C0.626274 95.633 1.34611 95.7477 2.1748 95.875ZM132.226 5.77539L158.537 10.4004L162.162 11.0371L163.438 14.4873L172.675 39.5371L198.987 44.1621L202.625 44.7998L203.9 48.2627L213.138 73.3125L239.449 77.9375L238.35 84.2373L237.237 90.5498L207.3 85.2998L203.675 84.6748L202.388 81.2129L193.149 56.1377L166.838 51.5371L163.213 50.9004L161.938 47.4375L152.688 22.375L126.375 17.7627L122.75 17.1377L121.475 13.6748L116.438 0H130.088L132.226 5.77539ZM772.226 5.77539L798.537 10.4004L802.162 11.0371L803.438 14.4873L812.675 39.5371L838.987 44.1621L842.625 44.7998L843.9 48.2627L853.138 73.3125L879.449 77.9375L878.35 84.2373L877.237 90.5498L847.3 85.2998L843.675 84.6748L842.388 81.2129L833.149 56.1377L806.838 51.5371L803.213 50.9004L801.938 47.4375L792.688 22.375L766.375 17.7627L762.75 17.1377L761.475 13.6748L756.438 0H770.088L772.226 5.77539ZM553.262 0C553.088 0.188467 552.91 0.381374 552.75 0.599609C551.08 2.871 551.221 5.25077 552.2 10.8125C553.04 15.5739 554.71 23.5244 549.351 30.8125C543.988 38.1015 535.894 38.8697 531.101 39.4873C525.502 40.2088 523.195 40.7913 521.524 43.0625C519.86 45.331 519.998 47.6983 520.976 53.25C521.814 58.0102 523.488 65.9707 518.125 73.2627C513.275 79.855 504.491 83.4027 498.312 85.2998C495.003 86.3155 491.94 87.0067 489.726 87.4375C488.616 87.6532 487.696 87.7982 487.05 87.9004C486.729 87.951 486.47 87.9866 486.287 88.0127C486.197 88.0256 486.116 88.0299 486.062 88.0371C486.042 88.0406 486.026 88.059 486.012 88.0625H485.975L485.149 81.7246C484.42 76.0598 484.346 75.4408 484.338 75.375L484.35 75.3623C484.375 75.3593 484.419 75.3572 484.475 75.3496C484.599 75.3319 484.805 75.3033 485.062 75.2627C485.578 75.1812 486.344 75.0459 487.287 74.8623C489.188 74.4925 491.775 73.91 494.537 73.0625C500.507 71.2306 505.627 68.6508 507.813 65.6875C509.484 63.4158 509.355 61.0372 508.375 55.4746C507.537 50.715 505.855 42.764 511.213 35.4746C516.576 28.1827 524.681 27.4048 529.475 26.7871C535.071 26.0661 537.367 25.4939 539.037 23.2246C540.707 20.9535 540.58 18.5859 539.6 13.0254C539.026 9.76829 538.063 5.01418 539.226 0H553.262ZM1193.26 0C1193.09 0.188467 1192.91 0.381374 1192.75 0.599609C1191.08 2.871 1191.22 5.25077 1192.2 10.8125C1193.04 15.5739 1194.71 23.5244 1189.35 30.8125C1183.99 38.1015 1175.89 38.8697 1171.1 39.4873C1165.5 40.2088 1163.19 40.7913 1161.52 43.0625C1159.86 45.331 1160 47.6983 1160.98 53.25C1161.81 58.0102 1163.49 65.9707 1158.12 73.2627C1153.28 79.855 1144.49 83.4027 1138.31 85.2998C1135 86.3155 1131.94 87.0067 1129.73 87.4375C1128.62 87.6532 1127.7 87.7982 1127.05 87.9004C1126.73 87.951 1126.47 87.9866 1126.29 88.0127C1126.2 88.0256 1126.12 88.0299 1126.06 88.0371C1126.04 88.0406 1126.03 88.059 1126.01 88.0625H1125.97L1125.15 81.7246C1124.42 76.0598 1124.35 75.4408 1124.34 75.375L1124.35 75.3623C1124.38 75.3593 1124.42 75.3572 1124.47 75.3496C1124.6 75.3319 1124.81 75.3033 1125.06 75.2627C1125.58 75.1812 1126.34 75.0459 1127.29 74.8623C1129.19 74.4925 1131.77 73.91 1134.54 73.0625C1140.51 71.2306 1145.63 68.6508 1147.81 65.6875C1149.48 63.4158 1149.36 61.0372 1148.38 55.4746C1147.54 50.715 1145.85 42.764 1151.21 35.4746C1156.58 28.1827 1164.68 27.4048 1169.47 26.7871C1175.07 26.0661 1177.37 25.4939 1179.04 23.2246C1180.71 20.9535 1180.58 18.5859 1179.6 13.0254C1179.03 9.76829 1178.06 5.01418 1179.23 0H1193.26ZM65.4248 66.9248L63.7871 73.125L62.1504 79.2998L29.9873 70.8252L31.6123 64.6377L33.2373 58.4375L65.4248 66.9248ZM705.425 66.9248L703.787 73.125L702.15 79.2998L669.987 70.8252L671.612 64.6377L673.237 58.4375L705.425 66.9248ZM296.899 52.4746L295.538 58.7373L294.162 64.9746L261.663 57.8877L263.013 51.6504L264.375 45.3877L296.899 52.4746ZM936.899 52.4746L935.538 58.7373L934.162 64.9746L901.663 57.8877L903.013 51.6504L904.375 45.3877L936.899 52.4746ZM586.688 42.1621L589.938 47.6621L561.338 64.625L558.062 59.1377L554.801 53.625L583.426 36.6504L586.688 42.1621ZM1226.69 42.1621L1229.94 47.6621L1201.34 64.625L1198.06 59.1377L1194.8 53.625L1223.43 36.6504L1226.69 42.1621ZM474.112 6.625L486.675 28.1621L489.962 33.8252L484.25 36.9873L451.801 54.9873L445.613 43.7871L472.35 28.9629L459.774 7.4375L456.487 1.77539L459.688 0H486.062L474.112 6.625ZM1114.11 6.625L1126.67 28.1621L1129.96 33.8252L1124.25 36.9873L1091.8 54.9873L1085.61 43.7871L1112.35 28.9629L1099.77 7.4375L1096.49 1.77539L1099.69 0H1126.06L1114.11 6.625ZM391.263 19.7129C399.256 12.2187 410.423 9.24167 421.013 11.6621L423.124 12.2246L437.688 16.5752L434.012 28.8496L419.449 24.4746L416.862 23.8877C410.8 22.919 404.562 24.7844 400.013 29.0498C391.484 37.0434 379.347 39.8925 368.149 36.5371L365.562 35.9502C359.503 34.9825 353.274 36.8507 348.725 41.1123L337.637 51.5127L333.251 46.8496L328.876 42.1748L339.963 31.7754C347.956 24.2807 359.122 21.3164 369.713 23.7373L371.838 24.2871C378.664 26.3292 386.063 24.5863 391.263 19.7129ZM1031.26 19.7129C1039.26 12.2187 1050.42 9.24167 1061.01 11.6621L1063.12 12.2246L1077.69 16.5752L1074.01 28.8496L1059.45 24.4746L1056.86 23.8877C1050.8 22.919 1044.56 24.7844 1040.01 29.0498C1031.48 37.0434 1019.35 39.8925 1008.15 36.5371L1005.56 35.9502C999.503 34.9825 993.274 36.8507 988.725 41.1123L977.637 51.5127L973.251 46.8496L968.876 42.1748L979.963 31.7754C987.956 24.2807 999.122 21.3164 1009.71 23.7373L1011.84 24.2871C1018.66 26.3292 1026.06 24.5863 1031.26 19.7129ZM7.4502 12.1504C18.4332 8.15544 30.7128 10.3006 39.6875 17.7871L41.8379 19.3496C47.0282 22.6228 53.4909 23.3669 59.3496 21.2373L73.6377 16.0254L75.8252 22.0498L78.0127 28.0625L63.7246 33.25C53.4285 36.9954 41.9969 35.3517 33.2129 28.9629L31.4873 27.6123C26.0145 23.0496 18.5216 21.74 11.8252 24.1748C7.97715 25.5751 3.96929 26.2117 0 26.1377V13.3125C2.49912 13.3879 5.02653 13.0325 7.4502 12.1504ZM627.774 8.71289L629.925 10.2754C632.97 12.1957 636.456 13.2056 640 13.3125C642.499 13.3879 645.027 13.0325 647.45 12.1504C658.433 8.15544 670.713 10.3006 679.688 17.7871L681.838 19.3496C687.028 22.6228 693.491 23.3669 699.35 21.2373L713.638 16.0254L715.825 22.0498L718.013 28.0625L703.725 33.25C693.429 36.9954 681.997 35.3517 673.213 28.9629L671.487 27.6123C666.014 23.0496 658.522 21.74 651.825 24.1748C647.977 25.5751 643.969 26.2117 640 26.1377C633.347 26.0139 626.802 23.8777 621.301 19.875L619.588 18.5371L607.913 8.7998L615.25 0H617.325L627.774 8.71289ZM245.85 0C250.013 1.0467 253.397 3.19455 255.838 4.6875C260.654 7.63314 262.812 8.62408 265.537 7.90039C268.26 7.17574 269.644 5.24549 272.362 0.299805C272.417 0.200033 272.482 0.103019 272.538 0H288.112C286.662 1.1475 285.421 3.10528 283.575 6.46289C281.247 10.6983 277.57 17.9506 268.825 20.2754C260.078 22.5986 253.286 18.1218 249.162 15.5996C244.346 12.6541 242.188 11.6644 239.463 12.3877C235.903 13.3334 231.629 17.1605 227.737 22.0498C225.938 24.3116 224.44 26.5036 223.399 28.1377C222.885 28.9472 222.49 29.6126 222.225 30.0625L221.85 30.7129L210.638 24.5254L211.188 23.5879C211.52 23.0223 211.993 22.2172 212.601 21.2627C213.811 19.3595 215.57 16.77 217.726 14.0625C221.751 9.0053 228.264 2.11447 236.176 0.0126953C236.192 0.00832301 236.209 0.00433321 236.226 0H245.85ZM885.85 0C890.013 1.0467 893.397 3.19455 895.838 4.6875C900.654 7.63314 902.812 8.62408 905.537 7.90039C908.26 7.17574 909.644 5.24549 912.362 0.299805C912.417 0.200033 912.482 0.103019 912.538 0H928.112C926.662 1.1475 925.421 3.10528 923.575 6.46289C921.247 10.6983 917.57 17.9506 908.825 20.2754C900.078 22.5986 893.286 18.1218 889.162 15.5996C884.346 12.6541 882.188 11.6644 879.463 12.3877C875.903 13.3334 871.629 17.1605 867.737 22.0498C865.938 24.3116 864.44 26.5036 863.399 28.1377C862.885 28.9472 862.49 29.6126 862.225 30.0625L861.85 30.7129L850.638 24.5254L851.188 23.5879C851.52 23.0223 851.993 22.2172 852.601 21.2627C853.811 19.3595 855.57 16.77 857.726 14.0625C861.751 9.0053 868.264 2.11447 876.176 0.0126953C876.192 0.00832301 876.209 0.00433321 876.226 0H885.85ZM1267.77 8.71289L1269.92 10.2754C1272.97 12.1957 1276.46 13.2056 1280 13.3125V26.1377C1273.35 26.0139 1266.8 23.8777 1261.3 19.875L1259.59 18.5371L1247.91 8.7998L1255.25 0H1257.33L1267.77 8.71289ZM329.975 0C327.628 2.84388 324.422 5.50833 319.75 6.75C311.005 9.06952 304.21 4.59663 300.087 2.0752C298.685 1.21798 297.505 0.533316 296.475 0H329.975ZM969.975 0C967.628 2.84388 964.422 5.50833 959.75 6.75C951.005 9.06952 944.21 4.59663 940.087 2.0752C938.685 1.21798 937.505 0.533316 936.475 0H969.975Z" fill="white" fill-opacity="0.1"/>
</g>
</svg>
