<svg xmlns="http://www.w3.org/2000/svg" width="44" height="44"><g data-name="グループ 43" transform="translate(-562 -2517)"><circle data-name="楕円形 1" cx="22" cy="22" r="22" transform="translate(562 2517)" fill="#2ca4a8"/><path data-name="Vector (Stroke)" d="M589.859 2536.028a4.089 4.089 0 013.226 4.016l.008.684a1.828 1.828 0 01-1.807 1.807h-2.893a1.817 1.817 0 01-1.8-1.8.506.506 0 00-.035-.19.465.465 0 00-.434-.289h-4.546a.486.486 0 00-.478.481 1.817 1.817 0 01-1.8 1.8l-2.892.015a1.828 1.828 0 01-1.808-1.808l.008-.684a4.088 4.088 0 013.226-4.016 31.036 31.036 0 0112.025-.016z" fill="#fff"/></g></svg>