<svg preserveAspectRatio="none" width="100%" height="100%" overflow="visible" style="display: block;" viewBox="0 0 52.1498 34.2449" fill="none" xmlns="http://www.w3.org/2000/svg">
<path id="&#227;&#131;&#145;&#227;&#130;&#185; 112" d="M0.185847 33.447C-0.883153 30.955 2.85585 30.324 6.37685 29.209C8.91285 28.409 10.4768 21.409 13.0238 20.531C13.4754 20.4232 13.948 20.4415 14.3898 20.584C14.8538 20.719 17.0068 21.523 17.5058 21.662C17.8684 21.7855 18.2645 21.7643 18.6118 21.603C19.9708 20.548 20.2118 18.675 21.1388 17.316C23.9718 13.147 26.9488 9.07697 29.7898 4.91597C30.0898 4.48097 30.3438 4.01597 30.6378 3.58397C31.3206 2.39222 32.2019 1.32588 33.2438 0.430967C33.4286 0.26716 33.6466 0.145258 33.8829 0.073625C34.1192 0.00199203 34.3682 -0.0176778 34.6128 0.0159659C35.7001 0.410773 36.6182 1.16787 37.2128 2.15997C37.8922 3.04435 38.5263 3.96252 39.1128 4.91097C40.7941 7.87358 42.087 11.0403 42.9598 14.333C43.4557 16.5435 44.174 18.6981 45.1038 20.764C45.3303 21.2308 45.6098 21.6701 45.9368 22.073C46.0528 22.189 46.1658 22.39 46.3288 22.373C46.5698 22.347 46.7408 22.117 46.9288 21.968C47.8438 21.251 48.4658 20.343 49.0978 20.343C49.7298 20.343 50.6658 20.765 51.2258 23.149C51.8246 25.4523 52.135 27.8211 52.1498 30.201C52.1208 30.801 51.9698 32.077 51.2258 32.401C50.9478 32.5073 50.6564 32.5746 50.3598 32.601C48.4168 32.865 43.3488 32.99 42.7238 33.001C24.1068 33.347 0.991847 35.324 0.185847 33.447Z" fill="#253c30"/>
</svg>
