<svg preserveAspectRatio="none" width="100%" height="100%" overflow="visible" style="display: block;" viewBox="0 0 36.552 35.943" fill="none" xmlns="http://www.w3.org/2000/svg">
<path id="&#227;&#131;&#145;&#227;&#130;&#185; 54" d="M0 14.758L18.273 0L36.552 14.758V35.943H27.873V29.666C27.8859 28.3978 27.6473 27.1396 27.171 25.9642C26.6946 24.7888 25.9899 23.7195 25.0977 22.8181C24.2055 21.9167 23.1435 21.2012 21.973 20.7128C20.8025 20.2245 19.5468 19.973 18.2785 19.973C17.0102 19.973 15.7545 20.2245 14.584 20.7128C13.4135 21.2012 12.3515 21.9167 11.4593 22.8181C10.567 23.7195 9.86238 24.7888 9.38602 25.9642C8.90966 27.1396 8.67105 28.3978 8.684 29.666V35.943H0V14.758Z" fill="#253c30"/>
</svg>
