<svg xmlns="http://www.w3.org/2000/svg" width="44" height="44"><g data-name="グループ 42" transform="translate(-508 -2517)"><circle data-name="楕円形 2" cx="22" cy="22" r="22" transform="translate(508 2517)" fill="#2ca4a8"/><path d="M527.767 2530.449a8.908 8.908 0 00-6.384 7.756h4.072a20.044 20.044 0 012.312-7.756zm-2.312 9.35h-4.072a8.908 8.908 0 006.385 7.756 20.044 20.044 0 01-2.313-7.756zm4.354 8.1a18.408 18.408 0 01-2.761-8.1h6.4a18.408 18.408 0 01-2.758 8.1q-.22.011-.442.011t-.442-.02zm2.923-.34a8.908 8.908 0 006.382-7.76h-4.069a20.043 20.043 0 01-2.316 7.751zm2.313-9.354h4.069a8.908 8.908 0 00-6.385-7.756 20.043 20.043 0 012.316 7.756zm-5.239-8.095q.22-.011.442-.011t.442.011a18.408 18.408 0 012.758 8.1h-6.4a18.408 18.408 0 012.758-8.1z" fill="#fff" fill-rule="evenodd"/></g></svg>