<svg xmlns="http://www.w3.org/2000/svg" width="106.193" height="105.335"><path data-name="パス 138" d="M54.42 28.113q-.884.757-1.772 1.51l-.267.229a17.869 17.869 0 01-6.874 3.992 9.352 9.352 0 01-7.867-1.329 11.83 11.83 0 01-3.762-4.571 31.232 31.232 0 01-1.999-6.047q-.055-.236-.116-.47c-1.05-3.906-3.132-4.747-4.234-4.845-1.257-.112-3.319.53-4.72 3.415a15.371 15.371 0 00-1.152 9.716s1.156 4.475.494 6.898S12 41.342 10.897 38.452c-.897-2.349-1.87-6.217-1.87-6.217a28.241 28.241 0 012.2-17.865C14.683 7.262 21.474 3.12 28.665 3.759c8.557.759 13.904 7.78 15.853 15.596l.058.229 1.295-1.104c3.87-3.31 7.95-6.928 12.473-9.323A16.641 16.641 0 0169.516 7.17a10.507 10.507 0 018.254 7.647 20.455 20.455 0 01.408 7.23l-.003.03a74.692 74.692 0 01-.47 4.197c4.38-.799 10.74-1.186 16.184 2.427a14.742 14.742 0 015.485 17.398c-1.795 4.705-5.396 7.233-7.912 8.837a154.5 154.5 0 01-3.312 2.043c-1.645.994-3.056 1.847-4.427 2.855.215.102.425.203.622.302a30.894 30.894 0 019.007 6.7 16.776 16.776 0 014.529 9.174 13.827 13.827 0 01-3.458 10.825c-5.236 6.12-16.445 16.449-26.032 15.271-1.914-.235-6.922-4.508-4.322-8.81 1.3-2.153 5.443-3.44 5.443-3.44L70.869 89c5.555-3.5 10.311-6.492 13.77-10.536a2.176 2.176 0 00.447-.698.378.378 0 00.015-.186 4.292 4.292 0 00-1.243-2.046 18.048 18.048 0 00-5.275-3.881c-.42-.21-.756-.362-1.185-.556-.293-.137-.63-.284-1.064-.486a23.7 23.7 0 01-3.18-1.747 10.717 10.717 0 01-3.856-4.222 8.889 8.889 0 01.067-7.637 18 18 0 015.231-6.39 69.958 69.958 0 017.677-5.143 110 110 0 002.265-1.393c2.117-1.352 2.58-1.983 2.804-2.569a1.928 1.928 0 00.014-1.22 1.554 1.554 0 00-.588-.862c-3.368-2.234-8.157.08-11.76.713a14.484 14.484 0 01-4.39.175 7.813 7.813 0 01-6.634-5.467c-.753-2.58 4.845-13.921 1.43-14.795-1.986-.508-9.283 6.595-10.996 8.06z" fill="#edcf6a" fill-rule="evenodd"/></svg>