<svg viewBox="0 0 41.622 41.622" fill="none" xmlns="http://www.w3.org/2000/svg">
<g id="&#227;&#130;&#176;&#227;&#131;&#171;&#227;&#131;&#188;&#227;&#131;&#151; 24">
<path id="&#227;&#131;&#145;&#227;&#130;&#185; 57" fill-rule="evenodd" clip-rule="evenodd" d="M20.811 5.54802C17.7925 5.54802 14.8417 6.44312 12.3319 8.12013C9.82206 9.79714 7.8659 12.1807 6.71075 14.9695C5.55561 17.7583 5.25337 20.827 5.84226 23.7875C6.43114 26.748 7.88471 29.4675 10.0191 31.6019C12.1536 33.7363 14.873 35.1899 17.8335 35.7788C20.7941 36.3677 23.8628 36.0654 26.6515 34.9103C29.4403 33.7551 31.8239 31.799 33.5009 29.2891C35.1779 26.7793 36.073 23.8286 36.073 20.81C36.0727 16.7624 34.4647 12.8806 31.6026 10.0185C28.7404 7.15633 24.8587 5.54829 20.811 5.54802ZM0 20.81C0.000197779 16.694 1.22091 12.6705 3.50777 9.24832C5.79463 5.8261 9.04494 3.15886 12.8477 1.58388C16.6504 0.0088962 20.8348 -0.403088 24.8716 0.400022C28.9085 1.20313 32.6166 3.18527 35.527 6.09578C38.4373 9.00629 40.4193 12.7145 41.2222 16.7514C42.0251 20.7883 41.6129 24.9726 40.0378 28.7753C38.4626 32.5779 35.7952 35.8281 32.3729 38.1148C28.9505 40.4015 24.927 41.622 20.811 41.622C15.2915 41.6218 9.99813 39.429 6.09534 35.526C2.19255 31.623 -6.37152e-09 26.3295 0 20.81Z" fill="#253c30"/>
<path id="&#227;&#131;&#145;&#227;&#130;&#185; 58" fill-rule="evenodd" clip-rule="evenodd" d="M20.812 15.261C19.7145 15.261 18.6417 15.5865 17.7291 16.1962C16.8166 16.8059 16.1054 17.6726 15.6854 18.6865C15.2654 19.7005 15.1555 20.8162 15.3696 21.8926C15.5837 22.969 16.1122 23.9577 16.8883 24.7338C17.6643 25.5098 18.653 26.0383 19.7294 26.2524C20.8058 26.4665 21.9216 26.3566 22.9355 25.9366C23.9495 25.5166 24.8161 24.8054 25.4258 23.8929C26.0356 22.9804 26.361 21.9075 26.361 20.81C26.3607 19.3384 25.776 17.9272 24.7354 16.8866C23.6949 15.846 22.2836 15.2613 20.812 15.261ZM9.712 20.81C9.712 18.6146 10.363 16.4686 11.5827 14.6432C12.8024 12.8178 14.536 11.3951 16.5642 10.555C18.5925 9.71483 20.8243 9.49501 22.9775 9.92331C25.1307 10.3516 27.1085 11.4088 28.6609 12.9611C30.2132 14.5135 31.2704 16.4913 31.6987 18.6445C32.127 20.7977 31.9072 23.0295 31.0671 25.0578C30.2269 27.0861 28.8042 28.8197 26.9788 30.0393C25.1534 31.259 23.0074 31.91 20.812 31.91C17.8683 31.91 15.0451 30.7407 12.9635 28.6593C10.8818 26.5778 9.71227 23.7538 9.712 20.81Z" fill="#253c30"/>
</g>
</svg>
