<svg preserveAspectRatio="none" width="100%" height="100%" overflow="visible" style="display: block;" viewBox="0 0 51.237 51.237" fill="none" xmlns="http://www.w3.org/2000/svg">
<path id="パス 127" d="M25.619 11C23.2 14 22 18 22 23C16 21 10 21.5 5 24.5C2 26 1 28.5 3 30.5C5 32.5 9 31.5 13.5 29.5C17.5 27.8 21 27.5 23 30L25.619 45L28.238 30C30.238 27.5 33.738 27.8 37.738 29.5C42.238 31.5 46.238 32.5 48.238 30.5C50.238 28.5 49.238 26 46.238 24.5C41.238 21.5 35.238 21 29.238 23C29.238 18 28.038 14 25.619 11Z" fill="#253c30"/>
</svg>
