<svg width="52" height="65" viewBox="0 0 52 65" fill="none" xmlns="http://www.w3.org/2000/svg">
<mask id="mask0_45_444" style="mask-type:luminance" maskUnits="userSpaceOnUse" x="-1" y="0" width="53" height="65">
<path d="M51.1529 10.5924L16.5066 0L0 53.9908L34.6463 64.5832L51.1529 10.5924Z" fill="#253c30"/>
</mask>
<g mask="url(#mask0_45_444)">
<path d="M32.9853 35.1566C34.0363 35.7785 35.2265 36.3361 36.4381 36.1793C38.0113 35.9771 39.1283 34.5881 40.015 33.2734C42.4349 29.6859 44.4524 25.843 46.031 21.8139C46.5881 20.3918 47.1091 18.9139 48.0972 17.7505C48.5431 17.2257 49.0823 16.7664 49.4015 16.1567C50.2145 14.6033 49.3505 12.7362 48.4989 11.2034C47.9225 10.1664 47.0609 8.97498 45.8843 9.12608C45.4506 9.21246 45.0444 9.40274 44.7004 9.68061C42.8311 11 41.288 12.7291 40.1889 14.7358C39.3393 16.2903 38.7678 17.9923 37.8382 19.4992C36.1051 22.3081 33.2594 24.2396 30.3482 25.7948C25.6954 28.2802 20.6846 30.0164 15.888 32.2119C14.4382 32.8237 13.0662 33.6055 11.8007 34.5409C10.6918 35.4681 9.68216 36.5079 8.78812 37.6437C6.9881 39.7307 5.35098 41.9528 3.89119 44.2905C3.16032 45.5023 2.50702 46.7593 1.93521 48.0538C1.23248 49.6452 0.650388 51.4564 1.23604 53.0947C1.82169 54.7331 4.09219 55.7887 5.37879 54.618C5.69795 54.2759 5.982 53.9025 6.22667 53.5037C7.31799 52.0113 9.13919 51.2726 10.8726 50.6303C14.22 49.3904 17.7913 48.1111 19.9948 45.3027C22.3797 42.2631 22.9156 37.7163 26.1993 35.6801C28.1209 34.488 30.4307 34.3275 32.5931 34.9886C32.7281 35.0349 32.8595 35.0911 32.9862 35.1569" fill="#253c30"/>
</g>
</svg>
