<svg xmlns="http://www.w3.org/2000/svg" width="134.935" height="134.935"><defs><clipPath id="a"><path data-name="パス 127" d="M0 0h134.935v134.935H0z" fill="#2ca4a8"/></clipPath></defs><g data-name="グループ 30" clip-path="url(#a)"><path data-name="パス 126" d="M62.483 61.563c1.1.063-20.2-8.036-22.379-8.8-3.689-1.009-11.29 8.8-9.389 11.229-.682 1.133 6.486-.388 7.153 0a51.806 51.806 0 018.618 5.919c.483.4 1.636 4.56 1.513 5.133-.605 2.808-7.059 4.943-8.928 6-7.418 4.2-14.359 10.589-20.691 16.153-4.559 4.005-5.808 20.282-6.333 26.426a26.971 26.971 0 01-.67 4.877c-.587 2.711-.116 5.893 2.347 3.065 1.649-1.895 2-1.758 3.486-3.065 3.776-3.32 6.453-8.995 10.46-12.514 7.4-6.507 15.881-12.272 26.2-15.267 6.779-1.969 14.008-2.541 20.625-5.02 3.645-1.364 7.178-3.04 11.043-3.8.505-.1 3.323-1.1 3.784-.74 4.783 3.777 10.747 9.3 16.41 12.162.912.461 4.292 3.413 4.856 3.3.982-.192 2.384-4.631 2.858-5.467 2.546-4.491 6.919-8.815 9.253-12.932.4-.7-4.217-3.33-4.646-3.669-3.863-3.051-12.082-7.132-16.752-8.171-.87-.193-7.185-.894-6.894-2.247 1.183-5.5 4.728-9.942 5.935-15.555 2.448-11.375 4.349-25.017 6.562-35.3.409-1.9 3.061-4.113 4.271-5.415a117.67 117.67 0 008.482-11.146c.439-.608 3.782-4.737 3.522-4.942-3.5-2.764-15 1.164-18.355 2.284-5.707 1.906-15.3 1.451-19.96 5.544-1.789 1.572-2.679 5.83-3.177 8.145a56.559 56.559 0 01-6.062 14.929c-3.4 6-5.405 12.924-8.894 19.078-1.106 1.95-4.1 10.565-4.247 9.805z" fill="#2ca4a8" fill-rule="evenodd"/></g></svg>