<svg viewBox="0 0 113 132" fill="none" xmlns="http://www.w3.org/2000/svg">
<path fill-rule="evenodd" clip-rule="evenodd" d="M51.3333 60.7527C52.4333 60.8157 31.1333 52.7167 28.9543 51.9527C25.2653 50.9437 17.6643 60.7527 19.5653 63.1817C18.8833 64.3147 26.0513 62.7937 26.7183 63.1817C29.7832 64.8591 32.6706 66.8422 35.3363 69.1007C35.8193 69.5007 36.9723 73.6607 36.8493 74.2337C36.2443 77.0417 29.7903 79.1767 27.9213 80.2337C20.5033 84.4337 13.5623 90.8227 7.23028 96.3867C2.67128 100.392 1.42228 116.669 0.897281 122.813C0.823085 124.455 0.598818 126.088 0.227281 127.69C-0.359719 130.401 0.111281 133.583 2.57428 130.755C4.22328 128.86 4.57428 128.997 6.06028 127.69C9.83628 124.37 12.5133 118.695 16.5203 115.176C23.9203 108.669 32.4013 102.904 42.7203 99.9087C49.4993 97.9397 56.7283 97.3677 63.3453 94.8887C66.9903 93.5247 70.5233 91.8487 74.3883 91.0887C74.8933 90.9887 77.7113 89.9887 78.1723 90.3487C82.9553 94.1257 88.9193 99.6487 94.5823 102.511C95.4943 102.972 98.8743 105.924 99.4383 105.811C100.42 105.619 101.822 101.18 102.296 100.344C104.842 95.8527 109.215 91.5287 111.549 87.4117C111.949 86.7117 107.332 84.0817 106.903 83.7427C103.04 80.6917 94.8213 76.6107 90.1513 75.5717C89.2813 75.3787 82.9663 74.6777 83.2573 73.3247C84.4403 67.8247 87.9853 63.3827 89.1923 57.7697C91.6403 46.3947 93.5413 32.7527 95.7543 22.4697C96.1633 20.5697 98.8153 18.3567 100.025 17.0547C103.071 13.5111 105.904 9.78917 108.507 5.90871C108.946 5.30071 112.289 1.17171 112.029 0.966712C108.529 -1.79729 97.0293 2.13071 93.6743 3.25071C87.9673 5.15671 78.3743 4.70171 73.7143 8.79471C71.9253 10.3667 71.0353 14.6247 70.5373 16.9397C69.2394 22.1798 67.1981 27.2072 64.4753 31.8687C61.0753 37.8687 59.0703 44.7927 55.5813 50.9467C54.4753 52.8967 51.4813 61.5117 51.3343 60.7517L51.3333 60.7527Z" fill="#253c30"/>
</svg>
