<svg width="120" height="126" viewBox="0 0 120 126" fill="none" xmlns="http://www.w3.org/2000/svg">
<path fill-rule="evenodd" clip-rule="evenodd" d="M32.7879 88.3311C27.4009 86.8951 22.7429 84.0081 18.0309 81.1061C12.7739 77.8681 7.33087 73.9451 4.13087 68.5181C2.58309 65.6671 1.5027 62.5863 0.930874 59.3931C-0.615521 52.1067 -0.230111 44.5426 2.04887 37.4511C4.00787 31.4301 6.00987 26.1931 10.4119 21.4921C13.5767 18.1917 17.0724 15.2255 20.8439 12.6401C26.2809 8.82007 31.7269 5.34007 38.0829 3.34007C46.2759 0.756073 55.0659 0.462072 63.5829 0.140072C73.4489 -0.228928 84.5439 -0.138927 93.7599 3.86807C99.0809 6.18207 102.794 9.34507 107.124 13.2621C109.161 14.9195 110.902 16.912 112.27 19.1541C117.51 28.2771 120.493 38.9941 119.298 49.5441C118.486 56.0004 116.409 62.2334 113.188 67.8871C107.924 77.4031 95.3409 81.4301 92.4359 92.4871C91.3629 96.5691 92.6789 100.669 92.4359 104.9C91.9359 113.519 91.2549 114.483 90.1149 123.28C89.8409 125.389 85.6439 126.828 84.7719 123.28C82.7969 115.237 83.3119 114.098 80.4109 107.48C79.0719 104.428 76.7709 101.508 74.9679 98.7341C70.8879 92.4511 62.0079 93.2011 55.5059 92.7851C47.6549 92.2851 40.1269 91.4371 32.7929 88.3311H32.7879Z" fill="#2CA4A8"/>
</svg>
