<svg xmlns="http://www.w3.org/2000/svg" width="22.85" height="88.2"><path data-name="パス 137" d="M11.975 3.725a12.406 12.406 0 00.75-2.6c0-.7-.775-1.125-1.5-1.125a1.175 1.175 0 00-1.3 1.025 17.543 17.543 0 01-.55 2.725c-.85.025-1.65.05-2.35.075-1.925.075-3.2 1.1-3.25 2.65C3.725 8.1 3.7 10.2 3.7 12.25c0 2.325.025 4.6.075 6.175.075 1.8 1.2 2.825 3.45 2.925 1.275.05 2.775.075 4.3.075 1.725 0 3.525-.025 5.15-.075a3.127 3.127 0 003.225-3c.05-1.3.075-3.6.075-5.95 0-2.125-.025-4.25-.075-5.75a3.094 3.094 0 00-3.15-2.825c-1.275-.05-3-.1-4.775-.1zM6.1 10.875c0-1.25.05-2.4.075-3.325.075-1.725.45-1.725 5.675-1.725 5.175 0 5.55 0 5.625 1.725.025.925.05 2.075.05 3.325zm11.45 2.15c0 1.625-.025 3.175-.075 4.375-.075 1.8-.925 1.8-5.65 1.8-5.075 0-5.6-.075-5.65-1.725-.05-1.125-.075-2.75-.075-4.45zM21.475 37a.963.963 0 100-1.925H18.5V34.3a1.064 1.064 0 00-2.125 0v.775H14V34.3a1.051 1.051 0 00-2.1 0v.775H9.175a.963.963 0 100 1.925H11.9v.55a.972.972 0 001.05.95.972.972 0 001.05-.95V37h2.375v.55a1.069 1.069 0 002.125 0V37zM21.2 51.925a.922.922 0 00.95-.975.91.91 0 00-.95-.975h-5.025V48.45H21a.938.938 0 000-1.875h-1.2v-2.1h2.125a.884.884 0 00.9-.925.871.871 0 00-.9-.925H19.8v-1.9H21a.938.938 0 000-1.875H9.475a.938.938 0 100 1.875h1.175v1.9H9.025a.919.919 0 00-.975.925v.15c-.45-.6-1.55-1.6-2.075-1.6H5.85c0-.5.025-1.05.025-1.6l1.425.05h.05a.972.972 0 00.95-1.05 1 1 0 00-1-1.075H5.9c.025-2.275.075-4.3.075-4.3V34.1a1.141 1.141 0 00-1.2-1.15A1.081 1.081 0 003.65 34.1v.025l.075 4.3h-1.7a1.056 1.056 0 00-1.1 1.075 1.009 1.009 0 001.05 1.05h.05l1.725-.05v.525a21.959 21.959 0 01-3.45 5.95 1.131 1.131 0 00-.3.775 1.229 1.229 0 001.2 1.175c.675 0 1.225-.6 2.525-3.35l-.075 8.65v.025A1.063 1.063 0 004.8 55.3a1.071 1.071 0 001.175-1.05v-.025S5.875 48 5.85 44a10.01 10.01 0 01.725 1.075.808.808 0 00.7.425 1.119 1.119 0 001.05-1.1.55.55 0 00-.025-.2.96.96 0 00.725.275h1.625v2.1H9.475a.938.938 0 100 1.875h4.575v1.525H8.975a.958.958 0 00-1.025.975.972.972 0 001.025.975h5.075l-.025 2.275a1.088 1.088 0 102.175 0l-.025-2.275zm-3.425-9.3h-1.6v-1.9h1.6zm-3.725 0H12.5v-1.9h1.55zm3.725 3.95h-1.6v-2.1h1.6zm-3.725 0H12.5v-2.1h1.55zm3.1 37.35c0 1.05-.475 1.6-1.725 1.6a9.583 9.583 0 01-2.175-.35 1.72 1.72 0 00-.325-.05 1.057 1.057 0 00-1.05 1.125 1.259 1.259 0 001.075 1.25 12.248 12.248 0 002.475.3c3.15 0 4.15-1.825 4.15-3.375v-.05l-.05-3.45V73.7h2.125a1.093 1.093 0 100-2.175h-2.125v-4.25a1.188 1.188 0 00-2.375 0v4.25h-5a1.116 1.116 0 00-1.175 1.125 1.06 1.06 0 001.175 1.05h5zm-.975-4.65c0-1.225-3.275-3.4-4.075-3.4a1.153 1.153 0 00-1.175 1.025.946.946 0 00.525.8 11.144 11.144 0 012.6 2.375.984.984 0 00.85.45 1.328 1.328 0 001.275-1.25zm-8.7 7.875s-.1-5.45-.125-9.325a13.923 13.923 0 011.625 1.825.933.933 0 00.8.45 1.275 1.275 0 001.2-1.225 1.079 1.079 0 00-.25-.675C10.3 77.675 8.525 76 7.8 76a1.416 1.416 0 00-.45.075c0-.7.025-1.55.025-2.45l2.05.025h.025a1.021 1.021 0 001.075-1.075 1.062 1.062 0 00-1.1-1.1H7.4c.025-2.275.075-4.275.075-4.275v-.025a1.124 1.124 0 00-1.225-1.1 1.093 1.093 0 00-1.175 1.1v.025l.075 4.275H2.275a1.075 1.075 0 00-1.15 1.1A1.049 1.049 0 002.25 73.65h.025l2.9-.05v.1a25.638 25.638 0 01-4.55 6.725 1.183 1.183 0 00-.375.8 1.237 1.237 0 001.25 1.15 1.178 1.178 0 00.95-.475 30.007 30.007 0 002.725-4l-.1 9.25v.025a1.073 1.073 0 001.2 1.025 1.089 1.089 0 001.2-1.025z"/></svg>