<svg width="14" height="14" viewBox="0 0 14 14" fill="none" xmlns="http://www.w3.org/2000/svg">
<path fill-rule="evenodd" clip-rule="evenodd" d="M6.75 0C5.35 0 3.99 0.062 2.685 0.12L2.485 0.13C1.92845 0.145616 1.3926 0.344381 0.960499 0.695487C0.528397 1.04659 0.224179 1.53043 0.095 2.072C0.0343657 2.3554 0.00253719 2.6442 0 2.934C0.00288129 3.22378 0.034706 3.51255 0.095 3.796C0.22378 4.33741 0.527616 4.8212 0.95938 5.17232C1.39114 5.52345 1.92671 5.72229 2.483 5.738L2.683 5.747C3.983 5.806 5.351 5.867 6.748 5.867C8.145 5.867 9.508 5.806 10.813 5.747L11.013 5.737C11.5693 5.72168 12.1049 5.5231 12.5367 5.17212C12.9685 4.82114 13.2723 4.33739 13.401 3.796C13.4634 3.51279 13.4969 3.22398 13.501 2.934C13.4965 2.64405 13.463 2.35528 13.401 2.072C13.2722 1.53132 12.969 1.0481 12.538 0.697073C12.1071 0.346044 11.5726 0.146748 11.017 0.13L10.817 0.12C9.51 0.063 8.15 0 6.75 0ZM2.685 7.62L2.485 7.63C1.92845 7.64562 1.3926 7.84438 0.960499 8.19549C0.528397 8.54659 0.224179 9.03043 0.095 9.572C0.0343657 9.8554 0.00253719 10.1442 0 10.434C0.00288129 10.7238 0.034706 11.0125 0.095 11.296C0.22378 11.8374 0.527616 12.3212 0.95938 12.6723C1.39114 13.0234 1.92671 13.2223 2.483 13.238L2.683 13.247C3.983 13.306 5.351 13.367 6.748 13.367C8.145 13.367 9.508 13.306 10.813 13.247L11.013 13.237C11.5693 13.2217 12.1049 13.0231 12.5367 12.6721C12.9685 12.3211 13.2723 11.8374 13.401 11.296C13.4634 11.0128 13.4969 10.724 13.501 10.434C13.4965 10.1441 13.463 9.85528 13.401 9.572C13.2722 9.03059 12.9684 8.5468 12.5366 8.19568C12.1049 7.84455 11.5693 7.64571 11.013 7.63L10.813 7.62C9.51 7.563 8.15 7.501 6.75 7.501C5.35 7.501 3.99 7.562 2.685 7.62Z" fill="white"/>
</svg>
