<svg width="155" height="146" viewBox="0 0 155 146" fill="none" xmlns="http://www.w3.org/2000/svg">
<path d="M101.505 82.6379C104.84 84.6111 108.617 86.3806 112.461 85.8829C117.453 85.2413 120.998 80.834 123.811 76.6623C131.49 65.2791 137.891 53.0851 142.9 40.3007C144.668 35.7883 146.321 31.0987 149.457 27.4071C150.871 25.742 152.582 24.2845 153.595 22.3501C156.175 17.421 153.433 11.4965 150.731 6.633C148.902 3.34251 146.168 -0.438065 142.435 0.0413722C141.059 0.315466 139.77 0.919248 138.678 1.80093C132.747 5.98755 127.85 11.474 124.363 17.8414C121.667 22.7738 119.854 28.1746 116.904 32.9561C111.405 41.8687 102.375 47.9976 93.1378 52.9324C78.3741 60.8185 62.4746 66.3277 47.2548 73.2942C42.6544 75.2355 38.3008 77.7162 34.2854 80.6843C30.7667 83.6262 27.5631 86.9257 24.7262 90.5296C19.0147 97.1518 13.82 104.203 9.18798 111.62C6.86887 115.465 4.79589 119.454 2.98152 123.561C0.751697 128.611 -1.0953 134.358 0.763013 139.557C2.62133 144.755 9.82576 148.105 13.9082 144.39C14.9209 143.304 15.8222 142.12 16.5986 140.854C20.0614 136.119 25.8402 133.775 31.3404 131.737C41.9618 127.802 53.2938 123.743 60.2856 114.832C67.8532 105.187 69.5536 90.76 79.9729 84.299C86.0703 80.5164 93.3994 80.007 100.261 82.1047C100.689 82.2516 101.106 82.43 101.508 82.6387" fill="#2CA4A8"/>
</svg>
