<svg width="73" height="70" viewBox="0 0 73 70" fill="none" xmlns="http://www.w3.org/2000/svg">
<path d="M34.8411 28.8608C35.9803 28.8608 37.0939 28.523 38.0411 27.8901C38.9884 27.2572 39.7266 26.3576 40.1626 25.3051C40.5986 24.2526 40.7126 23.0944 40.4904 21.9771C40.2681 20.8598 39.7195 19.8334 38.914 19.0279C38.1084 18.2223 37.0821 17.6738 35.9648 17.4515C34.8474 17.2292 33.6893 17.3433 32.6368 17.7793C31.5843 18.2152 30.6847 18.9535 30.0518 19.9007C29.4189 20.848 29.0811 21.9616 29.0811 23.1008C29.0811 24.6285 29.6879 26.0935 30.7681 27.1738C31.8483 28.254 33.3134 28.8608 34.8411 28.8608Z" fill="black"/>
<path d="M53.5771 17.3401C55.0053 17.346 56.4032 16.9279 57.5937 16.1388C58.7841 15.3496 59.7135 14.2248 60.2642 12.907C60.8149 11.5892 60.9621 10.1375 60.6871 8.736C60.4121 7.33446 59.7273 6.04606 58.7195 5.03402C57.7117 4.02198 56.4261 3.33184 55.0257 3.051C53.6254 2.77017 52.1731 2.91129 50.853 3.45648C49.5329 4.00168 48.4043 4.92642 47.6102 6.11356C46.816 7.3007 46.3921 8.69683 46.3921 10.1251C46.3921 12.0334 47.1481 13.8641 48.4947 15.2163C49.8413 16.5685 51.6688 17.3322 53.5771 17.3401Z" fill="black"/>
<path d="M16.0161 14.4299C17.4495 14.4357 18.8522 14.0144 20.0451 13.2197C21.2381 12.425 22.1673 11.2929 22.7142 9.96797C23.2612 8.643 23.401 7.18514 23.116 5.78034C22.831 4.37555 22.134 3.08749 21.1139 2.08046C20.0938 1.07343 18.7969 0.393079 17.3885 0.126179C15.9801 -0.140722 14.5242 0.017929 13.2064 0.581895C11.8886 1.14586 10.7686 2.08958 9.98937 3.29268C9.21011 4.49578 8.80688 5.90373 8.83111 7.33695C8.86301 9.22408 9.63312 11.0236 10.9763 12.3495C12.3194 13.6755 14.1287 14.4224 16.0161 14.4299Z" fill="black"/>
<path d="M42.146 41.594V40.381C42.0271 38.5282 41.2072 36.7901 39.8529 35.52C38.4987 34.2499 36.7116 33.543 34.855 33.543C32.9983 33.543 31.2113 34.2499 29.857 35.52C28.5028 36.7901 27.6829 38.5282 27.564 40.381V41.594H42.146Z" fill="black"/>
<path d="M24.1701 41.593V27.011C24.0407 24.8918 23.1076 22.9018 21.5613 21.447C20.0149 19.9922 17.9717 19.1821 15.8486 19.1821C13.7255 19.1821 11.6823 19.9922 10.1359 21.447C8.58956 22.9018 7.65651 24.8918 7.5271 27.011V41.593H24.1701Z" fill="black"/>
<path d="M61.8531 35.0139V30.0429C61.9224 28.9074 61.7586 27.7697 61.3718 26.6998C60.985 25.63 60.3833 24.6507 59.6037 23.8221C58.8242 22.9935 57.8833 22.3332 56.8391 21.8819C55.7948 21.4306 54.6692 21.1978 53.5316 21.1978C52.394 21.1978 51.2684 21.4306 50.2241 21.8819C49.1798 22.3332 48.239 22.9935 47.4594 23.8221C46.6799 24.6507 46.0782 25.63 45.6914 26.6998C45.3045 27.7697 45.1407 28.9074 45.2101 30.0429V41.4429C51.2432 40.8716 57.0019 38.6478 61.8531 35.0159V35.0139Z" fill="black"/>
<path d="M7.19309 58.1767C8.3408 57.5309 9.36689 56.6896 10.2251 55.6907C10.9442 54.7549 11.8775 54.0054 12.9465 53.5052C14.0155 53.005 15.1889 52.7687 16.3682 52.8162C17.5475 52.8637 18.6981 53.1937 19.7234 53.7783C20.7486 54.3629 21.6186 55.1851 22.2601 56.1757C22.8985 57.0292 23.716 57.7326 24.6551 58.2367H28.4751C29.2397 57.8352 29.9031 57.2652 30.4151 56.5697C31.0786 55.451 32.0242 54.5262 33.1574 53.8878C34.2905 53.2493 35.5715 52.9196 36.8721 52.9317C38.1111 52.9095 39.3353 53.204 40.4285 53.7875C41.5218 54.371 42.4479 55.224 43.1191 56.2657C43.6084 56.8952 44.1802 57.4559 44.8191 57.9327H50.0291C50.5364 57.5667 50.9763 57.1153 51.3291 56.5987C52.0035 55.5035 52.9498 54.6012 54.076 53.9797C55.2021 53.3582 56.4699 53.0385 57.7561 53.0517C58.9982 53.0301 60.225 53.3283 61.3186 53.9176C62.4122 54.5069 63.336 55.3675 64.0011 56.4167C64.3062 56.8336 64.6515 57.2194 65.0321 57.5687C67.1326 53.9492 68.5037 49.9533 69.0681 45.8067L69.4321 41.7747C69.4867 41.3342 69.4504 40.8871 69.3253 40.4611C69.2002 40.0352 68.989 39.6394 68.7048 39.2984C68.4205 38.9574 68.0694 38.6783 67.6729 38.4785C67.2765 38.2787 66.8433 38.1624 66.4001 38.1367C65.7651 38.1496 65.1502 38.3616 64.6421 38.7427C58.1993 43.5328 50.3884 46.1268 42.3601 46.1427H6.28309C5.75978 46.1495 5.24572 46.2816 4.78399 46.5279C4.32226 46.7743 3.92632 47.1278 3.62936 47.5587C3.3324 47.9897 3.14308 48.4855 3.07726 49.0047C3.01145 49.5239 3.07105 50.0513 3.25109 50.5427C4.20634 53.2572 5.53295 55.8263 7.19309 58.1767Z" fill="black"/>
<path d="M72.4071 65.3907C72.3275 65.0005 72.1719 64.6299 71.949 64.2998C71.7262 63.9698 71.4406 63.6869 71.1084 63.4673C70.7763 63.2477 70.4041 63.0957 70.0132 63.0199C69.6222 62.9441 69.2202 62.9461 68.8301 63.0257C63.8301 64.0567 60.4631 58.9027 60.3111 58.6907C60.0408 58.2453 59.6603 57.8771 59.2063 57.6216C58.7522 57.366 58.2401 57.2318 57.7191 57.2318C57.1981 57.2318 56.6859 57.366 56.2319 57.6216C55.7779 57.8771 55.3974 58.2453 55.1271 58.6907C54.2789 60.0063 53.1241 61.0964 51.7619 61.8673C50.3996 62.6382 48.8706 63.067 47.3061 63.1167C45.7225 63.0587 44.175 62.6276 42.7896 61.8585C41.4041 61.0893 40.2198 60.004 39.3331 58.6907C39.0395 58.2717 38.6493 57.9296 38.1955 57.6934C37.7417 57.4572 37.2377 57.3339 36.7261 57.3339C36.2145 57.3339 35.7104 57.4572 35.2566 57.6934C34.8028 57.9296 34.4126 58.2717 34.1191 58.6907C33.2807 60.0154 32.1281 61.1126 30.7637 61.8847C29.3993 62.6568 27.8654 63.08 26.2981 63.1167C24.7348 63.0307 23.2133 62.5802 21.8552 61.8011C20.4972 61.022 19.3403 59.9359 18.4771 58.6297C18.2203 58.2133 17.8666 57.8651 17.4461 57.6151C17.0257 57.365 16.5509 57.2203 16.0624 57.1935C15.5739 57.1667 15.0862 57.2585 14.6409 57.461C14.1956 57.6636 13.8059 57.9709 13.5051 58.3567C13.5051 58.3567 9.01206 64.2087 3.76806 63.1447C3.36703 63.0553 2.95221 63.0467 2.54781 63.1194C2.14341 63.192 1.75753 63.3445 1.41266 63.5678C1.06779 63.7911 0.770836 64.0809 0.539124 64.4202C0.307413 64.7595 0.145579 65.1415 0.0630615 65.544C-0.0194564 65.9465 -0.0210068 66.3614 0.058501 66.7645C0.138009 67.1676 0.296983 67.5509 0.526152 67.8919C0.755321 68.2329 1.0501 68.5249 1.39329 68.7508C1.73648 68.9767 2.12122 69.132 2.52506 69.2077C3.37244 69.3867 4.23598 69.4782 5.10206 69.4807C9.11423 69.2727 12.9202 67.6386 15.8341 64.8727C18.6351 67.6991 22.4352 69.3107 26.4141 69.3597C30.3585 69.3275 34.1302 67.7372 36.9071 64.9357C39.687 67.6746 43.433 69.21 47.3356 69.21C51.2382 69.21 54.9841 67.6746 57.7641 64.9357C59.3221 66.5709 61.2642 67.7907 63.4138 68.4842C65.5633 69.1777 67.8521 69.323 70.0721 68.9067C70.8418 68.7388 71.516 68.278 71.9518 67.6217C72.3876 66.9654 72.5509 66.1653 72.4071 65.3907Z" fill="black"/>
</svg>
