<svg width="570" height="504" viewBox="0 0 570 504" fill="none" xmlns="http://www.w3.org/2000/svg">
<mask id="mask0_76_12" style="mask-type:luminance" maskUnits="userSpaceOnUse" x="306" y="80" width="264" height="424">
<path d="M569.985 80.2759H306.019V503.612H569.985V80.2759Z" fill="white"/>
</mask>
<g mask="url(#mask0_76_12)">
<path d="M364.919 247.004C364.195 245.423 363.38 243.885 362.478 242.398C359.862 238.151 355.115 234.908 355.197 230.713C355.729 224.293 362.023 219.474 363.862 213.497C365.471 208.068 369.782 202.753 371.847 198.076C373.001 195.154 373.104 191.902 374.563 189.076C376.522 185.338 380.783 182.876 382.428 178.955C383.198 177.167 383.724 175.283 383.991 173.355C386.506 161.781 380.25 147.676 390.419 138.776C394.141 135.32 397.779 131.788 400.497 127.466C402.896 124.097 404.588 120.276 405.471 116.236C406.239 112.664 407.007 108.636 410.698 107.089C417.486 105.151 425.585 106.541 432.009 109.002C435.543 110.702 436.931 114.356 436.602 118.087C435.991 122.341 436.116 129.847 441.869 129.204C444.839 128.813 447.039 126.457 449.393 124.764C453.174 121.764 458.16 121.658 462.714 120.755C467.577 119.955 472.767 117.546 477.385 118.137C487.095 120.221 484.998 116.619 488.185 109.62C491.116 104.332 498.295 102.039 500.985 96.2008C504.836 87.0288 514.175 82.6638 523.919 80.8938C531.129 79.1238 540.226 80.9488 542.26 89.1248C543.86 94.8308 543.133 101.283 546.607 106.384C549.963 113.065 559.083 115.969 561.787 122.305C563.837 128.581 561.526 136.54 562.03 143.105C561.603 155.005 540.571 153.07 534.84 159.978C532.686 162.578 531.622 166.041 529.086 168.327C526.48 170.715 522.964 172.127 520.308 174.51C513.573 180.023 513.257 188.422 510.708 196.723C508.788 203.311 506.834 211.823 511.308 217.716C515.121 222.434 522.308 224.19 528.324 224.267C533.935 224.267 539.65 221.767 545.638 221.995C551.874 221.94 555.638 227.044 555.855 232.825C556.387 238.976 556.43 245.737 553.346 250.277C550.558 254.145 546.951 258.251 548.369 263.389C550.107 270.013 553.775 275.912 547.64 280.955C546.717 282.012 545.552 283.223 545.963 284.65C547.331 287.927 551.469 290.17 552.633 293.75C554.644 298.322 552.863 305.01 554.449 310.007C555.772 315.15 560.666 317.888 563.998 321.635C567.516 325.766 570.758 331.359 569.834 336.258C567.996 343.337 559.424 350.858 552.179 349.558C547.041 348.313 544.741 342.5 539.653 341.089C533.402 338.646 526.482 344.65 520.478 341.798C517.778 340.012 516.615 336.898 514.763 334.31C512.652 331.056 508.898 328.829 505.078 329.672C497.072 331.747 495.316 343.65 488.962 348.288C485.962 350.788 481.833 349.979 478.432 351.21C476.55 352.094 475.031 353.602 474.132 355.478C470.932 360.918 469.68 366.378 472.932 371.478C476.825 377.178 470.38 381.808 469.332 387.235C468.432 393.682 473.463 400.415 471.504 407.135C470.322 415.123 461.714 419.008 461.083 427.185C460.729 430.996 461.519 434.918 461.192 438.713C460.983 442.644 458.845 446.132 458.354 449.998C457.779 453.775 459.786 458.372 458.574 462.056C457.558 465.41 454.754 467.935 451.827 469.75C445.111 473.12 438.753 477.162 432.852 481.814C425.198 486.395 417.027 490.374 410.364 496.396C404.199 501.768 395.53 504.572 387.553 502.413C382.906 501.297 378.741 499.432 373.814 499.591C367.842 499.475 361.922 504.206 356.271 503.554C350.871 502.804 348.04 497.166 347.461 491.769C345.879 483.793 352.076 478.044 353.617 470.635C354.233 467.126 352.91 464.035 354.444 461.245C355.283 459.882 356.671 458.895 357.371 457.418C358.916 454.589 357.385 449.244 358.55 444.713C359.534 440.629 360.663 436.144 358.15 432.362C353.96 426.667 349.628 420.939 345.37 415.791C341.561 412.191 341.77 407.231 342.116 402.402C342.116 396.132 335.955 391.263 333.156 385.443C328.519 375.083 317.685 371.176 308.63 365.941C305.308 363.669 305.505 359.91 307.285 356.783C310.166 351.683 313.625 345.509 319.652 343.903C322.768 343.121 326.138 343.569 329.203 342.61C335.484 340.494 339.938 331.436 344.928 326.369C349.973 320.369 357.804 312.918 354.438 304.369C353.104 300.999 350.077 298.458 348.946 294.969C347.087 289.886 350.953 284.764 351.973 279.878C352.381 277.334 352.634 274.767 352.73 272.193C353.391 264.321 356.789 254.343 363.379 249.693C365.379 248.277 364.92 247.002 364.92 247.002" fill="#EFEFEF"/>
</g>
<path d="M465.812 295.815C465.812 296.953 466.149 298.065 466.781 299.011C467.413 299.957 468.312 300.694 469.363 301.129C470.414 301.564 471.57 301.678 472.686 301.456C473.802 301.235 474.827 300.687 475.631 299.882C476.436 299.078 476.984 298.053 477.205 296.937C477.427 295.821 477.314 294.665 476.878 293.614C476.443 292.563 475.706 291.664 474.76 291.032C473.814 290.4 472.702 290.063 471.564 290.063C470.809 290.063 470.061 290.212 469.363 290.501C468.665 290.79 468.031 291.213 467.496 291.747C466.962 292.282 466.539 292.916 466.25 293.614C465.961 294.312 465.812 295.06 465.812 295.815Z" fill="#8BC4BD"/>
<path d="M471.563 302.991C471.182 302.991 470.816 303.143 470.546 303.412C470.277 303.682 470.125 304.048 470.125 304.429V311.917C470.125 312.298 470.277 312.664 470.546 312.934C470.816 313.204 471.182 313.355 471.563 313.355C471.945 313.355 472.311 313.204 472.581 312.934C472.85 312.664 473.002 312.298 473.002 311.917V304.441C473.004 304.252 472.968 304.065 472.897 303.889C472.826 303.714 472.722 303.555 472.589 303.42C472.457 303.285 472.299 303.178 472.125 303.104C471.951 303.031 471.764 302.992 471.575 302.991H471.563Z" fill="#8BC4BD"/>
<path d="M488.218 301.976H494.698V302.266H488.218V301.976ZM488.138 298.866H494.708V299.156H488.138V298.866ZM488.098 295.796H494.808V302.996H494.518V296.096H488.388V303.066H488.098V295.796ZM491.198 294.016L491.488 294.146C491.361 294.453 491.225 294.779 491.078 295.126C490.938 295.473 490.801 295.773 490.668 296.026L490.408 295.916C490.501 295.743 490.595 295.546 490.688 295.326C490.788 295.099 490.881 294.873 490.968 294.646C491.061 294.413 491.138 294.203 491.198 294.016ZM500.248 295.096H505.908V295.386H500.248V295.096ZM500.458 296.716H505.848V297.016H500.458V296.716ZM500.408 299.796H505.888V300.086H500.408V299.796ZM500.178 298.226H506.048V298.526H500.178V298.226ZM500.308 301.176H505.968V301.476H500.308V301.176ZM501.878 294.046H502.178V296.336H501.878V294.046ZM504.208 294.046H504.508V296.336H504.208V294.046ZM503.038 296.836H503.328V303.056H503.038V296.836ZM501.338 296.856H501.638V299.996H501.338V296.856ZM504.798 296.856H505.098V299.946H504.798V296.856ZM497.038 296.316H500.308V296.616H497.038V296.316ZM498.708 294.046H498.998V303.036H498.708V294.046ZM498.688 296.396L498.948 296.476C498.861 296.876 498.751 297.293 498.618 297.726C498.485 298.153 498.335 298.576 498.168 298.996C498.001 299.409 497.825 299.793 497.638 300.146C497.458 300.499 497.278 300.799 497.098 301.046C497.071 301.013 497.035 300.973 496.988 300.926C496.941 300.879 496.901 300.843 496.868 300.816C497.048 300.583 497.228 300.299 497.408 299.966C497.588 299.626 497.758 299.256 497.918 298.856C498.085 298.456 498.235 298.046 498.368 297.626C498.501 297.206 498.608 296.796 498.688 296.396ZM498.948 297.526C499.008 297.593 499.105 297.709 499.238 297.876C499.371 298.036 499.511 298.213 499.658 298.406C499.811 298.599 499.951 298.779 500.078 298.946C500.205 299.113 500.291 299.233 500.338 299.306L500.138 299.556C500.078 299.456 499.985 299.319 499.858 299.146C499.738 298.966 499.605 298.776 499.458 298.576C499.318 298.376 499.185 298.196 499.058 298.036C498.931 297.869 498.831 297.746 498.758 297.666L498.948 297.526ZM510.708 294.256H510.988V298.806H510.708V294.256ZM508.988 296.276H512.528V296.576H508.988V296.276ZM513.208 294.476H515.428V294.766H513.208V294.476ZM513.208 296.866H515.428V297.156H513.208V296.866ZM513.208 299.336H515.428V299.626H513.208V299.336ZM509.408 298.666H509.708V302.636H509.408V298.666ZM509.568 298.666H512.168V301.726H509.568V301.436H511.868V298.966H509.568V298.666ZM513.058 294.476H513.348V298.576C513.348 298.936 513.331 299.316 513.298 299.716C513.271 300.109 513.211 300.506 513.118 300.906C513.025 301.299 512.888 301.679 512.708 302.046C512.528 302.413 512.288 302.749 511.988 303.056C511.975 303.036 511.955 303.013 511.928 302.986C511.901 302.966 511.871 302.943 511.838 302.916C511.811 302.896 511.785 302.879 511.758 302.866C512.051 302.566 512.285 302.239 512.458 301.886C512.631 301.533 512.761 301.169 512.848 300.796C512.935 300.423 512.991 300.046 513.018 299.666C513.045 299.286 513.058 298.923 513.058 298.576V294.476ZM515.288 294.476H515.588V302.486C515.588 302.613 515.565 302.709 515.518 302.776C515.471 302.843 515.398 302.893 515.298 302.926C515.198 302.953 515.045 302.969 514.838 302.976C514.638 302.983 514.358 302.983 513.998 302.976C513.991 302.943 513.975 302.896 513.948 302.836C513.928 302.783 513.905 302.733 513.878 302.686C514.171 302.693 514.428 302.696 514.648 302.696C514.875 302.696 515.021 302.693 515.088 302.686C515.161 302.679 515.211 302.663 515.238 302.636C515.271 302.609 515.288 302.559 515.288 302.486V294.476ZM507.408 294.356L507.598 294.156C507.791 294.249 507.988 294.359 508.188 294.486C508.388 294.613 508.575 294.743 508.748 294.876C508.928 295.009 509.075 295.133 509.188 295.246L508.998 295.496C508.891 295.376 508.748 295.249 508.568 295.116C508.395 294.976 508.205 294.839 507.998 294.706C507.798 294.573 507.601 294.456 507.408 294.356ZM506.938 297.106L507.108 296.886C507.321 296.966 507.535 297.063 507.748 297.176C507.968 297.289 508.171 297.406 508.358 297.526C508.545 297.646 508.698 297.759 508.818 297.866L508.658 298.116C508.531 298.009 508.371 297.896 508.178 297.776C507.991 297.649 507.788 297.529 507.568 297.416C507.355 297.296 507.145 297.193 506.938 297.106ZM507.178 302.746C507.325 302.493 507.485 302.186 507.658 301.826C507.831 301.466 508.005 301.089 508.178 300.696C508.351 300.303 508.508 299.929 508.648 299.576L508.878 299.746C508.745 300.086 508.595 300.449 508.428 300.836C508.268 301.216 508.101 301.589 507.928 301.956C507.755 302.316 507.591 302.643 507.438 302.936L507.178 302.746Z" fill="#1A1311"/>
<path d="M311.827 56.3738C311.581 55.5038 310.311 55.6838 309.627 55.7248C307.92 55.8309 306.246 56.241 304.684 56.9358C304.67 56.8533 304.64 56.7746 304.594 56.7047C304.548 56.6348 304.488 56.5752 304.418 56.5298C304.259 56.4496 304.106 56.3587 303.959 56.2578C303.964 56.2508 303.959 56.2298 303.926 56.1578C303.882 56.0688 303.816 55.9848 303.763 55.8998C303.598 55.6398 303.435 55.3794 303.274 55.1188C302.716 54.2188 302.174 53.3188 301.674 52.3848C300.67 50.5981 299.971 48.6569 299.604 46.6408C299.24 44.6588 299.479 42.6132 300.291 40.7688C301.138 39.0028 302.651 37.6758 303.554 35.9448C304.066 35.1227 304.325 34.1678 304.298 33.1994C304.271 32.231 303.959 31.292 303.402 30.4998C303.289 30.3877 303.137 30.3248 302.978 30.3248C302.82 30.3248 302.667 30.3877 302.555 30.4998C300.873 32.4378 299.191 34.3751 297.508 36.3118C296.108 37.9228 294.655 40.0438 292.508 40.6918C291.386 40.9777 290.215 41.0119 289.079 40.7918C287.956 40.6231 286.843 40.3924 285.745 40.1008C284.624 39.8281 283.578 39.3092 282.683 38.5818C281.903 37.8467 281.039 37.2069 280.108 36.6758C279.091 36.1707 277.985 35.8726 276.852 35.7988C276.256 35.7622 275.658 35.7893 275.068 35.8798C274.481 36.016 273.88 36.0865 273.278 36.0898C271.456 33.1798 267.905 32.1718 265.166 30.3648C261.962 28.0528 259.175 25.2122 256.924 21.9648C254.186 18.3448 251.524 14.6708 248.815 11.0228L244.615 5.35577C243.402 3.71077 242.289 1.72177 240.443 0.699773C239.698 0.25522 238.85 0.0141148 237.983 0.000601108C237.115 -0.0129126 236.26 0.20164 235.502 0.622773C234.113 1.53739 233.016 2.83266 232.344 4.35377C232.208 4.68598 232.048 5.00783 231.866 5.31677C231.602 5.66771 231.383 6.04995 231.214 6.45477C230.922 7.27732 230.827 8.15681 230.936 9.02277C231.21 10.9712 231.789 12.8643 232.652 14.6328C233.564 16.5834 234.139 18.6748 234.352 20.8178C234.487 22.9902 234.375 25.1709 234.016 27.3178C233.691 29.4398 233.26 31.5558 232.805 33.6518C232.419 35.7091 231.792 37.7139 230.938 39.6248C230.049 41.4678 228.655 42.9698 227.66 44.7458C226.701 46.576 226.348 48.664 226.654 50.7078C227.006 52.6209 227.18 54.5625 227.174 56.5078C227.165 57.2775 227.002 58.0376 226.694 58.743C226.386 59.4484 225.939 60.0846 225.38 60.6138C225.032 60.8734 224.642 61.071 224.227 61.1978C222.866 60.2659 221.279 59.7187 219.633 59.6138C218.691 59.5568 217.771 59.7418 216.833 59.7608C215.947 59.7655 215.084 59.4803 214.376 58.9488C213.046 58.0488 211.862 56.9188 210.16 56.8588C209.458 56.8198 208.769 57.0612 208.245 57.53C207.721 57.9988 207.404 58.6566 207.365 59.3588C207.365 59.3868 207.365 59.4138 207.365 59.4418C207.265 61.1578 208.386 62.4698 209.116 63.9108C210.066 65.7858 209.195 67.5638 208.19 69.2108C207.778 69.8868 207.325 70.7818 206.522 71.0518C205.632 71.3518 205.437 70.5518 204.798 70.1848C204.666 70.1103 204.52 70.0626 204.369 70.0444C204.218 70.0263 204.066 70.038 203.919 70.0789C203.773 70.1199 203.637 70.1893 203.517 70.2831C203.398 70.3769 203.298 70.4934 203.224 70.6258C203.203 70.6628 203.185 70.6998 203.168 70.7378C203.044 71.0367 202.948 71.3463 202.88 71.6628C202.702 72.2471 202.395 72.7841 201.982 73.2341C201.569 73.6841 201.06 74.0356 200.493 74.2628C199.605 74.4807 198.736 74.7669 197.893 75.1188C197.562 75.2912 197.272 75.5325 197.042 75.8267C196.812 76.1208 196.648 76.4608 196.561 76.8238C196.512 77.5949 196.721 78.3604 197.155 78.9998C197.309 79.415 197.371 79.8588 197.336 80.3003C197.302 80.7418 197.172 81.1706 196.955 81.5568C196.638 82.3328 196.472 83.1617 196.464 83.9998C196.483 84.8055 196.672 85.5981 197.019 86.3255C197.366 87.0529 197.863 87.6985 198.478 88.2198C199.178 88.8108 199.987 89.2548 200.663 89.8688C201.285 90.4492 201.746 91.1805 202.002 91.9918C202.256 92.7945 202.435 93.619 202.537 94.4548C202.711 95.3038 202.76 96.1735 202.684 97.0368C202.537 97.9828 201.866 98.4708 201.303 99.1718C200.816 99.7835 200.516 100.523 200.439 101.301C200.358 102.935 200.726 104.56 201.502 106C201.707 106.506 202.028 106.956 202.439 107.315C202.85 107.674 203.339 107.932 203.868 108.067C204.518 108.209 205.196 108.141 205.805 107.874C206.442 107.508 206.98 106.993 207.375 106.374C208.311 105.223 210.168 105.426 210.837 103.967C211.082 103.214 211.151 102.415 211.037 101.632C211.011 101.262 211.073 100.891 211.219 100.55C211.365 100.209 211.59 99.9073 211.876 99.6708C212.351 99.2816 212.878 98.9596 213.441 98.7138C214.556 99.2624 215.813 99.4551 217.041 99.2658L219.741 99.1788C220.525 99.1968 221.307 99.1028 222.064 98.8998C222.702 98.7428 223.258 98.3532 223.624 97.8073C223.99 97.2614 224.138 96.5986 224.041 95.9488C223.715 94.7098 222.432 94.3238 221.298 94.1488C220.453 93.1761 219.609 92.2018 218.767 91.2258C217.988 90.2126 217.136 89.2574 216.218 88.3678C215.844 88.0177 215.385 87.7727 214.886 87.6578C214.67 87.6202 214.45 87.6202 214.234 87.6578C213.934 87.7098 213.603 87.9508 213.307 87.9368C212.849 87.9148 212.367 87.3278 211.992 87.0788C211.483 86.7568 210.958 86.4617 210.418 86.1948C209.422 85.7898 208.563 85.1075 207.943 84.2288C207.662 83.8575 207.538 83.3903 207.599 82.9285C207.661 82.4668 207.902 82.0479 208.27 81.7628C208.637 81.4768 209.049 81.2518 209.413 80.9568C209.826 80.5959 210.169 80.1612 210.423 79.6748C210.617 79.2624 210.906 78.9017 211.266 78.6221C211.625 78.3425 212.046 78.1519 212.494 78.0658C214.562 77.6808 216.317 79.0538 217.442 80.6488C217.736 81.0678 218.004 81.5038 218.259 81.9488C218.484 82.465 218.762 82.9566 219.088 83.4158C219.334 83.7086 219.656 83.9282 220.018 84.0505C220.381 84.1729 220.77 84.1934 221.143 84.1098C222.184 83.7788 223.142 83.2265 223.95 82.4908C224.968 81.7218 225.95 80.9158 226.978 80.1538C228.006 79.3918 229.067 78.6488 230.143 77.9398C231.141 77.1697 232.245 76.5486 233.422 76.0958C233.831 75.9291 234.272 75.855 234.714 75.8788C235.005 76.0003 235.262 76.1908 235.464 76.4338C235.831 76.7668 236.105 76.6438 236.564 76.7258C237.126 76.8693 237.634 77.1725 238.027 77.5988C238.733 78.438 239.552 79.1748 240.462 79.7878C241.462 80.3208 242.605 80.4958 243.591 81.0508C244.551 81.6516 245.429 82.375 246.202 83.2028C247.03 84.0231 247.901 84.7998 248.81 85.5298C249.713 86.254 250.679 86.8953 251.697 87.4458C252.796 87.984 253.923 88.4646 255.072 88.8858C256.218 89.3098 257.291 89.9107 258.251 90.6668C259.128 91.4269 259.926 92.2728 260.635 93.1918C260.907 93.6565 261.25 94.0757 261.652 94.4338C261.931 94.5357 262.226 94.5888 262.523 94.5908C262.823 94.6308 263.028 94.7598 263.361 94.7908C263.84 94.82 264.319 94.7267 264.753 94.5198C266.935 93.5258 267.022 90.9878 267.219 88.9198C267.447 86.61 267.975 84.3397 268.788 82.1658C270.32 77.8515 273.02 74.0475 276.588 71.1778C278.274 69.842 280.241 68.9055 282.341 68.4388C284.731 67.9528 287.074 68.5298 289.455 68.7388C290.661 68.8696 291.881 68.7969 293.064 68.5238C293.189 68.4865 293.299 68.4107 293.378 68.3073C293.457 68.2038 293.501 68.078 293.505 67.9478C293.543 67.6084 293.58 67.2684 293.617 66.9278C294.389 67.2266 295.212 67.3683 296.039 67.3446C296.866 67.3209 297.681 67.1322 298.434 66.7898C299.132 66.4018 299.67 65.7779 299.951 65.0298C300.208 64.3488 300.207 63.4298 300.728 62.8848C301.336 62.2628 302.589 62.3628 303.389 62.2938C304.389 62.2058 305.416 62.1688 306.41 61.9988C307.802 61.7608 309.224 60.6638 308.979 59.2238L310.902 58.1998C311.221 58.0232 311.48 57.7553 311.645 57.4304C311.811 57.1056 311.875 56.7386 311.831 56.3768" fill="#F0F0F0"/>
<path d="M237.535 143.961C236.956 142.943 236.673 141.785 236.717 140.615C236.857 139.621 236.924 138.618 236.917 137.615C236.662 134.445 234.603 131.901 232.717 129.495C231.575 128.132 230.57 126.66 229.717 125.1C228.772 123.122 228.391 120.921 228.617 118.741C228.817 116.13 229.723 113.757 230.339 111.241C230.513 110.304 230.463 109.339 230.195 108.424C229.927 107.509 229.447 106.671 228.794 105.976C228.7 105.884 228.578 105.825 228.448 105.808C228.317 105.791 228.184 105.818 228.07 105.883C227.409 106.269 226.662 106.482 225.896 106.503C225.131 106.523 224.373 106.35 223.693 105.999C222.46 105.363 222.006 104.057 220.928 103.278C220.454 102.945 219.886 102.772 219.307 102.783C218.728 102.794 218.167 102.989 217.706 103.34C216.697 104.147 216.05 105.322 215.906 106.606C215.443 109.052 214.961 112.465 217.417 114.055C219.553 115.436 221.531 113.763 222.863 112.093C223.354 112.62 223.683 113.277 223.81 113.987C223.937 114.696 223.857 115.427 223.579 116.091C223.302 116.756 222.838 117.327 222.245 117.735C221.651 118.143 220.952 118.372 220.232 118.393C218.789 118.468 217.296 118.193 216.055 119.113C215.649 119.404 215.326 119.797 215.12 120.252C215 120.045 214.897 119.852 214.834 119.737C214.48 119.121 214.211 118.46 214.034 117.772C213.676 116.394 213.94 114.999 213.7 113.618C213.638 113.144 213.475 112.689 213.224 112.283C212.972 111.877 212.637 111.529 212.241 111.262C211.943 111.04 211.57 110.943 211.201 110.994C210.833 111.044 210.499 111.238 210.272 111.532C209.763 111.203 209.501 110.492 208.955 110.185C208.748 110.052 208.511 109.97 208.266 109.946C208.021 109.922 207.773 109.957 207.544 110.047C206.308 110.637 207.05 112.541 207.076 113.581C207.115 115.079 206.913 116.574 206.476 118.008C206.26 118.477 206.085 118.963 205.951 119.461C206.021 120.142 206.003 120.829 205.897 121.505C205.642 122.271 205.125 122.922 204.437 123.344C203.351 123.876 202.227 124.328 201.075 124.696C200.237 125.059 198.89 125.841 198.768 126.89C198.688 127.573 199.291 128.382 199.529 128.995C199.856 129.84 200.142 130.703 200.387 131.576C200.883 133.367 201.201 135.203 201.337 137.057C200.813 137.291 200.363 137.663 200.035 138.133C199.707 138.603 199.512 139.154 199.473 139.726C199.325 140.632 199.362 141.778 198.548 142.386C197.87 142.899 196.901 142.899 196.298 143.55C195.646 144.25 195.498 145.739 196.504 146.208C197.177 146.522 197.818 145.945 198.531 146.025C199.061 146.097 199.564 146.306 199.987 146.633C200.411 146.96 200.742 147.392 200.946 147.887C202.646 151.635 199.602 156.065 198.046 159.324C197.179 161.006 196.583 162.814 196.279 164.682C195.966 167.017 196.001 169.094 194.335 170.946C193.019 172.226 191.977 173.76 191.271 175.455C190.553 177.729 189.961 180.041 189.498 182.38C188.939 184.716 188.357 187.042 187.819 189.38C187.757 189.633 187.712 189.889 187.684 190.148C187.687 190.273 187.678 190.398 187.659 190.521C187.649 190.549 187.644 190.565 187.639 190.582C187.639 190.561 187.596 190.564 187.493 190.665C186.766 191.411 185.942 192.055 185.042 192.58C184.18 193.06 183.252 193.41 182.288 193.618C181.373 193.717 180.469 193.903 179.588 194.172C177.85 194.911 177.821 196.743 177.297 198.311C175.997 202.211 172.791 205.116 169.761 207.711C168.918 208.605 167.896 209.311 166.761 209.784C165.638 210.104 164.487 209.609 163.352 209.84C162.39 210.156 161.528 210.719 160.852 211.473C159.956 212.205 158.958 212.801 157.889 213.244C154.489 214.758 150.031 215.95 148.838 219.931C147.457 220.059 145.717 220.131 144.925 218.822C144.193 217.616 145.236 215.985 144.99 214.661C144.901 214.187 144.702 213.741 144.408 213.359C144.115 212.976 143.735 212.669 143.3 212.461C143.228 212.427 142.649 212.261 142.642 212.234C142.6 212.079 143.619 211.534 143.733 211.471C144.494 211.081 145.325 210.843 146.177 210.771C146.307 210.768 146.434 210.724 146.538 210.645C146.642 210.566 146.718 210.457 146.756 210.332C146.865 209.749 147.19 209.229 147.667 208.877C148.143 208.524 148.736 208.365 149.325 208.432C149.484 208.432 149.637 208.369 149.749 208.256C149.862 208.144 149.925 207.991 149.925 207.832C149.884 207.205 149.969 206.577 150.175 205.984C150.381 205.391 150.704 204.846 151.125 204.38C151.181 204.323 151.224 204.255 151.254 204.181C151.283 204.106 151.298 204.027 151.297 203.947C151.295 203.867 151.279 203.788 151.247 203.715C151.215 203.642 151.169 203.575 151.112 203.52C151.082 203.49 151.048 203.462 151.012 203.439C149.663 202.604 147.712 203.157 146.353 203.711C144.463 204.48 142.731 205.545 140.806 206.259C139.439 206.611 138.227 207.405 137.36 208.519C136.36 210.112 136.97 211.955 137.335 213.639C137.735 215.577 137.625 217.587 137.014 219.47C136.404 221.353 135.314 223.044 133.852 224.379C132.226 225.654 130.722 227.077 129.359 228.631C128.049 230.344 126.872 232.155 125.839 234.048C124.706 235.901 124.117 238.036 124.139 240.208C124.383 242.268 125.106 244.243 126.252 245.973C125.976 246.249 125.675 246.498 125.352 246.716C124.198 247.281 123 247.749 121.769 248.116C119.104 249.153 116.124 250.331 113.21 250.111C111.466 249.979 110.492 249.053 110.666 247.316C110.753 246.443 110.754 245.438 109.866 244.958C109.439 244.804 108.981 244.757 108.532 244.82C108.082 244.883 107.655 245.055 107.287 245.321C106.048 245.994 104.73 246.513 103.365 246.866C100.467 247.45 97.5326 247.832 94.582 248.01C91.522 248.315 88.4613 248.611 85.4 248.9L76.275 249.774C75.5494 249.883 74.8168 249.94 74.083 249.944C73.2894 249.861 72.5515 249.497 72.002 248.919C71.2186 248.221 70.2044 247.837 69.155 247.843C66.898 247.901 64.533 249.407 62.731 250.657C61.8304 251.254 61.0278 251.987 60.352 252.83C60.0763 253.182 59.8387 253.563 59.643 253.965C59.5126 254.425 59.3584 254.877 59.181 255.321C58.7998 255.634 58.3919 255.912 57.962 256.154C57.452 256.524 56.952 256.906 56.462 257.3C55.3585 258.185 54.3039 259.129 53.303 260.129C51.452 261.978 49.858 264.077 47.926 265.846C46.9401 266.765 45.8291 267.539 44.626 268.146C43.477 268.718 42.257 269.146 41.136 269.775C39.154 270.889 37.997 272.725 36.436 274.307C35.5517 275.273 34.3518 275.892 33.052 276.052C31.8438 276.087 30.6425 276.247 29.467 276.528C27.108 277.328 26.707 279.4 26.511 281.622C26.37 283.212 25.211 288.215 28.411 287.479C29.0699 287.208 29.7448 286.978 30.432 286.79C30.8074 286.755 31.1861 286.794 31.5465 286.905C31.9068 287.016 32.2417 287.197 32.532 287.438C33.216 288.01 33.816 288.938 34.84 288.396C35.1674 288.185 35.4347 287.893 35.616 287.548C36.124 286.748 36.448 286.408 37.466 286.557C38.5059 286.844 39.6119 286.773 40.607 286.357C41.2371 285.904 41.9664 285.608 42.734 285.495C43.6599 285.588 44.5487 285.908 45.322 286.426C46.841 287.248 48.345 288.099 49.855 288.937C49.946 288.99 50.0496 289.018 50.155 289.018C50.2604 289.018 50.364 288.99 50.455 288.937C51.2579 288.353 51.919 287.595 52.389 286.72C52.859 285.845 53.126 284.876 53.17 283.884C53.24 282.607 53.004 281.263 53.5 280.045C53.6818 279.587 54.0192 279.209 54.4527 278.976C54.8863 278.743 55.3882 278.67 55.87 278.771C55.6549 279.677 55.7505 280.628 56.1415 281.473C56.5325 282.318 57.1963 283.007 58.026 283.429C58.848 283.775 59.697 283.605 59.921 282.629C59.958 282.466 59.903 282.229 59.964 282.087C60.106 281.737 60.464 281.734 60.889 281.699C61.5763 281.721 62.2623 281.624 62.917 281.414C63.403 281.156 63.8237 280.791 64.147 280.346C64.6039 279.794 65.2601 279.445 65.973 279.374C67.2089 279.372 68.44 279.221 69.64 278.926C70.0537 278.787 70.4131 278.522 70.667 278.167C70.8789 277.771 71.2122 277.453 71.6179 277.261C72.0235 277.068 72.4803 277.011 72.921 277.097C74.095 277.209 74.828 277.648 75.588 276.527C75.7058 276.302 75.8395 276.086 75.988 275.881C76.351 275.493 76.849 275.551 77.355 275.562C78.102 275.639 78.8567 275.576 79.581 275.378C80.1404 275.175 80.6135 274.787 80.922 274.278C80.987 274.397 81.044 274.494 81.078 274.543C81.2974 274.876 81.6247 275.123 82.005 275.243C83.0717 275.673 84.2256 275.843 85.371 275.738C86.541 275.517 87.648 273.725 87.896 272.365C88.9719 272.481 90.0579 272.272 91.014 271.765C91.646 271.419 91.914 270.824 92.466 270.403C93.27 269.834 94.1657 269.407 95.114 269.141C96.8468 268.624 98.6963 268.651 100.414 269.217C102.131 269.783 103.633 270.862 104.719 272.308C104.802 272.441 104.933 272.538 105.086 272.578C105.238 272.619 105.399 272.6 105.538 272.525C105.838 272.365 106.166 272.561 106.649 272.568C107.311 272.576 107.968 272.463 108.589 272.234C109.144 271.998 109.673 271.704 110.166 271.357C110.465 271.116 110.823 270.959 111.203 270.902C112.222 270.89 111.851 271.796 111.522 272.357C110.642 273.693 109.696 274.984 108.686 276.225C107.956 277.218 106.73 278.425 106.938 279.777C107.079 280.239 107.288 280.677 107.558 281.077C107.928 281.893 107.429 282.09 107.096 282.726C106.897 283.056 106.837 283.452 106.929 283.826C107 284 107.092 284.166 107.203 284.319C107.56 284.961 107.388 285.168 107.066 285.759C106.796 286.133 106.618 286.565 106.547 287.021C106.476 287.477 106.514 287.943 106.658 288.381C107.201 289.431 108.12 290.237 109.232 290.638C110.695 291.309 111.801 291.792 111.955 293.567C111.937 294.151 112.039 294.733 112.255 295.275C112.472 295.818 112.798 296.311 113.213 296.722C113.976 297.341 114.849 297.811 115.786 298.106C117.157 298.692 118.629 299.006 120.12 299.031C122.554 298.92 124.042 297.131 124.912 295.031C125.881 292.69 126.177 289.636 128.703 288.396C129.566 287.973 130.629 287.578 130.803 286.496C130.982 285.373 129.15 284.044 129.968 283.172C130.673 282.639 131.475 282.25 132.33 282.027C133.162 281.687 133.996 281.335 134.841 281.017C136.687 280.195 138.711 279.853 140.724 280.023C140.882 280.041 141.042 280.003 141.177 279.917C141.311 279.831 141.411 279.701 141.461 279.55C143.373 277.721 142.291 274.745 140.316 273.368C138.907 272.389 137.351 271.861 136.062 270.668C135.807 270.433 135.232 269.904 135.304 269.5C135.376 269.096 135.978 268.757 136.256 268.518C136.809 268.048 137.291 267.501 137.687 266.893C138.08 266.281 138.377 265.612 138.567 264.91C138.616 264.51 138.691 264.114 138.792 263.724C138.8 263.399 139.022 263.23 139.458 263.214C139.525 263.465 139.586 263.717 139.642 263.971C139.859 264.934 140.003 265.913 140.072 266.898C140.034 267.715 140.101 268.533 140.272 269.333C140.331 269.562 140.445 269.774 140.603 269.95C140.762 270.126 140.96 270.262 141.182 270.345C141.403 270.429 141.642 270.458 141.877 270.429C142.112 270.401 142.337 270.317 142.533 270.184C143.41 269.516 143.252 268.59 143.088 267.669C144.294 268.455 145.748 268.768 147.171 268.55C147.092 268.963 146.932 269.357 146.7 269.709C146.469 270.061 146.17 270.363 145.822 270.6C145.473 270.836 145.082 271.001 144.669 271.086C144.257 271.171 143.832 271.174 143.418 271.095C143.318 271.076 143.218 271.052 143.118 271.024C143.017 270.998 142.91 270.999 142.809 271.027C142.709 271.054 142.616 271.107 142.542 271.181C142.468 271.254 142.413 271.346 142.385 271.446C142.356 271.547 142.354 271.653 142.378 271.755C142.503 272.43 142.865 273.038 143.399 273.469C143.933 273.9 144.603 274.126 145.289 274.107C146.038 274.089 146.771 273.883 147.419 273.507C148.265 273.045 149.167 271.823 150.168 272.069C150.424 272.184 150.703 272.24 150.983 272.233C151.264 272.225 151.539 272.155 151.789 272.027C152.292 271.818 152.795 271.61 153.299 271.403C153.791 271.115 154.321 270.899 154.874 270.76C155.274 270.732 155.628 271.098 155.967 271.267C156.323 271.445 156.699 271.579 157.087 271.667C157.986 271.837 158.898 271.935 159.813 271.96L163.122 272.194C164.176 272.343 165.242 272.398 166.306 272.356C166.565 272.345 166.819 272.275 167.047 272.152C167.276 272.028 167.473 271.854 167.624 271.643C167.767 271.382 167.855 271.095 167.884 270.799C167.921 270.549 168.012 270.309 168.15 270.097C168.288 269.885 168.47 269.705 168.684 269.57C169.221 269.223 169.67 268.757 169.996 268.207C170.396 267.372 170.096 266.348 170.517 265.545C170.902 264.813 171.917 264.557 172.566 264.114C173.199 263.626 173.749 263.038 174.193 262.373C174.518 261.845 174.963 261.401 175.491 261.078C176.02 260.755 176.618 260.562 177.236 260.514C177.491 260.514 178.214 260.591 178.378 260.822C178.791 261.406 178.285 261.762 178.043 262.155C177.839 262.491 177.705 262.865 177.65 263.255C177.25 265.675 177.263 268.233 177.079 270.678C177.082 270.836 177.146 270.987 177.258 271.099C177.37 271.211 177.521 271.275 177.679 271.278C178.121 271.307 178.509 272.196 178.853 272.449C179.043 272.602 179.27 272.7 179.512 272.733C179.753 272.767 179.999 272.734 180.223 272.639C181.635 272.039 182.459 269.983 183.065 268.707C183.768 267.554 184.222 266.267 184.4 264.929C184.39 263.077 184.873 261.257 185.8 259.654C186.248 258.916 186.87 258.298 187.61 257.854C188.351 257.41 189.189 257.153 190.051 257.105C190.858 257.057 191.66 257.267 192.34 257.705C192.912 258.244 193.525 258.738 194.174 259.183C194.392 259.306 194.636 259.374 194.887 259.382C195.137 259.39 195.385 259.338 195.61 259.229C195.836 259.12 196.031 258.958 196.18 258.757C196.33 258.556 196.428 258.322 196.467 258.075C196.539 257.471 196.403 256.861 196.083 256.344C195.908 256.038 195.675 255.773 195.492 255.468C195.018 254.685 195.22 254.148 195.792 253.445C197.084 251.852 198.371 250.172 199.786 248.686C200.134 248.321 200.675 247.811 201.112 248.386C201.363 248.714 201.246 249.071 201.196 249.435C201.104 250.098 201.14 250.773 201.045 251.435C200.811 252.17 200.427 252.849 199.918 253.429C199.482 254.169 199.096 254.937 198.763 255.729C198.22 257.278 197.394 258.712 196.327 259.959C194.663 261.631 195.156 265.559 197.356 266.659C200.564 268.259 202.431 264.014 204.316 262.386C205.648 261.236 207.732 261.695 208.687 260.016C209.472 258.636 209.129 256.931 209.298 255.428C209.57 253.266 210.634 251.281 212.284 249.857C213.934 248.434 216.053 247.673 218.232 247.721C218.349 247.718 218.463 247.681 218.56 247.615C218.656 247.549 218.732 247.456 218.777 247.348C218.822 247.24 218.835 247.121 218.814 247.006C218.793 246.891 218.738 246.784 218.658 246.699C216.797 245.076 215.31 243.068 214.3 240.815C213.291 238.561 212.782 236.115 212.809 233.646C212.759 228.263 214.942 223.091 217.971 218.732C219.41 216.66 221.258 215.007 220.971 212.288C220.848 211.142 220.377 209.609 221.232 208.623C221.532 208.362 221.803 208.071 222.042 207.754C222.308 207.255 222.504 206.722 222.622 206.169C223.957 200.794 220.74 195.638 220.767 190.29C220.774 187.997 221.239 184.737 223.762 183.876C225.728 183.204 228.584 183.834 229.718 185.676C229.784 185.789 229.886 185.878 230.008 185.928C230.13 185.978 230.264 185.987 230.392 185.953C230.519 185.919 230.631 185.844 230.711 185.739C230.792 185.635 230.835 185.507 230.836 185.376C231.011 183.189 230.77 180.989 230.125 178.892C229.983 178.319 229.835 177.747 229.704 177.174C229.647 176.935 229.642 176.687 229.692 176.447C229.741 176.207 229.843 175.98 229.99 175.784C230.525 174.744 231.071 173.708 231.672 172.705C232.872 170.705 234.414 168.972 235.791 167.093C237.215 165.14 238.501 163.091 239.641 160.96C240.661 159.193 241.36 157.259 241.705 155.248C241.926 153.409 241.575 151.548 240.7 149.916C239.7 147.905 238.558 145.971 237.546 143.973" fill="#F0F0F0"/>
<path d="M98.731 286.549C98.3867 286.363 98.0836 286.109 97.84 285.803C97.7725 285.711 97.7395 285.599 97.747 285.485C97.7724 285.455 97.8042 285.431 97.84 285.415H97.845C97.9244 285.503 98.0286 285.566 98.144 285.594C98.2594 285.623 98.3807 285.616 98.4921 285.575C98.6036 285.534 98.7 285.46 98.769 285.363C98.838 285.266 98.8763 285.151 98.879 285.032C98.8922 284.176 98.6381 283.337 98.152 282.632C97.6659 281.927 96.972 281.391 96.167 281.099C95.4694 280.913 94.75 280.82 94.028 280.824C92.8671 280.639 91.7952 280.089 90.967 279.255C90.0776 278.42 89.0033 277.808 87.832 277.468C84.949 276.816 82.179 278.307 79.802 279.768C79.3243 280.034 78.8977 280.384 78.542 280.799C78.338 281.071 78.1922 281.382 78.1136 281.713C78.035 282.043 78.0252 282.386 78.085 282.721C78.1481 282.978 78.1501 283.247 78.0909 283.505C78.0317 283.764 77.9129 284.005 77.744 284.209C77.3673 284.583 76.9167 284.874 76.421 285.064C75.7231 285.344 75.0076 285.578 74.279 285.764C73.4981 286.004 72.6933 286.157 71.879 286.222C71.1296 286.298 70.3729 286.189 69.6755 285.905C68.978 285.62 68.3611 285.169 67.879 284.59C67.8052 284.513 67.7119 284.459 67.6091 284.431C67.5063 284.404 67.3981 284.405 67.296 284.435C66.796 284.597 66.322 284.735 65.82 284.857C64.9996 285.074 64.2415 285.481 63.607 286.044C62.3537 287.316 61.3552 288.816 60.665 290.463C59.9072 292.161 58.948 293.763 57.808 295.232C57.223 295.937 56.5007 296.515 55.685 296.932C54.8878 297.16 54.1396 297.532 53.478 298.032C52.613 298.954 53.239 299.999 53.921 300.796C54.7417 301.758 55.5653 302.719 56.392 303.678C55.697 304.492 55.2663 305.499 55.1573 306.563C55.0484 307.628 55.2662 308.701 55.782 309.639C56.3397 310.605 57.184 311.374 58.198 311.839C58.707 312.069 59.246 312.131 59.762 312.321C59.901 312.374 60.036 312.408 60.052 312.563C60.078 312.804 59.762 313.188 59.676 313.408C58.666 315.967 63.053 316.608 64.641 316.508C65.226 316.498 65.7999 316.347 66.3133 316.066C66.8268 315.786 67.2646 315.385 67.589 314.898C68.289 313.698 67.673 312.364 68.057 311.118C68.5008 310.194 69.2041 309.419 70.081 308.888C71.0028 308.195 71.7339 307.28 72.206 306.228C72.5729 305.045 73.099 303.918 73.77 302.877C74.5922 301.951 75.5862 301.193 76.697 300.645C77.8072 299.932 79.0218 299.396 80.297 299.056C80.9199 298.968 81.5543 299.008 82.161 299.175C82.7678 299.341 83.334 299.63 83.825 300.023C84.9109 300.898 85.8727 301.917 86.684 303.052C87.093 303.564 87.505 304.078 87.955 304.552C88.1308 304.804 88.3724 305.002 88.6533 305.125C88.9343 305.249 89.2438 305.293 89.548 305.252C89.8173 305.154 90.049 304.973 90.2104 304.736C90.3719 304.499 90.455 304.218 90.448 303.931C90.506 303.28 90.42 302.639 90.529 301.986C90.7877 300.604 91.3684 299.302 92.224 298.186C94.061 295.696 96.878 294.152 99.524 292.677C99.612 292.627 99.6852 292.555 99.736 292.468C99.8063 292.382 99.8447 292.273 99.8447 292.162C99.8447 292.051 99.8063 291.943 99.736 291.856C99.6056 291.583 99.5361 291.286 99.5323 290.983C99.5285 290.681 99.5905 290.382 99.714 290.106C99.9125 289.483 99.9805 288.826 99.914 288.175C99.8389 287.838 99.6953 287.519 99.4922 287.24C99.289 286.96 99.0306 286.726 98.733 286.55" fill="#F0F0F0"/>
<path d="M44.721 310.014C44.536 309.962 44.405 309.963 44.396 309.771C44.383 309.517 44.6479 309.184 44.7119 308.938C44.8394 308.453 44.7802 307.938 44.5459 307.495C44.431 307.276 44.273 307.083 44.0814 306.927C43.8897 306.771 43.6685 306.655 43.431 306.587C43.58 306.348 43.6726 306.077 43.7015 305.797C43.7304 305.516 43.695 305.233 43.5979 304.968C43.396 304.565 43.0776 304.232 42.6841 304.012C42.2906 303.792 41.84 303.696 41.3909 303.735C40.5579 303.747 39.0179 304.484 38.3849 303.635C38.1439 303.314 38.4119 303.042 38.6539 302.821C39.0576 302.502 39.4389 302.156 39.7949 301.785C40.4504 301.056 40.8842 300.155 41.0452 299.188C41.2062 298.221 41.0878 297.228 40.7039 296.326C40.3406 295.512 39.6793 294.868 38.8559 294.526C38.3885 294.386 37.8964 294.348 37.4131 294.416C36.9299 294.484 36.4669 294.655 36.056 294.918C35.2444 295.415 34.3315 295.722 33.3849 295.818C32.4685 295.865 31.5553 295.677 30.7319 295.272C29.8693 294.84 29.1485 294.17 28.6549 293.341C28.0759 292.389 27.6949 291.333 27.1249 290.379C26.8999 290.001 26.7439 289.697 26.2769 289.655C26.1289 289.641 25.9769 289.636 25.8319 289.627C25.6686 289.601 25.5097 289.551 25.3599 289.481C24.2979 289.214 23.1841 289.233 22.1319 289.537C20.9631 289.813 19.8277 290.215 18.7459 290.737C17.7748 291.124 16.8621 291.644 16.0339 292.282C15.6428 292.615 15.3468 293.046 15.1759 293.531C14.9969 294.069 15.1429 294.731 14.8839 295.231C14.3659 296.231 12.6069 295.952 11.6989 296.131C10.8447 296.318 10.0483 296.708 9.37774 297.27C8.70717 297.831 8.18231 298.546 7.84795 299.354C7.53718 298.896 7.07257 298.564 6.53833 298.419C6.0041 298.275 5.43561 298.326 4.93595 298.564C4.62764 298.725 4.37914 298.98 4.22716 299.293C4.07518 299.605 4.02777 299.958 4.09195 300.3C4.13395 300.583 4.39195 301.089 4.11695 301.292C3.82495 301.509 3.24295 301.325 2.91695 301.311C2.18774 301.319 1.48777 301.599 0.954656 302.096C0.421538 302.594 0.0938294 303.273 0.0359491 304C-0.197051 305.645 0.742949 307.1 1.68895 308.361C1.11751 309.597 0.843523 310.949 0.888949 312.31C0.951454 312.967 1.16324 313.601 1.50814 314.163C1.85303 314.725 2.32191 315.202 2.87895 315.555C3.34995 315.892 4.12095 316.408 3.95895 317.091C3.84753 317.36 3.7566 317.637 3.68695 317.919C3.65763 318.207 3.73327 318.496 3.89995 318.732C4.06087 318.942 4.27316 319.106 4.5163 319.21C4.75944 319.314 5.02521 319.353 5.28795 319.324C5.5853 319.274 5.86919 319.164 6.1218 318.999C6.37442 318.835 6.59032 318.62 6.75595 318.368C7.51095 317.4 8.28795 316.12 9.67395 316.091C10.0199 316.084 10.6969 316.179 10.7739 316.537C10.785 316.914 10.734 317.29 10.6229 317.65C10.572 317.847 10.5604 318.052 10.5889 318.253C10.6174 318.454 10.6854 318.648 10.7889 318.823C10.945 318.994 11.1431 319.121 11.3635 319.191C11.5839 319.261 11.8189 319.272 12.0449 319.223C13.2609 319.111 13.7799 318.134 14.4879 317.289C14.6186 317.164 14.7301 317.02 14.8189 316.862C14.8255 316.839 14.8305 316.816 14.8339 316.792C14.9629 316.792 15.1579 316.268 15.1689 316.184C15.1703 316.144 15.1676 316.105 15.1609 316.066C15.1769 316.077 15.2019 316.058 15.2319 315.985C15.2796 315.83 15.3052 315.669 15.3079 315.507C15.33 315.194 15.301 314.88 15.2219 314.577C15.0652 313.969 14.7226 313.425 14.2419 313.021C14.0009 312.811 13.7209 312.651 13.4179 312.549C13.1179 312.457 12.7879 312.449 12.7759 312.044C12.7722 311.914 12.7278 311.788 12.6491 311.685C12.5704 311.581 12.4613 311.505 12.3369 311.466C11.8789 311.281 12.0119 310.098 11.9509 309.713C11.9113 309.46 11.8316 309.215 11.7149 308.987C12.2456 308.826 12.7546 308.601 13.2309 308.317C13.8039 308.003 15.1579 307.417 15.2849 308.517C15.3349 308.951 15.2419 309.388 15.3009 309.827C15.3689 310.294 15.5242 310.744 15.7589 311.154C16.2804 311.956 16.901 312.688 17.6059 313.334C18.1879 313.943 18.8509 314.897 18.1529 315.669C17.5575 316.156 16.9193 316.589 16.2459 316.961C14.9379 317.961 14.3809 319.574 13.1879 320.672C12.9147 320.978 12.5441 321.18 12.1389 321.244C11.7389 321.234 11.3619 320.818 10.9549 320.734C10.5575 320.678 10.1522 320.727 9.78019 320.878C9.40818 321.029 9.08275 321.276 8.83695 321.593C8.29119 322.365 7.9747 323.276 7.92395 324.22C7.62407 325.185 7.38493 326.169 7.20795 327.164C7.18183 327.544 7.26751 327.924 7.45444 328.256C7.64136 328.588 7.92137 328.858 8.25995 329.033C8.68459 329.166 9.14027 329.163 9.56289 329.023C9.98551 328.884 10.3538 328.616 10.6159 328.256C11.2379 327.587 11.7389 326.818 12.3859 326.167C13.0089 325.568 13.7563 325.114 14.5749 324.837C15.6369 324.422 16.0339 323.426 16.5409 322.484C16.7169 322.151 17.7409 319.793 18.1969 320.093C18.5969 320.357 18.1809 321.225 18.0599 321.532C17.8617 322.02 17.6277 322.492 17.3599 322.945C16.8033 323.906 16.1108 324.782 15.3039 325.545C15.2288 325.62 15.1747 325.713 15.1473 325.815C15.1199 325.918 15.1201 326.026 15.1479 326.128C15.2409 326.492 14.8949 327.047 14.7069 327.345C14.3713 327.842 13.9954 328.31 13.5829 328.745C12.6941 329.586 12.0226 330.63 11.6259 331.788C11.4624 332.543 11.3919 333.316 11.4159 334.088C11.4159 334.91 11.4099 335.732 11.4599 336.555C11.5001 337.336 11.6068 338.112 11.7789 338.875C11.9899 339.66 12.2659 340.425 12.6039 341.164C13.1319 342.422 13.6529 344.007 12.5289 345.101C11.6549 345.95 10.4829 346.795 10.8669 348.201C10.9546 348.5 11.1312 348.766 11.3734 348.962C11.6157 349.159 11.912 349.277 12.2229 349.301C12.5319 349.341 12.8469 349.301 13.1549 349.35C13.5131 349.422 13.8531 349.564 14.1549 349.77C15.2399 350.429 16.2929 351.305 17.6549 351.011C19.1469 350.69 19.2969 349.15 18.9649 347.911C18.7603 347.271 18.6206 346.613 18.5479 345.945C18.5047 345.232 18.5463 344.516 18.6719 343.812C18.7949 343.126 18.978 342.453 19.2189 341.799C19.4692 341.29 19.6916 340.767 19.8849 340.234C19.9674 339.649 20.2368 339.106 20.6529 338.686C20.8609 338.497 21.1177 338.37 21.3942 338.32C21.6708 338.27 21.9558 338.298 22.2169 338.402C23.4509 338.902 22.8019 340.241 22.3569 341.07C21.6748 342.038 21.3762 343.225 21.5189 344.4C21.6841 344.998 21.9247 345.573 22.2349 346.111C22.5302 346.575 22.7127 347.101 22.768 347.648C22.768 348.331 22.1949 348.781 21.7459 349.219C21.2329 349.661 20.8597 350.243 20.6719 350.894C20.6004 351.215 20.6145 351.549 20.7129 351.863C20.8429 352.263 21.1339 352.363 21.5129 352.463C22.1501 352.618 22.8119 352.643 23.459 352.537C24.8054 352.314 26.0243 351.608 26.8879 350.551C27.7757 349.441 28.3419 348.109 28.525 346.699C28.6 346.173 28.5399 345.406 28.9049 344.976C29.3049 344.504 30.0349 344.885 30.3319 345.288C30.6844 345.902 30.8827 346.593 30.91 347.301C30.9359 347.402 30.9882 347.494 31.0615 347.567C31.1348 347.641 31.2265 347.694 31.327 347.72C31.9754 347.852 32.6491 347.774 33.25 347.497C33.8509 347.22 34.3477 346.758 34.6679 346.179C35.3145 344.814 35.6352 343.318 35.6049 341.808C35.7147 338.411 36.0512 335.026 36.6119 331.674C36.9155 330.164 37.4165 328.7 38.1019 327.32C38.7689 326.02 39.744 324.944 40.4729 323.688C40.8416 323.076 41.0903 322.4 41.2059 321.695C41.2269 320.9 41.296 320.107 41.4129 319.32C41.5024 319 41.6881 318.716 41.9449 318.506C42.2016 318.295 42.5169 318.169 42.8479 318.144C43.2678 318.054 43.6681 317.889 44.0299 317.658C44.2491 317.507 44.4169 317.293 44.5109 317.044C44.5369 316.98 44.559 316.915 44.584 316.844C44.5882 316.834 44.5919 316.824 44.5949 316.813L44.6009 316.802C44.6279 316.749 44.6549 316.695 44.6849 316.642C45.2019 315.704 46.1989 315.13 46.6649 314.183C46.8923 313.793 47.0211 313.354 47.0401 312.903C47.0591 312.452 46.9677 312.003 46.7739 311.595C46.5785 311.188 46.2905 310.833 45.9332 310.558C45.5758 310.282 45.1589 310.094 44.716 310.009" fill="#F0F0F0"/>
<path d="M155.354 232.239C155.283 232.084 155.203 231.934 155.115 231.788C154.859 231.373 154.395 231.056 154.403 230.645C154.455 230.017 155.071 229.545 155.251 228.961C155.478 228.442 155.739 227.938 156.032 227.452C156.105 227.154 156.194 226.861 156.298 226.572C156.489 226.207 156.906 225.966 157.067 225.582C157.142 225.407 157.194 225.223 157.22 225.034C157.466 223.902 156.854 222.522 157.849 221.651C158.225 221.327 158.556 220.955 158.835 220.545C159.07 220.215 159.235 219.841 159.321 219.445C159.396 219.096 159.472 218.702 159.833 218.545C160.531 218.391 161.259 218.457 161.918 218.733C162.076 218.816 162.205 218.946 162.285 219.105C162.366 219.264 162.394 219.445 162.367 219.621C162.307 220.038 162.319 220.772 162.882 220.709C163.159 220.627 163.412 220.478 163.618 220.275C164.014 220.042 164.459 219.907 164.918 219.882C165.383 219.733 165.866 219.647 166.354 219.626C167.304 219.826 167.098 219.478 167.41 218.793C167.697 218.276 168.399 218.052 168.663 217.48C168.88 217.061 169.2 216.704 169.592 216.442C169.984 216.18 170.436 216.021 170.906 215.98C171.077 215.914 171.259 215.882 171.442 215.887C171.625 215.892 171.805 215.933 171.972 216.008C172.139 216.083 172.289 216.19 172.414 216.324C172.539 216.457 172.637 216.615 172.701 216.786C172.748 217.368 172.892 217.939 173.126 218.474C173.454 219.128 174.346 219.412 174.611 220.031C174.694 220.706 174.702 221.389 174.635 222.066C174.593 223.23 172.535 223.041 171.975 223.717C171.807 224.002 171.619 224.275 171.412 224.534C171.157 224.768 170.812 224.905 170.553 225.134C169.894 225.673 169.863 226.495 169.613 227.307C169.468 227.632 169.398 227.985 169.408 228.341C169.418 228.696 169.508 229.045 169.672 229.361C169.89 229.577 170.15 229.746 170.436 229.857C170.723 229.967 171.029 230.016 171.336 230.002C171.885 230.002 172.444 229.757 173.03 229.779C173.166 229.781 173.3 229.81 173.424 229.865C173.548 229.92 173.66 229.999 173.754 230.098C173.847 230.197 173.919 230.313 173.967 230.441C174.014 230.568 174.036 230.703 174.03 230.839C174.135 231.42 174.049 232.019 173.784 232.546C173.511 232.925 173.159 233.326 173.297 233.829C173.467 234.477 173.826 235.054 173.226 235.547C173.136 235.647 173.026 235.769 173.062 235.909C173.196 236.229 173.601 236.449 173.714 236.799C173.914 237.246 173.737 237.899 173.892 238.389C174.022 238.889 174.5 239.16 174.826 239.527C175.015 239.713 175.164 239.936 175.262 240.182C175.36 240.428 175.406 240.692 175.397 240.957C175.291 241.333 175.064 241.663 174.753 241.898C174.441 242.133 174.06 242.259 173.67 242.257C173.17 242.135 172.942 241.566 172.445 241.428C171.833 241.189 171.156 241.777 170.569 241.497C170.339 241.29 170.149 241.042 170.01 240.765C169.916 240.603 169.775 240.473 169.606 240.392C169.437 240.311 169.247 240.283 169.062 240.311C168.279 240.511 168.107 241.679 167.486 242.132C167.192 242.376 166.786 242.298 166.455 242.418C166.271 242.505 166.123 242.653 166.035 242.836C165.864 243.057 165.762 243.323 165.741 243.601C165.72 243.879 165.781 244.157 165.917 244.401C166.298 244.959 165.668 245.412 165.565 245.943C165.478 246.573 165.965 247.232 165.778 247.889C165.662 248.671 164.82 249.051 164.758 249.851C164.724 250.224 164.801 250.607 164.769 250.978C164.737 251.349 164.539 251.704 164.491 252.083C164.443 252.462 164.632 252.902 164.513 253.262C164.39 253.584 164.156 253.851 163.853 254.015C163.197 254.35 162.577 254.75 162.002 255.21C161.224 255.613 160.487 256.09 159.802 256.637C159.505 256.908 159.147 257.103 158.758 257.206C158.37 257.308 157.962 257.315 157.57 257.226C157.137 257.071 156.685 256.978 156.226 256.949C155.642 256.938 155.063 257.401 154.51 257.337C154.259 257.267 154.039 257.116 153.883 256.907C153.727 256.699 153.644 256.444 153.648 256.184C153.493 255.404 154.099 254.841 154.248 254.117C154.308 253.773 154.179 253.471 154.329 253.198C154.431 253.079 154.527 252.954 154.615 252.824C154.767 252.547 154.615 252.024 154.731 251.581C154.809 251.388 154.846 251.181 154.839 250.972C154.832 250.764 154.782 250.559 154.691 250.372C154.282 249.815 153.858 249.255 153.441 248.751C153.29 248.572 153.183 248.361 153.128 248.134C153.073 247.907 153.071 247.67 153.123 247.442C153.123 246.828 152.523 246.352 152.246 245.782C151.793 244.769 150.733 244.382 149.846 243.875C149.777 243.825 149.719 243.762 149.676 243.69C149.632 243.617 149.603 243.537 149.591 243.453C149.578 243.369 149.583 243.283 149.604 243.201C149.626 243.119 149.663 243.042 149.715 242.975C149.997 242.475 150.335 241.875 150.925 241.715C151.225 241.638 151.559 241.682 151.859 241.588C152.473 241.381 152.909 240.495 153.397 239.999C153.891 239.412 154.657 238.683 154.328 237.847C154.197 237.517 153.901 237.269 153.79 236.928C153.608 236.428 153.99 235.928 154.09 235.452C154.129 235.203 154.154 234.952 154.163 234.7C154.18 234.282 154.282 233.872 154.461 233.494C154.64 233.116 154.893 232.778 155.205 232.5C155.405 232.362 155.356 232.237 155.356 232.237" fill="#DCE2E3"/>
<path d="M163.378 231.765C163.378 232.195 163.506 232.616 163.745 232.974C163.984 233.332 164.324 233.611 164.722 233.776C165.12 233.941 165.557 233.984 165.98 233.9C166.402 233.816 166.79 233.609 167.094 233.304C167.399 233 167.606 232.612 167.69 232.19C167.774 231.767 167.731 231.33 167.566 230.932C167.401 230.534 167.122 230.194 166.764 229.955C166.406 229.716 165.985 229.588 165.555 229.588C164.978 229.588 164.424 229.817 164.016 230.226C163.607 230.634 163.378 231.188 163.378 231.765Z" fill="#8BC4BD"/>
<path d="M165.555 234.482C165.411 234.482 165.272 234.539 165.17 234.641C165.068 234.743 165.011 234.882 165.011 235.026V237.861C165.011 238.005 165.068 238.144 165.17 238.246C165.272 238.348 165.411 238.405 165.555 238.405C165.699 238.405 165.838 238.348 165.94 238.246C166.042 238.144 166.099 238.005 166.099 237.861V235.031C166.1 234.959 166.086 234.888 166.059 234.822C166.033 234.756 165.993 234.695 165.943 234.644C165.893 234.593 165.833 234.553 165.767 234.525C165.701 234.497 165.631 234.482 165.559 234.482" fill="#8BC4BD"/>
<path d="M352.33 280.664L173.493 233.664L173.747 232.697L352.584 279.697L352.33 280.664Z" fill="black" fill-opacity="0.3"/>
</svg>
