<svg width="440" height="328" viewBox="0 0 440 328" fill="none" xmlns="http://www.w3.org/2000/svg">
<path d="M429.613 100.449C423.095 106.963 415.148 112.849 412.313 121.612C411.649 123.89 411.264 126.241 411.165 128.612C411.159 128.57 411.217 143.745 406.777 148.53C403.816 151.72 399.755 153.611 395.931 155.697C378.731 165.082 364.901 179.52 348.898 190.828C347.119 191.906 345.564 193.315 344.316 194.979C340.594 200.767 345.684 208.809 343.116 215.193C341.53 219.141 337.222 221.493 332.976 221.861C328.73 222.229 324.521 220.929 320.551 219.383C313.739 216.73 307.256 213.301 301.23 209.163C298.289 207.144 295.173 204.38 295.319 200.82C295.396 198.943 296.399 197.242 296.896 195.428C297.455 193.169 297.249 190.789 296.311 188.659C295.373 186.53 293.756 184.771 291.712 183.659C285.028 180.226 274.927 187.238 268.964 190.284C261.131 194.284 253.447 199.408 249.22 207.372C246.337 212.803 244.112 215.486 239.52 217.23C238.128 217.744 236.701 218.158 235.251 218.47C229.37 219.788 222.334 224.337 216.351 223.022C214.109 222.53 212.109 221.303 209.975 220.458C207.115 219.353 204.038 218.927 200.986 219.213C197.933 219.498 194.989 220.488 192.384 222.104C180.367 229.704 179.884 247.479 170.078 257.767C167.895 260.1 165.244 261.946 162.298 263.184C159.353 264.422 156.18 265.025 152.986 264.953C149.791 264.827 146.681 263.888 143.951 262.224C141.221 260.56 138.961 258.227 137.386 255.445C135.976 252.786 134.967 249.437 132.144 248.381C131.684 248.219 131.205 248.121 130.719 248.092C129.845 248.219 128.989 248.451 128.17 248.781C111.048 251.769 105.061 270.443 93.4397 280.661C77.4867 294.687 61.5987 308.814 46.6097 323.876C44.9707 325.522 43.2097 327.24 40.9457 327.77C38.4727 328.351 35.9257 327.395 33.5677 326.453C25.4343 323.204 17.3153 319.914 9.21065 316.585C5.88465 315.219 2.27465 313.585 0.751652 310.328C-0.867348 306.866 0.439656 302.813 1.75766 299.228L12.6627 269.567C13.6257 266.949 14.6337 264.253 16.5457 262.219C18.4577 260.185 21.5267 258.964 24.1127 260.019C28.7127 261.895 30.3017 269.845 35.1927 268.955C37.9457 268.455 39.1517 265.322 40.6507 262.964C43.8017 258.008 49.6017 255.575 54.6947 252.641C75.5697 240.614 67.0177 214.73 78.4097 197.373C87.2277 183.938 107.985 181.764 121.235 190.879C121.767 191.245 122.298 191.629 122.835 192.004C123.781 192.599 124.823 193.024 125.915 193.262C126.506 193.515 127.126 193.693 127.762 193.794C133.773 194.694 137.694 187.866 139.949 182.232C149.8 157.627 162.364 134.197 177.408 112.377C180.808 107.453 184.777 102.29 190.563 100.745C199.981 98.2309 209.278 106.381 219.004 105.703C220.465 105.706 221.925 105.601 223.372 105.39C223.871 105.211 224.361 105.006 224.838 104.774C233.468 101.007 239.438 91.0319 247.475 85.1169C252.685 81.2809 258.918 79.1358 265.044 77.0468L314.213 60.2769C323.471 57.1189 332.919 53.8419 341.307 48.9479V48.9429C344.875 46.8916 348.222 44.4789 351.297 41.7429C364.297 30.0299 371.132 11.9509 386.034 2.76285C389.434 0.184854 395.504 -1.27115 399.677 1.49285C403.85 4.25685 406.212 8.97185 408.393 13.4708C412.393 21.7329 416.456 30.1919 417.499 39.3099C418.11 44.6419 417.712 50.2689 420.022 55.1159C424.055 63.5769 435.149 67.1818 438.51 75.9308C441.81 84.5308 436.128 93.9308 429.61 100.446" fill="#A1D1DB"/>
<path d="M236.323 123.799C234.712 118.699 227.779 116.829 227.779 116.829C227.779 116.656 225.679 127.387 222.7 132.011C220.15 135.821 217.175 139.328 213.832 142.465C210.891 144.678 207.794 146.712 205.269 149.38C204.213 150.513 203.248 151.726 202.381 153.009C202.134 153.244 201.881 153.478 201.639 153.715C198.296 157.048 196.219 161.443 195.766 166.142C195.566 167.587 195.6 169.054 195.866 170.488C195.966 171.36 196.171 172.217 196.476 173.041C196.735 173.847 197.206 174.568 197.839 175.131C198.46 175.615 199.231 175.869 200.02 175.848C200.69 175.949 201.367 176 202.046 176.001C202.758 175.881 203.449 175.656 204.096 175.335C205.431 174.661 206.682 173.833 207.825 172.868C208.533 172.309 209.235 171.742 209.931 171.168L210.425 170.699L210.372 170.663C210.867 169.846 211.363 169.03 211.861 168.213C212.805 166.66 213.749 165.106 214.555 163.478C215.084 162.41 215.555 161.314 216.023 160.22C216.797 158.237 217.777 156.341 218.947 154.563C219.393 153.931 219.886 153.334 220.378 152.737C220.652 152.386 220.953 152.056 221.278 151.75C221.701 151.39 222.165 151.081 222.659 150.827L222.902 150.697C224.296 150.193 225.736 149.824 227.202 149.597C227.58 149.526 227.989 149.46 228.075 149.458C228.577 149.403 229.075 149.318 229.567 149.203C232.826 148.382 235.239 145.476 236.342 142.303C237.445 139.13 237.45 135.703 237.369 132.345C237.422 129.462 237.069 126.587 236.321 123.803" fill="#35903F"/>
<path d="M38.2257 26.2439H49.7897V33.2719H48.0257V27.8959H39.9057V33.3419H38.2257V26.2439ZM39.0937 30.9199H49.0057V32.5719H39.0937V30.9199ZM43.0697 23.8079H44.8477V36.9539H43.0697V23.8079ZM52.2957 26.4119H62.4597V28.0639H52.2957V26.4119ZM57.0977 23.8219H58.8337V27.1959H57.0977V23.8219ZM61.9417 26.4119H62.3057L62.6417 26.3279L63.9157 27.1259C63.477 27.8726 62.9637 28.6239 62.3757 29.3799C61.7877 30.1359 61.153 30.8732 60.4717 31.5919C59.7997 32.3012 59.1043 32.9686 58.3857 33.5939C57.667 34.2099 56.953 34.7559 56.2437 35.2319C56.0943 35.0452 55.903 34.8399 55.6697 34.6159C55.4457 34.3826 55.231 34.1959 55.0257 34.0559C55.707 33.6172 56.3883 33.1086 57.0697 32.5299C57.751 31.9419 58.3997 31.3212 59.0157 30.6679C59.641 30.0052 60.2057 29.3426 60.7097 28.6799C61.2137 28.0172 61.6243 27.3966 61.9417 26.8179V26.4119ZM55.0677 32.4739C55.385 33.2112 55.8377 33.7666 56.4257 34.1399C57.0137 34.5039 57.695 34.7512 58.4697 34.8819C59.2443 35.0126 60.0797 35.0779 60.9757 35.0779C61.1063 35.0779 61.2837 35.0779 61.5077 35.0779C61.741 35.0779 61.9977 35.0779 62.2777 35.0779C62.567 35.0779 62.8563 35.0779 63.1457 35.0779C63.435 35.0779 63.7057 35.0779 63.9577 35.0779C64.219 35.0686 64.4337 35.0639 64.6017 35.0639C64.5177 35.1852 64.4337 35.3486 64.3497 35.5539C64.275 35.7499 64.205 35.9506 64.1397 36.1559C64.0837 36.3706 64.0417 36.5619 64.0137 36.7299H63.3417H60.8497C59.711 36.7299 58.6843 36.6319 57.7697 36.4359C56.855 36.2399 56.0477 35.8759 55.3477 35.3439C54.657 34.8119 54.0783 34.0419 53.6117 33.0339L55.0677 32.4739ZM52.9257 36.9539L51.2737 35.9179C51.619 35.5166 51.955 35.0499 52.2817 34.5179C52.6083 33.9766 52.907 33.4119 53.1777 32.8239C53.4577 32.2359 53.6817 31.6852 53.8497 31.1719L55.5437 31.7879C55.357 32.2266 55.1283 32.7446 54.8577 33.3419C54.587 33.9299 54.2883 34.5412 53.9617 35.1759C53.635 35.8012 53.2897 36.3939 52.9257 36.9539ZM67.3877 32.0959H76.8937V33.2999H67.3877V32.0959ZM68.2837 30.1779H78.4057V31.4099H68.2837V30.1779ZM68.2837 26.6779H75.0457V27.6999H68.2837V26.6779ZM76.2777 32.0959H77.9157C77.9157 32.0959 77.911 32.1706 77.9017 32.3199C77.8923 32.4599 77.883 32.5859 77.8737 32.6979C77.8083 33.4632 77.7383 34.1026 77.6637 34.6159C77.5983 35.1199 77.519 35.5166 77.4257 35.8059C77.3417 36.0952 77.239 36.3099 77.1177 36.4499C76.9777 36.6086 76.8283 36.7206 76.6697 36.7859C76.5203 36.8512 76.3477 36.8979 76.1517 36.9259C75.993 36.9446 75.7737 36.9586 75.4937 36.9679C75.2137 36.9772 74.9103 36.9726 74.5837 36.9539C74.5743 36.7299 74.5323 36.4826 74.4577 36.2119C74.383 35.9412 74.2897 35.7079 74.1777 35.5119C74.4297 35.5399 74.6537 35.5586 74.8497 35.5679C75.055 35.5679 75.209 35.5679 75.3117 35.5679C75.405 35.5679 75.4843 35.5632 75.5497 35.5539C75.615 35.5352 75.6803 35.4932 75.7457 35.4279C75.8203 35.3532 75.8857 35.2039 75.9417 34.9799C76.007 34.7466 76.0677 34.4152 76.1237 33.9859C76.1797 33.5566 76.231 32.9966 76.2777 32.3059V32.0959ZM70.8317 23.7659L72.8337 23.9199C72.6937 24.2652 72.5303 24.5919 72.3437 24.8999C72.1663 25.2079 72.0077 25.4739 71.8677 25.6979L70.3837 25.4459C70.4677 25.1939 70.5517 24.9139 70.6357 24.6059C70.729 24.2979 70.7943 24.0179 70.8317 23.7659ZM68.3537 24.8579H76.2917V29.5479H68.3537V28.3999H74.6117V26.0199H68.3537V24.8579ZM67.3877 24.8579H69.0537V32.4879H67.3877V24.8579ZM72.4837 33.6219H74.0377V36.1839H66.9817V34.9099H72.4837V33.6219ZM69.3337 33.2019H70.8737V35.5399H69.3337V33.2019ZM66.1557 33.6359H67.6817V36.7999H66.1557V33.6359Z" fill="black"/>
<path d="M333.612 105.336H342.306V107.03H333.612V105.336ZM333.584 101.052H342.306V102.718H333.584V101.052ZM332.716 96.8519H343.314V107.926H341.522V98.5599H334.41V107.94H332.716V96.8519ZM336.818 94.7519L339.016 95.0459C338.801 95.5686 338.572 96.0772 338.33 96.5719C338.087 97.0666 337.868 97.4912 337.672 97.8459L336.006 97.5099C336.108 97.2392 336.211 96.9452 336.314 96.6279C336.426 96.3106 336.524 95.9886 336.608 95.6619C336.701 95.3352 336.771 95.0319 336.818 94.7519ZM350.496 95.9839H358.49V97.3979H350.496V95.9839ZM350.706 98.4759H358.378V99.8059H350.706V98.4759ZM350.692 102.802H358.434V104.146H350.692V102.802ZM350.328 100.604H358.672V101.976H350.328V100.604ZM350.51 104.79H358.546V106.204H350.51V104.79ZM352.12 94.8079H353.688V98.1679H352.12V94.8079ZM355.34 94.8079H356.908V98.1679H355.34V94.8079ZM353.786 99.0779H355.298V107.968H353.786V99.0779ZM351.532 99.0779H352.89V103.334H351.532V99.0779ZM356.222 99.0779H357.594V103.32H356.222V99.0779ZM345.624 97.7199H350.426V99.2739H345.624V97.7199ZM347.402 94.8079H348.956V107.954H347.402V94.8079ZM347.388 98.7839L348.34 99.1059C348.237 99.6659 348.106 100.245 347.948 100.842C347.798 101.439 347.621 102.023 347.416 102.592C347.22 103.161 347.005 103.693 346.772 104.188C346.548 104.683 346.31 105.112 346.058 105.476C345.974 105.252 345.857 104.995 345.708 104.706C345.558 104.417 345.418 104.174 345.288 103.978C345.521 103.67 345.74 103.311 345.946 102.9C346.16 102.489 346.361 102.055 346.548 101.598C346.734 101.131 346.898 100.66 347.038 100.184C347.178 99.6986 347.294 99.2319 347.388 98.7839ZM348.872 99.8899C348.956 99.9926 349.082 100.165 349.25 100.408C349.418 100.651 349.595 100.917 349.782 101.206C349.978 101.486 350.155 101.752 350.314 102.004C350.482 102.247 350.598 102.419 350.664 102.522L349.768 103.754C349.684 103.539 349.572 103.287 349.432 102.998C349.292 102.709 349.142 102.41 348.984 102.102C348.825 101.794 348.671 101.509 348.522 101.248C348.372 100.977 348.246 100.753 348.144 100.576L348.872 99.8899ZM364.398 95.2559H365.924V101.864H364.398V95.2559ZM362.592 97.5379H367.534V99.0639H362.592V97.5379ZM368.654 95.2839H371.454V96.7679H368.654V95.2839ZM368.654 98.6019H371.51V100.072H368.654V98.6019ZM368.654 101.934H371.51V103.404H368.654V101.934ZM362.998 101.206H364.426V107.002H362.998V101.206ZM363.74 101.206H367.268V106.05H363.74V104.594H365.812V102.648H363.74V101.206ZM367.94 95.2839H369.41V100.926C369.41 101.477 369.386 102.069 369.34 102.704C369.302 103.339 369.218 103.978 369.088 104.622C368.966 105.257 368.789 105.868 368.556 106.456C368.322 107.035 368.005 107.553 367.604 108.01C367.52 107.926 367.398 107.828 367.24 107.716C367.09 107.613 366.932 107.511 366.764 107.408C366.605 107.305 366.47 107.226 366.358 107.17C366.722 106.741 367.011 106.269 367.226 105.756C367.44 105.243 367.599 104.711 367.702 104.16C367.804 103.609 367.87 103.059 367.898 102.508C367.926 101.948 367.94 101.421 367.94 100.926V95.2839ZM370.712 95.2839H372.21V106.218C372.21 106.554 372.168 106.825 372.084 107.03C372.009 107.245 371.864 107.413 371.65 107.534C371.435 107.665 371.174 107.744 370.866 107.772C370.567 107.809 370.203 107.823 369.774 107.814C369.736 107.627 369.671 107.394 369.578 107.114C369.484 106.834 369.382 106.605 369.27 106.428C369.531 106.437 369.774 106.447 369.998 106.456C370.231 106.456 370.39 106.456 370.474 106.456C370.567 106.447 370.628 106.423 370.656 106.386C370.693 106.349 370.712 106.283 370.712 106.19V95.2839ZM359.946 96.1659L360.87 94.9759C361.122 95.0786 361.388 95.2046 361.668 95.3539C361.957 95.5032 362.228 95.6572 362.48 95.8159C362.741 95.9746 362.951 96.1286 363.11 96.2779L362.13 97.5939C361.98 97.4446 361.784 97.2859 361.542 97.1179C361.299 96.9406 361.033 96.7679 360.744 96.5999C360.464 96.4226 360.198 96.2779 359.946 96.1659ZM359.4 99.8899L360.31 98.6859C360.571 98.7886 360.842 98.9099 361.122 99.0499C361.411 99.1806 361.682 99.3252 361.934 99.4839C362.195 99.6332 362.405 99.7779 362.564 99.9179L361.612 101.248C361.462 101.099 361.262 100.945 361.01 100.786C360.767 100.618 360.501 100.455 360.212 100.296C359.932 100.137 359.661 100.002 359.4 99.8899ZM359.61 106.96C359.796 106.587 359.992 106.157 360.198 105.672C360.412 105.177 360.627 104.655 360.842 104.104C361.056 103.544 361.257 102.989 361.444 102.438L362.788 103.32C362.629 103.815 362.456 104.323 362.27 104.846C362.092 105.359 361.906 105.868 361.71 106.372C361.514 106.876 361.322 107.357 361.136 107.814L359.61 106.96Z" fill="black"/>
<path d="M228.341 127.732L153.401 31.6317H88.6006V30.6317H153.894L154.044 30.8241L229.134 127.124L228.341 127.732Z" fill="black"/>
</svg>
