<svg width="61" height="66" viewBox="0 0 61 66" fill="none" xmlns="http://www.w3.org/2000/svg">
<path d="M30.3112 46.6697C32.7266 46.6697 35.1183 46.1939 37.3499 45.2696C39.5814 44.3453 41.609 42.9904 43.317 41.2825C45.0249 39.5746 46.3797 37.5469 47.3041 35.3154C48.2284 33.0838 48.7042 30.6921 48.7042 28.2767C48.7243 24.8799 47.8333 21.5398 46.1242 18.6043C44.415 15.6687 41.9501 13.2451 38.9862 11.5857C38.8953 11.5455 38.797 11.5248 38.6977 11.5248C38.5983 11.5248 38.5 11.5455 38.4092 11.5857C38.3169 11.622 38.2356 11.6814 38.173 11.7583C38.1105 11.8352 38.0689 11.927 38.0522 12.0247C37.5319 14.4569 36.3979 16.7155 34.7582 18.5857C34.6271 18.7186 34.4507 18.7972 34.2642 18.8057C34.1728 18.8114 34.0813 18.7972 33.996 18.7641C33.9107 18.7309 33.8337 18.6796 33.7702 18.6137C31.5546 16.2459 30.3186 13.1264 30.3112 9.88368C30.4056 8.21509 30.8304 6.58184 31.5608 5.07863C32.2912 3.57542 33.3127 2.23214 34.5662 1.12668C34.6539 1.0118 34.7014 0.871244 34.7014 0.726681C34.7014 0.582119 34.6539 0.441567 34.5662 0.326681C34.4986 0.22201 34.4048 0.136847 34.2941 0.0796572C34.1834 0.0224669 34.0596 -0.00476027 33.9352 0.000681384C27.7418 1.75421 22.2708 5.44069 18.32 10.5224C14.3693 15.6041 12.1455 21.8152 11.9732 28.2497C11.966 33.123 13.8931 37.7999 17.3313 41.2535C20.7696 44.7071 25.4379 46.6551 30.3112 46.6697Z" fill="black"/>
<path d="M60.5091 45.8734C60.4187 45.5043 60.2527 45.1581 60.0216 44.8565C59.7905 44.555 59.4993 44.3047 59.1665 44.1215C58.8336 43.9383 58.4664 43.8261 58.088 43.7922C57.7095 43.7583 57.3282 43.8033 56.9681 43.9244L2.06209 60.3954C1.33407 60.6065 0.719732 61.0981 0.354224 61.7622C-0.0112845 62.4263 -0.0980233 63.2083 0.113089 63.9364C0.324201 64.6644 0.815872 65.2787 1.47994 65.6442C2.144 66.0097 2.92607 66.0965 3.65409 65.8854L58.5541 49.4144C58.9231 49.324 59.2694 49.158 59.5709 48.9269C59.8725 48.6958 60.1228 48.4046 60.306 48.0718C60.4892 47.7389 60.6013 47.3717 60.6352 46.9932C60.6692 46.6148 60.6242 46.2335 60.5031 45.8734H60.5091Z" fill="black"/>
<path d="M1.98017 49.4145L14.3382 53.5325C14.6237 53.6161 14.9188 53.6621 15.2162 53.6695C15.8797 53.7032 16.5329 53.4955 17.0552 53.0849C17.5775 52.6743 17.9334 52.0886 18.0573 51.4359C18.1812 50.7832 18.0646 50.1077 17.7291 49.5343C17.3936 48.9609 16.8619 48.5283 16.2322 48.3165L3.87517 44.1985C3.18689 43.9616 2.43304 44.0045 1.77614 44.3182C1.11923 44.6318 0.611866 45.191 0.363414 45.8752C0.114961 46.5595 0.145314 47.3139 0.447931 47.976C0.750548 48.638 1.30019 49.1547 1.98017 49.4145Z" fill="black"/>
<path d="M58.6422 60.5336L46.2882 56.4156C45.5972 56.1853 44.8431 56.2383 44.1911 56.563C43.5392 56.8877 43.0425 57.4577 42.81 58.1479C42.5775 58.8382 42.6281 59.5924 42.9507 60.2454C43.2733 60.8984 43.8417 61.3969 44.5312 61.6316L56.8852 65.7496C57.1707 65.8331 57.4658 65.8792 57.7632 65.8866C58.4154 65.8873 59.0466 65.656 59.544 65.2341C60.0414 64.8121 60.3724 64.227 60.478 63.5834C60.5836 62.9397 60.4568 62.2795 60.1203 61.7208C59.7837 61.1621 59.2605 60.7413 58.6422 60.5336Z" fill="black"/>
</svg>
