<svg xmlns="http://www.w3.org/2000/svg" width="72.11" height="94.932"><path data-name="パス 113" d="M27.78 43.634c0-.922 0-4.546-.59-5.12S9.218 32.506 3.723 22.89C1.617 19.206-.977 11.113.37 7.081c.37-1.109 1.309-2.534 2.97-2.27 4.184.665 4.833 4.636 5.2 6.661a54.436 54.436 0 002.9 7.164c.678-.677.386-5.329.415-6.254.293-9.17.653-11.453 4.193-12.179 4.77-.979 6.087 8.938 6.284 11.312.088 1.057.246 2.174.419 3.212.039.234.14.7.14.7l.28-.7c.535-1.337.831-2.834 1.4-4.189 1.389-3.333 2.634-7.8 6-9.636 1.8-.984 3.6-1.506 5.028.279 2.685 3.357 1.663 9.4.419 13.128-.224.672-2 4.847-1.536 5.307.009.009.692-1.177.838-1.4.947-1.421 1.947-2.781 2.932-4.19l.029-.042c2.614-3.735 6.975-9.963 11.842-10.572 6.849-.856 2.895 9.248 1.4 11.87-.317.555-2.578 3.147-2.095 3.631.622.623 4.155-.541 4.888-.7 4.606-.987 8.474-2.653 13.267-2.653 1.929 0 5 .441 4.469 3.072-.661 3.306-4.028 5.366-6.7 6.7-6.539 3.269-14.343 4.528-21.367 6.285-2.307.577-6.142.416-7.96 2.234-.962.962-.695 8.623-.838 10.195l-.1 1.2c-.909 11.409-.037 22.843-.037 34.275a68.225 68.225 0 00.55 10.199c.3 1.965.473 4.311-1.676 5.028-4.295 1.432-5.264-5.864-5.446-8.239-.81-10.524-.7-20.988-.7-31.562z" fill="#fff"/></svg>