<svg xmlns="http://www.w3.org/2000/svg" width="162.993" height="107.046"><path data-name="パス 112" d="M.581 104.552c-3.341-7.785 8.342-9.758 19.343-13.241 7.923-2.512 12.814-24.372 20.768-27.116a7.916 7.916 0 014.269.165c1.449.423 8.178 2.935 9.737 3.369.847.237 2.612.471 3.457-.185 4.245-3.3 5.007-9.148 7.895-13.4C74.904 41.121 84.205 28.4 93.083 15.393c.927-1.358 1.73-2.8 2.649-4.161 2.247-3.333 4.748-7.416 8.143-9.852a5.349 5.349 0 014.279-1.3c3.456.694 6.221 4.138 8.134 6.7a103.335 103.335 0 015.922 8.6c5.48 9.135 9.06 19.261 12.019 29.44 2.068 7.111 3.313 13.551 6.7 20.094A21.117 21.117 0 00143.532 69c.363.364.715.989 1.225.934.752-.08 1.287-.8 1.882-1.266 2.858-2.239 4.8-5.077 6.778-5.077s4.9 1.319 6.65 8.767c1.176 5.006 3.242 14.625 2.887 22.034-.089 1.861-.564 5.862-2.887 6.88a10.071 10.071 0 01-2.706.618c-6.072.826-21.907 1.216-23.86 1.253-58.177 1.096-130.402 7.276-132.92 1.409z" fill="#fff"/></svg>