<svg xmlns="http://www.w3.org/2000/svg" width="82.97" height="69.046"><g data-name="グループ 23" fill="#fff"><path data-name="パス 41" d="M29.86 7.596a6.814 6.814 0 011.647-1.75c1.942-1.31 3.132-1.872 3.623-1.712.358.116.82-.125 1.608-.835.946-.854 1.257-.978 2.16-.837a3.063 3.063 0 011.55.706 1.874 1.874 0 001.32.494c1.74-.095 5.137 3.228 4.45 4.354a1.745 1.745 0 00.243 1.243 1.755 1.755 0 01.25 1.232 1.989 1.989 0 00.305 1.331 12.942 12.942 0 01.803 2.017c.157.564.49 1.52.738 2.125a2.742 2.742 0 01.078 1.943 1.375 1.375 0 00.165 1.537 1.368 1.368 0 01.257 1.352 1.843 1.843 0 00.08 1.37c.401.787-.673 3.877-1.746 5.02a2.388 2.388 0 00-.589 1.527c.039.662-.244 1.023-1.293 1.66-1.373.83-1.656.872-6.36.93-2.273.028-2.803-.096-3.25-.768a2.335 2.335 0 00-1.495-.907 2.025 2.025 0 01-1.91-2.362c.056-.902-.05-1.163-.56-1.383a1.98 1.98 0 01-.899-1.032 2.3 2.3 0 00-.61-.979 10.887 10.887 0 01-1.422-1.81c-.95-1.423-1.073-1.861-1.07-3.919a9.748 9.748 0 00-.37-3.055 3.694 3.694 0 01-.362-1.46c.027-1.372 1.004-4.433 1.494-4.683a4.557 4.557 0 001.166-1.349z"/><path data-name="パス 42" d="M5.666 27.71a2.437 2.437 0 001.257-1.453 1.45 1.45 0 011.3-1.207 27.116 27.116 0 003.548-1.483c2.26-1.101 2.566-1.168 3.153-.688a1.568 1.568 0 001.325.3.987.987 0 011.12.405 1.238 1.238 0 001.064.53c.734-.122 5.233 1.722 5.505 2.255a1.252 1.252 0 01.054.81 5.444 5.444 0 001.242 3.056 3.257 3.257 0 011.328 2.098.816.816 0 00.475.768 2.83 2.83 0 01.94 1.563 3.5 3.5 0 01-.416 3.056c-.46.944-.754 1.85-.655 2.017.568.93.523 1.454-.24 2.787a5.52 5.52 0 01-1.894 2.01 2.553 2.553 0 00-1.384 1.73 2.312 2.312 0 01-2.79 1.813 2.772 2.772 0 00-1.695.23 2.155 2.155 0 01-2.892-.693c-.356-.699-1.071-.801-2.06-.297a2.006 2.006 0 01-2.489-.7 7.371 7.371 0 00-1.612-1.515 7.814 7.814 0 01-2.116-2.63 8.483 8.483 0 00-1.697-2.333c-.991-.68-1.209-1.232-.853-2.168.246-.643.112-1.117-.675-2.389-.94-1.52-.953-1.66-.384-3.333a5.8 5.8 0 00.425-2.25 1.839 1.839 0 011.116-2.29z"/><path data-name="パス 43" d="M58.866 11.13a6.086 6.086 0 001.045-1.915c.58-1.455.867-1.773 1.855-2.106a19.5 19.5 0 002.18-.9 2.366 2.366 0 012.08-.079 2.382 2.382 0 002.18-.128 4.024 4.024 0 011.551-.498 9.133 9.133 0 013.527 2.749 1.817 1.817 0 001.021.874c.806.181 2.311 3.761 2.042 4.857a2.069 2.069 0 00.092 1.226 1.931 1.931 0 01-.081 1.353 1.288 1.288 0 00.171 1.425c.368.422.385 1.01.058 2.059s-.311 1.635.062 2.063c.756.869.42 2.082-.83 2.998-.903.662-1.056.98-.876 1.827a1.808 1.808 0 01-1.155 2.37 1.635 1.635 0 00-.864.817c-.037.443-3.654 2.354-4.312 2.284a9.648 9.648 0 00-1.972.352c-1.17.3-1.757.24-2.39-.242a1.557 1.557 0 00-1.423-.35 3.748 3.748 0 01-1.942-.02 2.387 2.387 0 01-1.93-1.431 8.325 8.325 0 00-1.426-1.92c-.778-.726-.833-.959-.563-2.425a3.3 3.3 0 00-.346-2.64c-.543-.872-.54-1.296.041-2.857.555-1.503.57-1.956.087-2.511-.708-.812-.554-3.904.214-4.295a3.654 3.654 0 001.02-1.497 4.09 4.09 0 01.884-1.44z"/><path data-name="パス 44" d="M36.205 43.05a3.216 3.216 0 001.953-1.928c.608-1.33 1.558-2.141 2.246-1.922a5.467 5.467 0 001.966-.675c2.337-1.14 6.439-1.83 7.953-1.338.941.306 1.31.274 1.436-.115.312-.961 1.538-1.263 2.726-.668a6.959 6.959 0 002.782.52c1.297-.04 1.782.136 2.36.861 1.177 1.478 2.279 2.27 2.797 2.006a1.577 1.577 0 011.044-.063c.647.21 1.676 2.043 1.401 2.496a3.443 3.443 0 00.248 1.64 2.4 2.4 0 01-.017 1.985c-.248.351-.356.827-.243 1.05a4.423 4.423 0 01-.4 2.044 17.369 17.369 0 01-2.76 4.78 29.027 29.027 0 00-1.316 2.018c-.392.695-1.107 1.187-3.035 2.09a12.615 12.615 0 00-3.067 1.853c-.434.536-.8.632-1.797.467a3.892 3.892 0 00-1.99.166 1.982 1.982 0 01-1.033.278 8.265 8.265 0 00-2.275.834 15.691 15.691 0 01-3.725 1.17 11 11 0 00-2.216.478 3.774 3.774 0 01-3.237-.296 1.008 1.008 0 00-1.043-.27 4.439 4.439 0 01-2.069-.111 3.944 3.944 0 01-2.727-2.011c-2.491-3.433-3.543-6.627-2.634-8.017a5.729 5.729 0 00.397-1.978c.05-.83.288-1.606.527-1.728s.359-.371.27-.544c-.276-.544.962-1.612 2.258-1.936 1.062-.27 1.28-.471 1.56-1.434a2.3 2.3 0 011.66-1.702z"/></g></svg>