<svg xmlns="http://www.w3.org/2000/svg" width="96.513" height="92.097"><path data-name="パス 115" d="M85.05 9.618a6.6 6.6 0 00-2.426 2.27c-1.127 1.737-1.13 1.809-.315 3.16a4.593 4.593 0 01.73 2.266 1.3 1.3 0 00.553 1.233c.75.395.22 2.708-.87 3.813-1.334 1.347-2.352 3.225-2.16 3.992a.778.778 0 01-.527.961c-.396.099-.818.812-.935 1.585s-.372 2.439-.558 3.698c-.24 1.659-.61 2.424-1.34 2.764-.87.406-1.094.237-1.643-1.244a9.274 9.274 0 00-1.708-2.793 3.115 3.115 0 01-.948-2.13 6.471 6.471 0 00-1.646-3.205c-1.968-2.393-2.007-2.576-.807-3.813.461-.475.738-1.083.616-1.35a1.093 1.093 0 01.39-1.06c1.595-1.506-.178-5.051-2.6-5.19a6.611 6.611 0 01-2.383-.576c-.608-.352-1.522-.024-3.298 1.182-2.528 1.72-2.998 2.41-3.595 5.302-.293 1.421-.128 1.862 1.049 2.768a8.164 8.164 0 003.236 1.34c2.438.349 3.37.89 2.936 1.705-.196.368.303 1.566 1.107 2.664.869 1.182 1.35 2.388 1.185 2.966a1.2 1.2 0 00.47 1.368 1.217 1.217 0 01.666 1.073 1.569 1.569 0 00.672 1.228c1.017.746.134 2.666-1.155 2.508-.603-.074-1.135.329-1.425 1.081a2.391 2.391 0 01-1.581 1.395c-1.538.267-4.933 3.078-5.993 4.96-.643 1.136-1.193 1.511-2.067 1.404-.933-.115-1.158-.416-1.04-1.372a2.128 2.128 0 01.638-1.451c.69-.318.986-5.166.362-5.964a2.9 2.9 0 01-.38-1.836 1.643 1.643 0 00-.601-1.568.8.8 0 01-.403-1.04c.37-.696-1.529-4.98-2.247-5.068a12.3 12.3 0 01-2.452-2.596c-1.105-1.393-2.428-2.583-2.936-2.645a1.823 1.823 0 01-1.301-1.037q-.377-.924-1.943-.995c-.86-.04-1.54-.274-1.51-.519.053-.439-1.896-1.111-6.338-2.189a7.171 7.171 0 01-2.671-1.07c-.679-.85-2.59-.861-3.038-.016-.31.584-.825.66-2.058.301a4.134 4.134 0 00-3.215.301 5.917 5.917 0 01-2.66.649c-1.62-.194-2.745.195-2.842.984-.047.385-.284.676-.52.647-.83-.102-4.08 2.42-3.827 2.972.14.305-.117.792-.57 1.082a2.012 2.012 0 00-.889 1.056 10.1 10.1 0 01-2.591 2.416c-1.39 1.038-2.584 2.35-2.653 2.914a1.7 1.7 0 01-1.367 1.331c-1.251.307-2.417 2.574-2.058 4.008a3.615 3.615 0 01-.777 2.078 6.845 6.845 0 00-1.062 2.228 1.468 1.468 0 01-.554 1.055c-.245.113-.671 2.656-.947 5.65s-.556 5.944-.63 6.552a1.916 1.916 0 00.283 1.438c.228.182.248.75.047 1.263-.251.632.015 1.256.83 1.944a2.62 2.62 0 011.044 2.26c-.183 1.498 1.275 4.389 2.286 4.513a.745.745 0 01.627.842.876.876 0 00.853.869 1.365 1.365 0 011.086 1.153 1.353 1.353 0 001.133 1.15 2.422 2.422 0 011.53.965 1.533 1.533 0 001.511.661c.553-.103.941.061.902.382-.045.36.804.615 2.331.703 1.594.095 2.56.395 2.861.897.765 1.268 4.378 1.517 5.895.403 1.183-.862 1.418-.88 2.26-.125a11.972 11.972 0 011.907 3.989q1.51 4.887 2.77 4.315c.267-.123.671.366.898 1.086.314.995.799 1.358 2.017 1.507a4.3 4.3 0 012.311.99 8.773 8.773 0 003.302 1.472c2.417.63 2.632.6 3.178-.447a2.675 2.675 0 00.414-1.526c-.097-.223.145-.364.542-.316a2.127 2.127 0 001.44-.588 2.308 2.308 0 011.627-.565 1.429 1.429 0 001.34-.828 2.348 2.348 0 011.577-1.139 5.82 5.82 0 002.296-1.156 15.765 15.765 0 012.982-1.82 11.128 11.128 0 003.476-3.123 11.165 11.165 0 013.34-3.082 5.324 5.324 0 002.064-1.536 2.829 2.829 0 011.55-1.084 2.427 2.427 0 001.5-1.342c.428-1.379 1.324-2.132 2.382-2.002.496.06 2.778-1.355 5.071-3.146s4.615-3.287 5.163-3.324a2.877 2.877 0 001.786-1.308 6.4 6.4 0 012.178-1.922c1.02-.503 1.327-.963 1.185-1.744a1.445 1.445 0 01.96-1.676c.637-.34 1.134-.889 1.106-1.222a3.64 3.64 0 01.957-1.776 6.885 6.885 0 001.284-2.902c.907-5.75.906-5.948-.17-7.441-1.848-2.564-4.362-4.314-6.59-4.588l-2.06-.253.62-2.09a6.4 6.4 0 011.01-2.295 12.723 12.723 0 001.408-3.344c1.198-3.694 2.938-5.811 4.325-5.26a2.341 2.341 0 001.944-.334c.551-.389 1.131-.543 1.288-.345.697.891 1.804-.78 2.176-3.273.377-2.52.296-2.801-1.38-4.771a7.109 7.109 0 00-3.137-2.346 533.56 533.56 0 00-2.602-.466 4.887 4.887 0 01-1.719-.596 2.272 2.272 0 00-1.745.116zm-41.564 16.37a5.63 5.63 0 01-2.445-1.123 2.06 2.06 0 00-2.4-.429 14.608 14.608 0 01-4.084-.098c-3.612-.385-6.47.262-6.622 1.504-.032.266-.894.716-1.908 1.003s-1.893.876-1.948 1.325-1.321 1.735-2.82 2.867c-2.353 1.781-2.862 2.478-3.772 5.16a11.591 11.591 0 01-1.809 3.692 2.363 2.363 0 00-.843 1.256 6.4 6.4 0 01-.97 1.947c-.49.706-.719 1.423-.513 1.583a12.336 12.336 0 01.284 3.995 14.178 14.178 0 00.35 4.383 1.544 1.544 0 01.055 1.409c-.525.996-.14 2.284.721 2.39.392.048.851.655 1.023 1.35.43 1.75 3.13 4.26 4.8 4.465a6.715 6.715 0 013.041 1.832c1.395 1.405 2.084 1.709 4.416 1.937 2.239.222 2.881.091 3.4-.69a12.582 12.582 0 012.69-2.363 6.569 6.569 0 002.348-2.484c.207-.771.701-1.084 1.694-1.077.77.006 1.437-.283 1.48-.64.052-.417-.366-.62-1.159-.568a1.445 1.445 0 01-1.676-1.04 1.916 1.916 0 00-1.177-1.216 6.212 6.212 0 01-3.145-2.17 1.356 1.356 0 01-.003-1.149.436.436 0 00-.303-.689c-.969-.141-3.161-3.305-2.695-3.886.232-.29.072-.854-.356-1.253-.953-.895-.862-7.21.111-7.66a2.865 2.865 0 00.836-1.879c.191-1.373.695-1.855 3.54-3.403 4.202-2.282 5.968-2.369 9.387-.467 1.45.808 2.616 1.668 2.586 1.912s.28.485.69.535c.853.105 1.267 2.3.651 3.458a1.689 1.689 0 00.073 1.54.938.938 0 01-.095 1.326 6.994 6.994 0 00-1.132 2.155c-.516 1.493-.946 1.76-2.3 1.43-.307-.074-.734.304-.949.844-.605 1.523-1.878.984-2.566-1.087-.59-1.766-.57-1.927.372-2.739.548-.473 1.247-.783 1.553-.687.343.11.688-.731.905-2.206.198-1.342.123-2.403-.17-2.439a3.228 3.228 0 01-1.347-1.02c-.634-.733-.982-.835-1.49-.437a2.661 2.661 0 01-1.705.395 6.44 6.44 0 00-3.03 1.14c-1.604 1.021-1.973 1.53-1.9 2.625a1.75 1.75 0 01-.581 1.668c-.517.239-.51.636.03 1.734.387.783.903 1.45 1.148 1.48s.391.487.326 1.016a4.7 4.7 0 001.214 2.567 4.874 4.874 0 011.244 2.363c-.095.77 2.508 3.37 3.5 3.492a1.119 1.119 0 01.74.855c.407 1.614 3.02 1.261 5.449-.733 4.552-3.736 5.352-4.84 5.435-7.483a7.2 7.2 0 01.386-2.646c.669-.523.765-5.403.118-6.32-.573-.813-.553-1.074.135-1.808.71-.755.654-1.165-.473-3.455a8.567 8.567 0 00-1.682-2.657 12.681 12.681 0 01-2.425-2.034 10.534 10.534 0 00-4.238-2.598zm-23.118 13.3c-.298.327-1.001 1.232-1.564 2.011-.954 1.323-.975 1.493-.311 2.582.551.906 1.217 1.212 2.98 1.373 2.266.206 2.27.203 2.805-1.848a5.118 5.118 0 00.09-2.853c-.647-1.153-3.327-2-4-1.264zm1.122 10.828c-1.508.715-1.77 1.102-1.998 2.956-.44 3.587 1.856 5.203 4.48 3.151 2.306-1.801 2.188-4.78-.258-6.571-.268-.197-1.27.011-2.224.464zm6.148 6.662c-1.922 2.384-1.946 2.438-1.105 2.542a1.228 1.228 0 01.939.88c.293 1.176 3.067 1.357 3.846.25a4.667 4.667 0 00.74-1.723c.097-.794-1.896-3.557-2.637-3.648-.21-.02-1.012.742-1.783 1.698z" fill="#fff" fill-rule="evenodd"/></svg>