<svg xmlns="http://www.w3.org/2000/svg" width="90.668" height="77.756"><path data-name="パス 111" d="M40.123.862a3.384 3.384 0 00-.828 1.256c0 .192-.253.485-.563.65a1.322 1.322 0 00-.315 1.842A5.119 5.119 0 0139 5.932c.185.58.5 1.055.7 1.055s.476.411.619.914c.205.722.57 1.065 1.734 1.633l1.475.719-1.115 1.245c-.917 1.023-1.148 1.16-1.3.769a1.355 1.355 0 00-.779-.665 2.877 2.877 0 01-1.12-.854 1.748 1.748 0 00-1.229-.665 4.211 4.211 0 01-1.9-.977 2.53 2.53 0 00-2.659-.8c-1.225.145-1.529.089-1.844-.343-.28-.383-.847-.547-2.186-.632-1.518-.1-1.851-.212-2.075-.719s-.465-.591-1.565-.523-1.321 0-1.448-.491a1.062 1.062 0 00-1.669-.6c-.45.281-.738.243-1.607-.21-.676-.353-1.2-.464-1.453-.309-.576.356-5.121.056-6.874-.453a7.875 7.875 0 00-1.872-.386 1.993 1.993 0 01-.9-.169 1.2 1.2 0 00-1.072.11 1.5 1.5 0 01-1.085.167c-.369-.117-.755.058-1.21.549a2.451 2.451 0 01-.935.721 9.523 9.523 0 00-1.725.7c-1.18.57-1.459.838-1.459 1.406 0 .386-.13.7-.288.7s-.408.316-.555.7-.386.7-.531.7-.354.533-.464 1.185a6.026 6.026 0 01-.485 1.641 2.061 2.061 0 00.653 2.253c.223.108.911.357 1.53.552a6.649 6.649 0 011.892.995c.776.647.99.678 2.1.3a2.091 2.091 0 011.534.265 9.108 9.108 0 003.677.527 8.256 8.256 0 013.093.385 2.351 2.351 0 002.31.057c.4-.151.721-.167.721-.035 0 .52-.758.809-1.867.713a2.129 2.129 0 00-1.969.611 4.17 4.17 0 01-2.785 1.235c-.987 0-1.7 1.451-1.251 2.539a2.4 2.4 0 01.148 1.365 3.819 3.819 0 00.163 1.718 2.179 2.179 0 001.27 1.586 2.292 2.292 0 011.1.985c.13.41.43.545 1.206.544.568 0 2.044.05 3.28.113 1.716.087 2.357.015 2.709-.3a1.259 1.259 0 011.14-.248 1.077 1.077 0 001.165-.368 1.23 1.23 0 011.138-.413 1.343 1.343 0 001.126-.35 2.471 2.471 0 011.363-.536c.489-.034.939-.211 1-.393s.536-.332 1.055-.332a1.663 1.663 0 001.135-.308c.1-.169.517-.245.917-.169.943.18 2.02-.237 2.02-.782 0-.429.588-.565 1.994-.459a1.419 1.419 0 001.072-.359 1.287 1.287 0 011.24-.271 1.571 1.571 0 001.517-.442 2.288 2.288 0 011.323-.585c.564 0 .815.255 1.278 1.3a8.587 8.587 0 01.576 1.561c0 .143-.449.447-1 .677-1.106.462-1.487 1.091-1.064 1.76.213.338.1.6-.5 1.094a3.212 3.212 0 00-.955 1.469 2.434 2.434 0 01-.578 1.166 1.667 1.667 0 00-.4 1.128 1.373 1.373 0 01-.281.967.894.894 0 00-.281.69.742.742 0 01-.389.665 3.856 3.856 0 00-.718 2.036 4.658 4.658 0 01-.858 2.342 2.556 2.556 0 00-.618 1.721c-.064.916-.241 1.344-.641 1.55a2.135 2.135 0 00-.782 1.406 23.52 23.52 0 01-.525 2.049c-.2.638-.206 1.037-.006 1.277s.141.443-.244.683a2.358 2.358 0 00-.722 1.395 10.829 10.829 0 01-.543 1.9 22.518 22.518 0 00-.985 5.379 1.339 1.339 0 01-.563 1.165 1.37 1.37 0 00-.265 1.938c.21.209.12.824-.3 2.072a6.468 6.468 0 00-.437 2.413c.088.351.03.72-.129.818a1.542 1.542 0 00-.275 1.072 9.026 9.026 0 01-.628 3.504 1.264 1.264 0 00.075 1.352 1.577 1.577 0 01.063 1.57 2.14 2.14 0 00-.055 1.551 2.75 2.75 0 01.09 1.4c-.2.8.828 2.134 1.567 2.029a2.933 2.933 0 011.082.156 1.055 1.055 0 001.463-.868 1.449 1.449 0 01.422-.829 1.829 1.829 0 00.422-1.131 2.772 2.772 0 01.561-1.43 3.089 3.089 0 00.562-1.748 3.119 3.119 0 01.413-1.579 2.2 2.2 0 00.422-1.065 3.113 3.113 0 01.577-1.317 5.334 5.334 0 00.729-2.012 5.621 5.621 0 01.557-1.837 2.65 2.65 0 00.4-1.161 1.3 1.3 0 01.413-.881 2.019 2.019 0 00.4-1.37 6.129 6.129 0 01.779-3.451 3.518 3.518 0 00.423-1.763 2.893 2.893 0 01.272-1.46 1.1 1.1 0 00.246-.795 4.416 4.416 0 01.457-1.56 4.445 4.445 0 00.448-1.66 2.908 2.908 0 01.377-1.352 8.6 8.6 0 00.475-2.953 13.345 13.345 0 01.26-2.626 4.821 4.821 0 00.184-1.5 3.392 3.392 0 01.329-1.6 1.06 1.06 0 00.241-.753 2.939 2.939 0 01.416-1.294 2.718 2.718 0 00.3-1.918c-.156-.829-.083-1.069.429-1.428.339-.237.555-.593.479-.789a1.741 1.741 0 01.236-1.077 7.731 7.731 0 00.562-1.579 2.1 2.1 0 01.448-1.02 1.07 1.07 0 00.269-.776 2.3 2.3 0 01.411-1.147.867.867 0 00.132-1.036c-.212-.4-.147-.544.309-.689.588-.186.942-.8 1.226-2.14a1.193 1.193 0 01.707-.884c.43-.112.568.017.636.593a1.445 1.445 0 00.655 1.024.8.8 0 01.477.753.98.98 0 00.434.844 2.343 2.343 0 01.72.9 1.213 1.213 0 00.742.662 2.128 2.128 0 01.989.817c.243.371.6.674.79.674s.514.266.717.591a.987.987 0 001.158.475.98.98 0 011.107.393 1.053 1.053 0 00.722.509c.222 0 .57.346.773.77a1.64 1.64 0 00.929.872 3.239 3.239 0 011.309.907 1.617 1.617 0 001.591.7 1.532 1.532 0 011.48.573 2.138 2.138 0 001.419.679 13.532 13.532 0 014.045.854 5.7 5.7 0 003.113.824 1.467 1.467 0 011.1.16c1.157.723 2.935.165 2.949-.925a.37.37 0 01.378-.351c.454 0 2.157-2.307 2.157-2.92a5.279 5.279 0 00-.578-1.558 2.461 2.461 0 01-.409-1.409c.317-.513-.4-1.422-1.125-1.422-.548 0-.693-.144-.693-.688a1.124 1.124 0 00-.773-1.061 2.772 2.772 0 01-1.123-1.106 2.719 2.719 0 00-1.268-1.106c-.889-.36-1.324-.743-1.333-1.176-.007-.316 1.342-.254 1.543.07a1.017 1.017 0 00.77.281 5.575 5.575 0 011.495.325 2.347 2.347 0 001.426.1 3.486 3.486 0 013.114.475 1.322 1.322 0 001.276.408 2.419 2.419 0 011.435.237 2.721 2.721 0 001.572.244c.448-.09.88-.024.988.15.227.368 1.618.414 2 .067a3 3 0 012.487-.544c.368.205.758.1 1.561-.435 1.228-.812 1.39-1.488 1.308-5.44-.036-1.73-.167-2.435-.53-2.835a2.659 2.659 0 01-.482-1.555c0-.773-.154-1.1-.633-1.359a19.74 19.74 0 01-3.658-3.7c-.055-.164-.748-.337-1.541-.386a2.851 2.851 0 01-2.152-.8c-.821-.821-1.356-.891-1.987-.26-.452.452-.725.413-1.629-.234-.394-.282-.607-.279-1.077.014s-.671.294-1 .018c-.317-.263-.636-.272-1.314-.039a15.008 15.008 0 01-3.567.236c-2.134-.058-2.866.03-3.637.437-.737.388-1.057.433-1.352.188-.447-.37-5.578.205-6.2.695a3.394 3.394 0 01-1.383.375 2.811 2.811 0 00-1.316.383 1.765 1.765 0 01-1.041.291 11.736 11.736 0 00-2.545.6 11.09 11.09 0 01-2.344.575 1.541 1.541 0 00-.9.272c-.46.382-.939.071-.939-.611 0-.476.146-.521 1.226-.372 1.051.144 1.289.08 1.658-.448s.512-.566.989-.267.761.227 1.928-.472a7.256 7.256 0 011.792-.849c.232-.016.569-.048.748-.07a8.854 8.854 0 001.783-3.232 5.96 5.96 0 00-1-1.492c-.747-.912-1.2-1.224-1.786-1.224a6.208 6.208 0 01-1.685-.315c-.79-.275-.984-.238-1.555.3a2.534 2.534 0 01-1.881.622 4.266 4.266 0 00-1.824.386c-.847.538-1.272.046-.895-1.035.233-.67.194-.93-.21-1.376a1.614 1.614 0 00-.862-.55 5.386 5.386 0 01-1.584-.824c-1.626-1.1-2.541-1.31-3.125-.726-.419.418-.516.42-1.087.021-.863-.597-.984-.567-1.931.47z" fill="#fff" fill-rule="evenodd"/></svg>