<svg xmlns="http://www.w3.org/2000/svg" width="75.761" height="84.863"><path data-name="パス 114" d="M37.123.482c-1.065.462-1.076.49-.924 2.247a8.749 8.749 0 00.361 2.114c.2.329-.5 2.756-1.147 3.969a2.452 2.452 0 00-.008 1.782 2.154 2.154 0 01-.026 1.723c-.26.415-.215.814.173 1.564a2.1 2.1 0 01.165 2.029 3.873 3.873 0 00-.012 2.387 27.031 27.031 0 01.523 2.991c.161 1.462.138 1.544-.231.813a2.8 2.8 0 00-1.15-1.138 1.831 1.831 0 01-.921-1.138c-.64-2.865-.83-3.292-1.6-3.583a1.121 1.121 0 01-.8-.942 1.1 1.1 0 00-.325-.84 1.867 1.867 0 01-.336-1.239 3 3 0 00-1.138-2.16 3.813 3.813 0 01-1.128-1.719c0-.4-.5-.81-1.51-1.244-1.393-.6-1.554-.607-2.09-.122-.72.652-1.163 2.989-.661 3.49a1.776 1.776 0 01.359 1.088 1.241 1.241 0 00.325.93 2.5 2.5 0 01.325 1.513c0 1.033.137 1.348.643 1.48s.576.292.325.761a1.537 1.537 0 00-.275.7c.013.239.234.466.761 1.035.7.76.756.97.418 1.712s-.294.918.381 1.465c.421.341.678.709.57.816s.018.609.279 1.114a6.363 6.363 0 01.475 2.411 7.061 7.061 0 00.693 2.862c.631 1.245.638 1.321.081.838a4.242 4.242 0 00-2.761-.982c-.288.041-.761-.287-1.051-.731a2.034 2.034 0 00-1.746-.907c-.888-.074-1.318-.3-1.59-.853A8.259 8.259 0 0021.2 25c-1.1-1.08-5.179-3.311-5.718-3.132-.371.124-1.487-1.078-2.124-2.288-.474-.9-2.219-1.03-2.542-.187a4 4 0 01-.78 1.116c-1.3 1.3-.111 5.656 1.718 6.3a3.46 3.46 0 011.2 1.3 2.892 2.892 0 001.955 1.456c.762.2 1.381.6 1.49.942a2.265 2.265 0 001 1.023c.444.238.807.668.807.955a2.753 2.753 0 00.958 1.364 4.017 4.017 0 011.157 1.78c.29 1.368.64 1.9 1.334 2.031a1.5 1.5 0 011.429 1.584c0 .642-.117.76-.569.574a11.852 11.852 0 00-1.219-.407 3.436 3.436 0 01-1.009-.451 2.244 2.244 0 00-1.138-.277c-.429 0-2-.057-3.487-.129-2.244-.108-2.839-.255-3.48-.857a1.6 1.6 0 00-1.463-.545 10.915 10.915 0 01-4.744-1.1 4.463 4.463 0 00-2.295-.125c-1.595.174-2.036.37-2.781 1.238a3.661 3.661 0 00-.894 1.745c-.01.833 1.116 1.726 2.177 1.726.414 0 .74.2.74.45a4.536 4.536 0 001.332 1.653c1.018.92 1.514 1.158 2.1 1.01.629-.158.869-.005 1.3.825.484.935.63 1 1.795.848s1.411-.038 2.817 1.258c1.608 1.483 2.276 1.7 3.3 1.058.515-.322.806-.184 1.964.929s1.961 1.518 4.519 2.249c.236.068.382.451.325.852-.079.554-.381.774-1.262.916a4.2 4.2 0 00-1.85.816c-1.527 1.4-1.766 1.513-2.738 1.319-.783-.157-1.161-.017-1.89.7a8.432 8.432 0 01-2.934 2.045 4.814 4.814 0 00-1.591 1.377A6.445 6.445 0 018.08 60.58 3.634 3.634 0 006 64.67c.305 1.807.712 2.036 3.308 1.861 1.224-.083 2.631-.162 3.127-.177a1.289 1.289 0 001.272-.839c.321-.7.581-.813 1.941-.813 1.156 0 1.667-.153 1.934-.581s.663-.546 1.441-.455c.929.108 1.148-.01 1.587-.859.555-1.073.848-1.21 3.281-1.539a5.139 5.139 0 002.4-.913l.778-.693-.558.872c-.445.7-.483 1.012-.187 1.565.243.453.262.826.055 1.079-.332.405-.939 4.5-.939 6.338a5.257 5.257 0 01-.322 1.789 8.873 8.873 0 00-.841 5.111c.226 2.694.815 3.388 3.125 3.687 1.464.189 1.628.134 2.52-.843a3.019 3.019 0 00.954-2.276 2.865 2.865 0 01.976-2.252 3.425 3.425 0 00.976-1.742 3.094 3.094 0 01.65-1.548 2.976 2.976 0 00.65-1.356 2.941 2.941 0 01.48-1.262 3.572 3.572 0 00.471-1.7 4.785 4.785 0 01.819-3.17c.753-1.143 1.351-.973 1.216.344-.119 1.163.413 2.351 1.054 2.351.593 0 .816 1.737.286 2.232a1.357 1.357 0 00.065 2 1.483 1.483 0 01.488.992 1.666 1.666 0 00.429 1.017 7.177 7.177 0 011 4.027 2.8 2.8 0 00.336 1.613 4.509 4.509 0 01.507 1.4 4.135 4.135 0 00.821 1.49 3.889 3.889 0 01.813 1.716c0 .669.932 1.727 1.52 1.727a5.971 5.971 0 003.048-1.883c.579-.736.66-1.188.533-2.988-.207-2.957-.854-5.575-1.573-6.373a1.709 1.709 0 01-.4-1.716 1.692 1.692 0 00-.361-1.671c-.544-.6-.539-.689.12-1.952.755-1.448.866-2.3.365-2.8a7.674 7.674 0 01-.449-2.672c-.1-1.918-.027-2.4.406-2.644a.871.871 0 011.1.22c.494.446.692.457 1.464.076 1.208-.6 2.076-.641 2.582-.135a4.38 4.38 0 002.13.479c4.4.148 5.385.279 6.75.9 2.077.942 6.959.869 7.758-.115A3.29 3.29 0 0169 60.716a1.707 1.707 0 00.781-1.1 1.2 1.2 0 00-.524-1.485 1.689 1.689 0 00-1.329-.418c-.655.208-1.926-.459-1.926-1.011 0-.519-1.1-1.435-1.722-1.435a1.205 1.205 0 01-.88-.65 1.254 1.254 0 00-.959-.65 7.3 7.3 0 01-2.339-1.138A8.839 8.839 0 0058 51.694a.73.73 0 01-.566-.488c-.109-.285-.6-.488-1.173-.488-.542 0-.986-.129-.986-.287 0-.406 1.179-.718 3.18-.842a5.253 5.253 0 002.231-.534 2.675 2.675 0 011.628-.332 4.059 4.059 0 002.285-.6c.926-.546 1.359-.627 2.056-.384a1.848 1.848 0 001.334.029 1.848 1.848 0 011.205-.089c1.064.267 3.517-1.039 5.185-2.761a11.687 11.687 0 001.382-1.577c0-.534-.818-1.478-1.656-1.911s-1.276-.45-2.752-.143c-2.078.431-2.8.268-3.237-.733-.29-.661-.517-.726-2.273-.648-1.073.048-2.537.065-3.252.039s-1.74-.014-2.276.026a13.741 13.741 0 01-1.626.026c-.358-.026-1.126-.066-1.707-.088s-1.058-.209-1.058-.409c0-.669 1.484-1.788 2.371-1.788a1.65 1.65 0 001.411-.832 5.76 5.76 0 011.877-1.51 5.965 5.965 0 001.757-1.282 1.478 1.478 0 011.038-.6 1.479 1.479 0 001.038-.6 5.088 5.088 0 011.563-1.172 10.838 10.838 0 002.357-1.837 7.886 7.886 0 011.4-1.267 13.461 13.461 0 001.838-1.659c1.786-1.786 2.338-3.416 1.416-4.181-.574-.476-2.327-.166-2.565.454-.1.253-.481.367-.941.279a1.277 1.277 0 00-1.2.366 2.667 2.667 0 01-1.964.514 4.186 4.186 0 00-2.884.976 7.348 7.348 0 01-1.6.976c-.137 0-.421.274-.631.61a1.024 1.024 0 01-1.217.45c-.623-.119-1.091.09-1.835.817-.617.6-1.225.918-1.589.823a.773.773 0 00-.808.2 1.092 1.092 0 01-.846.353c-.609 0-1.133.345-2.838 1.87a2.843 2.843 0 01-1.259.732.414.414 0 00-.44.379c0 .208-.094.285-.209.17s-.023-.433.2-.707A2.2 2.2 0 0051.6 30.4c-.153-.944-.049-1.221.647-1.728.986-.719 1.716-2.633 1.723-4.52a2.679 2.679 0 01.321-1.558 4.788 4.788 0 00.88-1.4 5.144 5.144 0 011.182-1.656c.469-.341.577-.709.446-1.517a1.542 1.542 0 01.448-1.629 2.335 2.335 0 00.62-1.735 5.7 5.7 0 01.616-3.243 2.713 2.713 0 00.219-1.789c-.117-.561-.294-1.6-.393-2.32-.23-1.657-.611-2.114-1.762-2.114a1.328 1.328 0 00-1.306.732 7.237 7.237 0 01-1.475 1.65 3.141 3.141 0 00-1.094 1.382.547.547 0 01-.6.464c-1.192 0-2.113 1.71-1.338 2.485.235.235.185.467-.163.755a1.471 1.471 0 00-.5.97 2.445 2.445 0 01-.8 1.3 3.913 3.913 0 00-1 1.683c-.113.514-.408.935-.656.935-.587 0-1.051.906-1.046 2.043a2.53 2.53 0 01-.491 1.463 2.956 2.956 0 00-.61 1.145c-.176.9-.755.663-.844-.342-.165-1.882-.507-3.066-.932-3.229-.32-.123-.354-.332-.122-.766.5-.929.384-1.484-.471-2.307-.562-.54-.695-.875-.461-1.157a1.329 1.329 0 00.077-1.144 3.51 3.51 0 01-.164-1.344 1.813 1.813 0 00-.486-1.23 2.7 2.7 0 01-.5-2.058c.059-1.127-.068-1.524-.6-1.9-.569-.4-.6-.506-.176-.668a1.135 1.135 0 00.22-1.693 9.7 9.7 0 01-.865-1.935C39.623.97 38.892-.037 38.384-.001a9.453 9.453 0 00-1.261.483zm9.421 39.18c-.135-2.567-.2-2.683-2.083-3.816-2.218-1.334-5.685-1.667-7.236-.7a10.454 10.454 0 01-3.567 1.585.5.5 0 00-.5.492 2.584 2.584 0 01-.325 1.057 8.805 8.805 0 00-.576 2.184c-.173 1.118-.45 1.722-.895 1.951-.708.365-.8.86-.915 5.047s-.045 4.409 1.6 5.183a7.3 7.3 0 002.486.672 4.707 4.707 0 012.057.609c.863.526 1.079.547 1.61.159a2.2 2.2 0 011.686-.247c.687.129 1.073.072 1.073-.157a13.9 13.9 0 012.969-3.878 1.475 1.475 0 00.608-1.034 1.745 1.745 0 01.407-1.039c1.119-1.173 1.787-4.553 1.601-8.068z" fill="#fff" fill-rule="evenodd"/></svg>