<svg width="116" height="117" viewBox="0 0 116 117" fill="none" xmlns="http://www.w3.org/2000/svg">
<path d="M58 117C90.0325 117 116 90.8087 116 58.5C116 26.1913 90.0325 0 58 0C25.9675 0 0 26.1913 0 58.5C0 90.8087 25.9675 117 58 117Z" fill="white"/>
<path d="M69.586 78.681H45.775C44.4912 78.681 43.2201 78.4281 42.034 77.9368C40.848 77.4455 39.7704 76.7254 38.8627 75.8176C37.955 74.9098 37.235 73.8321 36.7438 72.646C36.2526 71.4599 35.9999 70.1887 36 68.905L36 45.094C36 42.5015 37.0299 40.0152 38.863 38.182C40.6962 36.3488 43.1825 35.319 45.775 35.319H69.586C72.1785 35.319 74.6648 36.3488 76.498 38.182C78.3311 40.0152 79.361 42.5015 79.361 45.094V68.905C79.361 71.4975 78.3311 73.9838 76.498 75.8169C74.6648 77.6501 72.1785 78.681 69.586 78.681Z" fill="#06C755"/>
<path d="M72.134 54.957C72.134 48.488 65.649 43.225 57.677 43.225C49.705 43.225 43.22 48.488 43.22 54.957C43.22 60.757 48.363 65.613 55.311 66.532C55.782 66.632 56.423 66.842 56.585 67.245C56.6976 67.6717 56.7136 68.1182 56.632 68.552C56.632 68.552 56.462 69.572 56.426 69.79C56.363 70.155 56.135 71.22 57.678 70.569C59.221 69.918 66.004 65.669 69.037 62.176C70.9707 60.2654 72.0829 57.6758 72.137 54.958" fill="white"/>
<path d="M67.324 58.692H63.262C63.1888 58.692 63.1186 58.6629 63.0668 58.6111C63.015 58.5594 62.986 58.4892 62.986 58.416V52.116V52.11C62.986 52.0368 63.015 51.9666 63.0668 51.9148C63.1186 51.8631 63.1888 51.834 63.262 51.834H67.324C67.3971 51.8342 67.4671 51.8634 67.5188 51.9151C67.5705 51.9668 67.5997 52.0369 67.6 52.11V53.135C67.6 53.2082 67.5709 53.2784 67.5191 53.3301C67.4674 53.3819 67.3972 53.411 67.324 53.411H64.564V54.475H67.324C67.3971 54.4752 67.4671 54.5044 67.5188 54.5561C67.5705 54.6078 67.5997 54.6779 67.6 54.751V55.775C67.6 55.8482 67.5709 55.9184 67.5191 55.9701C67.4674 56.0219 67.3972 56.051 67.324 56.051H64.564V57.116H67.324C67.3971 57.1162 67.4671 57.1454 67.5188 57.1971C67.5705 57.2488 67.5997 57.3189 67.6 57.392V58.417C67.6 58.4902 67.5709 58.5604 67.5191 58.6121C67.4674 58.6639 67.3972 58.693 67.324 58.693" fill="#06C755"/>
<path d="M52.3 58.692C52.3732 58.692 52.4434 58.6629 52.4952 58.6111C52.547 58.5594 52.576 58.4892 52.576 58.416V57.391C52.5758 57.3179 52.5466 57.2478 52.4949 57.1961C52.4432 57.1444 52.3732 57.1153 52.3 57.115H49.54V52.107C49.5398 52.0339 49.5106 51.9638 49.4589 51.9121C49.4072 51.8604 49.3372 51.8313 49.264 51.831H48.238C48.1648 51.831 48.0946 51.8601 48.0429 51.9118C47.9911 51.9636 47.962 52.0338 47.962 52.107V58.407C47.962 58.4802 47.9911 58.5504 48.0429 58.6022C48.0946 58.6539 48.1648 58.683 48.238 58.683H52.3V58.692Z" fill="#06C755"/>
<path d="M54.745 51.831H53.72C53.6837 51.831 53.6478 51.8381 53.6143 51.852C53.5809 51.8659 53.5504 51.8862 53.5248 51.9118C53.4992 51.9375 53.4789 51.9679 53.465 52.0014C53.4511 52.0349 53.444 52.0707 53.444 52.107V58.416C53.444 58.4522 53.4511 58.4881 53.465 58.5216C53.4789 58.5551 53.4992 58.5855 53.5248 58.6112C53.5504 58.6368 53.5809 58.6571 53.6143 58.671C53.6478 58.6849 53.6837 58.692 53.72 58.692H54.745C54.8182 58.692 54.8884 58.6629 54.9401 58.6112C54.9919 58.5594 55.021 58.4892 55.021 58.416V52.107C55.021 52.0338 54.9919 51.9636 54.9401 51.9118C54.8884 51.8601 54.8182 51.831 54.745 51.831Z" fill="#06C755"/>
<path d="M61.725 51.831H60.7C60.6638 51.831 60.6279 51.8381 60.5944 51.852C60.5609 51.8659 60.5305 51.8862 60.5049 51.9118C60.4793 51.9375 60.4589 51.9679 60.4451 52.0014C60.4312 52.0349 60.424 52.0707 60.424 52.107V55.854L57.537 51.954C57.5303 51.9439 57.5229 51.9342 57.515 51.925L57.498 51.908H57.493L57.478 51.895L57.471 51.889L57.456 51.879L57.448 51.874L57.433 51.866H57.424L57.408 51.859H57.399L57.382 51.854H57.372H57.356H57.344H57.329H56.285C56.2118 51.854 56.1416 51.8831 56.0899 51.9348C56.0381 51.9866 56.009 52.0568 56.009 52.13V58.439C56.009 58.5122 56.0381 58.5824 56.0899 58.6341C56.1416 58.6859 56.2118 58.715 56.285 58.715H57.31C57.3832 58.715 57.4534 58.6859 57.5052 58.6341C57.557 58.5824 57.586 58.5122 57.586 58.439V54.693L60.476 58.593C60.4953 58.6204 60.5194 58.6441 60.547 58.663L60.564 58.674H60.572L60.585 58.681L60.599 58.687H60.608L60.627 58.693C60.6505 58.6994 60.6747 58.7028 60.699 58.703H61.719C61.7922 58.703 61.8624 58.6739 61.9142 58.6222C61.966 58.5704 61.995 58.5002 61.995 58.427V52.118C61.995 52.0448 61.966 51.9746 61.9142 51.9228C61.8624 51.8711 61.7922 51.842 61.719 51.842" fill="#06C755"/>
<path d="M15.8877 93.0493C16.0402 92.9346 16.2161 92.7776 16.4154 92.5783C16.6197 92.3861 16.7796 92.2137 16.8953 92.0611L17.3394 92.7024C17.4381 92.8449 17.5237 92.9229 17.5962 92.9363C17.6737 92.9568 17.7803 92.9206 17.9163 92.8276L20.6205 90.9785L18.7185 88.2317L21.7232 86.1772C21.699 86.1727 21.6688 86.1671 21.6326 86.1604C21.6012 86.1608 21.5735 86.1588 21.5493 86.1544C21.5577 86.0751 21.5483 85.9398 21.5212 85.7484C21.499 85.5641 21.4683 85.3751 21.429 85.1815C21.3898 84.9878 21.3489 84.8373 21.3062 84.73C21.4683 84.7662 21.6326 84.7903 21.7991 84.8024C21.9777 84.8168 22.1563 84.8312 22.3349 84.8455L21.4912 83.6271C21.4063 83.7481 21.3226 83.8631 21.2399 83.9721C21.1694 84.0834 21.1046 84.1802 21.0457 84.2625C20.9672 84.1796 20.8547 84.0781 20.7082 83.9578C20.5688 83.8326 20.4319 83.711 20.2975 83.593C20.1679 83.482 20.0593 83.3936 19.9715 83.3277C20.059 83.2258 20.1654 83.0901 20.2904 82.9206C20.4204 82.7582 20.5444 82.5947 20.6623 82.4301L20.2849 81.885C20.032 81.9004 19.7874 81.9049 19.5511 81.8986C19.3148 81.8922 19.0952 81.8796 18.8924 81.8608L21.2681 85.2915L18.1882 87.3975L16.301 84.6721L12.1159 87.5338L11.3018 86.3582L18.5131 81.4272C18.503 81.2451 18.4808 81.0608 18.4465 80.8743C18.4194 80.6829 18.3881 80.5311 18.3525 80.4189C18.7009 80.4956 19.08 80.5408 19.49 80.5545C19.9 80.5681 20.306 80.553 20.7078 80.5092C21.1146 80.4725 21.4728 80.4113 21.7824 80.3256L22.3564 81.6339C22.2387 81.6619 22.1185 81.6863 21.9959 81.7072C21.8733 81.728 21.7447 81.7477 21.61 81.7663L23.3344 84.2566L22.4652 84.8509C22.8702 84.8574 23.2773 84.8363 23.6863 84.7876C24.1025 84.734 24.475 84.663 24.8038 84.5747L25.3389 85.9411C25.2261 85.9762 25.1085 86.0042 24.9859 86.025C24.8633 86.0458 24.7346 86.0656 24.5999 86.0842L26.6721 89.0768L25.7171 89.7298L24.5255 88.0091C24.4456 88.1372 24.3643 88.2558 24.2817 88.3648C24.2111 88.4761 24.1464 88.5728 24.0874 88.6551C23.9892 88.5438 23.868 88.422 23.7237 88.2897C23.5793 88.1574 23.4364 88.0347 23.2948 87.9215C23.1603 87.8035 23.0492 87.7115 22.9614 87.6455C23.0633 87.5339 23.1756 87.3993 23.2985 87.2418C23.4334 87.0865 23.5563 86.929 23.667 86.7693L23.2822 86.2135C23.0293 86.229 22.7847 86.2335 22.5484 86.2271C22.3121 86.2207 22.0925 86.2081 21.8897 86.1893L24.5392 90.0155L18.2723 94.3008C17.9146 94.5454 17.5819 94.6206 17.2743 94.5265C16.9716 94.4395 16.6747 94.1858 16.3836 93.7654L15.8877 93.0493ZM13.4155 88.3145L16.667 86.0912L19.4053 90.0456L16.1538 92.269L13.4155 88.3145ZM14.9626 88.9732L16.0949 90.6084L16.653 90.2268L15.5206 88.5916L14.9626 88.9732ZM16.2074 88.122L17.3397 89.7572L17.8656 89.3977L16.7332 87.7624L16.2074 88.122ZM20.2823 88.8003L21.4146 90.4355L21.8439 90.142L20.7115 88.5068L20.2823 88.8003ZM17.0629 84.1511L18.1879 85.7756L18.6171 85.4821L17.4922 83.8576L17.0629 84.1511ZM21.3983 88.0371L22.5307 89.6724L22.9492 89.3862L21.8168 87.751L21.3983 88.0371ZM18.179 83.388L19.3039 85.0125L19.7224 84.7263L18.5975 83.1018L18.179 83.388Z" fill="black"/>
<path d="M23.898 100.853L25.2776 99.177L21.3229 95.963L22.1655 94.9392L26.1202 98.1531L26.6324 97.5308L23.737 95.1777L27.0331 91.1727L27.8099 91.804C27.8584 91.486 27.9059 91.1282 27.9526 90.7306C28.0059 90.3384 28.0336 89.9979 28.0355 89.7092L29.4795 90.0618C29.4781 90.2952 29.4621 90.567 29.4314 90.8771C29.4062 91.1805 29.3709 91.4756 29.3256 91.7626C29.2869 92.0551 29.2461 92.2955 29.2032 92.484C29.095 92.4519 28.9678 92.4155 28.8216 92.3749C28.6755 92.3343 28.5299 92.2998 28.385 92.2713L30.0092 93.5913C30.1256 93.2727 30.2321 92.9182 30.3289 92.5278C30.4312 92.1307 30.5069 91.7455 30.556 91.3722L32.0008 91.8261C31.9683 92.0565 31.9171 92.3165 31.8473 92.6059C31.7897 92.8941 31.7226 93.1802 31.646 93.4642C31.5749 93.7414 31.5057 93.9755 31.4384 94.1665C31.2708 94.0973 31.0626 94.023 30.8137 93.9436C30.577 93.8629 30.3694 93.7947 30.1908 93.7389L31.5528 94.8458C31.8048 94.7714 32.0944 94.6718 32.4217 94.5469C32.7557 94.4274 33.0857 94.2992 33.4118 94.1621C33.7433 94.0184 34.0232 93.8829 34.2514 93.7557L35.0251 95.1885C34.7468 95.3085 34.4107 95.4374 34.0167 95.5751C33.6228 95.7128 33.2487 95.8332 32.8945 95.9362L34.085 96.9037L30.7888 100.909L27.8632 98.5311L27.351 99.1534L31.336 102.392L30.4933 103.416L26.5084 100.177L25.1288 101.854L23.898 100.853ZM28.648 97.5775L30.4135 99.0123L30.9504 98.3598L29.1849 96.925L28.648 97.5775ZM25.6819 95.167L27.4172 96.5772L27.9541 95.9248L26.2189 94.5146L25.6819 95.167ZM29.8376 96.132L31.6031 97.5668L32.1235 96.9345L30.358 95.4997L29.8376 96.132ZM26.8715 93.7216L28.6068 95.1318L29.1272 94.4994L27.392 93.0892L26.8715 93.7216Z" fill="black"/>
<path d="M35.5035 107.397C35.5047 107.041 35.4283 106.689 35.2745 106.342C35.1241 105.988 34.9344 105.659 34.7055 105.356C34.4765 105.053 34.2392 104.802 33.9935 104.605C33.9206 104.622 33.8477 104.638 33.7748 104.654C33.7053 104.663 33.6398 104.673 33.5783 104.684C33.5847 104.537 33.5773 104.355 33.5561 104.139C33.5349 103.923 33.508 103.71 33.4754 103.499C33.4462 103.28 33.4114 103.096 33.3711 102.947C33.6948 102.961 33.9986 102.967 34.2824 102.964C34.5696 102.953 34.9013 102.937 35.2774 102.917C35.6147 102.899 35.9657 102.882 36.3304 102.866C36.6985 102.842 37.0712 102.829 37.4485 102.828L38.3174 100.754C37.8656 100.62 37.4195 100.484 36.979 100.346C36.55 100.204 36.1563 100.066 35.798 99.9345C35.8443 99.8036 35.8968 99.647 35.9555 99.4649C36.0142 99.2827 36.0672 99.1029 36.1145 98.9253C36.1652 98.7398 36.1984 98.5845 36.2139 98.4594C36.5541 98.6118 36.957 98.7718 37.4226 98.9393C37.8882 99.1068 38.3731 99.273 38.8774 99.438L39.1371 98.828C39.2661 98.5249 39.3871 98.2186 39.5001 97.9088C39.6245 97.5945 39.711 97.3582 39.7595 97.1999C39.9045 97.2797 40.0695 97.3679 40.2544 97.4644C40.4508 97.5563 40.6408 97.6409 40.8246 97.7182C41.0083 97.7954 41.1522 97.8559 41.256 97.8995C41.0803 98.2017 40.7632 98.8581 40.3048 99.8687C41.0612 100.083 41.6834 100.237 42.1716 100.329C42.1274 100.433 42.068 100.572 41.9934 100.748C41.9301 100.919 41.8668 101.089 41.8035 101.26C41.7482 101.434 41.7042 101.571 41.6714 101.67C41.4068 101.606 41.1085 101.532 40.7765 101.449C40.4446 101.366 40.0943 101.27 39.7258 101.162C39.6024 101.43 39.4779 101.712 39.3523 102.007C39.2301 102.294 39.1005 102.587 38.9636 102.887C39.4801 102.935 39.9887 103.012 40.4894 103.119C40.9935 103.218 41.4693 103.362 41.9167 103.55C42.5399 103.812 43.0511 104.149 43.4502 104.561C43.8573 104.977 44.1175 105.439 44.2308 105.947C44.3521 106.459 44.2956 106.989 44.0614 107.54C43.8102 108.13 43.4816 108.57 43.0756 108.86C42.6776 109.153 42.2244 109.311 41.7161 109.332C41.2192 109.349 40.6951 109.241 40.1438 109.009C39.5366 108.754 39.0743 108.358 38.7569 107.82C38.4394 107.282 38.34 106.653 38.4585 105.932C38.6716 105.918 38.9212 105.896 39.2072 105.866C39.4932 105.836 39.7433 105.79 39.9574 105.73C39.8745 106.212 39.8929 106.601 40.0123 106.895C40.1398 107.193 40.3873 107.42 40.7548 107.574C41.1064 107.722 41.4501 107.744 41.786 107.641C42.1333 107.533 42.3952 107.272 42.5718 106.857C42.7415 106.458 42.7118 106.075 42.4826 105.706C42.2535 105.337 41.8713 105.04 41.336 104.815C40.8726 104.62 40.3945 104.471 39.9018 104.367C39.409 104.263 38.9204 104.194 38.4358 104.16C38.1429 104.892 37.8778 105.57 37.6404 106.194C37.4144 106.814 37.2574 107.293 37.1696 107.632C37.019 107.588 36.8393 107.545 36.6306 107.504C36.4265 107.475 36.2207 107.45 36.0131 107.428C35.8136 107.41 35.6437 107.4 35.5035 107.397ZM44.6033 104.242C44.4257 103.951 44.2035 103.632 43.9368 103.285C43.6782 102.941 43.4024 102.604 43.1095 102.275C42.8167 101.945 42.5286 101.659 42.2451 101.418C42.4408 101.312 42.6427 101.181 42.8508 101.024C43.0669 100.87 43.2415 100.736 43.3745 100.623C43.6739 100.871 43.9717 101.156 44.268 101.478C44.5756 101.796 44.8627 102.128 45.1294 102.475C45.4075 102.817 45.6422 103.151 45.8336 103.476C45.6413 103.574 45.4194 103.697 45.1679 103.845C44.9279 103.988 44.7397 104.121 44.6033 104.242ZM36.2283 105.728C36.2691 105.632 36.3448 105.443 36.4557 105.161C36.5745 104.882 36.7153 104.551 36.8783 104.168C36.5956 104.19 36.3153 104.218 36.0373 104.251C35.7673 104.288 35.5035 104.333 35.2461 104.384C35.462 104.541 35.6536 104.744 35.8208 104.992C35.9914 105.233 36.1272 105.479 36.2283 105.728Z" fill="black"/>
<path d="M54.9404 112.461C54.9476 112.323 54.9448 112.157 54.9321 111.963C54.9184 111.779 54.8998 111.598 54.8765 111.421C54.8542 111.235 54.8236 111.083 54.7848 110.965L55.6503 111.063C55.8225 111.083 55.9508 111.067 56.0352 111.015C56.1196 110.964 56.1702 110.865 56.187 110.719L56.7764 105.578L53.1983 105.173L53.7017 100.782L58.7783 101.357L57.6218 111.444C57.5704 111.891 57.4124 112.205 57.1475 112.384C56.8903 112.573 56.4948 112.637 55.9609 112.577L54.9404 112.461ZM46.4392 111.512L47.7468 100.108L52.7975 100.68L52.294 105.071L48.7288 104.667L47.9247 111.68L46.4392 111.512ZM49.6948 109.709L50.1346 105.873L55.0045 106.424L54.5647 110.26L49.6948 109.709ZM51.2992 108.726L53.2239 108.944L53.3986 107.42L51.4739 107.202L51.2992 108.726ZM54.765 104.291L56.8963 104.532L56.9778 103.822L54.8464 103.58L54.765 104.291ZM48.8488 103.621L50.9672 103.861L51.0487 103.15L48.9302 102.911L48.8488 103.621ZM54.9486 102.689L57.08 102.931L57.1584 102.246L55.0271 102.005L54.9486 102.689ZM49.0324 102.019L51.1508 102.259L51.2293 101.575L49.1109 101.335L49.0324 102.019Z" fill="black"/>
<path d="M63.0804 110.799C62.4486 110.396 61.9337 109.855 61.5357 109.175C61.1378 108.496 60.8397 107.68 60.6415 106.729C60.4682 105.924 60.3738 105.091 60.3585 104.233C60.3431 103.374 60.3749 102.533 60.4538 101.711C60.6962 101.741 60.9785 101.772 61.3008 101.805C61.6231 101.838 61.9161 101.855 62.1797 101.854C62.0379 102.616 61.968 103.389 61.9702 104.171C61.9809 104.951 62.0519 105.673 62.1833 106.336C62.2809 106.803 62.4119 107.234 62.5762 107.628C62.749 108.021 62.9393 108.336 63.1471 108.573C63.2775 108.718 63.3904 108.787 63.4858 108.779C63.5798 108.763 63.6707 108.678 63.7583 108.522C63.8359 108.36 63.924 108.129 64.0224 107.831C64.1293 107.532 64.2121 107.245 64.2707 106.972C64.4526 107.161 64.6565 107.35 64.8826 107.541C65.1158 107.721 65.2896 107.863 65.4041 107.967C65.3448 108.39 65.2505 108.814 65.1213 109.241C64.9993 109.657 64.8435 110.03 64.654 110.361C64.2568 111.07 63.7322 111.216 63.0804 110.799ZM70.144 107.533C69.8926 107.092 69.6005 106.645 69.2677 106.192C68.942 105.728 68.5894 105.287 68.2097 104.868C67.8372 104.439 67.4556 104.059 67.065 103.73C67.294 103.63 67.5314 103.501 67.7773 103.346C68.0217 103.181 68.2135 103.043 68.3526 102.932C68.7459 103.226 69.1509 103.588 69.5677 104.018C69.9844 104.449 70.3735 104.897 70.7348 105.363C71.0946 105.821 71.3803 106.256 71.5917 106.668C71.414 106.76 71.1886 106.882 70.9156 107.033C70.6427 107.185 70.3855 107.352 70.144 107.533Z" fill="black"/>
<path d="M73.4135 103.82C73.2126 103.668 72.9825 103.524 72.7231 103.39C72.46 103.249 72.2179 103.149 71.9969 103.093C72.3999 102.637 72.7761 102.126 73.1254 101.561C73.4787 100.984 73.7894 100.389 74.0575 99.7765C74.3296 99.1524 74.5433 98.5375 74.6988 97.9316C74.8581 97.3142 74.9493 96.7348 74.9723 96.1935L76.3559 95.7367C76.8007 96.0117 77.306 96.2525 77.8716 96.459C78.4373 96.6656 79.0323 96.8337 79.6567 96.9635C80.2811 97.0932 80.9097 97.1824 81.5424 97.231C82.1713 97.2718 82.7733 97.2678 83.3484 97.2192C83.3243 97.3466 83.2979 97.5185 83.2693 97.7348C83.2446 97.9396 83.2219 98.1483 83.2011 98.3608C83.1803 98.5734 83.1713 98.7609 83.1741 98.9234C82.778 98.9235 82.3645 98.908 81.9336 98.8768C81.4989 98.8378 81.0623 98.7853 80.6239 98.7192L81.0838 99.652L75.1696 102.532L74.7499 101.68C74.5454 102.069 74.3313 102.448 74.1075 102.817C73.8799 103.179 73.6486 103.513 73.4135 103.82ZM77.3752 108.21L75.1733 103.744L82.0694 100.387L84.2713 104.852L77.3752 108.21ZM78.2035 106.274L82.2008 104.328L81.2235 102.346L77.2261 104.292L78.2035 106.274ZM75.0923 100.993L80.0013 98.603C79.3187 98.4728 78.6538 98.3001 78.0066 98.085C77.3634 97.8584 76.7826 97.5917 76.2642 97.2851C76.2062 97.8338 76.0703 98.4302 75.8564 99.0741C75.6502 99.7143 75.3955 100.354 75.0923 100.993Z" fill="black"/>
<path d="M91 99.805L87.7827 96.2996C87.7276 96.8291 87.7002 97.3569 87.7007 97.8828C87.7011 98.4088 87.7146 98.917 87.7413 99.4074C87.5283 99.3548 87.2832 99.3313 87.0061 99.3369C86.723 99.3361 86.4549 99.3452 86.2017 99.3641C86.2096 99.1933 86.2202 98.9614 86.2337 98.6684C86.2536 98.3697 86.2749 98.0405 86.2976 97.6807C86.3145 97.3145 86.3313 96.9484 86.3481 96.5822C86.365 96.2161 86.3804 95.8804 86.3945 95.5753C86.4149 95.2644 86.4264 95.0142 86.429 94.8247L85.673 94.001C85.4658 94.2239 85.2421 94.4735 85.0016 94.7499C84.7612 95.0262 84.5372 95.2819 84.3294 95.517C84.1281 95.7462 83.9784 95.9228 83.8804 96.0467C83.7211 95.8988 83.5228 95.7276 83.2856 95.5332C83.0484 95.3388 82.8551 95.1923 82.7058 95.0937C82.854 94.9477 83.0411 94.7606 83.267 94.5325C83.4929 94.3044 83.7319 94.0585 83.984 93.7949C84.2367 93.5191 84.4891 93.2494 84.7412 92.9858L84.4248 92.641C84.1083 92.2962 83.8356 92.0054 83.6064 91.7686C83.3773 91.5318 83.1743 91.3298 82.9974 91.1627C83.0423 91.1219 83.122 91.0614 83.2365 90.981C83.3515 90.8885 83.4759 90.7933 83.6097 90.6955C83.7439 90.5855 83.8683 90.4903 83.9828 90.4099C84.0978 90.3174 84.1775 90.2568 84.2219 90.2283C84.3028 90.3421 84.4541 90.5325 84.6757 90.7996C84.9036 91.0608 85.1348 91.3191 85.3693 91.5745L85.6857 91.9193C85.7703 91.8192 85.8453 91.7279 85.9106 91.6453C85.976 91.5627 86.0282 91.4978 86.0673 91.4507C86.1597 91.4488 86.286 91.4454 86.4462 91.4406C86.6064 91.4357 86.7634 91.4338 86.9172 91.4347C87.0716 91.4235 87.195 91.4169 87.2874 91.4151C87.2818 91.5371 87.2842 91.7513 87.2948 92.0575C87.3117 92.358 87.3355 92.7107 87.3661 93.1157C87.5716 92.6604 87.8161 92.2283 88.0996 91.8193C88.3771 91.404 88.7022 91.0276 89.0746 90.69C89.6205 90.1953 90.1924 89.87 90.7903 89.714C91.3824 89.5517 91.9608 89.5538 92.5254 89.7205C93.0906 89.8749 93.593 90.1915 94.0325 90.6704C94.8412 91.5516 95.1651 92.5388 95.004 93.6322C94.8494 94.7197 94.3151 95.8999 93.4011 97.1727C93.1653 97.0823 92.8861 96.9961 92.5638 96.914C92.2478 96.8261 91.9734 96.7707 91.7406 96.7477C93.5441 94.5985 93.9067 92.9365 92.8285 91.7617C92.4534 91.353 92.0013 91.1488 91.472 91.1489C90.9492 91.1432 90.4405 91.3644 89.9461 91.8126C89.4837 92.2316 89.1094 92.6761 88.8232 93.146C88.5369 93.616 88.3115 94.101 88.147 94.601L92.0499 98.8534L91 99.805Z" fill="black"/>
<path d="M100.975 86.9953C100.676 87.4828 100.396 87.8303 100.137 88.0378C99.8844 88.2497 99.6191 88.3423 99.3407 88.3154C99.0594 88.2766 98.7298 88.1426 98.3518 87.9135L94.8611 85.7973C94.5886 86.2909 94.3411 86.7438 94.1185 87.1562C93.9004 87.5611 93.7299 87.8885 93.607 88.1383C93.5004 88.0635 93.3596 87.9781 93.1846 87.8822C93.0141 87.7789 92.8391 87.6829 92.6596 87.5943C92.4772 87.4939 92.3259 87.4174 92.2057 87.3647C92.3582 87.1329 92.5433 86.8397 92.7609 86.4852C92.9757 86.1188 93.2131 85.7155 93.4732 85.2752C93.4959 85.2383 93.5186 85.2013 93.5413 85.1644C93.5685 85.1201 93.5934 85.0795 93.6161 85.0425L92.7934 84.5438C92.3784 84.2922 92.0233 84.0921 91.7281 83.9436C91.43 83.7831 91.206 83.6676 91.0561 83.597C91.1406 83.4759 91.241 83.329 91.3572 83.1562C91.478 82.9761 91.5942 82.8033 91.7059 82.6379C91.8147 82.4607 91.8986 82.324 91.9576 82.228C92.0568 82.2983 92.1982 82.3993 92.3818 82.5308C92.5626 82.6505 92.7581 82.7792 92.9685 82.9169C93.1834 83.0472 93.3835 83.1685 93.5688 83.2808L94.3692 83.7661C94.6355 83.2992 94.9064 82.8249 95.1817 82.3432C95.4617 81.8541 95.7385 81.3784 96.0122 80.916L94.9672 80.2825C94.6189 80.0713 94.3142 79.8967 94.0532 79.7587C93.7847 79.6163 93.5718 79.5075 93.4145 79.4324C93.5036 79.3039 93.6099 79.1556 93.7336 78.9873C93.8498 78.8145 93.9638 78.6455 94.0755 78.4801C94.1798 78.3102 94.2636 78.1736 94.3271 78.0702C94.4589 78.1703 94.641 78.296 94.8737 78.4471C95.1063 78.5983 95.3894 78.7749 95.7229 78.9771L96.7567 79.6039C97.07 79.0439 97.3553 78.5378 97.6125 78.0856C97.8669 77.6216 98.0637 77.2596 98.2031 76.9995C98.3554 77.1323 98.5627 77.2833 98.825 77.4525C99.0798 77.6171 99.3007 77.746 99.4877 77.839C99.3141 78.0885 99.0973 78.4334 98.8372 78.8737C98.5697 79.3094 98.2801 79.7977 97.9684 80.3385L99.1801 81.0731C99.5655 81.3067 99.8131 81.5328 99.923 81.7514C100.025 81.9656 100.049 82.2333 99.9942 82.5547C99.9467 82.8806 99.8701 83.2041 99.7645 83.5252C99.6634 83.8389 99.5595 84.1408 99.4527 84.4307C99.3234 84.3929 99.1582 84.3637 98.9573 84.3432C98.7534 84.3108 98.545 84.2859 98.3321 84.2683C98.1192 84.2507 97.9359 84.251 97.7822 84.2694C97.8565 84.1319 97.936 83.9775 98.021 83.806C98.103 83.6227 98.1783 83.4504 98.2467 83.2892C98.3197 83.1206 98.3737 82.9912 98.4088 82.901C98.4715 82.716 98.4757 82.5767 98.4214 82.4829C98.3716 82.3818 98.2429 82.2683 98.0354 82.1425L97.2128 81.6438C96.9465 82.1107 96.6734 82.5887 96.3935 83.0778C96.1181 83.5595 95.851 84.036 95.5921 84.5074L98.8048 86.4551C99.0493 86.6034 99.2456 86.6564 99.3934 86.6143C99.5339 86.5677 99.6971 86.393 99.883 86.0902C100.178 85.6101 100.478 85.0878 100.784 84.5233C101.082 83.9543 101.356 83.4007 101.605 82.8625C101.859 82.3169 102.063 81.8526 102.216 81.4695C102.321 81.5636 102.456 81.6756 102.62 81.8056C102.785 81.9356 102.947 82.0596 103.109 82.1777C103.263 82.2914 103.388 82.3774 103.484 82.4358C103.282 82.8808 103.035 83.3745 102.743 83.9169C102.458 84.4638 102.156 85.0053 101.837 85.5416C101.53 86.075 101.242 86.5596 100.975 86.9953Z" fill="black"/>
</svg>
