<svg width="1280" height="2858" viewBox="0 0 1280 2858" fill="none" xmlns="http://www.w3.org/2000/svg">
<path fill-rule="evenodd" clip-rule="evenodd" d="M90.9854 0.328085C136.986 -2.44539 182.311 12.4454 217.705 41.9589C253.099 71.4725 275.892 113.383 281.431 159.134C286.747 115.251 307.95 74.8337 341.033 45.5166C374.117 16.1993 416.791 0.0116783 460.995 0.0116783C505.199 0.0117081 547.874 16.1994 580.957 45.5166C614.04 74.8337 635.242 115.251 640.559 159.134C645.875 115.254 667.075 74.8388 700.155 45.5224C733.235 16.206 775.906 0.0168183 820.107 0.0136314C864.315 0.014574 906.994 16.2011 940.084 45.5166C973.174 74.832 994.386 115.248 999.716 159.134C1005.25 113.386 1028.04 71.4764 1063.43 41.9638C1098.83 12.4514 1144.15 -2.43863 1190.15 0.33492C1236.14 3.10853 1279.35 23.3364 1310.94 56.8877C1342.53 90.4389 1360.12 134.783 1360.12 180.865C1360.12 181.578 1360.12 182.291 1360.12 183.004C1360.12 300.521 1331.94 411.455 1281.98 509.426V2857.37H-2.28809V506.644C-51.3611 409.357 -79 299.409 -79 183.004V180.865C-78.9983 134.781 -61.4057 90.435 -29.8145 56.8828C1.77694 23.3305 44.9845 3.10165 90.9854 0.328085Z" fill="#F8F8F5"/>
</svg>
