<svg width="92" height="99" viewBox="0 0 92 99" fill="none" xmlns="http://www.w3.org/2000/svg">
<path fill-rule="evenodd" clip-rule="evenodd" d="M45.9661 24.4187C45.3769 24.9233 44.7862 25.4268 44.1939 25.929L43.9271 26.1572C41.9646 27.9871 39.6152 29.3515 37.0533 30.1492C35.7252 30.5216 34.3312 30.5956 32.9712 30.3659C31.6111 30.1362 30.3187 29.6085 29.1866 28.8206C27.5654 27.6402 26.2709 26.0671 25.4247 24.2491C24.5541 22.3069 23.8843 20.2808 23.4257 18.2024C23.3886 18.0454 23.3497 17.8888 23.3091 17.7327C22.2593 13.8266 20.1773 12.9856 19.075 12.8876C17.8183 12.7756 15.7566 13.4181 14.3546 16.3027C12.9227 19.3295 12.5183 22.7411 13.2029 26.0188C13.2029 26.0188 14.3593 30.4931 13.697 32.9164C13.0347 35.3398 3.54674 37.6477 2.44272 34.7576C1.54628 32.4089 0.573468 28.5405 0.573468 28.5405C-0.661539 22.5049 0.110914 16.2311 2.77307 10.6754C6.22905 3.56756 13.0204 -0.573654 20.2112 0.0644444C28.7685 0.822976 34.1148 7.84385 36.0647 15.6607L36.1222 15.8895C36.5429 15.5321 36.9751 15.163 37.4175 14.7851C41.2877 11.4751 45.367 7.85725 49.8905 5.46268C53.2665 3.51155 57.2203 2.80783 61.0621 3.47434C63.0213 3.83538 64.8374 4.74596 66.2988 6.09987C67.7601 7.45379 68.8064 9.19526 69.3157 11.1212C69.8809 13.4876 70.0194 15.9359 69.7247 18.3509L69.7209 18.3817C69.6047 19.7548 69.4534 21.1598 69.2519 22.5788C73.632 21.7797 79.9905 21.3927 85.4349 25.0051C88.1691 26.8687 90.1969 29.598 91.192 32.7538C92.187 35.9096 92.0913 39.3084 90.9204 42.4033C89.1256 47.1087 85.5237 49.6365 83.0086 51.24C81.7886 52.0181 80.6992 52.6772 79.6958 53.2835C78.0514 54.2775 76.6399 55.1308 75.2689 56.1383C75.4841 56.2402 75.6943 56.3416 75.8907 56.4403C79.2772 58.1047 82.3302 60.3754 84.8984 63.14C87.3264 65.6519 88.9096 68.8592 89.4271 72.3143C89.6505 74.2607 89.4578 76.2323 88.8616 78.0986C88.2654 79.9649 87.2795 81.6831 85.969 83.1395C80.7332 89.2591 69.5239 99.588 59.9369 98.4108C58.0233 98.1759 53.0147 93.9026 55.6155 89.5995C56.9154 87.4479 61.0582 86.1602 61.0582 86.1602L62.4157 85.3042C67.9705 81.8051 72.7267 78.8124 76.1852 74.7688C76.3775 74.5666 76.5291 74.3294 76.6317 74.07C76.6524 74.0105 76.6578 73.9467 76.6475 73.8845C76.4355 73.0986 76.0044 72.3891 75.4045 71.8388C73.8976 70.234 72.1097 68.9184 70.1293 67.957C69.7097 67.7473 69.3727 67.5951 68.9441 67.4014C68.6516 67.2647 68.315 67.1176 67.8805 66.9152C66.7775 66.4151 65.7144 65.8312 64.7006 65.1686C63.0565 64.1364 61.7237 62.6769 60.8445 60.9462C60.2875 59.7483 60.0045 58.4413 60.0161 57.1202C60.0277 55.7992 60.3337 54.4974 60.9116 53.3095C62.1364 50.8028 63.9272 48.6152 66.1424 46.9193C68.5852 45.0377 71.1498 43.3197 73.8194 41.7765C74.6508 41.2741 75.4204 40.8074 76.084 40.3832C78.2016 39.0312 78.6649 38.4009 78.888 37.8147C79.0246 37.4202 79.0295 36.9919 78.9018 36.5943C78.8112 36.2479 78.6037 35.9434 78.3145 35.7323C74.9466 33.4982 70.1569 35.8128 66.5539 36.4454C65.108 36.7267 63.6276 36.7858 62.1638 36.6207C60.6447 36.4577 59.2068 35.853 58.0278 34.8813C56.8489 33.9096 55.9807 32.6135 55.5307 31.1535C54.7775 28.5735 60.3754 17.2322 56.9594 16.3584C54.9745 15.8507 47.6775 22.9534 45.9641 24.4185L45.9661 24.4187Z" fill="#EDCF6A"/>
</svg>
