<svg width="740" height="607" viewBox="0 0 740 607" fill="none" xmlns="http://www.w3.org/2000/svg">
<mask id="mask0_0_1164" style="mask-type:luminance" maskUnits="userSpaceOnUse" x="0" y="0" width="740" height="607">
<path d="M720 0H20C8.9543 0 0 8.9543 0 20V586.853C0 597.899 8.9543 606.853 20 606.853H720C731.046 606.853 740 597.899 740 586.853V20C740 8.9543 731.046 0 720 0Z" fill="white"/>
</mask>
<g mask="url(#mask0_0_1164)">
<path d="M225.059 -166.29C228.304 -162.732 231.598 -158.29 236.03 -156.376C237.122 -145.895 235.094 -133.467 239.755 -123.83C242.293 -118.582 258.067 -97.151 262.56 -94.208C266.406 -91.688 272.575 -91.467 276.788 -93.108C285.907 -96.663 284.669 -109.233 289.002 -116.572C293.794 -124.687 304.309 -124.835 311.523 -129.005C313.764 -130.305 319.004 -135.912 320.255 -136.287C324.083 -137.433 330.004 -134.68 328.126 -130.63C326.36 -126.822 309.301 -123.83 304.663 -121.302C301.063 -119.338 293.949 -111.402 292.969 -107.51C289.66 -94.37 294.485 -80.28 301.669 -69.235C311.369 -54.318 324.251 -49.194 341.945 -49.023C348.757 -48.957 357.001 -52.395 363.832 -53.353C366.715 -53.001 367.501 -51.517 367.061 -48.77C366.377 -44.494 354.525 -39.77 350.715 -36.686C348.667 -35.029 343.366 -29.214 342.173 -27.024C339.111 -21.401 341.986 -12.206 340.7 -5.92398C340.456 -4.73499 332.812 9.66103 332.085 10.216C330.518 11.1696 328.658 11.5208 326.852 11.204C323.715 10.431 315.201 2.85101 311.397 1.12502C302.253 -3.02399 294.017 4.58003 301.14 11.377C304.509 14.593 309.599 15.14 313.14 17.584C317.362 20.498 330.668 38.902 332.772 43.826C334.681 48.292 334.862 54.004 336.5 58.66C329.6 59.02 326.114 62.998 321.2 67.042C307.635 86.092 295.444 106.21 281.733 125.142C278.48 129.634 267.202 145.691 263.85 148.231C258.85 152.018 230.324 159.446 223.15 160.497C217.387 161.345 211.582 161.882 205.761 162.105C188.068 161.98 171.797 153.195 155.851 167.486C151.628 171.271 148.194 177.928 144.23 182.079C132.875 193.969 114.764 193.572 100.73 199.756C88.479 205.159 72.699 220.61 61.142 224.976C52.419 228.276 34.773 227.766 24.573 229.921C16.642 231.597 8.134 235.521 0 237.028V36.098C2.452 36.325 7.055 35.446 8.954 33.955C10.204 32.974 12.822 26.411 14.248 24.495C19.048 18.039 27.585 18.222 33.748 14.136C39.682 10.201 42.682 5.10902 50.708 1.96802C58.224 -0.973984 59.443 2.25801 65.314 2.38602C72.161 2.53601 80.601 -10.573 85.997 -14.447L127.728 -26.608C129.456 -27.558 139.656 -39.094 140.904 -41.102C147.864 -52.29 144.899 -66.979 145.639 -79.32C146.264 -89.704 148.13 -106.115 150.255 -116.202C151.182 -120.602 153.936 -125.924 154.413 -130.246C155.13 -136.746 153.96 -144.067 153.719 -150.583L161.693 -166.29H225.059Z" fill="#E6E6E6"/>
<path d="M360.531 -166.29H740V-49.806C731.72 -50.944 724.434 -47.306 719.288 -41.024C711.399 -25.776 706.888 -7.74597 699.347 7.47603C697.272 11.664 695.311 16.64 690.047 14.311C684.898 12.032 677.747 4.19203 671.812 1.23903C657.033 -6.11697 636.835 -7.79398 622.93 1.71202C620.992 3.03702 614.536 9.34602 613.007 9.04903L598.907 -4.52498C592.586 -5.12498 585.488 -2.32498 579.386 -2.43298C573.637 -2.53299 559.666 -6.13298 554.733 -9.14198C550.445 -11.758 546.233 -17.224 541.664 -20.104C536.898 -23.104 529.337 -26.812 523.678 -26.515C526.604 -32.878 531.878 -35.497 532.969 -43.065C533.649 -47.792 532.387 -51.872 532.487 -55.918C532.598 -60.394 535.453 -67.282 535.978 -72.093C536.093 -73.138 536.728 -74.893 534.978 -74.553C533.104 -69.9708 531.782 -65.1822 531.038 -60.288C530.18 -52.193 532.856 -44.124 528.38 -36.737C520.02 -22.937 504.157 -22.154 491.237 -14.166C482.971 2.04102 473.064 16.195 459.13 27.999L342.012 55.667C340.628 55.313 338.891 43.598 337.77 41.017C335.561 35.933 321.138 16.617 316.808 13.193C316.015 12.564 302.178 7.45302 304.456 5.52602C305.913 5.34564 307.391 5.47931 308.792 5.91801C312.974 7.37302 321.949 16.204 326.112 17.049C328.279 17.489 334.522 15.756 336.16 14.282C336.92 13.598 345.56 -2.53998 345.805 -3.74197C347.115 -10.142 344.139 -19.527 347.535 -25.31C348.525 -26.995 353.077 -31.301 354.771 -32.638C360.149 -36.883 371.271 -40.407 372.75 -47.422C374.504 -55.744 368.623 -59.343 361.087 -58.355C355.76 -57.655 347.667 -54.427 342.628 -54.238C340.799 -54.169 325.119 -56.355 323.594 -56.925C316.463 -59.59 307.404 -69.093 303.841 -75.765C297.723 -87.221 293.231 -104.457 304.448 -114.242C310.715 -119.709 332.189 -121.642 333.572 -128.81C334.588 -134.078 332.7 -136 330.284 -140.089C337.629 -148.808 351.609 -137.64 356.391 -149.689C358.283 -154.456 359.151 -161.231 360.538 -166.289" fill="#E6E6E6"/>
<path d="M50.9842 606.854C48.8682 594.954 59.7342 590.818 66.2992 583.213C83.3992 563.405 64.8992 549.72 67.0842 529.398C68.2582 518.498 73.4982 505.023 74.2722 494.298C74.9022 485.553 67.1722 474.606 73.9802 466.405C76.8662 462.929 85.3222 458.812 87.7572 455.423C90.1922 452.034 89.6402 445.05 91.2362 441.423C92.6328 439.452 94.2876 437.678 96.1562 436.148C99.8832 434.457 107.895 436.648 111.778 436.536C115.531 436.428 119.246 432.936 123.087 433.947C113.499 438.778 118.025 448.707 116.18 456.892C111.627 477.092 93.2492 495.052 92.5612 517.01C92.4522 520.488 93.6912 525.883 93.5872 529.687L96.9022 530.834L99.5092 524.678L113.952 523.153L134.268 534.72C140.609 522.91 153.237 515.333 163.639 507.22C167.865 508.673 168.421 513.138 170.129 516.52C171.165 518.574 173.304 518.02 172.296 521.687C170.288 528.987 159.054 531.687 156.26 539.908C154.298 545.682 157.243 552.855 158.521 558.471C155.245 562.563 145.768 563.748 149.69 570.457C153.806 567.824 163.36 566.948 166.747 564.223C170.811 560.952 168.603 554.085 170.081 550.811C172.106 548.468 174.352 546.325 176.787 544.411C183.543 541.031 196.558 541.355 203.398 538.249C205.286 537.392 205.652 535.215 207.218 534.059C208.553 537.545 209.99 539.215 214.052 538.336C216.963 533.846 209.352 522.857 210.83 519.524C211.621 517.746 220.235 511.109 222.518 508.583C227.85 502.683 234.998 488.732 243.096 487.605C251.966 486.37 256.626 500.984 265.739 497.905C269.63 496.591 274.326 484.785 277.853 481.627C282.408 477.548 291.635 477.077 296.803 471.448C303.014 464.681 297.894 462.956 297.132 457.283C296.749 451.694 297.02 446.079 297.94 440.553C298.478 438.184 304.555 427.407 307.362 430.686C304.492 436.203 305.1 440.43 307.393 445.943C308.165 446.492 316.076 442.606 317.372 441.793C318.43 441.129 318.872 440.029 318.282 439.418C317.222 438.318 309.716 443.711 308.827 443.054C306.066 437.864 308.76 434.801 309.604 429.694C303.909 422.622 294.978 438.081 294.978 441.963V454.703C289.955 449.836 287.078 443.359 284.764 436.884C281.995 429.133 276.226 408.553 284.511 403.109C286.399 401.868 299.104 397.219 301.497 396.791C305.553 396.066 311.741 398.127 310.665 392.117C303.998 385.807 297.977 381.561 288.423 381.166C291.231 376.207 292.735 369.437 295.551 364.639C298.951 358.839 303.867 353.669 310.996 353.512C312.179 359.791 310.224 370.912 315.704 375.381C317.132 376.545 328.882 379.629 330.95 379.643C332.432 379.653 338.5 379.208 337.95 376.81C335.381 376.254 332.785 377.61 330.406 377.497C328.68 377.414 317.666 374.436 316.791 373.377C313.157 368.977 314.136 364.229 313.909 358.977C313.848 357.561 312.251 353.502 313.655 352.746C323.49 349.436 332.737 350.369 342.717 349.899C353.685 349.384 370.033 347.373 380.524 350.634C384.267 351.798 395.247 358.734 398.65 358.443C410.366 352.851 424.316 346.591 436.983 343.656C451.061 340.394 464.318 340.531 478.1 338.89C489.287 337.558 503.131 330.896 513.908 329.545C518.053 329.025 523.39 329.54 527.716 329.516C531.062 329.498 534.442 327.735 537.953 330.181C536.639 339.553 532.679 348.208 528.263 356.46C510.638 365.393 498.347 374.46 477.437 372.43C473.72 372.07 469.837 370.023 466.445 369.585C462.411 369.064 445.904 371.322 442.165 372.86C436.588 375.154 435.172 382.732 431.356 386.284C426.207 391.076 421.375 390.755 415.673 392.972C406.24 396.64 403.118 408.962 397.249 416.781C396.13 418.271 389.349 425.718 388.225 426.031C382.54 427.607 386.104 413.668 386.058 410.622C385.981 405.544 384.303 399.981 384.419 394.788C383.703 392.257 374.269 388.528 371.459 388.457C369.24 390.364 382.359 393.802 382.268 395.481C382.01 400.429 383.774 405.851 383.877 410.636C383.992 415.97 379.627 425.189 386.045 428.136C389.914 429.913 392.627 424.271 395.484 422.668C396.052 424.736 394.084 427.037 394.225 428.741C394.882 436.711 404.225 443.433 401.883 454.899C401.483 456.855 399.275 458.974 399.143 460.943C398.856 465.216 403.822 466.898 407.154 465.261C408.634 464.534 415.009 454.67 416.97 452.507C421.535 447.471 427.375 442.694 433.738 440.324C437.268 440.624 433.525 448.915 433.338 451.389C432.956 456.45 435.362 462.425 434.797 466.649C434.314 470.267 429.526 475.84 428.597 479.439C427.214 484.777 435.509 497.598 436.225 503.907C437.156 512.107 428.907 514.907 437.784 521.266C439.933 522.805 442.784 523.554 445.018 524.948L423.335 531.301L406.445 569.401C407.354 571.648 406.664 575.078 407.52 577.001C408.592 579.412 414.741 584.054 416.199 586.526C418.936 591.169 419.054 599.056 425.338 601.087L423.9 606.856L50.9842 606.854Z" fill="#E6E6E6"/>
<path d="M740 392.82V417.572C734.954 420.322 729.1 423.087 724.465 426.433C715.703 432.756 712.204 439.333 699.465 440.071C696.346 440.251 693.509 438.759 690.465 439.783C691.102 442.251 696.851 442.442 698.852 442.372C712.712 441.886 717.652 433.956 727.389 427.172C731.348 424.415 735.939 422.372 740 419.756V563.899C737.068 562.655 733.692 560.644 730.7 559.73C708.415 552.93 681.313 551.716 659.187 544.577C650.432 541.752 622.341 528.999 614.787 524.16C612.464 522.671 610.465 519.538 607.605 518.235C604.705 516.915 600.322 516.635 597.262 515.469C592.573 513.679 587.691 509.582 583.184 507.7C579.828 506.3 575.21 505.811 571.975 504.344C564.535 500.97 554.861 492.756 547.211 488.328C538.966 483.497 530.47 479.11 521.758 475.185C516.482 472.908 511.426 470.527 505.466 471.085C505.811 473.777 508.988 472.609 510.766 473.072C533.749 479.072 551.813 497.553 571.591 506.188C575.135 507.735 579.11 508.163 582.682 509.663C586.882 511.429 591.539 515.217 595.799 516.936C599.072 518.257 602.838 518.471 605.991 519.853C609.401 521.353 612.055 524.662 615.285 526.58C623.72 531.587 650.042 543.972 659.146 546.804C679.782 553.224 705.507 554.828 726.767 560.751C731.342 562.096 735.776 563.882 740.007 566.082V606.85H426.083C426.205 602.838 429.746 598.777 428.215 594.942C426.786 591.361 420.121 587.412 416.97 584.291C416.11 583.44 410.276 577.125 410.02 576.678C408.787 574.53 409.15 570.008 409.686 567.53C410.886 561.992 420.024 543.215 423.046 537.204C423.727 535.849 424.209 533.817 425.546 533.096C431.632 530.375 451.746 527.927 455.135 522.685C456.11 521.176 456.247 517.318 456.835 516.736C457.726 515.848 464.204 515.446 465.435 513.321C471.659 502.015 476.488 489.979 482.271 478.461C484.106 474.806 486.851 467.983 489.423 465.226C499.54 454.375 516.513 454.342 529.71 449.438C533.457 448.046 545.81 440.532 548.076 440.438C553.748 440.201 553.863 447.638 556.805 450.35C558.882 451.773 561.109 452.963 563.446 453.9C570.377 456.031 574.526 451.626 580.854 451.053C585.354 450.646 588.843 452.335 593.02 452.795C596.401 453.167 597.22 451.301 593.777 450.538C591.832 450.107 582.953 448.303 581.692 448.372C576.92 448.632 570.449 453.472 565.005 452.354C562.572 451.41 560.266 450.167 558.14 448.654C556.54 446.865 555.546 441.925 553.206 440.114C551.434 439.099 549.487 438.43 547.466 438.14C544.466 438.44 532.372 446.148 528.04 447.765C513.56 453.165 495.964 452.309 485.932 466.101L463.998 511.69L457.414 514.39L456.102 484.91C458.361 475.679 458.444 465.091 460.493 455.959C463.251 443.668 474.664 441.159 485.074 438.304C503.443 433.27 522.503 430.037 540.88 424.922C557.923 425.592 569.799 429.232 587.205 426.822C611.42 423.463 647.157 417.062 669.936 409.049C674.536 407.431 679.198 404.349 683.695 402.366L688.523 406.551L697.269 401.687L707.889 407.863L707.125 411.642C703.433 412.463 696.932 411.713 693.849 413.292C692.096 414.677 690.485 416.23 689.037 417.931C689.001 421.579 694.661 415.007 695.36 414.802C701.219 413.084 712.023 416.715 710.221 406.756L740 392.82Z" fill="#E6E6E6"/>
<path d="M0 244.308C20.216 236.366 41.233 234.113 62.674 231.608C76.046 224.8 89.544 212.519 102.769 206.164C111.882 201.785 125.169 200.336 134.731 196.614C137.957 195.359 140.539 192.872 143.485 191.167V218.467C143.485 218.842 142.596 219.806 142.742 221.296C143.437 228.384 151.309 230.146 152.8 223.41C154.353 216.392 152.55 210.695 156.569 203.153C165.809 185.812 179.942 188.788 196.96 186.072C200.375 186.592 212.438 197.566 216.781 199.805C217.97 200.472 219.333 200.762 220.69 200.638C219.205 203.865 215.752 200.567 213.416 201.693C210.045 203.318 211.341 213.544 211.252 217.041C211.197 219.213 210.413 221.141 210.442 223.572C210.59 236.021 215.506 249.046 211.049 261.972C210.462 263.672 206.758 266.246 205.413 267.987C201.613 272.9 196.972 296.497 196.013 303.731C194.699 313.677 197.596 325.665 188.172 332.294C174.553 341.873 154.24 334.913 140.386 343.499C136.844 345.699 123.152 359.843 121.795 363.499C118.616 372.064 120.032 384.505 117.669 393.591C115.869 400.527 107.598 417.133 102.713 422.322C97.571 427.783 88.802 431.486 86.313 438.687C85.235 441.803 84.834 450.466 83.538 452.298C80.999 455.888 70.833 460.675 68.871 463.478C61.571 473.91 68.938 484.018 68.471 494.344C67.793 509.477 59.771 524.36 61.971 540.906C62.763 546.857 66.76 553.743 67.532 560.1C70.451 584.141 48.412 583.583 45.201 601.437C44.894 603.137 45.286 605.102 45.157 606.852H0V244.308Z" fill="#E6E6E6"/>
<path d="M740.001 -42.526V112.539C737.493 111.978 734.196 107.99 733.294 105.774C731.329 100.945 732.628 89.651 725.094 89.914C722.275 90.0141 716.715 96.347 714.923 98.756C712.43 102.106 709.493 109.156 708.997 113.246C708.84 114.538 712.357 126.631 713.147 128.098C715.174 131.862 725.152 140.427 725.441 143.554C725.72 146.568 718.473 155.254 716.785 158.854C715.158 162.33 714.53 166.175 713.285 169.778L718.734 206.308L708.424 211.508C684.593 207.459 660.94 202.145 638.044 194.419C634.43 183.688 629.859 173.173 626.363 162.414C624.863 157.804 622.263 153.374 624.306 148.679C626.776 143.009 641.669 125.301 641.693 120.928L628.393 26.4281C626.977 21.2011 623.023 16.57 619.093 13.159C619.861 11.366 631.982 3.63205 634.362 2.94005C643.955 0.152046 659.586 2.27305 668.548 6.67305C674.132 9.41505 684.328 20.0011 689.548 21.3461C697.506 23.3961 701.653 17.6701 704.824 11.4921C712.253 -2.97895 716.507 -22.8079 724.397 -36.6439C727.129 -41.4349 734.628 -44.9829 739.992 -42.5369" fill="#E6E6E6"/>
<path d="M158.78 -166.29C157.805 -161.365 152.306 -156.06 151.544 -151.324C150.657 -145.807 153.183 -137.168 152.556 -131.24C152.056 -126.513 148.431 -119.298 147.45 -113.915C145.459 -102.998 144.092 -87.563 143.492 -76.375C143.135 -69.706 144.266 -61.709 143.423 -55.332C141.943 -44.132 134.105 -36.147 126.68 -28.387L85.251 -16.648C80.31 -13.096 71.936 -0.847977 66.284 0.0860291C63.533 0.539032 59.622 -1.85498 56.478 -1.78098C52.685 -1.69197 43.325 2.91902 40.106 5.20403C37.426 7.10402 35.006 11.104 32.306 12.697C25.269 16.838 17.831 15.984 12.063 23.767C8.644 28.378 8.146 35.91 0 33.186V-12.678C2.837 -11.478 2.888 -7.26797 5.079 -5.74197C6.118 -5.01897 6.75 -5.11597 6.565 -6.49197C6.329 -8.24698 3.141 -13.108 2.054 -15.132C1.508 -16.149 1.764 -17.432 0 -17.046V-41.07C3.824 -38.857 7.4 -25.419 10.192 -23.924C10.4335 -23.7545 10.7113 -23.6439 11.0033 -23.6012C11.2952 -23.5585 11.5931 -23.5848 11.873 -23.678L26.573 -37.443C27.914 -40.396 26.147 -46.078 27.1 -49.293C27.636 -51.102 31.157 -52.174 30.6 -54.906C35.489 -52.957 40.255 -48.288 45.855 -50.206C46.58 -50.454 55.831 -57.863 56.84 -58.877C58.081 -60.124 63.317 -66.977 63.205 -68.249C63.126 -69.149 60.986 -72.224 61.181 -72.367C69.545 -73.112 73.543 -69.519 80.781 -74.985C95.24 -85.902 123.872 -120.485 128.881 -137.567C131.461 -146.374 132.481 -157.154 134.016 -166.286L158.78 -166.29Z" fill="#E6E6E6"/>
<path d="M740.002 354.964L681.324 338.264C673.236 333.95 670.5 324.769 668.239 316.399C658.821 281.535 652.374 244.957 643.08 209.778C642.256 206.66 639.861 201.324 639.48 198.803C639.297 197.586 639.474 197.636 640.585 197.696C642.416 197.796 658.209 202.731 658.766 203.561C664.817 229.192 674.866 255.122 678.716 281.173C679.816 288.64 679.588 296.256 680.95 303.692C687.396 311.777 694.916 318.836 702.15 326.192C703.418 327.481 709.032 335.406 707.264 328.36L683.387 303.449C682.145 289.436 680.016 275.517 677.011 261.774C672.573 242.443 666.011 223.548 661.346 204.274L690.124 210.81C691.149 211.81 697.983 235.694 698.305 238.31C698.823 242.532 697.005 244.17 697.005 247.564C697.005 248.2 696.716 250.11 698.113 249.394C699.874 248.494 701.137 240.281 700.594 238.194L692.662 210.822C693.37 210.278 707.538 214.265 710.314 213.598C712.601 213.048 722.465 206.738 725.904 205.098C730.472 202.913 735.304 201.048 740.004 199.171V231.931L721.743 258.451C712.752 263.568 702.597 265.087 699.422 276.181C697.822 281.762 698.428 288.435 697.055 294.14C697.155 295.812 703.109 303.309 704.646 304.763C708.96 308.842 722.517 318.136 728.056 319.22C732.009 319.823 736.005 320.09 740.003 320.02L740.002 354.964Z" fill="#E6E6E6"/>
<path d="M740.001 302.548V317.836C734.337 317.558 727.793 317.78 722.735 315.074C717.677 312.368 702.328 300.935 700.335 295.967C699.165 293.051 700.644 278.931 701.827 275.676C704.396 268.613 709.547 267.22 715.585 263.958L740.001 302.548Z" fill="#E6E6E6"/>
<path d="M740 138.751V196.991L721.071 204.998C720.225 190.648 712.413 173.589 718.583 159.932C721.083 154.404 729.099 147.971 727.132 141.777C726.505 139.803 724.832 139.2 724.709 137.298L740 138.751Z" fill="#E6E6E6"/>
<path d="M740 114.723V136.563C737.322 136.441 734.164 135.187 731.593 135.098C728.251 134.982 725.018 136.819 722.115 135.143C721.094 134.554 715.658 128.079 715.077 126.895C714.234 125.178 711.535 115.43 711.535 113.63C711.535 107.568 718.414 95.897 723.575 92.843C729.989 89.048 729.627 101.872 730.742 105.413C731.742 108.59 736.271 114.883 740.002 114.721" fill="#E6E6E6"/>
<path d="M161.693 -166.29L153.72 -150.59C153.961 -144.074 155.131 -136.75 154.414 -130.253C153.937 -125.931 151.184 -120.61 150.256 -116.209C148.131 -106.121 146.265 -89.709 145.64 -79.327C144.9 -66.979 147.865 -52.29 140.9 -41.102C139.652 -39.094 129.452 -27.558 127.724 -26.608L86 -14.447C80.6 -10.573 72.164 2.53601 65.316 2.38602C59.446 2.25801 58.226 -0.973984 50.71 1.96802C42.684 5.11002 39.683 10.201 33.75 14.136C27.589 18.222 19.056 18.036 14.25 24.495C12.825 26.411 10.206 32.974 8.95595 33.955C7.05595 35.445 2.45595 36.325 0.00195312 36.098V33.186C8.14795 35.909 8.64695 28.378 12.064 23.767C17.833 15.983 25.27 16.837 32.307 12.697C35.007 11.106 37.426 7.10503 40.107 5.20403C43.326 2.92203 52.686 -1.69597 56.48 -1.78098C59.624 -1.85498 63.534 0.538025 66.286 0.0860291C71.938 -0.843964 80.312 -13.096 85.253 -16.648L126.682 -28.383C134.107 -36.143 141.944 -44.13 143.425 -55.328C144.268 -61.705 143.137 -69.702 143.495 -76.371C144.095 -87.559 145.462 -102.994 147.453 -113.911C148.435 -119.293 152.059 -126.511 152.559 -131.236C153.186 -137.164 150.659 -145.803 151.547 -151.32C152.306 -156.057 157.8 -161.362 158.78 -166.29H161.693Z" fill="white"/>
<path d="M740 368.068V390.636L708.926 405.036L697.272 399.536L689.244 403.647L686.102 400.837C687.033 400.856 687.956 400.654 688.793 400.246C700.593 394.505 720.744 386.439 730.774 379.596C732.708 378.153 734.451 376.47 735.962 374.589C737.277 372.58 737.392 368.257 740 368.068Z" fill="#E6E6E6"/>
<path d="M740.001 255.956V298.18C737.143 292.464 718.075 267.933 718.14 263.563C718.157 262.422 718.609 262.398 719.391 261.924C722.201 260.224 734.598 255.785 738.027 255.015C739.604 254.661 738.883 254.189 740.001 255.956Z" fill="#E6E6E6"/>
<path d="M740.001 563.901V566.085C735.77 563.884 731.336 562.099 726.761 560.754C705.501 554.83 679.776 553.226 659.141 546.806C650.041 543.973 623.715 531.589 615.28 526.582C612.05 524.665 609.396 521.351 605.987 519.856C602.835 518.473 599.068 518.256 595.795 516.938C591.535 515.219 586.883 511.43 582.678 509.665C579.107 508.165 575.131 507.737 571.587 506.19C551.81 497.555 533.745 479.074 510.762 473.074C508.988 472.611 505.811 473.779 505.462 471.087C511.422 470.529 516.479 472.91 521.754 475.187C530.466 479.112 538.963 483.499 547.208 488.33C554.858 492.757 564.531 500.972 571.972 504.346C575.207 505.813 579.825 506.302 583.181 507.702C587.688 509.583 592.569 513.681 597.259 515.471C600.319 516.639 604.706 516.917 607.602 518.237C610.463 519.537 612.462 522.674 614.784 524.162C622.335 529.001 650.425 541.755 659.184 544.579C681.31 551.718 708.413 552.93 730.697 559.732C733.697 560.646 737.069 562.657 739.997 563.901" fill="white"/>
<path d="M740.001 235.572L726.155 256.313C730.863 256.089 735.755 253.538 740.001 251.588V255.956C738.883 254.19 739.601 254.656 738.027 255.015C734.597 255.786 722.201 260.22 719.391 261.924C718.609 262.398 718.157 262.424 718.14 263.563C718.076 267.932 737.14 292.463 740.002 298.18V302.548L715.586 263.959C709.548 267.22 704.397 268.614 701.828 275.677C700.645 278.931 699.166 293.051 700.336 295.967C702.329 300.935 717.672 312.367 722.736 315.074C727.8 317.781 734.336 317.558 740.002 317.836V320.02C736.004 320.09 732.007 319.823 728.055 319.22C722.516 318.136 708.955 308.842 704.645 304.763C703.107 303.309 697.157 295.813 697.053 294.14C698.426 288.435 697.823 281.762 699.42 276.181C702.594 265.087 712.75 263.567 721.741 258.451L740.002 231.931L740.001 235.572Z" fill="white"/>
<path d="M740.001 251.588C735.753 253.537 730.863 256.088 726.155 256.313L740.001 235.572V251.588Z" fill="#E6E6E6"/>
<path d="M740.001 417.572V419.756C735.939 422.373 731.349 424.414 727.39 427.172C717.649 433.956 712.713 441.886 698.853 442.372C696.853 442.442 691.102 442.251 690.466 439.783C693.514 438.758 696.351 440.251 699.466 440.071C712.201 439.336 715.701 432.756 724.466 426.432C729.103 423.086 734.954 420.321 740.001 417.571" fill="white"/>
<path d="M538.977 119.455C539.042 118.749 540.234 117.455 539.701 116.183H537.52V128.923C537.52 131.513 532.44 145.791 531.02 148.633C529.074 152.522 518.602 161.473 517.967 164.009C518.449 169.866 520.225 177.98 516.409 182.809L517.851 183.151C518.772 185.6 515.885 185.67 515.651 186.581C515.235 188.231 516.235 192.148 515.551 193.236C513.758 194.284 511.906 195.227 510.005 196.061C507.274 196.925 503.452 196.561 500.68 197.661C498.511 198.521 497.186 201.243 496.037 201.674C495.262 201.965 494.162 201.166 493.114 201.682C491.623 202.416 490.624 206.11 489.429 206.8C488.372 207.41 486.862 207.072 485.8 207.542C478.6 210.728 462.967 222.369 461.2 230.269C459.823 236.411 464.735 247.827 454.495 246.5C454.98 250.486 459.76 248.006 461.767 246.5C463.629 249.053 456.082 258.989 453.986 260.191C451.852 261.416 447.87 261.122 445.391 261.05C412.814 260.099 371.548 245.868 341.816 263.827C338.655 265.737 335.616 269.284 332.3 271.06C326.881 273.96 321.222 274.26 315.185 273.26C308.642 272.179 302.53 265.27 294.769 267.038C290.41 268.031 282.569 282.838 278.589 286.532C274.951 289.907 268.047 292.222 264.028 295.274C255.138 302.024 246.946 313.521 237.787 320.06C235.472 321.827 233.405 323.898 231.642 326.217C227.042 331.584 227.49 328.591 223.615 326.93C216.14 323.73 208.031 321.294 200.394 318.473C200.036 307.818 202.9 297.684 205.207 287.44C206.252 282.8 206.043 277.24 208.756 272.757C210.357 270.97 212.086 269.302 213.931 267.767C220.446 265.739 232.559 266.367 238.69 263.395C244.945 260.365 253.381 248.303 254.759 241.595C257.233 229.565 249.428 219.216 264.846 212.365C278.087 206.482 286.523 209.256 294.381 193.839C297.068 188.568 298.138 180.576 301.204 175.907C304.604 170.729 313.253 164.913 317.554 160.217C327.041 149.859 334.275 133.217 343.754 122.341C395.672 88.606 449.3 57.5611 498.927 20.4301L542.606 53.9301C541.541 55.2111 539.87 56.205 539.14 57.73C536.046 64.206 540.393 85.237 542.375 92.755C543.114 95.555 545.138 98.339 545.487 100.564C547.068 110.652 545.652 144.834 543.167 154.939C541.988 159.734 530 187.618 527.331 191.526C521.238 200.447 502.705 204.761 493.289 209.951C489.179 210.627 492.011 205.551 493.48 204.233C494.292 203.503 495.189 204.251 495.962 203.875C497.308 203.221 498.504 200.875 500.11 199.988C503.502 198.104 508.45 198.622 512.038 197.35C513.93 196.381 515.756 195.288 517.504 194.078C518.417 192.592 517.465 189.871 518.004 188.023C518.391 186.691 520.576 185.765 520.709 184.869C520.836 184.016 519.453 183.269 519.456 182.185C519.456 181.196 520.668 179.433 520.776 177.685C520.976 174.53 519.79 166.385 520.176 164.771C520.841 161.966 530.918 152.971 533.052 149.186C533.785 147.886 538.983 133.429 538.983 132.546C538.983 128.387 538.612 123.466 538.983 119.446" fill="#E6E6E6"/>
<path d="M513.12 327.3C502.82 330.6 492.244 333.374 481.754 336C480.688 336.267 480.513 336.053 480.754 335C483.776 321.917 499.725 310.742 502.383 298.371C504.265 289.614 503.026 278.799 504.389 269.8C505.904 266.441 521.198 261.972 524.719 258.094C528.869 253.523 523.334 252.348 523.779 249.218C523.89 248.434 526.125 243.892 526.696 242.592C531.728 231.149 538.476 229.227 542.926 221.686C544.168 219.581 544.304 216.092 545.618 214.186C545.998 213.634 551.911 209.91 548.791 209.363C548.006 209.226 544.671 211.841 544.054 212.623C542.072 215.135 542.131 218.788 540.44 221.387C537.86 225.354 531.276 229.182 528.625 233.602C527.546 235.402 521.794 247.771 521.615 249.244C521.224 252.464 525.157 253.879 522.892 256.985C521.373 259.068 509.677 263.397 506.541 265.401C503.429 267.391 502.265 268.467 501.83 272.34C500.748 281.984 502.253 295.511 497.781 303.965C494.068 310.984 486.807 317.859 482.869 324.732C480.801 328.342 479.607 332.91 477.678 336.649C455.535 336.729 433.727 341.79 412.978 349.14C414.806 338.398 432.926 335.258 428.615 322.951C427.072 318.545 417.076 302.887 421.281 299.569C423.681 297.674 437.681 300.161 441.013 297.453C441.926 296.711 444.002 293.107 443.094 291.805C438.535 282.177 435.333 271.905 428.994 263.247C436.774 263.654 450.429 268.199 457.042 263.247C458.114 262.447 465.505 253.339 465.816 252.361C467.239 247.891 465.849 237.19 466.882 231.586C467.088 230.47 469.648 227.611 470.516 227.161C472.229 226.274 475.568 231.133 477.057 232.309C482.709 236.772 490.593 239.361 496.731 243.3L504.011 240.669C503.074 235.461 498.686 240.869 496.545 240.569C495.286 240.391 481.001 232.733 479.296 231.525C478.268 230.796 473.316 226.034 473.476 225.119C478.505 217.812 486.269 217.519 493.59 214.6C502.79 210.924 525.656 202.072 530.84 194.321C533.892 189.759 546.311 161.034 547.54 155.686C548.721 150.551 549.64 139.575 549.928 134.049C550.457 124.034 549.172 113.798 550.262 103.799C552.526 115.376 552.725 128.328 555.072 139.767C555.545 142.075 556.063 144.645 559.007 144.648C564.349 144.653 562.041 131.034 563.134 127.593C563.185 127.377 563.28 127.173 563.412 126.994C563.544 126.815 563.71 126.664 563.901 126.55C564.093 126.437 564.305 126.363 564.525 126.333C564.745 126.304 564.97 126.318 565.184 126.377C568.276 136.287 572.523 143.595 571.736 154.391C571.259 160.945 568.011 171.035 568.236 176.991C568.436 182.321 575.894 193.48 576.097 198.879C576.197 201.424 573.664 203.579 573.265 206.014C573.653 207.685 588.551 212.781 590.952 214.56C593.134 216.177 594.699 220.048 597.229 222.117C600.417 224.725 602.829 223.666 603.754 228.702L606.706 262.502C601.414 255.117 597.374 246.955 592.306 239.409C588.571 233.847 584.349 228.396 580.117 223.197C578.282 222.938 578.984 224.397 579.43 225.343C581.771 230.322 588.24 236.343 591.062 241.431L591.083 243.554L573.468 261.654C572.779 261.785 561.285 256.116 560.819 255.593C558.961 253.509 560.739 250.546 560.819 248.293C560.956 244.409 560.713 240.507 560.796 236.622C560.862 233.534 563.596 227.74 557.889 228.605L545.65 247.747C546.695 251.203 545.426 258.375 546.636 261.028C547.407 262.72 550.869 263.657 549.905 266.864C555.556 265.454 548.995 261.31 548.476 258.464C547.976 255.729 548.204 251.44 547.852 248.47L559.362 231.199L558.268 256.684L573.155 264.372L587.662 283.839L565.571 328.029C563.348 330.007 552.185 328.215 548.802 328.029C546.185 327.884 537.156 328.835 536.058 326.755C535.469 321.819 533.316 314.462 534.047 309.637C535.147 302.388 542.888 295.401 546.156 288.948C546.3 287.475 539.408 282.413 538.981 282.888C538.028 285.617 543.535 287.85 543.254 289.667C539.826 295.561 532.944 302.023 531.872 308.901C530.972 314.672 533.36 321.458 533.879 327.293L513.12 327.3Z" fill="#E6E6E6"/>
<path d="M632.926 200.627L616.469 183.959C613.689 182.217 600.369 184.275 596.947 185.406C595.347 185.936 592.027 187.881 591.565 189.49C591.112 191.068 590.429 201.54 591.05 202.817C591.696 204.144 596.682 206.379 598.357 207.886C602.288 211.423 602.062 216.245 608.597 217.343C609.958 219.269 605.234 222.013 603.97 222.343C598.492 223.757 595.535 215.202 592.531 212.986C590.131 211.219 576.665 206.427 576.152 205.693C575.63 203.693 577.776 202.581 578.173 200.836C579.36 195.623 571.428 183.493 570.994 177.001C570.524 169.965 573.44 162.09 573.927 155.122C574.77 143.064 570.365 134.338 566.222 123.415C557.556 123.842 561.774 135.425 559.975 141.176C559.922 141.392 559.827 141.596 559.694 141.775C559.561 141.954 559.394 142.104 559.202 142.217C559.01 142.33 558.798 142.404 558.577 142.433C558.356 142.462 558.131 142.447 557.917 142.388L551.954 99.208C545.284 93.749 543.202 77.814 542.626 69.218C542.358 65.218 541.84 58.687 546.278 56.831C547.919 56.144 552.929 58.847 555.991 58.626C557.942 58.485 560.391 57.287 562.431 57C581.987 47.124 596.949 30.247 614.359 17.188L620.301 24.342C626.701 55.348 629.472 87.35 634.448 118.73C634.557 120.031 634.342 121.339 633.821 122.536C630.842 130.291 617.964 141.862 616.995 150.117C616.84 151.542 616.81 152.978 616.905 154.409L632.926 200.627Z" fill="#E6E6E6"/>
<path d="M276.262 479.675C273.235 482.39 267.77 495.558 263.988 496.201C257.981 497.223 251.358 483.63 242.348 485.423C233.507 487.182 226.206 501.402 220.333 507.854C216.596 511.954 212.005 515.083 207.911 518.783L212.342 535.515L210.501 536.234L207.213 529.698L202.284 536.461C195.184 539.205 181.893 539.173 175.584 542.476C174.631 542.976 168.47 549.289 168.069 550.252C166.937 552.966 167.61 557.552 166.618 560.452C165.318 564.261 154.981 565.525 151.505 567.542C149.758 565.742 160.398 561.302 160.888 559.769C160.379 553.62 156.588 547.488 158.227 541.145C159.783 538.403 161.547 535.786 163.503 533.314C165.427 531.565 169.675 530.248 171.477 528.18C171.989 527.593 177.032 518.131 177.315 517.272C179.451 510.804 175.926 498.012 177.315 492.549C179.021 485.849 184.941 483.312 187.797 478.972C190.622 474.679 192.497 468.019 195.342 463.217C198.085 458.592 205.924 450.492 206.158 445.571C206.253 443.583 205.327 441.971 205.358 440.471C205.42 437.225 214.238 433.06 216.858 430.854L243.617 429.208L250.917 423.408L257.103 432.852C256.436 432.88 255.798 433.134 255.296 433.574C245.496 441.874 234.146 449.362 224.714 457.642C215.59 465.652 213.714 475.394 206.859 483.271C204.93 485.489 201.897 486.386 199.685 489.409C195.946 495.05 192.59 500.936 189.641 507.027C188.378 509.735 188.426 512.039 191.041 509.138C194.932 504.829 198.266 494.495 202.133 489.67C203.691 487.725 206.861 486.517 208.621 484.507C213.4 479.049 216.71 469.142 221.767 463.431L257.84 434.649L271.591 450.841C272.318 453.575 263.92 457.994 263.658 461.25C265.345 462.797 272.604 453.612 274.252 452.498C274.814 451.572 274.21 450.866 273.752 450.085C268.341 440.785 257.271 431.602 252.201 421.475C253.975 414.095 252.466 400.169 257.801 394.615C259.253 393.103 272.757 383.669 274.25 383.392C279.667 382.385 294.35 383.392 299.39 385.861C302.398 387.332 305.59 391.499 308.798 393.186C308.853 394.266 299.679 395.074 298.02 395.503C293.171 396.993 288.437 398.831 283.853 401.003C273.593 406.527 279.445 428.816 282.566 437.625C286.266 448.075 291.466 452.094 295.995 460.599C298.795 465.864 296.673 469.228 292.014 472.499C288.201 475.174 278.862 477.347 276.256 479.684" fill="#E6E6E6"/>
<path d="M386.752 351.324C384.006 350.113 381.386 348.178 378.313 347.746C368.266 346.336 359.042 347.532 349.272 347.714C342.128 347.847 333.64 346.986 326.74 347.761C321.582 348.34 311.387 352.386 306.986 352.117C304.121 351.942 301.777 348.128 300.339 345.861C300.154 342.802 314.114 331.001 316.815 327.649C323.458 319.405 325.692 309.119 336.815 304.684L349.28 271.278C354.559 267.337 361.015 268.231 361.707 260.278L384.237 258.836L426.28 263.236C426.79 263.393 431.409 270.983 432.043 272.203C434.052 276.064 439.349 287.139 440.322 290.879C440.749 292.52 440.347 296.279 438.679 296.73C434.348 297.888 424.446 295.243 420.589 297.413C418.533 298.569 417.075 302.413 417.653 304.729C419.753 313.159 432.409 325.671 423.538 333.106C420.006 330.357 416.562 324.532 412.288 323.254C403.798 320.789 394.693 321.582 386.757 325.478L386.752 351.324Z" fill="#E6E6E6"/>
<path d="M603.19 413.817L610.922 417.37L620.548 419.022L577.24 426.335C565.297 426.991 553.568 421.641 541.614 422.757L486.145 435.791C483.055 436.024 477.522 430.112 475.269 430.004C472.908 429.891 469.324 432.946 466.892 433.298C463.559 433.78 449.47 424.037 447.563 424.143C447.083 424.17 446.085 425.777 446.477 426.299C452.277 427.763 460.094 434.15 465.415 435.468C469.025 436.363 473.286 431.968 475.115 432.286L482.162 437.221C474.325 439.046 467.628 440.353 462.497 447.057C457.883 453.086 455.123 472.465 454.497 480.557C453.626 491.818 455.582 504.444 454.959 515.383C454.159 529.483 442.375 522.149 435.867 516.583C436.647 511.561 439.167 508.869 438.395 503.183C437.637 497.574 430.436 485.775 430.523 481.269C430.582 478.264 436.417 471.118 436.966 467.4C437.596 463.132 435.352 456.734 435.5 452.159C435.675 446.738 440.835 441.65 434.3 438.064C431.727 437.401 428.441 442.294 425.675 440.208C422.891 438.108 422.575 432.042 423.175 428.884C423.443 427.478 435.652 415.284 437.717 413.57C440.675 411.117 449.028 405.247 452.654 405.138C456.838 405.013 461.279 407.4 465.603 406.495C469.51 405.677 476.784 398.822 480.327 398.595C486.055 398.223 490.84 406.235 493.315 405.787C497.215 405.081 506.05 395.958 511.661 395.699C516.6 395.471 524.508 399.98 529.824 400.134C532.438 399.758 543.567 388.465 547.324 386.261C553.098 383.324 559.058 380.768 565.166 378.61C565.978 378.297 566.849 378.169 567.717 378.234L569.205 378.995C572.973 384.11 576.805 394.151 581.255 398.251C583.95 400.244 586.795 402.024 589.766 403.575C592.505 404.268 601.671 402.894 602.745 404.435L603.19 413.817Z" fill="#E6E6E6"/>
<path d="M335.037 65.951C332.011 77.331 325.604 88.366 322.455 99.595C320.116 107.935 319.534 117.37 317.213 125.659C312.798 141.414 302.376 156.677 296.09 172.25C293.72 178.121 292.197 186.073 289.304 191.675C288.323 193.575 284.696 199.285 282.423 198.313L245.065 186.03C236.446 185.565 233.415 191.681 227.588 196.236C226.178 197.336 224.24 199.192 222.545 199.22C216.559 199.32 203.862 186.439 197.727 183.893C189.304 185.393 178.127 185.205 170.142 187.593C160.561 190.457 152.16 204.016 150.974 213.57C150.646 216.21 151.574 224.541 148.855 225.331C143.646 224.678 145.71 220.785 145.705 217.763C145.69 208.583 145.517 199.394 145.821 190.219C156.581 178.399 160.568 166.043 178.821 165.69C187.408 165.523 196.842 168.342 205.114 168.52C218.888 168.82 246.556 162.686 259.7 157.713C262.698 156.478 265.573 154.965 268.287 153.192C273.071 149.315 284.087 133.187 288.296 127.327C300.262 110.688 313.074 86.483 325.98 71.809C327.05 70.593 333.758 64.762 335.041 65.949" fill="#E6E6E6"/>
<path d="M225.788 335.315C220.656 340.661 230.083 347.796 228.609 352.292C227.956 354.283 216.356 356.086 216.353 361.766C216.353 366.914 221.198 382.098 226.094 384.136C231.388 386.336 230.494 383.664 233.094 381.559C237.355 378.115 240.129 379.798 244.639 381.248C245.208 386.535 242.177 392.308 242.595 397.457C242.887 401.057 245.595 411.434 246.874 415.057C247.582 417.065 248.834 418.39 249.722 420.243C249.798 421.043 245.166 425.912 244.4 426.343C242.722 427.294 230.625 428.235 227.6 428.48C224.278 428.749 218.928 427.831 216.109 428.643C212.097 429.798 202.322 439.609 197.323 441.233C196.809 441.426 196.258 441.499 195.711 441.447C195.165 441.395 194.637 441.219 194.169 440.933C193.591 440.504 192.227 428.2 192.218 426.664C192.174 419.086 196.587 409.735 193.771 402.609C191.695 397.357 183.338 389.893 177.351 389.909C175.66 389.909 165.929 392.328 164.657 393.236C162.084 395.073 159.071 402.201 156.59 404.829C153.02 408.611 146.161 411.804 142.283 415.646C139.798 418.108 137.621 422.39 135.118 424.864C134.34 425.632 133.86 426.579 132.557 426.301C135.234 423.157 136.59 416.101 138.781 413.237C139.667 412.081 142.212 411.767 143.89 410.337C151.3 404.02 168.798 365.858 170.261 355.877C172.299 341.97 159.967 350.469 154.407 344.052L174.374 343.252L190.355 337.603C195.655 340.989 197.008 347.288 204.255 346.184C207.594 345.675 224.834 334.513 225.789 335.313" fill="#E6E6E6"/>
<path d="M549.009 347.122C549.989 348.081 551.6 355.473 552.685 357.642C555.853 363.977 563.885 368.991 564.172 376.832C558.324 379.815 550.831 381.522 545.287 384.932C539.964 388.207 535.12 394.385 529.703 397.804C523.856 397.586 515.838 392.75 510.256 393.588C505.676 394.276 495.356 403.088 492.837 402.857C489.479 400.994 483.837 395.251 479.737 395.907C476.625 396.407 468.963 403.483 464.885 404.301C460.607 405.159 456.629 402.942 452.665 402.954C448.516 402.967 440.685 408.338 437.387 411.035C434.976 413.007 423.664 423.877 422.42 425.924C419.104 431.381 421.18 438.23 424.313 443.071C420.858 445.654 417.667 448.57 414.784 451.779C413.275 453.466 406.89 462.923 406.265 463.272C404.919 463.63 403.507 463.651 402.151 463.335C399.967 462.002 403.878 456.984 404.186 455.018C406.034 443.207 399.662 439.812 397.291 430.699C396.366 427.141 398.548 420.14 400.058 416.677C401.145 414.187 409.865 399.236 411.34 397.901C415.591 394.057 420.683 394.776 425.14 392.971C434.23 389.289 434.49 383.277 439.599 377.571C442.828 373.971 455.013 372.179 460.04 371.797C467.688 371.217 470.412 373.944 476.693 374.619C488.107 375.847 500.138 374.336 509.831 368.061C507.361 374.918 513.42 376.211 518.577 378.261L517.125 381.886C518.879 382.229 519.934 381.41 520.463 379.728C521.525 376.353 514.682 374.467 512.143 373.039C511.933 371.146 511.567 368.474 512.694 366.91C514.509 364.39 526.811 360.738 529.885 357.885C532.959 355.032 533.985 347.744 536.785 344.354C537.585 343.845 548.266 346.392 549.003 347.113" fill="#E6E6E6"/>
<path d="M548.897 -11.667C557.525 -5.016 561.992 -3.098 573.059 -1.244C582.296 0.302999 589.113 -1.92101 598.185 -2.34401L611.799 10.978L569.916 45.551C561.698 49.551 557.523 54.603 548.194 49.814C547.207 49.307 538.55 42.841 538.187 42.332C536.856 40.468 538.613 39.489 535.264 37.995C534.529 37.667 533.508 38.156 533.091 37.922C532.808 37.763 532.414 34.06 529.128 33.18L528.416 34.64C518.67 29.131 502.692 9.73999 491.363 10.682C489.522 10.834 482.57 13.096 480.721 13.91C476.953 15.568 474.388 18.798 470.509 20.076C473.245 15.924 478.194 12.21 481.025 8.39C484.985 3.046 488.467 -7.57601 492.685 -11.987C495.093 -14.505 516.837 -24.17 520.57 -24.881C523.699 -25.481 526.364 -24.741 529.277 -23.735C536.821 -21.13 542.737 -16.414 548.894 -11.667" fill="#E6E6E6"/>
<path d="M358.343 261.784C358.243 262.646 358.625 263.87 358.217 264.57C357.696 265.47 348.334 267.523 347.528 270.26L334.646 303.248C323.852 307.941 321.756 317.976 315.374 326.209C313.724 328.337 304.617 337.681 302.659 338.997C298.052 342.097 293.939 331.207 293.591 327.726L291.342 327.305C290.942 327.675 293.887 336.871 294.396 337.713C295.481 339.507 298.901 340.313 299.29 341.613C299.76 343.189 297.631 344.564 298.015 346.413C298.335 347.957 303.86 352.791 302.988 353.508L282.329 355.476C269.99 350.717 258.488 344.494 245.076 343.331C243.07 343.157 237.402 342.965 235.76 343.46C233.86 344.031 233.427 347.104 231.994 348.434C231.153 349.214 231.343 349.367 230.54 348.399C230.118 347.89 226.567 341.145 226.507 340.716C225.715 335.091 234.7 329.616 238.179 326.222C246.39 318.216 256.805 306.462 265.499 299.657C269.907 296.207 276.199 294.077 280.431 290.557C284.641 287.057 292.854 272.931 295.724 271.625C299.496 269.908 305.542 273.895 305.924 277.463C306.132 279.373 304.348 280.384 304.447 282.163C306.342 283.87 310.782 276.932 307.357 274.894C310.123 276.066 312.995 276.97 315.934 277.594C322.985 278.853 327.695 278.366 334.073 275.015C338.219 272.837 341.373 268.994 345.467 266.747C346.757 266.039 357.875 261.27 358.337 261.782" fill="#E6E6E6"/>
<path d="M490.177 17.905C442.803 54.848 389.96 83.98 339.79 116.923C329.975 128.201 322.834 143.223 313.49 154.701C312.814 155.532 308.256 160.688 307.361 159.851C319.583 141.445 324.368 121.066 328.278 99.593L342.336 62.684L459.436 34.859C470.528 30.576 478.397 20.389 490.172 17.904" fill="#E6E6E6"/>
<path d="M190.091 427.044L191.551 440.866L181.474 440.26L162.929 477.052C152.162 482.763 144.337 491.43 135.456 499.522C134.918 500 134.556 499.677 134.056 499.504C132.694 499.039 119.328 489.077 117.037 487.326C114.996 485.767 109.002 481.817 109.36 479.273C111.26 472.43 117.433 462.973 118.551 456.349C119.363 451.537 118.151 444.689 119.442 439.931C119.531 439.601 123.75 436.753 124.595 435.441C125.362 434.25 124.979 432.766 125.741 432.061C126.258 431.582 133.448 428.444 134.33 428.497C137.193 428.67 138.821 432.179 141.046 433.48C147.378 437.186 152.7 434.303 159.135 435.78L168.76 426.426L190.091 427.044Z" fill="#E6E6E6"/>
<path d="M664.979 407.39C664.85 408.542 663.891 408.5 663.087 408.764C649.269 413.309 627.371 418.698 613.226 415.794C610.444 415.223 607.607 412.863 604.626 412.377C604.097 409.797 604.982 406.591 604.526 404.104C603.656 399.344 594.018 402.618 591.387 401.973C584.059 400.173 575.412 386.873 572.323 380.232C571.919 379.66 571.718 378.969 571.751 378.27C577.629 377.251 584.702 373.259 590.386 372.498C595.236 371.849 603.605 374.009 606.93 373.012C608.34 372.589 610.193 369.569 612.118 368.74C620.237 365.245 639.988 373.196 649.182 374.031L650.422 375.703L652.928 402.318L664.979 407.39Z" fill="#E6E6E6"/>
<path d="M670.805 341.123C664.273 343.253 657.38 341.933 650.82 340.361C634.26 336.395 620.133 326.01 604.935 321.432C593.798 318.077 581.058 324.646 570.335 327.705C569.704 327.885 568.365 328.519 568.115 327.669L589.241 285.078C593.571 288.008 603.123 297.299 608.516 296.734C611.176 296.455 620.383 284.07 622.272 284.401C626.549 287.712 628.98 292.465 631.478 297.087L670.805 341.123Z" fill="#E6E6E6"/>
<path d="M281.869 199.908C274.315 205.915 259.346 205.408 253.141 213.773C243.941 226.184 255.48 241.521 240.365 254.873C238.826 256.272 237.178 257.546 235.436 258.682C229.599 260.994 219.759 260.857 213.409 262.504C212.609 261.687 215.588 249.185 215.616 246.817C215.724 237.705 213.254 228.097 213.436 217.763C213.519 213.018 212.83 208.111 214.142 203.533C219.425 205.962 224.264 201.547 228.319 198.425C233.419 194.497 237.145 187.892 244.361 188.194L281.869 199.908Z" fill="#E6E6E6"/>
<path d="M98.3271 433.581C100.127 430.46 104.017 429.056 106.369 426.701C112.569 420.495 118.969 406.307 121.986 397.901C125.21 388.925 124.109 369.136 128.186 363.327C129.82 360.997 140.749 350.136 143.127 348.412C144.403 347.486 149.267 345.06 150.59 344.877C152.612 344.597 153.848 346.837 155.705 347.477C161.783 349.577 169.852 345.461 168.075 355.877C166.529 364.946 149.065 403.336 142.415 408.846C140.768 410.211 138.846 409.966 137.315 411.755C134.659 414.855 133.426 421.217 130.361 425.188C126.9 429.673 118.613 433.188 113.091 434.131C108.636 434.895 103.064 432.713 98.3322 433.571" fill="#E6E6E6"/>
<path d="M299.346 355.694C299.932 356.256 294.058 362.694 293.373 363.912C291.479 367.266 288.373 378.24 286.214 380.053C283.29 382.513 276.369 380.229 272.433 381.567C271.443 381.903 256.156 392.667 255.333 393.598C250.791 398.751 251.983 410.398 250.541 416.84C249.451 416.702 248.841 414.266 248.57 413.36C247.526 409.874 244.889 399.903 244.77 396.715C244.67 394.051 247.911 381.238 247.333 380.415C241.733 377.915 238.649 375.592 232.806 379.088C230.793 380.288 229.827 383.346 227.194 382.345C222.572 378.622 217.131 365.562 219.604 360.065C221.086 356.772 228.246 356.677 229.971 354.784C230.678 354.009 230.561 352.372 231.29 351.367C232.48 349.726 235.767 348.638 236.49 345.482C241.09 344.321 253.122 346.545 257.984 347.892C264.768 349.771 274.619 356.218 280.841 357.079C286.604 357.879 293.566 356.366 299.341 355.689" fill="#E6E6E6"/>
<path d="M738.547 360.792C737.357 366.136 734.818 374.384 730.174 377.539C715.189 384.474 700.574 392.262 685.629 399.264C682.798 400.59 670.923 406.664 668.999 406.681C667.515 406.695 655.539 401.526 655.137 400.838L651.865 372.438L674.813 370.18C681.965 370.51 690.406 373.134 697.39 373.219C706.162 373.325 702.063 360.928 703.611 354.719L693.385 348.419L738.547 360.792Z" fill="#E6E6E6"/>
<path d="M649.687 341.86V371.708C638.038 370.717 623.244 364.144 611.602 366.765C608.902 367.374 607.92 370.508 605.608 370.96C601.754 371.713 597.542 369.66 593.601 370.251C593.201 366.833 595.433 363.058 595.048 359.767C594.585 355.811 588.759 349.453 588.559 345.085C588.441 342.513 590.691 338.239 590.691 337.129V323.661C593.177 323.661 595.943 322.225 598.338 322.216C605.538 322.19 626.253 333.862 634.414 337.106C639.36 339.125 644.469 340.716 649.686 341.861" fill="#E6E6E6"/>
<path d="M587.767 324.389C590.988 330.933 586.005 339.5 586.267 345.134C586.485 349.756 592.259 356.34 592.726 359.857C593.072 362.457 591.152 367.229 591.315 370.157C583.368 371.537 575.521 376.304 567.565 376.341C565.916 375.66 565.419 371.141 564.365 369.268C562.135 365.311 557.04 361.256 554.87 356.918C553.222 353.623 552.461 349.181 551.189 345.677L537.515 341.856L540.349 330.64C548.907 329.54 557.549 331.879 566.211 330.866C572.982 330.074 580.911 325.695 587.768 324.39" fill="#E6E6E6"/>
<path d="M182.932 442.444C185.318 440.955 194.158 443.855 197.065 443.703C198.484 443.629 202.984 439.862 203.203 440.141C206.203 449.17 197.088 455.646 192.873 462.932C190.427 467.159 188.914 472.905 186.336 476.783C183.184 481.526 176.82 485.337 175.149 491.808C174.149 499.123 176.812 508.293 175.529 515.485C175.346 516.514 174.929 517.413 173.723 517.306C172.008 516.947 168.623 503.099 162.46 505.306C160.637 505.959 156.26 510.758 154.912 510.642L136.946 500.927C142.627 497.24 146.716 490.811 151.863 486.727C155.716 483.673 161.302 481.54 164.945 477.963L182.932 442.444Z" fill="#E6E6E6"/>
<path d="M615.35 185.442L628.566 282.163C626.326 282.115 624.348 282.625 622.332 281.476C621.254 280.861 610.186 266.532 609.646 265.036C607.388 253.096 607.952 239.81 605.94 227.973C605.701 226.565 604.83 225.643 604.507 224.315C608.317 222.647 611.977 220.949 610.971 216.022C604.371 215.311 603.716 209.422 600.544 206.431C599.39 205.343 593.081 202.452 592.86 201.571C593.4 198.894 593.046 190.918 594.339 189.351C596.918 186.225 611.056 185.281 615.351 185.443" fill="#E6E6E6"/>
<path d="M190.022 424.772L168.049 424.24L158.472 433.533C151.216 432.28 146.741 435.279 140.225 429.933C137.775 427.922 136.166 427.06 138.067 424.172C143.636 415.711 151.867 412.579 158.044 406.283C160.744 403.525 163.261 397.351 166.017 395.324C169.395 392.839 178.663 391.224 182.471 393.531C183.623 394.231 191.617 402.59 191.96 403.703C193.752 409.519 190.551 418.719 190.022 424.775" fill="#E6E6E6"/>
<path d="M643.779 268.255L629.299 271.244L619.099 190.436L635.183 206.02L645.818 248.441C643.818 254.888 643.755 261.566 643.776 268.255" fill="#E6E6E6"/>
<path d="M651.87 342.588C654.992 343.155 659.479 344.622 662.513 344.695C665.219 344.76 669.27 343.333 671.932 343.295C675.411 343.24 688.917 349.061 692.672 350.949C693.821 351.527 700.372 354.982 700.679 355.322C702.199 357.03 700.597 370.736 699.457 371.011L675.505 368.046L651.87 370.256V342.588Z" fill="#E6E6E6"/>
<path d="M593.238 245.049C594.353 245.061 602.551 261.687 604.638 264.218C605.752 265.57 607.445 266.212 608.554 267.584C612.563 272.549 616.219 277.817 620.541 282.527L607.702 294.427C592.739 289.39 584.782 275.842 575.47 264.185C575.133 263.278 575.625 262.791 576.08 262.111C579.72 256.688 589.043 250.633 593.239 245.05" fill="#E6E6E6"/>
<path d="M646.043 255.591C646.114 255.311 647.32 254.279 647.492 254.499L662.703 321.199L667.171 332.749C666.531 333.393 664.983 331.381 664.606 330.949C656.961 322.16 649.314 313.37 641.667 304.58C638.381 300.819 631.828 295.98 630.922 291.09C629.931 285.733 631.186 278.44 630.062 272.736C632.493 272.236 646.043 270.9 646.043 268.695C646.043 265.566 645.434 257.982 646.043 255.595" fill="#E6E6E6"/>
<path d="M133.983 531.841C133.254 531.989 132.496 531.864 131.854 531.488C127.208 528.97 122.741 526.136 118.484 523.005C117.699 522.334 116.7 521.905 116.221 520.899C113.857 509.561 110.649 498.378 112.172 486.734C125.472 495.934 138.527 505.129 152.938 512.578C152.906 513.945 133.144 526.478 133.983 531.841Z" fill="#E6E6E6"/>
<path d="M389.039 352.679L389.639 326.179C396.692 324.365 405.339 322.844 412.439 325.291C415.313 326.281 419.167 332.937 421.703 334.946C421.703 335.63 414.149 341.122 412.967 342.946C411.248 345.597 411.66 349.428 408.879 351.236C407.598 352.069 399.301 355.736 398.045 355.741C395.674 355.741 391.688 353.027 389.045 352.681" fill="#E6E6E6"/>
<path d="M95.4131 513.306C96.3716 507.76 97.7107 502.287 99.4211 496.926C100.002 495.426 107.31 482.404 108.158 482.377C112.05 486.194 108.947 492.862 109.264 498.004C109.676 504.684 112.991 512.97 113.64 519.865C113.675 520.247 113.571 520.63 113.347 520.942C113.123 521.254 112.794 521.475 112.421 521.565C108.821 522.682 100.905 521.565 98.083 522.519C95.719 523.319 97.0441 526.606 95.4131 527.495C95.7971 522.975 94.8881 517.713 95.4131 513.295" fill="#E6E6E6"/>
<path d="M200.299 320.75L223.288 328.707L225.057 330.567L205.2 341.303C200.1 343.585 196.981 337.863 193.914 334.952C196.143 329.947 201.535 326.834 200.299 320.752" fill="#E6E6E6"/>
<path d="M490.177 211.54C486.396 212.261 482.683 213.3 479.077 214.647C477.671 215.237 477.24 216.842 475.613 216.637C478.131 212.387 483.301 211.403 487.235 208.937L490.177 211.54Z" fill="#E6E6E6"/>
<path d="M426.079 598.843C424.622 600.568 419.67 591.643 420.263 590.111C423.512 592.421 426.863 594.136 426.079 598.843Z" fill="#E6E6E6"/>
<path d="M628.56 284.351L628.203 287.251L625.65 284.351H628.56Z" fill="#E6E6E6"/>
<path d="M474.882 217.378C474.106 218.708 472.771 220.466 471.241 220.278C472.018 218.948 473.352 217.19 474.882 217.378Z" fill="#E6E6E6"/>
<path d="M224.893 330.084C226.553 331.508 216.976 335.358 216.252 335.673C212.695 337.223 204.817 340.591 201.352 341.261C200.287 341.467 199.28 342.186 198.613 340.653C198.026 339.303 199.883 339.36 200.658 339.083C203.858 337.94 223.908 329.24 224.892 330.083" fill="#A1D9FF"/>
<path d="M56.207 608.178C57.199 605.522 56.397 601.813 57.329 599.446C57.808 598.228 64.244 590.609 65.718 588.846C70.124 583.585 77.212 578.563 78.641 571.846C80.147 564.765 77.998 559.399 76.627 552.546C70.927 549.279 66.857 548.212 66.477 540.556C66.056 532.056 75.211 509.035 73.577 502.181C73.254 500.828 70.884 499.674 73.368 497.972C74.957 499.727 76.368 501.625 75.949 504.126L68.095 541.293L70.217 546.728L78.753 549.143L83.231 569.8L76.247 581.855C72.352 586.162 61.895 594.793 59.8 599.721C58.663 602.396 59.221 605.429 58.4 608.173L56.207 608.178Z" fill="#A1D9FF"/>
<path d="M513.844 78.491C514.828 79.653 524.001 98.078 524.155 99.226C524.524 101.985 521.971 108.843 522.216 112.044C522.674 113.75 530.896 120.363 532.651 122.836C533.57 124.136 537.514 132.099 537.351 133.206C537.095 134.964 533.026 139.518 532.501 141.575C532.057 143.319 532.701 145.159 531.953 146.867C531.421 148.075 528.976 149.231 528.342 150.557C527.809 151.671 528.083 153.029 527.551 154.146C526.368 156.628 519.518 159.882 517.913 163.491C515.453 169.026 516.785 180.365 517.728 186.284C515.695 187.219 513.028 186.622 511.163 187.4C509.863 187.944 508.181 191.054 506.589 192.317C503.624 194.67 499.289 195.608 495.88 197.671C484.225 204.729 473.938 217.104 462.269 224.658C459.893 227.481 461.32 231.25 460.426 234.494L454.195 235.932C456.56 239.313 462.92 238.414 461.495 243.95C461.012 244.45 448.99 240.831 448.184 240.296C446.884 239.433 447.293 237.296 445.684 236.769L436.694 236.632C437.577 230.108 432.517 230.798 428.73 227.457C429.219 223.725 433.901 218.607 430.818 215.108C428.894 212.925 424.302 216.784 422.432 216.688C421.322 216.631 418.701 213.388 416.526 213.282C411.879 213.06 405.974 221.71 400.178 217.676C399.813 217.948 398.709 223.565 398.125 224.769C396.986 227.12 393.294 229.406 392.457 232.242C391.47 235.59 393.529 241.617 388.688 243.07C383.708 244.565 381.604 240.205 379.242 239.72C377.86 239.436 371.6 242.509 368.642 242.107C366.064 241.758 362.778 238.44 360.242 237.502L348.763 243.183C344.038 241.325 336.955 241.798 332.539 239.644C330.79 238.791 330.544 237.084 329.569 236.744C325.884 235.451 320.101 241.15 317.769 243.725L319.831 262.205C323.68 262.865 330.42 259.882 331.899 256.344C332.899 253.955 328.774 248.561 328.791 245.632C329.282 244.039 329.992 242.522 330.901 241.124C331.356 240.856 340.129 242.183 341.363 242.511C342.356 242.774 342.554 241.904 342.492 243.6C342.442 244.975 334.447 263.266 333.257 265.038C328.357 272.33 320.103 274.433 311.914 271.938C308.477 270.892 305.708 265.738 302.572 263.805C295.926 266.197 286.756 266.112 283.004 273.199C281.663 275.733 280.938 282.299 279.376 284.171C276.496 287.626 262.194 292.471 257.982 296.003C254.148 300.682 249.824 306.752 245.353 310.746C243.83 312.107 235.516 317.253 235.214 317.792C234.658 318.781 236.399 320.738 235.521 322.027C233.942 322.611 226.449 332.377 224.902 328.253L227.467 327.167L226.704 325.701L223.426 326.101C220.318 324.036 201.537 318.053 200.431 316.225C199.707 315.025 200.06 313.589 200.157 312.303C200.806 303.726 203.523 291.176 205.521 282.615C207.677 273.376 209.681 271.461 219.789 272.423C218.768 275.848 219.243 283.653 224.444 281.833C226.038 281.275 228.011 270.509 229.662 268.789C231.272 267.112 236.826 265.535 238.923 264.333C240.04 263.693 247.223 259.333 247.57 258.953C249.887 256.367 251.905 250.517 254.685 247.817L255.718 224.765C263.192 214.192 273.818 218.04 284.337 216.873C290.196 216.223 299.663 209.78 300.115 220.605L303.656 220.465C308.056 212.802 311.936 208.271 312.534 199.056C312.599 198.056 311.553 196.148 311.803 195.813C311.926 195.649 314.15 195.238 315.453 193.958C323.275 186.268 324.553 174.376 329.193 165.358C330.073 163.647 339.05 150.23 339.861 149.744C341.983 148.469 353.095 147.516 355.844 147.923C360.144 148.559 364.53 151.187 368.437 151.941C369.863 152.216 377.787 152.623 379.009 152.27C385.875 150.29 384.875 139.804 388.077 136.626C388.815 135.893 404.784 126.575 406.049 126.126C419.316 121.386 427.7 124.001 440.489 114.767C442.277 113.476 444.656 109.95 446.895 109.298C447.71 109.061 449.895 110.572 452.286 110.35C456.224 109.984 462.366 106.179 466.652 105.627C467.997 102.741 469.733 96.975 471.715 94.683C475.369 90.456 485.138 85.797 489.989 81.562C492.769 79.135 500.453 69.027 502.377 68.471C506.341 67.327 506.309 73.143 508.205 75.015C509.465 76.259 512.582 77 513.847 78.494M378.912 161.52C372.448 162.35 375.099 167.153 373.683 171.149C369.793 182.127 353.694 185.786 352.283 201.586C351.423 211.22 361.467 200.421 363.273 196.504C364.631 193.558 366.32 186.264 368.964 184.314C370.422 183.238 376.204 183.122 376.864 182.192C379.27 178.799 379.085 170.221 381.106 166.202L378.912 161.52Z" fill="#A1D9FF"/>
<path d="M165.749 349.056C168.264 359.387 162.063 367.349 158.286 376.275C154.116 386.128 150.44 397.252 143.12 405.642C137.62 411.942 132.538 401.806 126.32 400.883C126.334 401.813 126.134 402.735 125.736 403.576C122.611 410.389 117.304 422.739 113.502 428.59C110.476 433.246 106.402 432.907 101.487 431.53C100.493 430.499 101.524 430.194 102.564 430.077C106.236 429.661 108.42 430.67 111.389 427.208C112.48 425.937 115.06 421.023 116.015 419.271C120.304 411.406 124.082 404.371 124.845 395.403C126.036 381.421 123.085 374.356 132.907 362.586C134.507 360.663 144.535 350.666 146.319 349.728C153.506 345.948 158.274 349.505 165.75 349.057M128.495 376.063L131.418 368.77C129.862 369.782 128.653 371.246 127.954 372.965C127.738 373.598 127.142 376.216 128.495 376.065" fill="#A1D9FF"/>
<path d="M509.457 32.53C513.357 35.578 524.073 46.471 527.177 50.383C533.908 58.864 528.545 56.014 525.085 58.983C523.104 60.683 523.266 63.93 522.315 64.414C521.201 64.981 517.43 65.963 516.315 65.497L491.429 43.382L491.374 37.918C494.92 35.735 499.196 27.831 504.134 28.801C504.453 28.864 508.794 32.015 509.458 32.533" fill="#A1D9FF"/>
<path d="M195.684 343.946C182.762 347.625 168.907 346.704 155.522 347.593C155.707 346.519 156.858 346.172 157.716 345.779C162.045 343.797 178.286 344.545 184.359 343.944C187.799 343.603 191.453 343.202 194.551 341.77L195.684 343.946Z" fill="#A1D9FF"/>
<path d="M83.2269 440.664C84.1436 437.563 85.2455 434.521 86.5269 431.552C86.9589 431.038 94.5029 426.941 95.6509 428.263C92.7419 432.292 87.5509 432.897 85.8239 438.148L83.2289 451.977C83.4979 448.328 82.8589 444.25 83.2289 440.663" fill="#A1D9FF"/>
<path d="M83.888 451.39C84.612 452.048 71.624 461.072 70.751 462.331L74.046 457.968L83.888 451.39Z" fill="#A1D9FF"/>
<path d="M379.575 160.195L381.768 164.876C379.747 168.895 379.933 177.476 377.526 180.866C376.867 181.796 371.085 181.913 369.626 182.988C366.982 184.938 365.293 192.232 363.935 195.178C362.129 199.095 352.085 209.895 352.945 200.26C354.356 184.46 370.455 180.801 374.345 169.823C375.761 165.823 373.111 161.023 379.574 160.194" fill="#E6E6E6"/>
<path d="M129.155 374.737C127.801 374.89 128.398 372.271 128.614 371.637C129.313 369.918 130.522 368.454 132.078 367.442L129.155 374.737Z" fill="white"/>
<path d="M227.973 -166.29L232.336 -161.923L230.886 -166.29H236.713C237.57 -163.68 241.113 -160.19 241.659 -157.766C243.83 -148.16 239.446 -137.075 244.579 -126.466C246.514 -122.466 257.943 -106.366 261.096 -102.935C264.626 -99.091 268.651 -96.29 274.02 -98.059C280.12 -100.069 280.453 -111.897 283.032 -117.442C288.708 -129.642 300.354 -128.542 309.494 -133.942C311.838 -135.328 316.348 -141.36 318.794 -142.111C321.951 -143.08 325.162 -140.997 328.086 -141.531C330.086 -141.895 332.36 -145.197 334.825 -145.748C339.257 -146.737 348.04 -144.654 351.462 -146.592C355.2 -148.708 356.859 -161.978 358.346 -166.29H360.531C359.144 -161.229 358.276 -154.454 356.384 -149.69C351.602 -137.645 337.622 -148.813 330.277 -140.09C332.693 -136.001 334.577 -134.079 333.565 -128.812C332.182 -121.639 310.708 -119.712 304.442 -114.244C293.224 -104.458 297.717 -87.222 303.835 -75.766C307.398 -69.093 316.457 -59.591 323.588 -56.926C325.113 -56.356 340.788 -54.17 342.622 -54.239C347.661 -54.428 355.754 -57.657 361.081 -58.356C368.617 -59.344 374.498 -55.745 372.744 -47.424C371.266 -40.409 360.144 -36.885 354.765 -32.64C353.072 -31.303 348.519 -26.998 347.529 -25.312C344.129 -19.529 347.109 -10.14 345.8 -3.74498C345.554 -2.54498 336.915 13.595 336.155 14.279C334.517 15.752 328.273 17.485 326.107 17.046C321.944 16.201 312.97 7.37003 308.787 5.91502C307.386 5.47662 305.908 5.34329 304.451 5.52402C302.172 7.45102 316.009 12.562 316.803 13.191C321.133 16.619 335.557 35.931 337.765 41.015C338.887 43.597 340.624 55.315 342.007 55.666L459.132 28C473.066 16.2 482.973 2.04202 491.239 -14.164C504.159 -22.152 520.021 -22.938 528.382 -36.735C532.858 -44.123 530.182 -52.192 531.04 -60.286C531.784 -65.1805 533.106 -69.9694 534.98 -74.552C536.734 -74.896 536.099 -73.137 535.98 -72.092C535.454 -67.282 532.599 -60.392 532.488 -55.917C532.388 -51.872 533.649 -47.791 532.97 -43.064C531.882 -35.496 526.605 -32.877 523.679 -26.514C529.338 -26.814 536.898 -23.105 541.665 -20.103C546.238 -17.223 550.446 -11.757 554.734 -9.14098C559.667 -6.13098 573.634 -2.52898 579.387 -2.43198C585.487 -2.33197 592.587 -5.13197 598.908 -4.52397L613.008 9.04903C614.537 9.34903 620.993 3.03702 622.931 1.71202C636.831 -7.79298 657.031 -6.11598 671.813 1.24002C677.747 4.19302 684.899 12.033 690.048 14.312C695.311 16.641 697.272 11.664 699.348 7.47603C706.891 -7.74698 711.4 -25.777 719.289 -41.024C724.434 -47.309 731.721 -50.944 740.001 -49.807V-42.527C734.637 -44.974 727.138 -41.427 724.406 -36.635C716.516 -22.797 712.262 -2.96896 704.833 11.502C701.662 17.679 697.515 23.402 689.557 21.356C684.334 20.011 674.138 9.42503 668.557 6.68303C659.596 2.28304 643.964 0.161026 634.371 2.95003C631.991 3.64203 619.871 11.377 619.102 13.169C623.028 16.58 626.983 21.212 628.402 26.438L641.702 120.938C641.679 125.312 626.784 143.02 624.315 148.69C622.27 153.39 624.875 157.815 626.372 162.425C629.872 173.184 634.438 183.699 638.053 194.43C660.953 202.157 684.603 207.47 708.434 211.519L718.744 206.319L713.296 169.79C714.536 166.19 715.165 162.341 716.796 158.866C718.484 155.261 725.73 146.576 725.452 143.566C725.163 140.44 715.185 131.875 713.158 128.11C712.368 126.643 708.851 114.55 709.008 113.258C709.508 109.171 712.441 102.118 714.934 98.768C716.726 96.36 722.286 90.024 725.105 89.926C732.641 89.664 731.342 100.957 733.305 105.786C734.205 108.002 737.505 111.986 740.012 112.551V114.735C736.281 114.897 731.753 108.604 730.752 105.427C729.636 101.886 729.998 89.062 723.585 92.857C718.425 95.911 711.546 107.581 711.546 113.644C711.546 115.444 714.246 125.191 715.088 126.909C715.669 128.093 721.106 134.568 722.127 135.157C725.027 136.833 728.263 134.996 731.605 135.111C734.176 135.2 737.334 136.455 740.013 136.577V138.761L724.721 137.309C724.844 139.209 726.521 139.809 727.145 141.787C729.112 147.981 721.093 154.415 718.596 159.942C712.426 173.6 720.237 190.658 721.083 205.008L740 196.988V199.172C735.3 201.049 730.468 202.914 725.9 205.099C722.461 206.744 712.6 213.054 710.309 213.599C707.534 214.266 693.365 210.279 692.657 210.823L700.589 238.194C701.132 240.279 699.87 248.494 698.108 249.394C696.708 250.109 696.999 248.2 696.999 247.564C696.999 244.17 698.816 242.531 698.299 238.31C697.978 235.69 691.143 211.81 690.118 210.81L661.34 204.274C666.002 223.547 672.567 242.443 677.005 261.774C680.01 275.517 682.139 289.436 683.381 303.449L707.258 328.36C709.027 335.406 703.412 327.481 702.144 326.192C694.915 318.841 687.395 311.782 680.949 303.692C679.587 296.256 679.82 288.64 678.715 281.173C674.861 255.122 664.815 229.192 658.765 203.561C658.208 202.731 642.414 197.794 640.584 197.696C639.473 197.637 639.296 197.586 639.479 198.804C639.857 201.325 642.253 206.661 643.079 209.779C652.379 244.958 658.82 281.536 668.238 316.401C670.499 324.771 673.238 333.952 681.324 338.266L740 354.965V368.065C737.392 368.253 737.279 372.576 735.963 374.586C734.452 376.467 732.709 378.15 730.775 379.593C720.744 386.436 700.597 394.502 688.794 400.243C687.957 400.651 687.034 400.853 686.103 400.834L689.245 403.644L697.273 399.532L708.926 405.032L740 390.637V392.821L710.215 406.762C712.015 416.72 701.215 413.09 695.354 414.808C694.654 415.008 688.994 421.585 689.03 417.937C690.478 416.236 692.09 414.683 693.842 413.298C696.926 411.718 703.426 412.469 707.119 411.648L707.883 407.869L697.263 401.692L688.517 406.556L683.69 402.371C679.19 404.356 674.53 407.436 669.931 409.054C647.152 417.067 611.416 423.468 587.2 426.827C569.793 429.241 557.917 425.601 540.874 424.927C522.497 430.042 503.437 433.275 485.068 438.309C474.658 441.161 463.245 443.672 460.487 455.964C458.438 465.096 458.355 475.684 456.096 484.915L457.408 514.395L463.992 511.695L485.927 466.11C495.96 452.317 513.555 453.178 528.035 447.774C532.368 446.157 544.459 438.444 547.461 438.149C549.482 438.439 551.43 439.108 553.201 440.123C555.541 441.935 556.53 446.874 558.135 448.663C560.261 450.176 562.567 451.419 565 452.363C570.444 453.48 576.915 448.642 581.687 448.381C582.948 448.312 591.827 450.116 593.772 450.547C597.219 451.31 596.397 453.176 593.015 452.804C588.838 452.344 585.353 450.655 580.849 451.062C574.521 451.634 570.372 456.04 563.441 453.908C561.105 452.971 558.878 451.781 556.801 450.358C553.858 447.645 553.743 440.208 548.071 440.446C545.804 440.546 533.453 448.055 529.706 449.446C516.506 454.346 499.536 454.383 489.419 465.234C486.848 467.992 484.102 474.814 482.267 478.47C476.485 489.988 471.656 502.024 465.431 513.33C464.199 515.455 457.721 515.857 456.831 516.745C456.246 517.327 456.11 521.186 455.131 522.694C451.742 527.936 431.631 530.385 425.542 533.105C424.205 533.826 423.724 535.858 423.042 537.213C420.02 543.224 410.882 562.001 409.682 567.539C409.145 570.017 408.782 574.539 410.015 576.687C410.272 577.134 416.106 583.449 416.965 584.3C420.117 587.421 426.781 591.37 428.211 594.951C429.742 598.786 426.201 602.851 426.079 606.859H423.9L425.338 601.09C419.054 599.059 418.938 591.173 416.199 586.529C414.741 584.056 408.593 579.415 407.52 577.003C406.665 575.08 407.354 571.649 406.445 569.403L423.335 531.303L445.018 524.951C442.786 523.557 439.932 522.808 437.784 521.269C428.907 514.911 437.156 512.114 436.225 503.91C435.509 497.601 427.214 484.78 428.597 479.442C429.529 475.842 434.316 470.27 434.797 466.652C435.361 462.428 432.956 456.452 433.338 451.391C433.525 448.917 437.268 440.628 433.738 440.326C427.375 442.696 421.538 447.472 416.97 452.509C415.01 454.672 408.634 464.535 407.154 465.262C403.822 466.899 398.854 465.217 399.143 460.944C399.275 458.975 401.483 456.856 401.883 454.9C404.23 443.434 394.883 436.712 394.225 428.742C394.084 427.042 396.052 424.742 395.484 422.669C392.627 424.269 389.914 429.913 386.045 428.137C379.627 425.189 383.992 415.97 383.877 410.637C383.777 405.852 382.01 400.431 382.269 395.483C382.355 393.804 369.24 390.366 371.46 388.459C374.27 388.53 383.704 392.259 384.419 394.79C384.303 399.984 385.981 405.546 386.058 410.625C386.104 413.671 382.54 427.611 388.225 426.034C389.352 425.722 396.13 418.275 397.249 416.785C403.118 408.965 406.239 396.644 415.673 392.976C421.373 390.759 426.207 391.076 431.356 386.288C435.172 382.737 436.588 375.159 442.165 372.864C445.904 371.326 462.411 369.064 466.445 369.589C469.837 370.027 473.72 372.074 477.437 372.434C498.347 374.462 510.637 365.397 528.263 356.463C532.679 348.212 536.639 339.557 537.953 330.184C534.443 327.738 531.062 329.5 527.716 329.519C523.39 329.543 518.053 329.028 513.908 329.548C503.132 330.899 489.288 337.561 478.1 338.893C464.317 340.534 451.061 340.393 436.983 343.659C424.315 346.594 410.365 352.853 398.65 358.446C395.25 358.733 384.266 351.8 380.524 350.637C370.034 347.376 353.685 349.386 342.717 349.902C332.737 350.371 323.49 349.439 313.655 352.749C312.255 353.505 313.848 357.564 313.909 358.981C314.136 364.232 313.157 368.981 316.79 373.381C317.665 374.44 328.679 377.417 330.405 377.5C332.784 377.615 335.379 376.258 337.948 376.813C338.503 379.213 332.434 379.657 330.948 379.647C328.88 379.632 317.13 376.547 315.702 375.385C310.222 370.919 312.178 359.795 310.994 353.516C303.865 353.673 298.954 358.841 295.549 364.643C292.733 369.443 291.23 376.211 288.421 381.17C297.976 381.57 303.997 385.812 310.663 392.121C311.738 398.131 305.551 396.069 301.495 396.794C299.103 397.222 286.395 401.871 284.509 403.112C276.224 408.556 281.992 429.136 284.762 436.887C287.075 443.362 289.953 449.839 294.976 454.706V441.966C294.976 438.085 303.907 422.625 309.601 429.697C308.757 434.804 306.063 437.868 308.824 443.058C309.714 443.715 317.224 438.323 318.279 439.422C318.869 440.034 318.427 441.133 317.369 441.797C316.069 442.61 308.162 446.497 307.39 445.947C305.097 440.433 304.49 436.206 307.359 430.69C304.552 427.411 298.475 438.19 297.937 440.557C297.016 446.083 296.745 451.698 297.129 457.287C297.891 462.96 303.01 464.687 296.799 471.452C291.631 477.082 282.399 477.552 277.849 481.631C274.323 484.789 269.626 496.595 265.735 497.909C256.622 500.988 251.962 486.374 243.092 487.609C234.992 488.737 227.846 502.686 222.514 508.587C220.231 511.113 211.614 517.75 210.826 519.528C209.343 522.861 216.959 533.85 214.048 538.34C209.987 539.219 208.548 537.549 207.214 534.063C205.647 535.219 205.281 537.395 203.394 538.252C196.554 541.359 183.539 541.035 176.783 544.414C174.348 546.328 172.102 548.471 170.077 550.814C168.599 554.088 170.807 560.955 166.743 564.226C163.356 566.952 153.801 567.826 149.686 570.46C145.763 563.751 155.241 562.566 158.517 558.474C157.239 552.859 154.294 545.685 156.256 539.912C159.051 531.689 170.285 528.992 172.292 521.691C173.3 518.025 171.161 518.578 170.125 516.524C168.417 513.14 167.861 508.676 163.635 507.224C153.235 515.34 140.604 522.917 134.264 534.724L113.949 523.157L99.51 524.68L96.9 530.837L93.585 529.69C93.685 525.89 92.45 520.49 92.559 517.013C93.247 495.055 111.624 477.093 116.178 456.895C118.023 448.711 113.497 438.782 123.085 433.951C119.243 432.935 115.529 436.432 111.776 436.54C107.893 436.652 99.876 434.46 96.154 436.152C94.2852 437.682 92.6304 439.456 91.234 441.427C89.634 445.049 90.196 452.027 87.755 455.427C85.314 458.827 76.864 462.933 73.978 466.409C67.168 474.609 74.9 485.557 74.27 494.302C73.496 505.031 68.257 518.51 67.082 529.402C64.894 549.72 83.4 563.41 66.3 583.21C59.735 590.815 48.869 594.95 50.985 606.851H45.157C45.286 605.101 44.894 603.141 45.201 601.436C48.412 583.581 70.451 584.136 67.532 560.098C66.76 553.741 62.762 546.855 61.971 540.904C59.771 524.358 67.796 509.474 68.471 494.341C68.934 484.015 61.571 473.907 68.871 463.475C70.832 460.675 80.999 455.886 83.538 452.295C84.838 450.463 85.238 441.795 86.313 438.684C88.805 431.484 97.573 427.784 102.713 422.318C107.598 417.129 115.865 400.523 117.669 393.587C120.032 384.501 118.616 372.061 121.795 363.495C123.153 359.837 136.845 345.688 140.386 343.495C154.24 334.908 174.552 341.869 188.172 332.29C197.596 325.661 194.699 313.673 196.013 303.727C196.969 296.493 201.613 272.896 205.413 267.983C206.758 266.242 210.463 263.671 211.049 261.969C215.506 249.04 210.589 236.015 210.442 223.569C210.413 221.14 211.197 219.21 211.252 217.038C211.341 213.538 210.045 203.315 213.416 201.69C215.753 200.564 219.205 203.861 220.69 200.635C219.333 200.759 217.97 200.469 216.781 199.802C212.438 197.562 200.375 186.589 196.96 186.069C179.942 188.785 165.808 185.809 156.569 203.15C152.55 210.692 154.354 216.389 152.8 223.407C151.309 230.144 143.436 228.382 142.742 221.293C142.596 219.803 143.485 218.839 143.485 218.464V191.164C140.539 192.864 137.957 195.355 134.731 196.611C125.165 200.333 111.883 201.782 102.769 206.16C89.544 212.515 76.046 224.795 62.674 231.604C41.233 234.11 20.216 236.366 0 244.31V237.03C8.135 235.53 16.642 231.6 24.573 229.924C34.773 227.769 52.419 228.278 61.142 224.98C72.7 220.61 88.479 205.16 100.734 199.758C114.764 193.574 132.874 193.97 144.234 182.081C148.198 177.93 151.634 171.273 155.855 167.488C171.801 153.197 188.072 161.982 205.765 162.107C211.586 161.884 217.391 161.347 223.154 160.499C230.331 159.448 258.854 152.021 263.854 148.233C267.206 145.693 278.484 129.633 281.737 125.144C295.449 106.209 307.637 86.09 321.204 67.044C326.116 63 329.604 59.022 336.504 58.662C334.865 54.006 334.685 48.294 332.776 43.829C330.676 38.906 317.366 20.501 313.144 17.587C309.604 15.144 304.514 14.596 301.144 11.381C294.021 4.58102 302.257 -3.01897 311.401 1.12903C315.201 2.85503 323.72 10.435 326.856 11.208C328.662 11.5247 330.522 11.1735 332.089 10.22C332.816 9.66502 340.461 -4.73099 340.704 -5.91998C341.99 -12.199 339.115 -21.393 342.177 -27.02C343.37 -29.211 348.671 -35.026 350.719 -36.683C354.528 -39.764 366.38 -44.491 367.065 -48.767C367.505 -51.513 366.719 -52.997 363.836 -53.349C357.006 -52.391 348.761 -48.949 341.95 -49.019C324.256 -49.19 311.377 -54.314 301.674 -69.231C294.489 -80.277 289.664 -94.366 292.974 -107.506C293.953 -111.394 301.066 -119.334 304.667 -121.298C309.306 -123.828 326.367 -126.817 328.13 -130.625C330.008 -134.676 324.087 -137.425 320.259 -136.282C319.008 -135.907 313.768 -130.296 311.527 -129.001C304.313 -124.83 293.798 -124.682 289.006 -116.567C284.672 -109.228 285.906 -96.659 276.791 -93.104C272.578 -91.461 266.409 -91.683 262.563 -94.204C258.07 -97.147 242.296 -118.578 239.758 -123.826C235.098 -133.462 237.126 -145.891 236.033 -156.372C231.6 -158.29 228.3 -162.729 225.059 -166.29H227.973ZM548.9 -11.666C542.743 -16.413 536.828 -21.129 529.283 -23.734C526.37 -24.74 523.706 -25.476 520.577 -24.88C516.844 -24.169 495.099 -14.504 492.691 -11.986C488.473 -7.57498 484.991 3.04703 481.03 8.39102C478.199 12.211 473.25 15.925 470.514 20.077C474.393 18.8 476.958 15.569 480.726 13.911C482.576 13.097 489.526 10.835 491.368 10.683C502.698 9.74603 518.675 29.133 528.421 34.641L529.134 33.181C532.421 34.06 532.814 37.764 533.097 37.923C533.514 38.157 534.535 37.668 535.27 37.996C538.619 39.49 536.862 40.469 538.193 42.333C538.556 42.841 547.212 49.308 548.199 49.815C557.528 54.604 561.699 49.548 569.92 45.552L611.8 10.983L598.187 -2.33897C589.115 -1.91997 582.299 0.304016 573.061 -1.23898C561.994 -3.09299 557.526 -5.00998 548.899 -11.662M632.927 200.632L616.906 154.408C616.812 152.975 616.843 151.537 617 150.11C617.969 141.856 630.847 130.284 633.826 122.529C634.347 121.332 634.563 120.024 634.453 118.723C629.478 87.342 626.71 55.341 620.306 24.335L614.365 17.181C596.955 30.24 581.993 47.116 562.436 56.993C560.392 57.28 557.947 58.478 555.996 58.619C552.934 58.84 547.924 56.138 546.283 56.824C541.846 58.681 542.364 65.208 542.632 69.211C543.207 77.811 545.289 93.742 551.959 99.201L557.922 142.382C558.137 142.441 558.361 142.456 558.582 142.427C558.803 142.398 559.016 142.324 559.207 142.211C559.399 142.098 559.567 141.948 559.699 141.769C559.832 141.59 559.927 141.386 559.98 141.17C561.78 135.419 557.562 123.836 566.227 123.409C570.371 134.332 574.776 143.059 573.933 155.116C573.446 162.083 570.533 169.958 571 176.995C571.433 183.487 579.366 195.617 578.179 200.83C577.779 202.575 575.636 203.686 576.158 205.687C576.672 206.422 590.14 211.213 592.537 212.981C595.537 215.197 598.498 223.751 603.976 222.338C605.241 222.012 609.965 219.268 608.603 217.338C602.069 216.238 602.294 211.418 598.363 207.881C596.688 206.373 591.702 204.139 591.056 202.812C590.434 201.535 591.117 191.064 591.571 189.485C592.034 187.875 595.35 185.931 596.953 185.401C600.376 184.269 613.695 182.212 616.475 183.954L632.927 200.632ZM490.177 17.91C478.402 20.395 470.532 30.582 459.441 34.865L342.341 62.69L328.283 99.599C324.374 121.071 319.583 141.451 307.366 159.857C308.266 160.694 312.82 155.537 313.495 154.707C322.837 143.228 329.978 128.207 339.795 116.929C389.965 83.986 442.808 54.854 490.182 17.911M538.982 119.461C538.611 123.486 538.982 128.407 538.982 132.561C538.982 133.444 533.782 147.902 533.051 149.201C530.917 152.983 520.84 161.981 520.175 164.786C519.791 166.403 520.975 174.545 520.775 177.7C520.667 179.445 519.458 181.207 519.455 182.2C519.455 183.285 520.835 184.031 520.708 184.884C520.575 185.784 518.39 186.705 518.003 188.038C517.466 189.886 518.418 192.607 517.503 194.092C515.755 195.302 513.929 196.395 512.037 197.364C508.449 198.636 503.501 198.118 500.109 200.002C498.503 200.894 497.309 203.235 495.962 203.889C495.189 204.265 494.292 203.517 493.48 204.247C492.011 205.568 489.18 210.641 493.289 209.964C502.706 204.774 521.239 200.464 527.331 191.539C530 187.631 541.988 159.746 543.167 154.952C545.652 144.847 547.067 110.664 545.487 100.577C545.138 98.351 543.114 95.577 542.375 92.767C540.393 85.249 536.046 64.218 539.14 57.742C539.87 56.214 541.54 55.219 542.606 53.942L498.927 20.442C449.3 57.562 395.672 88.61 343.754 122.342C334.275 133.221 327.04 149.859 317.554 160.217C313.254 164.917 304.604 170.729 301.204 175.907C298.138 180.576 297.067 188.569 294.381 193.839C286.523 209.256 278.087 206.482 264.846 212.365C249.428 219.216 257.232 229.565 254.759 241.595C253.381 248.295 244.945 260.36 238.69 263.39C232.559 266.36 220.446 265.734 213.931 267.762C212.087 269.297 210.357 270.965 208.756 272.752C206.042 277.238 206.256 282.795 205.207 287.435C202.9 297.678 200.036 307.813 200.394 318.468C208.031 321.289 216.14 323.722 223.615 326.925C227.491 328.586 227.041 331.578 231.642 326.212C233.405 323.893 235.472 321.822 237.787 320.055C246.946 313.517 255.138 302.02 264.028 295.27C268.047 292.218 274.952 289.903 278.589 286.528C282.569 282.835 290.41 268.028 294.769 267.034C302.53 265.266 308.642 272.175 315.185 273.255C321.222 274.255 326.885 273.955 332.3 271.055C335.62 269.279 338.654 265.732 341.816 263.822C371.548 245.863 412.816 260.094 445.391 261.045C447.87 261.117 451.852 261.411 453.986 260.187C456.086 258.987 463.629 249.049 461.767 246.496C459.76 248.006 454.98 250.485 454.495 246.496C464.735 247.824 459.823 236.407 461.195 230.266C462.966 222.366 478.595 210.724 485.795 207.538C486.856 207.069 488.367 207.408 489.423 206.797C490.618 206.106 491.617 202.412 493.108 201.679C494.156 201.164 495.257 201.962 496.031 201.672C497.18 201.241 498.506 198.52 500.674 197.659C503.446 196.559 507.268 196.923 509.999 196.059C511.901 195.225 513.753 194.281 515.545 193.233C516.231 192.145 515.231 188.228 515.645 186.578C515.875 185.666 518.761 185.596 517.845 183.148L516.404 182.806C520.22 177.978 518.444 169.863 517.962 164.006C518.597 161.469 529.069 152.519 531.015 148.63C532.437 145.789 537.515 131.51 537.515 128.92V116.18H539.696C540.228 117.45 539.037 118.747 538.972 119.453M335.032 65.953C333.749 64.766 327.041 70.597 325.971 71.813C313.065 86.487 300.252 110.692 288.287 127.331C284.073 133.19 273.061 149.319 268.278 153.195C265.565 154.965 262.691 156.477 259.695 157.71C246.55 162.684 218.883 168.81 205.109 168.517C196.837 168.339 187.402 165.517 178.816 165.686C160.566 166.04 156.578 178.396 145.816 190.216C145.516 199.391 145.685 208.58 145.7 217.76C145.7 220.783 143.641 224.675 148.849 225.328C151.573 224.538 150.641 216.207 150.968 213.567C152.154 204.013 160.555 190.453 170.136 187.59C178.126 185.202 189.299 185.39 197.722 183.89C203.857 186.437 216.554 199.316 222.54 199.217C224.24 199.189 226.174 197.335 227.583 196.233C233.41 191.677 236.441 185.561 245.06 186.026L282.42 198.31C284.694 199.281 288.32 193.572 289.302 191.671C292.195 186.071 293.718 178.116 296.088 172.246C302.375 156.672 312.796 141.41 317.211 125.654C319.533 117.366 320.111 107.93 322.454 99.59C325.603 88.361 332.011 77.325 335.036 65.946M513.12 327.301H533.878C533.359 321.466 530.971 314.68 531.87 308.909C532.942 302.031 539.824 295.569 543.252 289.675C543.534 287.858 538.027 285.626 538.98 282.897C539.406 282.422 546.299 287.484 546.155 288.957C542.887 295.409 535.145 302.396 534.047 309.646C533.316 314.471 535.469 321.827 536.058 326.764C537.158 328.844 546.185 327.892 548.802 328.038C552.186 328.226 563.349 330.018 565.571 328.038L587.663 283.848L573.156 264.381L558.269 256.693L559.363 231.208L547.853 248.479C548.206 251.448 547.979 255.738 548.477 258.473C548.996 261.323 555.557 265.466 549.906 266.873C550.87 263.666 547.406 262.729 546.637 261.037C545.427 258.384 546.697 251.212 545.651 247.756L557.89 228.614C563.601 227.75 560.863 233.543 560.797 236.631C560.714 240.516 560.957 244.417 560.82 248.302C560.741 250.553 558.963 253.516 560.82 255.602C561.287 256.125 572.78 261.795 573.469 261.663L591.084 243.563L591.064 241.44C588.242 236.351 581.773 230.331 579.432 225.352C578.985 224.402 578.284 222.947 580.119 223.206C584.352 228.406 588.574 233.856 592.308 239.418C597.374 246.964 601.415 255.126 606.708 262.511L603.756 228.711C602.827 223.675 600.419 224.733 597.231 222.126C594.701 220.057 593.131 216.186 590.954 214.569C588.554 212.79 573.654 207.694 573.268 206.023C573.668 203.591 576.196 201.433 576.1 198.888C575.9 193.488 568.437 182.33 568.239 177C568.017 171.04 571.266 160.95 571.739 154.4C572.525 143.6 568.278 136.3 565.187 126.386C564.972 126.327 564.748 126.313 564.528 126.342C564.308 126.372 564.095 126.446 563.904 126.559C563.713 126.673 563.546 126.824 563.415 127.003C563.283 127.182 563.188 127.386 563.137 127.602C562.043 131.043 564.352 144.662 559.009 144.657C556.065 144.657 555.548 142.084 555.074 139.776C552.728 128.337 552.528 115.385 550.264 103.808C549.175 113.808 550.464 124.043 549.93 134.058C549.638 139.584 548.723 150.558 547.541 155.695C546.311 161.043 533.892 189.768 530.841 194.33C525.656 202.081 502.796 210.93 493.591 214.609C486.27 217.532 478.506 217.82 473.477 225.128C473.317 226.043 478.269 230.805 479.297 231.534C480.997 232.742 495.286 240.4 496.545 240.578C498.686 240.878 503.075 235.468 504.011 240.678L496.731 243.309C490.593 239.37 482.709 236.781 477.057 232.318C475.568 231.142 472.229 226.283 470.516 227.17C469.647 227.62 467.087 230.479 466.882 231.595C465.849 237.195 467.24 247.895 465.816 252.37C465.504 253.348 458.116 262.454 457.042 263.256C450.429 268.209 436.774 263.664 428.994 263.256C435.329 271.914 438.531 282.186 443.094 291.814C444.001 293.114 441.926 296.719 441.012 297.462C437.679 300.171 423.681 297.684 421.28 299.578C417.08 302.896 427.071 318.554 428.614 322.96C432.926 335.267 414.805 338.407 412.977 349.149C433.729 341.798 455.537 336.738 477.677 336.658C479.606 332.92 480.799 328.351 482.868 324.741C486.806 317.867 494.068 310.993 497.78 303.974C502.252 295.52 500.746 281.994 501.829 272.349C502.264 268.476 503.429 267.399 506.54 265.41C509.676 263.41 521.372 259.077 522.891 256.994C525.157 253.888 521.224 252.474 521.615 249.254C521.794 247.781 527.546 235.411 528.625 233.612C531.276 229.192 537.86 225.365 540.44 221.397C542.13 218.797 542.072 215.145 544.053 212.633C544.67 211.851 548.005 209.233 548.79 209.373C551.91 209.92 545.997 213.644 545.617 214.196C544.303 216.104 544.167 219.596 542.925 221.696C538.475 229.238 531.725 231.159 526.696 242.602C526.125 243.902 523.89 248.444 523.779 249.228C523.335 252.358 528.869 253.534 524.72 258.104C521.199 261.982 505.905 266.451 504.391 269.81C503.028 278.81 504.266 289.624 502.385 298.381C499.727 310.753 483.777 321.928 480.756 335.01C480.513 336.06 480.688 336.274 481.756 336.01C492.246 333.387 502.819 330.61 513.122 327.31M615.35 185.442C611.055 185.28 596.917 186.225 594.338 189.35C593.045 190.917 593.399 198.893 592.859 201.57C593.08 202.45 599.389 205.342 600.543 206.43C603.715 209.422 604.369 215.31 610.971 216.021C611.977 220.948 608.317 222.646 604.507 224.314C604.83 225.642 605.701 226.565 605.94 227.973C607.952 239.809 607.389 253.096 609.646 265.036C610.186 266.536 621.255 280.861 622.332 281.476C624.348 282.625 626.325 282.115 628.566 282.163L615.35 185.442ZM281.869 199.91L244.362 188.199C237.147 187.899 233.423 194.499 228.321 198.431C224.266 201.553 219.426 205.968 214.143 203.538C212.831 208.116 213.52 213.024 213.437 217.768C213.255 228.103 215.725 237.71 215.617 246.822C215.589 249.19 212.617 261.691 213.41 262.509C219.76 260.862 229.6 260.999 235.437 258.687C237.179 257.551 238.827 256.277 240.366 254.878C255.482 241.524 243.941 226.187 253.143 213.778C259.343 205.41 274.317 205.92 281.87 199.913M643.78 268.261C643.759 261.572 643.826 254.894 645.823 248.446L635.186 206.02L619.1 190.436L629.3 271.244L643.78 268.261ZM490.18 211.546L487.237 208.946C483.302 211.411 478.137 212.395 475.614 216.646C477.242 216.846 477.673 215.246 479.078 214.656C482.684 213.309 486.397 212.27 490.178 211.549M474.883 217.388C473.353 217.197 472.018 218.956 471.242 220.288C472.772 220.479 474.107 218.72 474.883 217.388ZM593.238 245.05C589.038 250.633 579.719 256.688 576.079 262.111C575.623 262.79 575.132 263.278 575.469 264.185C584.78 275.842 592.738 289.39 607.7 294.427L620.539 282.527C616.217 277.817 612.561 272.549 608.552 267.584C607.444 266.212 605.752 265.569 604.636 264.218C602.55 261.687 594.353 245.061 593.236 245.049M646.036 255.591C645.427 257.982 646.036 265.566 646.036 268.691C646.036 270.896 632.486 272.231 630.054 272.732C631.179 278.432 629.923 285.732 630.914 291.085C631.819 295.98 638.372 300.815 641.658 304.576C649.319 313.346 656.966 322.136 664.597 330.945C664.976 331.38 666.522 333.392 667.163 332.745L662.695 321.195L647.484 254.495C647.312 254.275 646.106 255.307 646.034 255.587M386.752 351.325V325.48C394.688 321.584 403.793 320.791 412.283 323.257C416.557 324.536 420.001 330.357 423.533 333.109C432.404 325.674 419.752 313.162 417.647 304.733C417.069 302.419 418.527 298.573 420.583 297.417C424.441 295.247 434.342 297.892 438.673 296.734C440.342 296.288 440.743 292.524 440.316 290.883C439.343 287.143 434.046 276.069 432.037 272.208C431.402 270.988 426.784 263.398 426.274 263.241L384.231 258.841L361.701 260.283C361.009 268.234 354.553 267.341 349.274 271.283L336.81 304.688C325.691 309.124 323.457 319.409 316.81 327.654C314.11 331.006 300.149 342.807 300.334 345.866C301.772 348.133 304.116 351.947 306.981 352.122C311.381 352.391 321.581 348.346 326.735 347.766C333.635 346.991 342.123 347.852 349.267 347.719C359.037 347.538 368.262 346.341 378.308 347.751C381.381 348.182 384.001 350.117 386.747 351.329M358.338 261.788C357.876 261.276 346.758 266.044 345.468 266.753C341.376 268.999 338.22 272.843 334.074 275.02C327.696 278.371 322.986 278.858 315.935 277.599C312.996 276.975 310.124 276.071 307.358 274.899C310.783 276.937 306.343 283.875 304.448 282.168C304.348 280.389 306.133 279.378 305.925 277.468C305.538 273.901 299.492 269.914 295.725 271.631C292.855 272.937 284.642 287.06 280.432 290.563C276.203 294.082 269.908 296.212 265.5 299.663C256.806 306.463 246.39 318.221 238.18 326.228C234.7 329.61 225.716 335.087 226.508 340.71C226.569 341.14 230.119 347.884 230.541 348.394C231.341 349.362 231.153 349.209 231.995 348.429C233.429 347.1 233.865 344.029 235.761 343.455C237.403 342.96 243.07 343.155 245.077 343.326C258.489 344.489 269.991 350.712 282.33 355.471L302.989 353.503C303.861 352.786 298.337 347.952 298.016 346.408C297.632 344.561 299.761 343.186 299.291 341.608C298.902 340.308 295.482 339.502 294.397 337.708C293.888 336.866 290.946 327.671 291.342 327.301L293.591 327.721C293.938 331.203 298.052 342.088 302.659 338.992C304.617 337.677 313.724 328.333 315.374 326.204C321.756 317.971 323.853 307.936 334.646 303.243L347.528 270.255C348.334 267.518 357.696 265.461 358.217 264.565C358.624 263.865 358.247 262.642 358.342 261.779M670.805 341.119L631.478 297.082C628.978 292.461 626.549 287.708 622.272 284.396C620.382 284.065 611.172 296.45 608.515 296.729C603.123 297.294 593.57 288.002 589.241 285.073L568.115 327.664C568.366 328.515 569.705 327.88 570.336 327.7C581.059 324.641 593.798 318.072 604.936 321.427C620.136 326.005 634.261 336.39 650.821 340.356C657.381 341.927 664.274 343.248 670.806 341.118M628.56 284.352H625.65L628.203 287.252L628.56 284.352ZM200.3 320.75C201.536 326.835 196.144 329.95 193.915 334.95C196.982 337.861 200.098 343.583 205.201 341.301L225.058 330.565L223.288 328.71L200.3 320.75ZM649.686 341.86C644.469 340.715 639.359 339.124 634.414 337.105C626.253 333.861 605.543 322.188 598.337 322.215C595.942 322.224 593.176 323.659 590.69 323.66V337.128C590.69 338.238 588.44 342.513 588.558 345.085C588.758 349.453 594.585 355.811 595.048 359.767C595.433 363.058 593.202 366.834 593.601 370.252C597.542 369.664 601.754 371.714 605.608 370.961C607.919 370.51 608.899 367.375 611.602 366.766C623.244 364.144 638.038 370.718 649.687 371.708L649.686 341.86ZM389.039 352.679C391.684 353.025 395.671 355.739 398.039 355.739C399.296 355.739 407.592 352.067 408.873 351.234C411.654 349.426 411.243 345.595 412.961 342.944C414.143 341.12 421.699 335.629 421.697 334.944C419.162 332.935 415.307 326.279 412.433 325.289C405.333 322.842 396.684 324.363 389.633 326.177L389.039 352.679ZM587.768 324.386C580.914 325.691 572.983 330.07 566.211 330.862C557.55 331.875 548.911 329.533 540.349 330.636L537.515 341.852L551.189 345.673C552.461 349.173 553.222 353.62 554.87 356.915C557.039 361.253 562.134 365.308 564.37 369.265C565.428 371.142 565.925 375.657 567.57 376.338C575.526 376.302 583.37 371.538 591.32 370.154C591.157 367.227 593.077 362.454 592.731 359.854C592.264 356.337 586.49 349.754 586.272 345.131C586.006 339.497 590.989 330.931 587.772 324.386M225.792 335.316C224.838 334.516 207.592 345.678 204.258 346.187C197.016 347.287 195.668 340.993 190.363 337.606L174.382 343.255L154.415 344.055C159.975 350.472 172.307 341.974 170.269 355.881C168.806 365.862 151.308 404.024 143.898 410.341C142.22 411.771 139.675 412.086 138.788 413.241C136.597 416.101 135.241 423.16 132.564 426.305C133.864 426.582 134.347 425.636 135.125 424.868C137.625 422.394 139.805 418.112 142.29 415.65C146.168 411.809 153.026 408.616 156.596 404.833C159.077 402.205 162.09 395.077 164.663 393.24C165.935 392.332 175.663 389.916 177.357 389.913C183.344 389.902 191.701 397.366 193.777 402.618C196.594 409.744 192.177 419.095 192.224 426.673C192.233 428.21 193.596 440.513 194.175 440.943C194.643 441.229 195.17 441.405 195.717 441.457C196.263 441.509 196.814 441.436 197.328 441.243C202.328 439.62 212.103 429.808 216.115 428.653C218.934 427.842 224.284 428.759 227.606 428.491C230.63 428.246 242.727 427.305 244.406 426.354C245.172 425.92 249.806 421.047 249.728 420.254C248.84 418.401 247.589 417.076 246.88 415.068C245.601 411.443 242.894 401.068 242.601 397.468C242.183 392.319 245.214 386.546 244.645 381.259C240.134 379.808 237.36 378.125 233.099 381.57C230.499 383.675 231.393 386.351 226.099 384.147C221.199 382.108 216.356 366.924 216.358 361.776C216.358 356.096 227.958 354.293 228.614 352.302C230.088 347.802 220.661 340.671 225.793 335.325M651.876 342.598V370.262L675.511 368.052L699.463 371.017C700.602 370.742 702.205 357.036 700.685 355.328C700.385 354.987 693.827 351.528 692.678 350.955C688.923 349.066 675.417 343.246 671.938 343.301C669.275 343.343 665.225 344.77 662.519 344.701C659.484 344.628 654.998 343.162 651.876 342.594M549.014 347.128C548.277 346.407 537.599 343.86 536.796 344.369C533.996 347.759 532.974 355.044 529.896 357.9C526.818 360.756 514.52 364.405 512.705 366.926C511.578 368.491 511.944 371.162 512.154 373.055C514.692 374.484 521.535 376.369 520.473 379.744C519.944 381.426 518.889 382.244 517.135 381.903L518.587 378.278C513.43 376.225 507.371 374.932 509.841 368.078C500.148 374.352 488.117 375.864 476.703 374.635C470.422 373.959 467.698 371.235 460.05 371.813C455.022 372.195 442.837 373.983 439.608 377.587C434.499 383.287 434.239 389.301 425.149 392.987C420.692 394.792 415.6 394.073 411.349 397.917C409.874 399.251 401.149 414.202 400.067 416.693C398.556 420.156 396.374 427.157 397.299 430.714C399.669 439.828 406.042 443.223 404.194 455.033C403.886 456.999 399.975 462.017 402.159 463.35C403.515 463.666 404.928 463.645 406.273 463.287C406.898 462.938 413.283 453.481 414.792 451.794C417.675 448.586 420.867 445.669 424.322 443.086C421.189 438.245 419.113 431.396 422.429 425.939C423.673 423.892 434.985 413.022 437.395 411.05C440.695 408.35 448.524 402.981 452.674 402.969C456.637 402.956 460.615 405.169 464.893 404.316C468.971 403.498 476.633 396.416 479.745 395.922C483.845 395.266 489.487 401.009 492.845 402.872C495.368 403.104 505.684 394.29 510.264 393.603C515.846 392.765 523.864 397.603 529.711 397.819C535.128 394.4 539.971 388.219 545.295 384.947C550.838 381.537 558.332 379.83 564.18 376.847C563.897 369.006 555.86 363.992 552.693 357.658C551.608 355.488 549.993 348.096 549.017 347.137M98.327 433.582C103.059 432.725 108.627 434.907 113.086 434.142C118.608 433.195 126.895 429.684 130.356 425.199C133.421 421.227 134.656 414.865 137.311 411.766C138.844 409.977 140.765 410.221 142.411 408.857C149.061 403.347 166.525 364.957 168.071 355.888C169.848 345.467 161.779 349.588 155.701 347.488C153.844 346.845 152.607 344.605 150.586 344.888C149.263 345.071 144.399 347.498 143.123 348.423C140.746 350.147 129.817 361.008 128.183 363.338C124.109 369.147 125.21 388.938 121.983 397.912C118.965 406.312 112.562 420.502 106.366 426.712C104.014 429.067 100.124 430.471 98.324 433.592M299.343 355.706C293.564 356.382 286.602 357.893 280.843 357.096C274.621 356.235 264.77 349.788 257.986 347.909C253.124 346.562 241.094 344.337 236.492 345.499C235.773 348.655 232.492 349.743 231.292 351.384C230.563 352.384 230.68 354.026 229.973 354.801C228.247 356.695 221.087 356.79 219.605 360.082C217.132 365.582 222.573 378.639 227.195 382.362C229.828 383.362 230.795 380.31 232.807 379.105C238.651 375.605 241.731 377.928 247.335 380.432C247.913 381.25 244.676 394.063 244.772 396.732C244.887 399.92 247.523 409.89 248.572 413.377C248.843 414.282 249.452 416.719 250.542 416.857C251.984 410.41 250.792 398.768 255.334 393.615C256.153 392.686 271.441 381.915 272.434 381.584C276.37 380.247 283.291 382.53 286.215 380.071C288.37 378.258 291.48 367.284 293.374 363.93C294.059 362.717 299.934 356.273 299.347 355.712M738.547 360.812L693.386 348.42L703.612 354.72C702.064 360.93 706.163 373.328 697.39 373.22C690.406 373.135 681.966 370.511 674.813 370.181L651.865 372.438L655.137 400.838C655.537 401.527 667.515 406.695 668.999 406.681C670.923 406.662 682.799 400.59 685.629 399.264C700.575 392.264 715.189 384.474 730.173 377.539C734.817 374.384 737.356 366.139 738.546 360.792M664.977 407.392L652.928 402.321L650.422 375.706L649.182 374.034C639.988 373.199 620.237 365.249 612.119 368.744C610.194 369.573 608.341 372.593 606.931 373.016C603.607 374.016 595.237 371.853 590.387 372.502C584.703 373.263 577.63 377.255 571.752 378.274C571.719 378.973 571.92 379.664 572.324 380.236C575.413 386.88 584.061 400.18 591.389 401.977C594.02 402.622 603.658 399.349 604.528 404.108C604.982 406.595 604.097 409.8 604.628 412.381C607.609 412.867 610.446 415.227 613.228 415.798C627.373 418.698 649.271 413.313 663.089 408.768C663.889 408.504 664.852 408.545 664.981 407.394M603.193 413.821L602.756 404.427C601.683 402.886 592.516 404.26 589.778 403.567C586.807 402.016 583.961 400.236 581.267 398.242C576.813 394.142 572.985 384.101 569.217 378.987L567.729 378.225C566.861 378.16 565.99 378.288 565.178 378.601C559.07 380.759 553.11 383.316 547.336 386.253C543.58 388.453 532.451 399.753 529.836 400.125C524.52 399.971 516.611 395.463 511.673 395.691C506.062 395.95 497.23 405.072 493.327 405.779C490.852 406.227 486.067 398.215 480.339 398.587C476.796 398.817 469.522 405.672 465.615 406.487C461.292 407.392 456.851 405.005 452.667 405.13C449.041 405.238 440.688 411.109 437.73 413.561C435.665 415.272 423.456 427.469 423.188 428.875C422.588 432.033 422.899 438.099 425.688 440.199C428.454 442.286 431.741 437.393 434.313 438.056C440.846 441.642 435.686 446.729 435.513 452.15C435.365 456.726 437.613 463.124 436.979 467.392C436.43 471.11 430.594 478.256 430.536 481.261C430.448 485.767 437.649 497.567 438.408 503.175C439.177 508.866 436.66 511.558 435.88 516.575C442.388 522.146 454.168 529.483 454.972 515.375C455.595 504.436 453.639 491.81 454.51 480.549C455.136 472.457 457.896 453.078 462.51 447.049C467.64 440.349 474.338 439.038 482.175 437.213L475.128 432.278C473.297 431.955 469.036 436.354 465.428 435.46C460.107 434.141 452.292 427.76 446.491 426.291C446.099 425.769 447.097 424.161 447.577 424.135C449.484 424.029 463.577 433.772 466.906 433.29C469.338 432.938 472.922 429.883 475.283 429.996C477.536 430.104 483.069 436.016 486.159 435.783L541.628 422.749C553.582 421.633 565.311 426.983 577.254 426.327L620.562 419.014L610.936 417.362L603.193 413.821ZM276.263 479.675C278.868 477.339 288.208 475.166 292.021 472.491C296.68 469.222 298.806 465.859 296.002 460.591C291.473 452.091 286.275 448.067 282.572 437.617C279.451 428.807 273.599 406.517 283.859 400.995C288.443 398.823 293.177 396.984 298.026 395.495C299.685 395.066 308.859 394.258 308.804 393.178C305.591 391.491 302.404 387.324 299.395 385.853C294.353 383.387 279.672 382.377 274.255 383.384C272.762 383.661 259.255 393.095 257.806 394.607C252.475 400.16 253.984 414.087 252.206 421.467C257.276 431.595 268.346 440.778 273.757 450.078C274.211 450.859 274.816 451.564 274.257 452.491C272.609 453.606 265.35 462.791 263.663 461.243C263.925 457.987 272.323 453.568 271.596 450.834L257.845 434.642L221.774 463.43C216.717 469.142 213.407 479.048 208.628 484.507C206.868 486.518 203.698 487.725 202.14 489.67C198.273 494.496 194.94 504.829 191.048 509.138C188.429 512.038 188.38 509.738 189.648 507.027C192.597 500.933 195.952 495.045 199.692 489.402C201.904 486.38 204.937 485.482 206.866 483.265C213.717 475.388 215.597 465.645 224.721 457.636C234.152 449.356 245.505 441.864 255.303 433.568C255.805 433.128 256.442 432.873 257.109 432.845L250.924 423.401L243.624 429.201L216.865 430.847C214.241 433.053 205.424 437.218 205.365 440.464C205.336 441.97 206.265 443.578 206.165 445.564C205.931 450.485 198.093 458.586 195.349 463.21C192.501 468.01 190.629 474.672 187.804 478.965C184.948 483.305 179.028 485.838 177.322 492.541C175.932 498.004 179.457 510.796 177.322 517.264C177.038 518.124 171.995 527.585 171.483 528.173C169.683 530.241 165.434 531.557 163.509 533.307C161.553 535.779 159.789 538.396 158.233 541.138C156.593 547.481 160.385 553.614 160.894 559.763C160.404 561.295 149.764 565.736 151.51 567.536C154.987 565.519 165.321 564.254 166.624 560.446C167.615 557.546 166.943 552.962 168.075 550.246C168.475 549.283 174.637 542.969 175.59 542.47C181.901 539.17 195.19 539.2 202.29 536.456L207.219 529.693L210.507 536.228L212.348 535.509L207.917 518.776C212.011 515.076 216.602 511.951 220.339 507.847C226.212 501.396 233.513 487.175 242.354 485.416C251.364 483.623 257.987 497.216 263.994 496.194C267.776 495.55 273.241 482.382 276.268 479.668M190.027 424.768C190.555 418.712 193.757 409.512 191.965 403.696C191.622 402.583 183.628 394.221 182.476 393.523C178.668 391.215 169.4 392.83 166.022 395.316C163.266 397.344 160.753 403.516 158.049 406.276C151.877 412.576 143.641 415.703 138.072 424.165C136.172 427.052 137.78 427.914 140.23 429.925C146.747 435.274 151.222 432.275 158.477 433.525L168.054 424.232L190.027 424.768ZM190.097 427.039L168.763 426.42L159.138 435.774C152.703 434.3 147.381 437.183 141.049 433.474C138.824 432.174 137.196 428.664 134.333 428.49C133.451 428.436 126.261 431.576 125.744 432.054C124.983 432.754 125.365 434.243 124.598 435.434C123.754 436.745 119.535 439.594 119.445 439.924C118.155 444.682 119.366 451.53 118.554 456.342C117.436 462.965 111.259 472.423 109.363 479.266C109.005 481.81 114.999 485.761 117.04 487.319C119.331 489.07 132.697 499.032 134.059 499.497C134.566 499.67 134.923 499.997 135.459 499.515C144.34 491.423 152.165 482.756 162.932 477.045L181.477 440.252L191.554 440.858L190.097 427.039ZM182.937 442.439L164.943 477.97C161.3 481.547 155.713 483.68 151.861 486.734C146.714 490.813 142.625 497.243 136.944 500.934L154.91 510.649C156.262 510.765 160.635 505.967 162.458 505.313C168.62 503.104 172.006 516.952 173.721 517.313C174.931 517.421 175.344 516.521 175.527 515.493C176.81 508.301 174.144 499.131 175.147 491.816C176.818 485.345 183.181 481.534 186.334 476.791C188.911 472.913 190.424 467.167 192.87 462.94C197.086 455.654 206.197 449.179 203.201 440.149C202.982 439.87 198.483 443.637 197.063 443.711C194.156 443.862 185.316 440.963 182.93 442.452M95.413 513.31C94.888 517.724 95.797 522.987 95.413 527.51C97.043 526.621 95.719 523.333 98.083 522.534C100.905 521.58 108.823 522.697 112.421 521.58C112.795 521.49 113.125 521.268 113.349 520.955C113.572 520.642 113.676 520.258 113.64 519.875C112.991 512.981 109.676 504.694 109.264 498.015C108.947 492.873 112.05 486.205 108.159 482.388C107.311 482.415 100.003 495.44 99.422 496.937C97.7116 502.296 96.3721 507.767 95.413 513.31ZM133.983 531.846C133.144 526.479 152.907 513.946 152.939 512.582C138.529 505.133 125.47 495.938 112.173 486.738C110.649 498.383 113.857 509.565 116.222 520.903C116.701 521.908 117.7 522.337 118.485 523.009C122.742 526.14 127.208 528.974 131.854 531.492C132.496 531.868 133.254 531.994 133.983 531.846ZM426.083 598.846C426.866 594.139 423.516 592.424 420.267 590.114C419.674 591.641 424.626 600.571 426.083 598.846Z" fill="white"/>
</g>
</svg>
