<svg preserveAspectRatio="none" width="100%" height="100%" overflow="visible" style="display: block;" viewBox="0 0 277.597 239.47" fill="none" xmlns="http://www.w3.org/2000/svg">
<path id="&#227;&#131;&#145;&#227;&#130;&#185; 225" d="M61.7911 193.769C70.7821 203.844 79.4371 213.475 91.5501 219.851C105.797 227.351 144.236 242.692 159.535 238.867C199.163 228.96 235.455 192.523 248.182 155.253C254.169 137.718 260.73 120.16 269.666 103.864C279.324 86.2542 279.55 67.6642 273.634 48.5082C270.621 38.7522 262.481 31.8882 254.569 26.1532C245.976 19.9232 237.93 14.3002 228.149 9.99123C217.857 5.45823 206.102 1.39122 194.81 0.507225C181.71 -0.519775 168.12 0.315226 154.987 0.407226C108.444 0.744226 55.3201 4.07723 17.8551 34.9562C11.5191 40.1772 0.755104 50.5452 0.193104 59.1982C-0.201564 65.5748 0.00904452 71.9744 0.822104 78.3112C3.3221 98.0112 9.3221 114.249 19.1121 131.538C24.4791 141.019 28.6771 151.249 34.9841 160.184C43.2745 171.878 52.2247 183.09 61.7911 193.765V193.769Z" fill="var(--fill-0, white)" fill-opacity="0.3"/>
</svg>
