<svg preserveAspectRatio="none" width="100%" height="100%" overflow="visible" style="display: block;" viewBox="0 0 366.968 230.151" fill="none" xmlns="http://www.w3.org/2000/svg">
<path id="&#227;&#131;&#145;&#227;&#130;&#185; 291" d="M229.273 0.00123596C218.001 0.00151029 207.119 4.12948 198.683 11.6055C190.246 19.0815 184.84 29.3879 183.484 40.5782C182.129 29.3876 176.723 19.0807 168.286 11.6044C159.85 4.12805 148.968 0 137.695 0C126.423 0 115.541 4.12805 107.105 11.6044C98.6685 19.0807 93.2621 29.3876 91.907 40.5782C90.4933 28.9134 84.6807 18.2279 75.6558 10.7033C66.631 3.17871 55.0744 -0.617529 43.3454 0.0895996C31.6165 0.796728 20.5997 5.95389 12.5442 14.5082C4.48871 23.0626 0.00197811 34.369 0 46.1192C0 46.3012 0 46.4852 0 46.6672C0 95.3302 19.3313 142 53.7412 176.41C88.1511 210.82 134.821 230.151 183.484 230.151C232.147 230.151 278.817 210.82 313.227 176.41C347.637 142 366.968 95.3302 366.968 46.6672C366.968 46.4852 366.968 46.3012 366.968 46.1192C366.966 34.369 362.479 23.0626 354.424 14.5082C346.368 5.95389 335.351 0.796728 323.623 0.0895996C311.894 -0.617529 300.337 3.17871 291.312 10.7033C282.287 18.2279 276.475 28.9134 275.061 40.5782C273.705 29.3881 268.299 19.0818 259.863 11.6058C251.427 4.12984 240.545 0.00175466 229.273 0.00123596Z" fill="var(--fill-0, white)" fill-opacity="0.3"/>
</svg>
