<svg width="715" height="359" viewBox="0 0 715 359" fill="none" xmlns="http://www.w3.org/2000/svg">
<path d="M265.39 253.233C274.381 263.308 283.036 272.939 295.149 279.315C309.396 286.815 347.835 302.156 363.134 298.331C402.762 288.424 439.054 251.987 451.781 214.717C457.768 197.182 464.329 179.624 473.265 163.328C482.923 145.718 483.149 127.128 477.233 107.972C474.22 98.2161 466.08 91.3521 458.168 85.6171C449.575 79.3871 441.529 73.7641 431.748 69.4551C421.456 64.9221 409.701 60.8551 398.409 59.9711C385.309 58.9441 371.719 59.7791 358.586 59.8711C312.043 60.2081 258.919 63.5411 221.454 94.4201C215.118 99.6411 204.354 110.009 203.792 118.662C203.398 125.039 203.608 131.438 204.421 137.775C206.921 157.475 212.921 173.713 222.711 191.002C228.078 200.483 232.276 210.713 238.583 219.648C246.874 231.342 255.824 242.554 265.39 253.229V253.233Z" fill="white" fill-opacity="0.3"/>
<path d="M166.02 284.737C179.269 287.374 191.982 289.859 205.499 287.661C221.397 285.077 261.345 274.194 271.267 261.928C296.965 230.157 304.028 179.196 291.76 141.755C285.988 124.141 280.66 106.162 277.989 87.762C275.105 67.8775 264.094 52.8881 247.836 41.1439C239.555 35.1626 228.919 34.5786 219.145 34.7593C208.529 34.9546 198.715 35.3055 188.306 37.7508C177.354 40.3247 165.513 44.1516 155.959 50.2431C144.873 57.3087 134.518 66.1571 124.08 74.1367C87.0949 102.425 46.6553 137.069 35.3099 184.295C33.3905 192.281 31.0316 207.045 35.7916 214.297C39.315 219.629 43.3358 224.616 47.8002 229.189C61.6571 243.425 76.2264 252.787 94.4566 260.707C104.452 265.051 113.965 270.698 124.383 274.04C138.047 278.393 151.948 281.963 166.018 284.734L166.02 284.737Z" fill="white" fill-opacity="0.3"/>
<path d="M515.02 284.737C528.269 287.374 540.982 289.859 554.499 287.662C570.397 285.077 610.345 274.194 620.267 261.928C645.965 230.157 653.028 179.196 640.76 141.755C634.988 124.141 629.66 106.162 626.989 87.762C624.105 67.8775 613.094 52.8881 596.836 41.1438C588.555 35.1626 577.919 34.5786 568.145 34.7594C557.529 34.9546 547.715 35.3055 537.306 37.7508C526.354 40.3247 514.513 44.1516 504.959 50.2431C493.873 57.3087 483.518 66.1571 473.08 74.1367C436.095 102.425 395.655 137.069 384.31 184.295C382.39 192.281 380.032 207.045 384.792 214.297C388.315 219.629 392.336 224.616 396.8 229.189C410.657 243.425 425.226 252.787 443.457 260.707C453.452 265.051 462.965 270.698 473.383 274.04C487.047 278.393 500.948 281.963 515.018 284.734L515.02 284.737Z" fill="white" fill-opacity="0.3"/>
</svg>
