<svg preserveAspectRatio="none" width="100%" height="100%" overflow="visible" style="display: block;" viewBox="0 0 277.709 239.566" fill="none" xmlns="http://www.w3.org/2000/svg">
<path id="&#227;&#131;&#145;&#227;&#130;&#185; 228" d="M61.816 193.847C70.8106 203.926 79.4691 213.561 91.5869 219.94C105.84 227.443 144.294 242.79 159.599 238.963C199.243 229.052 235.55 192.601 248.282 155.316C254.271 137.774 260.835 120.209 269.775 103.906C279.437 86.2889 279.663 67.6915 273.744 48.5278C270.73 38.7678 262.587 31.9011 254.672 26.1638C246.075 19.9312 238.026 14.306 228.241 9.99525C217.945 5.46042 206.185 1.39178 194.889 0.507429C181.783 -0.519984 168.188 0.315353 155.049 0.40739C108.488 0.744526 55.3424 4.07887 17.8623 34.9703C11.5237 40.1934 0.755408 50.5656 0.193182 59.222C-0.201645 65.6012 0.00904816 72.0034 0.822435 78.3427C3.32344 98.0507 9.32586 114.295 19.1198 131.591C24.489 141.076 28.6886 151.31 34.9982 160.249C43.292 171.947 52.2457 183.164 61.816 193.843V193.847Z" fill="var(--fill-0, white)" fill-opacity="0.3"/>
</svg>
