<svg preserveAspectRatio="none" width="100%" height="100%" overflow="visible" style="display: block;" viewBox="0 0 47 47" fill="none" xmlns="http://www.w3.org/2000/svg">
<g id="&#227;&#130;&#176;&#227;&#131;&#171;&#227;&#131;&#188;&#227;&#131;&#151; 139">
<path id="&#227;&#131;&#145;&#227;&#130;&#185; 229" d="M23.5 47C28.1479 47 32.6913 45.6218 36.5559 43.0395C40.4205 40.4573 43.4325 36.7871 45.2112 32.4931C46.9898 28.199 47.4552 23.4739 46.5485 18.9154C45.6417 14.3568 43.4035 10.1695 40.117 6.883C36.8305 3.59647 32.6432 1.35831 28.0846 0.451556C23.5261 -0.455196 18.801 0.0101823 14.5069 1.78884C10.2129 3.5675 6.54268 6.57955 3.96046 10.4441C1.37825 14.3087 0 18.8522 0 23.5C0 29.7326 2.47589 35.7099 6.88299 40.117C11.2901 44.5241 17.2674 47 23.5 47Z" fill="var(--fill-0, #CCEFE7)"/>
</g>
</svg>
