<svg preserveAspectRatio="none" width="100%" height="100%" overflow="visible" style="display: block;" viewBox="0 0 47 47" fill="none" xmlns="http://www.w3.org/2000/svg">
<g id="&#227;&#130;&#176;&#227;&#131;&#171;&#227;&#131;&#188;&#227;&#131;&#151; 127">
<path id="&#227;&#131;&#145;&#227;&#130;&#185; 229" d="M23.5 47C28.1479 47 32.6913 45.6218 36.5559 43.0395C40.4205 40.4573 43.4325 36.7871 45.2112 32.4931C46.9898 28.199 47.4552 23.4739 46.5485 18.9154C45.6417 14.3568 43.4035 10.1695 40.117 6.883C36.8305 3.59647 32.6432 1.35831 28.0846 0.451556C23.5261 -0.455196 18.801 0.0101823 14.5069 1.78884C10.2129 3.5675 6.54268 6.57955 3.96046 10.4441C1.37825 14.3087 0 18.8522 0 23.5C0 29.7326 2.47589 35.7099 6.88299 40.117C11.2901 44.5241 17.2674 47 23.5 47Z" fill="var(--fill-0, #CCEFE7)"/>
<path id="&#227;&#131;&#145;&#227;&#130;&#185; 230" d="M24.675 9.987C24.675 9.475 24.4716 8.98397 24.1096 8.62193C23.7475 8.25989 23.2565 8.0565 22.7445 8.0565C22.2325 8.0565 21.7415 8.25989 21.3794 8.62193C21.0174 8.98397 20.814 9.475 20.814 9.987V38.943H24.675V9.987Z" fill="var(--fill-0, #2CA4A8)"/>
<path id="&#227;&#131;&#145;&#227;&#130;&#185; 231" d="M22.718 8.056V38.943H20.788V9.987C20.7879 9.73347 20.8377 9.48239 20.9346 9.24811C21.0316 9.01384 21.1737 8.80096 21.3529 8.62164C21.5322 8.44231 21.745 8.30006 21.9792 8.20301C22.2134 8.10595 22.4645 8.056 22.718 8.056Z" fill="var(--fill-0, white)"/>
<path id="&#227;&#131;&#145;&#227;&#130;&#185; 232" d="M30.544 20.553C30.477 20.5867 30.403 20.6041 30.328 20.604H11.618C11.4899 20.604 11.367 20.5531 11.2765 20.4625C11.1859 20.372 11.135 20.2491 11.135 20.121V11.435C11.135 11.3069 11.1859 11.184 11.2765 11.0935C11.367 11.0029 11.4899 10.952 11.618 10.952H30.326C30.401 10.9519 30.475 10.9693 30.542 11.003L37.298 15.346C37.3783 15.386 37.4458 15.4475 37.493 15.5237C37.5402 15.6 37.5652 15.6878 37.5652 15.7775C37.5652 15.8672 37.5402 15.955 37.493 16.0313C37.4458 16.1075 37.3783 16.169 37.298 16.209L30.544 20.553Z" fill="var(--fill-0, #2CA4A8)"/>
<path id="&#227;&#131;&#145;&#227;&#130;&#185; 233" d="M34.796 32.669C34.796 32.7971 34.7451 32.92 34.6545 33.0105C34.564 33.1011 34.4411 33.152 34.313 33.152H15.606C15.531 33.1521 15.457 33.1347 15.39 33.101L8.634 28.758C8.55373 28.718 8.4862 28.6565 8.439 28.5803C8.39179 28.504 8.36678 28.4162 8.36678 28.3265C8.36678 28.2368 8.39179 28.149 8.439 28.0727C8.4862 27.9965 8.55373 27.935 8.634 27.895L15.39 23.552C15.457 23.5183 15.531 23.5009 15.606 23.501H34.313C34.4411 23.501 34.564 23.5519 34.6545 23.6425C34.7451 23.733 34.796 23.8559 34.796 23.984V32.671V32.669Z" fill="var(--fill-0, #2CA4A8)"/>
<path id="&#227;&#131;&#145;&#227;&#130;&#185; 234" d="M15.469 17.338C15.4249 17.3061 15.3889 17.2643 15.3637 17.2161C15.3386 17.1678 15.325 17.1144 15.324 17.06C15.325 16.9696 15.3614 16.8832 15.4253 16.8193C15.4892 16.7554 15.5756 16.719 15.666 16.718C15.7414 16.7152 15.8152 16.7397 15.874 16.787C16.117 17.0025 16.4292 17.1238 16.754 17.129C16.8527 17.1399 16.9526 17.13 17.0472 17.0999C17.1418 17.0697 17.229 17.0201 17.3032 16.9541C17.3774 16.8881 17.4369 16.8072 17.4779 16.7168C17.5188 16.6263 17.5403 16.5283 17.541 16.429V16.417C17.541 16 17.194 15.746 16.702 15.746C16.4657 15.7624 16.2324 15.8091 16.008 15.885C15.8836 15.8776 15.7653 15.8286 15.672 15.746C15.6231 15.7109 15.5844 15.6634 15.5599 15.6084C15.5355 15.5534 15.5262 15.4928 15.533 15.433L15.624 13.971C15.6258 13.8861 15.6607 13.8053 15.7212 13.7457C15.7817 13.6861 15.8631 13.6525 15.948 13.652H17.783C17.8674 13.6525 17.9483 13.6863 18.008 13.746C18.0677 13.8057 18.1015 13.8866 18.102 13.971C18.1016 14.0125 18.093 14.0535 18.0768 14.0917C18.0606 14.1299 18.037 14.1645 18.0073 14.1936C17.9777 14.2226 17.9426 14.2456 17.9042 14.2611C17.8657 14.2766 17.8245 14.2844 17.783 14.284H16.257L16.193 15.233C16.3977 15.1538 16.6156 15.1144 16.835 15.117C17.0142 15.0938 17.1963 15.1098 17.3687 15.1636C17.5412 15.2175 17.7 15.3081 17.8341 15.4291C17.9683 15.5502 18.0746 15.6988 18.1459 15.8648C18.2172 16.0309 18.2517 16.2104 18.247 16.391V16.403C18.2491 16.5933 18.2114 16.7819 18.1362 16.9566C18.061 17.1314 17.95 17.2885 17.8104 17.4178C17.6707 17.547 17.5056 17.6456 17.3255 17.7071C17.1455 17.7687 16.9545 17.7918 16.765 17.775C16.2939 17.7814 15.835 17.6257 15.465 17.334L15.469 17.338Z" fill="var(--fill-0, white)"/>
<path id="&#227;&#131;&#145;&#227;&#130;&#185; 235" d="M20.848 13.981C20.848 13.8866 20.8855 13.796 20.9523 13.7293C21.019 13.6625 21.1096 13.625 21.204 13.625C21.2984 13.625 21.389 13.6625 21.4557 13.7293C21.5225 13.796 21.56 13.8866 21.56 13.981V15.694L23.482 13.761C23.5187 13.7175 23.5647 13.683 23.6167 13.6599C23.6687 13.6369 23.7252 13.626 23.782 13.628C23.8255 13.6275 23.8686 13.6356 23.9089 13.652C23.9492 13.6684 23.9858 13.6927 24.0165 13.7235C24.0473 13.7542 24.0716 13.7908 24.088 13.8311C24.1044 13.8714 24.1125 13.9145 24.112 13.958C24.1117 14.009 24.1002 14.0592 24.0782 14.1052C24.0563 14.1512 24.0245 14.1917 23.985 14.224L22.723 15.44L24.089 17.14C24.1524 17.2099 24.188 17.3006 24.189 17.395C24.189 17.4416 24.1797 17.4877 24.1615 17.5306C24.1433 17.5735 24.1167 17.6123 24.0832 17.6447C24.0497 17.6771 24.01 17.7024 23.9665 17.7191C23.923 17.7358 23.8766 17.7436 23.83 17.742C23.77 17.7412 23.7111 17.7253 23.6587 17.696C23.6063 17.6667 23.5621 17.6247 23.53 17.574L22.23 15.913L21.57 16.55V17.389C21.57 17.4834 21.5325 17.574 21.4657 17.6407C21.399 17.7075 21.3084 17.745 21.214 17.745C21.1196 17.745 21.029 17.7075 20.9623 17.6407C20.8955 17.574 20.858 17.4834 20.858 17.389V13.989L20.848 13.981Z" fill="var(--fill-0, white)"/>
<path id="&#227;&#131;&#145;&#227;&#130;&#185; 236" d="M24.896 14.971C24.8951 14.9249 24.9034 14.8791 24.9204 14.8362C24.9374 14.7934 24.9629 14.7543 24.9952 14.7214C25.0275 14.6886 25.0661 14.6625 25.1086 14.6447C25.1512 14.6269 25.1969 14.6179 25.243 14.618C25.2894 14.6177 25.3355 14.6267 25.3784 14.6443C25.4213 14.662 25.4604 14.688 25.4932 14.7208C25.526 14.7536 25.552 14.7927 25.5697 14.8356C25.5873 14.8785 25.5963 14.9246 25.596 14.971V15.116C25.6936 14.9561 25.8304 14.8237 25.9936 14.7315C26.1567 14.6392 26.3406 14.5902 26.528 14.589C26.7163 14.5802 26.903 14.6264 27.0655 14.7219C27.228 14.8174 27.3592 14.9582 27.443 15.127C27.557 14.9593 27.7107 14.8224 27.8904 14.7286C28.0701 14.6347 28.2703 14.5868 28.473 14.589C28.6243 14.581 28.7756 14.6066 28.9158 14.664C29.0561 14.7214 29.1819 14.8091 29.2843 14.9208C29.3867 15.0326 29.4631 15.1656 29.508 15.3103C29.5529 15.4551 29.5652 15.6079 29.544 15.758V17.39C29.5448 17.4358 29.5364 17.4813 29.5192 17.5237C29.5021 17.5662 29.4766 17.6048 29.4442 17.6372C29.4118 17.6696 29.3732 17.6951 29.3307 17.7122C29.2883 17.7294 29.2428 17.7378 29.197 17.737C29.1509 17.7379 29.1051 17.7296 29.0622 17.7126C29.0194 17.6956 28.9803 17.6701 28.9474 17.6378C28.9146 17.6055 28.8885 17.5669 28.8707 17.5244C28.8529 17.4818 28.8439 17.4361 28.844 17.39V15.972C28.844 15.486 28.618 15.225 28.225 15.225C27.832 15.225 27.571 15.491 27.571 15.983V17.389C27.571 17.4818 27.5341 17.5708 27.4685 17.6365C27.4029 17.7021 27.3138 17.739 27.221 17.739C27.1282 17.739 27.0392 17.7021 26.9735 17.6365C26.9079 17.5708 26.871 17.4818 26.871 17.389V15.967C26.871 15.493 26.639 15.226 26.252 15.226C26.1573 15.227 26.0639 15.2481 25.978 15.2879C25.8921 15.3278 25.8156 15.3855 25.7537 15.4572C25.6919 15.529 25.646 15.613 25.6191 15.7038C25.5923 15.7947 25.5851 15.8902 25.598 15.984V17.39C25.598 17.4828 25.5611 17.5718 25.4955 17.6375C25.4298 17.7031 25.3408 17.74 25.248 17.74C25.1552 17.74 25.0662 17.7031 25.0005 17.6375C24.9349 17.5718 24.898 17.4828 24.898 17.39V14.97L24.896 14.971Z" fill="var(--fill-0, white)"/>
<path id="&#227;&#131;&#145;&#227;&#130;&#185; 237" d="M16.116 29.99C16.0648 29.9588 16.0229 29.9146 15.9944 29.8619C15.9659 29.8092 15.952 29.7499 15.954 29.69C15.9542 29.6465 15.9632 29.6035 15.9803 29.5635C15.9974 29.5235 16.0224 29.4874 16.0537 29.4572C16.085 29.427 16.1221 29.4034 16.1626 29.3877C16.2032 29.372 16.2465 29.3647 16.29 29.366C16.3608 29.366 16.4302 29.3861 16.49 29.424C16.7028 29.5864 16.9633 29.6739 17.231 29.673C17.831 29.673 18.186 29.146 18.209 28.399C18.0934 28.5374 17.948 28.6478 17.7836 28.722C17.6193 28.7961 17.4402 28.832 17.26 28.827C17.0791 28.8484 16.8956 28.8311 16.7219 28.7762C16.5482 28.7213 16.3881 28.63 16.2524 28.5085C16.1167 28.3869 16.0084 28.2379 15.9347 28.0712C15.861 27.9046 15.8236 27.7242 15.825 27.542V27.53C15.8257 27.3368 15.8662 27.1459 15.9438 26.969C16.0215 26.7921 16.1347 26.633 16.2764 26.5017C16.4181 26.3705 16.5853 26.2697 16.7675 26.2057C16.9498 26.1418 17.1433 26.116 17.336 26.13C17.5437 26.1177 17.7517 26.1495 17.9463 26.2233C18.1408 26.297 18.3176 26.4111 18.465 26.558C18.6467 26.769 18.7835 27.0148 18.8671 27.2805C18.9506 27.5461 18.9792 27.826 18.951 28.103V28.115C18.951 29.415 18.309 30.321 17.215 30.321C16.8238 30.3273 16.4407 30.2101 16.12 29.986L16.116 29.99ZM18.181 27.502V27.49C18.1789 27.384 18.1549 27.2796 18.1104 27.1834C18.0659 27.0872 18.0019 27.0012 17.9225 26.931C17.8431 26.8608 17.7499 26.8078 17.649 26.7755C17.548 26.7431 17.4414 26.732 17.336 26.743C17.233 26.7352 17.1295 26.749 17.0322 26.7834C16.9348 26.8178 16.8456 26.872 16.7704 26.9428C16.6951 27.0135 16.6354 27.0992 16.5951 27.1942C16.5547 27.2893 16.5346 27.3917 16.536 27.495V27.507C16.5376 27.6106 16.561 27.7127 16.6046 27.8067C16.6483 27.9007 16.7111 27.9845 16.7892 28.0527C16.8672 28.1208 16.9587 28.1718 17.0578 28.2024C17.1568 28.2329 17.2611 28.2423 17.364 28.23C17.4662 28.2393 17.5692 28.2276 17.6666 28.1955C17.7641 28.1634 17.8539 28.1116 17.9305 28.0433C18.0071 27.9751 18.0689 27.8918 18.112 27.7987C18.1551 27.7056 18.1785 27.6046 18.181 27.502Z" fill="var(--fill-0, white)"/>
<path id="&#227;&#131;&#145;&#227;&#130;&#185; 238" d="M21.536 26.529C21.536 26.4346 21.5735 26.344 21.6403 26.2773C21.707 26.2105 21.7976 26.173 21.892 26.173C21.9864 26.173 22.077 26.2105 22.1437 26.2773C22.2105 26.344 22.248 26.4346 22.248 26.529V28.242L24.17 26.307C24.2067 26.2635 24.2527 26.229 24.3047 26.2059C24.3567 26.1829 24.4132 26.172 24.47 26.174C24.5135 26.1735 24.5566 26.1816 24.5969 26.198C24.6372 26.2144 24.6738 26.2387 24.7045 26.2695C24.7353 26.3002 24.7596 26.3368 24.776 26.3771C24.7924 26.4174 24.8005 26.4605 24.8 26.504C24.7997 26.555 24.7882 26.6052 24.7662 26.6512C24.7443 26.6972 24.7124 26.7377 24.673 26.77L23.406 27.988L24.772 29.688C24.8354 29.7579 24.871 29.8486 24.872 29.943C24.872 29.9896 24.8627 30.0357 24.8445 30.0786C24.8263 30.1215 24.7997 30.1603 24.7662 30.1927C24.7327 30.2251 24.693 30.2504 24.6495 30.2671C24.606 30.2838 24.5596 30.2916 24.513 30.29C24.453 30.2892 24.3941 30.2733 24.3417 30.244C24.2893 30.2147 24.2451 30.1727 24.213 30.122L22.913 28.46L22.253 29.097V29.936C22.253 30.0304 22.2155 30.121 22.1487 30.1877C22.082 30.2545 21.9914 30.292 21.897 30.292C21.8026 30.292 21.712 30.2545 21.6453 30.1877C21.5785 30.121 21.541 30.0304 21.541 29.936V26.536L21.536 26.529Z" fill="var(--fill-0, white)"/>
<path id="&#227;&#131;&#145;&#227;&#130;&#185; 239" d="M25.584 27.517C25.5831 27.4709 25.5914 27.4251 25.6084 27.3822C25.6254 27.3394 25.6509 27.3003 25.6832 27.2674C25.7155 27.2346 25.7541 27.2085 25.7966 27.1907C25.8392 27.1729 25.8849 27.1639 25.931 27.164C25.9774 27.1637 26.0235 27.1727 26.0664 27.1903C26.1093 27.208 26.1484 27.234 26.1812 27.2668C26.214 27.2996 26.24 27.3387 26.2577 27.3816C26.2753 27.4245 26.2843 27.4706 26.284 27.517V27.662C26.3816 27.502 26.5184 27.3697 26.6816 27.2775C26.8447 27.1852 27.0286 27.1362 27.216 27.135C27.4043 27.1262 27.591 27.1724 27.7535 27.2679C27.916 27.3634 28.0472 27.5042 28.131 27.673C28.245 27.5054 28.3988 27.3686 28.5785 27.2747C28.7582 27.1808 28.9583 27.1328 29.161 27.135C29.3123 27.127 29.4636 27.1526 29.6038 27.21C29.7441 27.2674 29.8699 27.3551 29.9723 27.4668C30.0747 27.5786 30.1511 27.7116 30.196 27.8563C30.2409 28.0011 30.2532 28.1539 30.232 28.304V29.936C30.2328 29.9818 30.2244 30.0273 30.2072 30.0697C30.1901 30.1122 30.1646 30.1508 30.1322 30.1832C30.0998 30.2156 30.0612 30.2411 30.0187 30.2582C29.9763 30.2754 29.9308 30.2838 29.885 30.283C29.8389 30.2839 29.7931 30.2756 29.7502 30.2586C29.7074 30.2416 29.6683 30.2161 29.6354 30.1838C29.6026 30.1515 29.5765 30.1129 29.5587 30.0704C29.5409 30.0278 29.5319 29.9821 29.532 29.936V28.517C29.532 28.031 29.306 27.77 28.913 27.77C28.52 27.77 28.259 28.036 28.259 28.528V29.934C28.259 30.0268 28.2221 30.1158 28.1565 30.1815C28.0908 30.2471 28.0018 30.284 27.909 30.284C27.8162 30.284 27.7272 30.2471 27.6615 30.1815C27.5959 30.1158 27.559 30.0268 27.559 29.934V28.517C27.559 28.043 27.327 27.776 26.94 27.776C26.8453 27.777 26.7519 27.7981 26.666 27.8379C26.5801 27.8778 26.5036 27.9355 26.4417 28.0072C26.3799 28.079 26.334 28.163 26.3071 28.2538C26.2803 28.3447 26.2731 28.4402 26.286 28.534V29.94C26.286 30.0328 26.2491 30.1218 26.1835 30.1875C26.1178 30.2531 26.0288 30.29 25.936 30.29C25.8432 30.29 25.7542 30.2531 25.6885 30.1875C25.6229 30.1218 25.586 30.0328 25.586 29.94V27.517H25.584Z" fill="var(--fill-0, white)"/>
</g>
</svg>
